ISO-10303-21;
HEADER;
FILE_DESCRIPTION(('FreeCAD Model'),'2;1');
FILE_NAME('Open CASCADE Shape Model','2026-09-13T19:05:23',(''),(''),
  'Open CASCADE STEP processor 7.8','FreeCAD','Unknown');
FILE_SCHEMA(('AUTOMOTIVE_DESIGN { 1 0 10303 214 1 1 1 1 }'));
ENDSEC;
DATA;
#1 = APPLICATION_PROTOCOL_DEFINITION('international standard',
  'automotive_design',2000,#2);
#2 = APPLICATION_CONTEXT(
  'core data for automotive mechanical design processes');
#3 = SHAPE_DEFINITION_REPRESENTATION(#4,#10);
#4 = PRODUCT_DEFINITION_SHAPE('','',#5);
#5 = PRODUCT_DEFINITION('design','',#6,#9);
#6 = PRODUCT_DEFINITION_FORMATION('','',#7);
#7 = PRODUCT('Solenoid Cover','Solenoid Cover','',(#8));
#8 = PRODUCT_CONTEXT('',#2,'mechanical');
#9 = PRODUCT_DEFINITION_CONTEXT('part definition',#2,'design');
#10 = ADVANCED_BREP_SHAPE_REPRESENTATION('',(#11,#15),#1540);
#11 = AXIS2_PLACEMENT_3D('',#12,#13,#14);
#12 = CARTESIAN_POINT('',(0.,0.,0.));
#13 = DIRECTION('',(0.,0.,1.));
#14 = DIRECTION('',(1.,0.,-0.));
#15 = MANIFOLD_SOLID_BREP('',#16);
#16 = CLOSED_SHELL('',(#17,#140,#165,#198,#231,#264,#297,#330,#363,#389,
    #422,#447,#465,#490,#515,#540,#557,#588,#605,#622,#653,#684,#701,
    #718,#749,#780,#797,#828,#853,#884,#908,#926,#951,#976,#1001,#1019,
    #1052,#1070,#1088,#1119,#1150,#1168,#1186,#1217,#1248,#1266,#1297,
    #1323,#1354,#1379,#1397,#1422,#1447,#1474,#1485,#1496,#1507,#1518,
    #1529));
#17 = ADVANCED_FACE('',(#18,#29,#113,#124),#135,.F.);
#18 = FACE_BOUND('',#19,.F.);
#19 = EDGE_LOOP('',(#20));
#20 = ORIENTED_EDGE('',*,*,#21,.F.);
#21 = EDGE_CURVE('',#22,#22,#24,.T.);
#22 = VERTEX_POINT('',#23);
#23 = CARTESIAN_POINT('',(7.8,-23.625,0.));
#24 = CIRCLE('',#25,2.3);
#25 = AXIS2_PLACEMENT_3D('',#26,#27,#28);
#26 = CARTESIAN_POINT('',(5.5,-23.625,0.));
#27 = DIRECTION('',(0.,0.,1.));
#28 = DIRECTION('',(1.,0.,-0.));
#29 = FACE_BOUND('',#30,.F.);
#30 = EDGE_LOOP('',(#31,#41,#49,#57,#66,#74,#83,#91,#99,#107));
#31 = ORIENTED_EDGE('',*,*,#32,.T.);
#32 = EDGE_CURVE('',#33,#35,#37,.T.);
#33 = VERTEX_POINT('',#34);
#34 = CARTESIAN_POINT('',(1.,-1.,0.));
#35 = VERTEX_POINT('',#36);
#36 = CARTESIAN_POINT('',(1.,-26.,0.));
#37 = LINE('',#38,#39);
#38 = CARTESIAN_POINT('',(1.,-1.,-2.2E-16));
#39 = VECTOR('',#40,1.);
#40 = DIRECTION('',(0.,-1.,0.));
#41 = ORIENTED_EDGE('',*,*,#42,.T.);
#42 = EDGE_CURVE('',#35,#43,#45,.T.);
#43 = VERTEX_POINT('',#44);
#44 = CARTESIAN_POINT('',(11.95,-26.,0.));
#45 = LINE('',#46,#47);
#46 = CARTESIAN_POINT('',(1.,-26.,-2.2E-16));
#47 = VECTOR('',#48,1.);
#48 = DIRECTION('',(1.,0.,0.));
#49 = ORIENTED_EDGE('',*,*,#50,.T.);
#50 = EDGE_CURVE('',#43,#51,#53,.T.);
#51 = VERTEX_POINT('',#52);
#52 = CARTESIAN_POINT('',(11.95,-21.25,0.));
#53 = LINE('',#54,#55);
#54 = CARTESIAN_POINT('',(11.95,-26.,-2.2E-16));
#55 = VECTOR('',#56,1.);
#56 = DIRECTION('',(0.,1.,0.));
#57 = ORIENTED_EDGE('',*,*,#58,.T.);
#58 = EDGE_CURVE('',#51,#59,#61,.T.);
#59 = VERTEX_POINT('',#60);
#60 = CARTESIAN_POINT('',(13.95,-19.25,0.));
#61 = CIRCLE('',#62,2.);
#62 = AXIS2_PLACEMENT_3D('',#63,#64,#65);
#63 = CARTESIAN_POINT('',(13.95,-21.25,0.));
#64 = DIRECTION('',(0.,0.,-1.));
#65 = DIRECTION('',(-1.,0.,0.));
#66 = ORIENTED_EDGE('',*,*,#67,.T.);
#67 = EDGE_CURVE('',#59,#68,#70,.T.);
#68 = VERTEX_POINT('',#69);
#69 = CARTESIAN_POINT('',(19.05,-19.25,0.));
#70 = LINE('',#71,#72);
#71 = CARTESIAN_POINT('',(13.95,-19.25,-2.2E-16));
#72 = VECTOR('',#73,1.);
#73 = DIRECTION('',(1.,0.,0.));
#74 = ORIENTED_EDGE('',*,*,#75,.T.);
#75 = EDGE_CURVE('',#68,#76,#78,.T.);
#76 = VERTEX_POINT('',#77);
#77 = CARTESIAN_POINT('',(21.05,-21.25,0.));
#78 = CIRCLE('',#79,2.);
#79 = AXIS2_PLACEMENT_3D('',#80,#81,#82);
#80 = CARTESIAN_POINT('',(19.05,-21.25,0.));
#81 = DIRECTION('',(0.,0.,-1.));
#82 = DIRECTION('',(0.,1.,0.));
#83 = ORIENTED_EDGE('',*,*,#84,.T.);
#84 = EDGE_CURVE('',#76,#85,#87,.T.);
#85 = VERTEX_POINT('',#86);
#86 = CARTESIAN_POINT('',(21.05,-26.,0.));
#87 = LINE('',#88,#89);
#88 = CARTESIAN_POINT('',(21.05,-21.25,-2.2E-16));
#89 = VECTOR('',#90,1.);
#90 = DIRECTION('',(-0.,-1.,-0.));
#91 = ORIENTED_EDGE('',*,*,#92,.T.);
#92 = EDGE_CURVE('',#85,#93,#95,.T.);
#93 = VERTEX_POINT('',#94);
#94 = CARTESIAN_POINT('',(32.,-26.,0.));
#95 = LINE('',#96,#97);
#96 = CARTESIAN_POINT('',(21.05,-26.,-2.2E-16));
#97 = VECTOR('',#98,1.);
#98 = DIRECTION('',(1.,0.,0.));
#99 = ORIENTED_EDGE('',*,*,#100,.T.);
#100 = EDGE_CURVE('',#93,#101,#103,.T.);
#101 = VERTEX_POINT('',#102);
#102 = CARTESIAN_POINT('',(32.,-1.,0.));
#103 = LINE('',#104,#105);
#104 = CARTESIAN_POINT('',(32.,-26.,-2.2E-16));
#105 = VECTOR('',#106,1.);
#106 = DIRECTION('',(0.,1.,0.));
#107 = ORIENTED_EDGE('',*,*,#108,.T.);
#108 = EDGE_CURVE('',#101,#33,#109,.T.);
#109 = LINE('',#110,#111);
#110 = CARTESIAN_POINT('',(32.,-1.,-2.2E-16));
#111 = VECTOR('',#112,1.);
#112 = DIRECTION('',(-1.,0.,0.));
#113 = FACE_BOUND('',#114,.F.);
#114 = EDGE_LOOP('',(#115));
#115 = ORIENTED_EDGE('',*,*,#116,.F.);
#116 = EDGE_CURVE('',#117,#117,#119,.T.);
#117 = VERTEX_POINT('',#118);
#118 = CARTESIAN_POINT('',(18.8,-3.375,0.));
#119 = CIRCLE('',#120,2.3);
#120 = AXIS2_PLACEMENT_3D('',#121,#122,#123);
#121 = CARTESIAN_POINT('',(16.5,-3.375,0.));
#122 = DIRECTION('',(0.,0.,1.));
#123 = DIRECTION('',(1.,0.,-0.));
#124 = FACE_BOUND('',#125,.F.);
#125 = EDGE_LOOP('',(#126));
#126 = ORIENTED_EDGE('',*,*,#127,.F.);
#127 = EDGE_CURVE('',#128,#128,#130,.T.);
#128 = VERTEX_POINT('',#129);
#129 = CARTESIAN_POINT('',(29.8,-23.625,0.));
#130 = CIRCLE('',#131,2.3);
#131 = AXIS2_PLACEMENT_3D('',#132,#133,#134);
#132 = CARTESIAN_POINT('',(27.5,-23.625,0.));
#133 = DIRECTION('',(0.,0.,1.));
#134 = DIRECTION('',(1.,0.,-0.));
#135 = PLANE('',#136);
#136 = AXIS2_PLACEMENT_3D('',#137,#138,#139);
#137 = CARTESIAN_POINT('',(16.5,-14.63557353398,0.));
#138 = DIRECTION('',(0.,0.,1.));
#139 = DIRECTION('',(1.,0.,0.));
#140 = ADVANCED_FACE('',(#141),#160,.F.);
#141 = FACE_BOUND('',#142,.F.);
#142 = EDGE_LOOP('',(#143,#151,#152,#153));
#143 = ORIENTED_EDGE('',*,*,#144,.F.);
#144 = EDGE_CURVE('',#22,#145,#147,.T.);
#145 = VERTEX_POINT('',#146);
#146 = CARTESIAN_POINT('',(7.3,-23.625,0.5));
#147 = LINE('',#148,#149);
#148 = CARTESIAN_POINT('',(7.3,-23.625,0.5));
#149 = VECTOR('',#150,1.);
#150 = DIRECTION('',(-0.707106781187,0.,0.707106781187));
#151 = ORIENTED_EDGE('',*,*,#21,.T.);
#152 = ORIENTED_EDGE('',*,*,#144,.T.);
#153 = ORIENTED_EDGE('',*,*,#154,.F.);
#154 = EDGE_CURVE('',#145,#145,#155,.T.);
#155 = CIRCLE('',#156,1.8);
#156 = AXIS2_PLACEMENT_3D('',#157,#158,#159);
#157 = CARTESIAN_POINT('',(5.5,-23.625,0.5));
#158 = DIRECTION('',(0.,0.,1.));
#159 = DIRECTION('',(1.,0.,-0.));
#160 = CONICAL_SURFACE('',#161,1.8,0.785398163397);
#161 = AXIS2_PLACEMENT_3D('',#162,#163,#164);
#162 = CARTESIAN_POINT('',(5.5,-23.625,0.5));
#163 = DIRECTION('',(-0.,-0.,-1.));
#164 = DIRECTION('',(1.,0.,-0.));
#165 = ADVANCED_FACE('',(#166),#193,.T.);
#166 = FACE_BOUND('',#167,.F.);
#167 = EDGE_LOOP('',(#168,#177,#185,#192));
#168 = ORIENTED_EDGE('',*,*,#169,.T.);
#169 = EDGE_CURVE('',#33,#170,#172,.T.);
#170 = VERTEX_POINT('',#171);
#171 = CARTESIAN_POINT('',(0.,-1.,1.));
#172 = CIRCLE('',#173,1.);
#173 = AXIS2_PLACEMENT_3D('',#174,#175,#176);
#174 = CARTESIAN_POINT('',(1.,-1.,1.));
#175 = DIRECTION('',(0.,1.,0.));
#176 = DIRECTION('',(0.,0.,-1.));
#177 = ORIENTED_EDGE('',*,*,#178,.T.);
#178 = EDGE_CURVE('',#170,#179,#181,.T.);
#179 = VERTEX_POINT('',#180);
#180 = CARTESIAN_POINT('',(0.,-26.,1.));
#181 = LINE('',#182,#183);
#182 = CARTESIAN_POINT('',(-2.2E-16,-1.,1.));
#183 = VECTOR('',#184,1.);
#184 = DIRECTION('',(0.,-1.,0.));
#185 = ORIENTED_EDGE('',*,*,#186,.F.);
#186 = EDGE_CURVE('',#35,#179,#187,.T.);
#187 = CIRCLE('',#188,1.);
#188 = AXIS2_PLACEMENT_3D('',#189,#190,#191);
#189 = CARTESIAN_POINT('',(1.,-26.,1.));
#190 = DIRECTION('',(0.,1.,0.));
#191 = DIRECTION('',(0.,0.,-1.));
#192 = ORIENTED_EDGE('',*,*,#32,.F.);
#193 = CYLINDRICAL_SURFACE('',#194,1.);
#194 = AXIS2_PLACEMENT_3D('',#195,#196,#197);
#195 = CARTESIAN_POINT('',(1.,-1.,1.));
#196 = DIRECTION('',(0.,-1.,0.));
#197 = DIRECTION('',(-0.,-0.,-1.));
#198 = ADVANCED_FACE('',(#199),#226,.T.);
#199 = FACE_BOUND('',#200,.F.);
#200 = EDGE_LOOP('',(#201,#210,#218,#225));
#201 = ORIENTED_EDGE('',*,*,#202,.T.);
#202 = EDGE_CURVE('',#101,#203,#205,.T.);
#203 = VERTEX_POINT('',#204);
#204 = CARTESIAN_POINT('',(32.,0.,1.));
#205 = CIRCLE('',#206,1.);
#206 = AXIS2_PLACEMENT_3D('',#207,#208,#209);
#207 = CARTESIAN_POINT('',(32.,-1.,1.));
#208 = DIRECTION('',(1.,1.6E-16,-0.));
#209 = DIRECTION('',(-1.6E-16,1.,0.));
#210 = ORIENTED_EDGE('',*,*,#211,.T.);
#211 = EDGE_CURVE('',#203,#212,#214,.T.);
#212 = VERTEX_POINT('',#213);
#213 = CARTESIAN_POINT('',(1.,0.,1.));
#214 = LINE('',#215,#216);
#215 = CARTESIAN_POINT('',(32.,2.2E-16,1.));
#216 = VECTOR('',#217,1.);
#217 = DIRECTION('',(-1.,0.,0.));
#218 = ORIENTED_EDGE('',*,*,#219,.F.);
#219 = EDGE_CURVE('',#33,#212,#220,.T.);
#220 = CIRCLE('',#221,1.);
#221 = AXIS2_PLACEMENT_3D('',#222,#223,#224);
#222 = CARTESIAN_POINT('',(1.,-1.,1.));
#223 = DIRECTION('',(1.,-0.,0.));
#224 = DIRECTION('',(0.,0.,-1.));
#225 = ORIENTED_EDGE('',*,*,#108,.F.);
#226 = CYLINDRICAL_SURFACE('',#227,1.);
#227 = AXIS2_PLACEMENT_3D('',#228,#229,#230);
#228 = CARTESIAN_POINT('',(32.,-1.,1.));
#229 = DIRECTION('',(-1.,0.,0.));
#230 = DIRECTION('',(0.,0.,-1.));
#231 = ADVANCED_FACE('',(#232),#259,.T.);
#232 = FACE_BOUND('',#233,.F.);
#233 = EDGE_LOOP('',(#234,#243,#251,#258));
#234 = ORIENTED_EDGE('',*,*,#235,.T.);
#235 = EDGE_CURVE('',#35,#236,#238,.T.);
#236 = VERTEX_POINT('',#237);
#237 = CARTESIAN_POINT('',(1.,-27.,1.));
#238 = CIRCLE('',#239,1.);
#239 = AXIS2_PLACEMENT_3D('',#240,#241,#242);
#240 = CARTESIAN_POINT('',(1.,-26.,1.));
#241 = DIRECTION('',(-1.,6.E-17,0.));
#242 = DIRECTION('',(-6.E-17,-1.,0.));
#243 = ORIENTED_EDGE('',*,*,#244,.T.);
#244 = EDGE_CURVE('',#236,#245,#247,.T.);
#245 = VERTEX_POINT('',#246);
#246 = CARTESIAN_POINT('',(11.95,-27.,1.));
#247 = LINE('',#248,#249);
#248 = CARTESIAN_POINT('',(1.,-27.,1.));
#249 = VECTOR('',#250,1.);
#250 = DIRECTION('',(1.,0.,0.));
#251 = ORIENTED_EDGE('',*,*,#252,.F.);
#252 = EDGE_CURVE('',#43,#245,#253,.T.);
#253 = CIRCLE('',#254,1.);
#254 = AXIS2_PLACEMENT_3D('',#255,#256,#257);
#255 = CARTESIAN_POINT('',(11.95,-26.,1.));
#256 = DIRECTION('',(-1.,-0.,-0.));
#257 = DIRECTION('',(0.,0.,-1.));
#258 = ORIENTED_EDGE('',*,*,#42,.F.);
#259 = CYLINDRICAL_SURFACE('',#260,1.);
#260 = AXIS2_PLACEMENT_3D('',#261,#262,#263);
#261 = CARTESIAN_POINT('',(1.,-26.,1.));
#262 = DIRECTION('',(1.,0.,0.));
#263 = DIRECTION('',(0.,0.,-1.));
#264 = ADVANCED_FACE('',(#265),#292,.T.);
#265 = FACE_BOUND('',#266,.F.);
#266 = EDGE_LOOP('',(#267,#276,#284,#291));
#267 = ORIENTED_EDGE('',*,*,#268,.T.);
#268 = EDGE_CURVE('',#93,#269,#271,.T.);
#269 = VERTEX_POINT('',#270);
#270 = CARTESIAN_POINT('',(33.,-26.,1.));
#271 = CIRCLE('',#272,1.);
#272 = AXIS2_PLACEMENT_3D('',#273,#274,#275);
#273 = CARTESIAN_POINT('',(32.,-26.,1.));
#274 = DIRECTION('',(-6.E-17,-1.,0.));
#275 = DIRECTION('',(1.,-6.E-17,0.));
#276 = ORIENTED_EDGE('',*,*,#277,.T.);
#277 = EDGE_CURVE('',#269,#278,#280,.T.);
#278 = VERTEX_POINT('',#279);
#279 = CARTESIAN_POINT('',(33.,-1.,1.));
#280 = LINE('',#281,#282);
#281 = CARTESIAN_POINT('',(33.,-26.,1.));
#282 = VECTOR('',#283,1.);
#283 = DIRECTION('',(0.,1.,0.));
#284 = ORIENTED_EDGE('',*,*,#285,.F.);
#285 = EDGE_CURVE('',#101,#278,#286,.T.);
#286 = CIRCLE('',#287,1.);
#287 = AXIS2_PLACEMENT_3D('',#288,#289,#290);
#288 = CARTESIAN_POINT('',(32.,-1.,1.));
#289 = DIRECTION('',(0.,-1.,0.));
#290 = DIRECTION('',(0.,0.,-1.));
#291 = ORIENTED_EDGE('',*,*,#100,.F.);
#292 = CYLINDRICAL_SURFACE('',#293,1.);
#293 = AXIS2_PLACEMENT_3D('',#294,#295,#296);
#294 = CARTESIAN_POINT('',(32.,-26.,1.));
#295 = DIRECTION('',(0.,1.,0.));
#296 = DIRECTION('',(0.,0.,-1.));
#297 = ADVANCED_FACE('',(#298),#325,.T.);
#298 = FACE_BOUND('',#299,.F.);
#299 = EDGE_LOOP('',(#300,#309,#317,#324));
#300 = ORIENTED_EDGE('',*,*,#301,.T.);
#301 = EDGE_CURVE('',#43,#302,#304,.T.);
#302 = VERTEX_POINT('',#303);
#303 = CARTESIAN_POINT('',(12.95,-26.,1.));
#304 = CIRCLE('',#305,1.);
#305 = AXIS2_PLACEMENT_3D('',#306,#307,#308);
#306 = CARTESIAN_POINT('',(11.95,-26.,1.));
#307 = DIRECTION('',(-6.E-17,-1.,0.));
#308 = DIRECTION('',(1.,-6.E-17,0.));
#309 = ORIENTED_EDGE('',*,*,#310,.T.);
#310 = EDGE_CURVE('',#302,#311,#313,.T.);
#311 = VERTEX_POINT('',#312);
#312 = CARTESIAN_POINT('',(12.95,-21.25,1.));
#313 = LINE('',#314,#315);
#314 = CARTESIAN_POINT('',(12.95,-26.,1.));
#315 = VECTOR('',#316,1.);
#316 = DIRECTION('',(0.,1.,0.));
#317 = ORIENTED_EDGE('',*,*,#318,.F.);
#318 = EDGE_CURVE('',#51,#311,#319,.T.);
#319 = CIRCLE('',#320,1.);
#320 = AXIS2_PLACEMENT_3D('',#321,#322,#323);
#321 = CARTESIAN_POINT('',(11.95,-21.25,1.));
#322 = DIRECTION('',(0.,-1.,0.));
#323 = DIRECTION('',(0.,0.,-1.));
#324 = ORIENTED_EDGE('',*,*,#50,.F.);
#325 = CYLINDRICAL_SURFACE('',#326,1.);
#326 = AXIS2_PLACEMENT_3D('',#327,#328,#329);
#327 = CARTESIAN_POINT('',(11.95,-26.,1.));
#328 = DIRECTION('',(0.,1.,0.));
#329 = DIRECTION('',(0.,0.,-1.));
#330 = ADVANCED_FACE('',(#331),#358,.T.);
#331 = FACE_BOUND('',#332,.F.);
#332 = EDGE_LOOP('',(#333,#342,#350,#357));
#333 = ORIENTED_EDGE('',*,*,#334,.T.);
#334 = EDGE_CURVE('',#85,#335,#337,.T.);
#335 = VERTEX_POINT('',#336);
#336 = CARTESIAN_POINT('',(21.05,-27.,1.));
#337 = CIRCLE('',#338,1.);
#338 = AXIS2_PLACEMENT_3D('',#339,#340,#341);
#339 = CARTESIAN_POINT('',(21.05,-26.,1.));
#340 = DIRECTION('',(-1.,6.E-17,0.));
#341 = DIRECTION('',(-6.E-17,-1.,0.));
#342 = ORIENTED_EDGE('',*,*,#343,.T.);
#343 = EDGE_CURVE('',#335,#344,#346,.T.);
#344 = VERTEX_POINT('',#345);
#345 = CARTESIAN_POINT('',(32.,-27.,1.));
#346 = LINE('',#347,#348);
#347 = CARTESIAN_POINT('',(21.05,-27.,1.));
#348 = VECTOR('',#349,1.);
#349 = DIRECTION('',(1.,0.,0.));
#350 = ORIENTED_EDGE('',*,*,#351,.F.);
#351 = EDGE_CURVE('',#93,#344,#352,.T.);
#352 = CIRCLE('',#353,1.);
#353 = AXIS2_PLACEMENT_3D('',#354,#355,#356);
#354 = CARTESIAN_POINT('',(32.,-26.,1.));
#355 = DIRECTION('',(-1.,-0.,-0.));
#356 = DIRECTION('',(0.,0.,-1.));
#357 = ORIENTED_EDGE('',*,*,#92,.F.);
#358 = CYLINDRICAL_SURFACE('',#359,1.);
#359 = AXIS2_PLACEMENT_3D('',#360,#361,#362);
#360 = CARTESIAN_POINT('',(21.05,-26.,1.));
#361 = DIRECTION('',(1.,0.,0.));
#362 = DIRECTION('',(0.,0.,-1.));
#363 = ADVANCED_FACE('',(#364),#384,.T.);
#364 = FACE_BOUND('',#365,.T.);
#365 = EDGE_LOOP('',(#366,#367,#368,#377));
#366 = ORIENTED_EDGE('',*,*,#318,.F.);
#367 = ORIENTED_EDGE('',*,*,#58,.T.);
#368 = ORIENTED_EDGE('',*,*,#369,.T.);
#369 = EDGE_CURVE('',#59,#370,#372,.T.);
#370 = VERTEX_POINT('',#371);
#371 = CARTESIAN_POINT('',(13.95,-20.25,1.));
#372 = CIRCLE('',#373,1.);
#373 = AXIS2_PLACEMENT_3D('',#374,#375,#376);
#374 = CARTESIAN_POINT('',(13.95,-19.25,1.));
#375 = DIRECTION('',(-1.,-6.E-17,-0.));
#376 = DIRECTION('',(-6.E-17,1.,0.));
#377 = ORIENTED_EDGE('',*,*,#378,.F.);
#378 = EDGE_CURVE('',#311,#370,#379,.T.);
#379 = CIRCLE('',#380,1.);
#380 = AXIS2_PLACEMENT_3D('',#381,#382,#383);
#381 = CARTESIAN_POINT('',(13.95,-21.25,1.));
#382 = DIRECTION('',(0.,0.,-1.));
#383 = DIRECTION('',(-1.,0.,0.));
#384 = TOROIDAL_SURFACE('',#385,2.,1.);
#385 = AXIS2_PLACEMENT_3D('',#386,#387,#388);
#386 = CARTESIAN_POINT('',(13.95,-21.25,1.));
#387 = DIRECTION('',(-0.,-0.,-1.));
#388 = DIRECTION('',(-1.,0.,0.));
#389 = ADVANCED_FACE('',(#390),#417,.T.);
#390 = FACE_BOUND('',#391,.F.);
#391 = EDGE_LOOP('',(#392,#401,#409,#416));
#392 = ORIENTED_EDGE('',*,*,#393,.T.);
#393 = EDGE_CURVE('',#76,#394,#396,.T.);
#394 = VERTEX_POINT('',#395);
#395 = CARTESIAN_POINT('',(20.05,-21.25,1.));
#396 = CIRCLE('',#397,1.);
#397 = AXIS2_PLACEMENT_3D('',#398,#399,#400);
#398 = CARTESIAN_POINT('',(21.05,-21.25,1.));
#399 = DIRECTION('',(-6.E-17,1.,0.));
#400 = DIRECTION('',(1.,6.E-17,0.));
#401 = ORIENTED_EDGE('',*,*,#402,.T.);
#402 = EDGE_CURVE('',#394,#403,#405,.T.);
#403 = VERTEX_POINT('',#404);
#404 = CARTESIAN_POINT('',(20.05,-26.,1.));
#405 = LINE('',#406,#407);
#406 = CARTESIAN_POINT('',(20.05,-21.25,1.));
#407 = VECTOR('',#408,1.);
#408 = DIRECTION('',(-0.,-1.,-0.));
#409 = ORIENTED_EDGE('',*,*,#410,.F.);
#410 = EDGE_CURVE('',#85,#403,#411,.T.);
#411 = CIRCLE('',#412,1.);
#412 = AXIS2_PLACEMENT_3D('',#413,#414,#415);
#413 = CARTESIAN_POINT('',(21.05,-26.,1.));
#414 = DIRECTION('',(0.,1.,0.));
#415 = DIRECTION('',(0.,0.,-1.));
#416 = ORIENTED_EDGE('',*,*,#84,.F.);
#417 = CYLINDRICAL_SURFACE('',#418,1.);
#418 = AXIS2_PLACEMENT_3D('',#419,#420,#421);
#419 = CARTESIAN_POINT('',(21.05,-21.25,1.));
#420 = DIRECTION('',(-0.,-1.,-0.));
#421 = DIRECTION('',(0.,0.,-1.));
#422 = ADVANCED_FACE('',(#423),#442,.T.);
#423 = FACE_BOUND('',#424,.F.);
#424 = EDGE_LOOP('',(#425,#426,#434,#441));
#425 = ORIENTED_EDGE('',*,*,#369,.T.);
#426 = ORIENTED_EDGE('',*,*,#427,.T.);
#427 = EDGE_CURVE('',#370,#428,#430,.T.);
#428 = VERTEX_POINT('',#429);
#429 = CARTESIAN_POINT('',(19.05,-20.25,1.));
#430 = LINE('',#431,#432);
#431 = CARTESIAN_POINT('',(13.95,-20.25,1.));
#432 = VECTOR('',#433,1.);
#433 = DIRECTION('',(1.,0.,0.));
#434 = ORIENTED_EDGE('',*,*,#435,.F.);
#435 = EDGE_CURVE('',#68,#428,#436,.T.);
#436 = CIRCLE('',#437,1.);
#437 = AXIS2_PLACEMENT_3D('',#438,#439,#440);
#438 = CARTESIAN_POINT('',(19.05,-19.25,1.));
#439 = DIRECTION('',(-1.,0.,0.));
#440 = DIRECTION('',(0.,0.,-1.));
#441 = ORIENTED_EDGE('',*,*,#67,.F.);
#442 = CYLINDRICAL_SURFACE('',#443,1.);
#443 = AXIS2_PLACEMENT_3D('',#444,#445,#446);
#444 = CARTESIAN_POINT('',(13.95,-19.25,1.));
#445 = DIRECTION('',(1.,0.,0.));
#446 = DIRECTION('',(0.,0.,-1.));
#447 = ADVANCED_FACE('',(#448),#460,.T.);
#448 = FACE_BOUND('',#449,.T.);
#449 = EDGE_LOOP('',(#450,#451,#452,#453));
#450 = ORIENTED_EDGE('',*,*,#435,.F.);
#451 = ORIENTED_EDGE('',*,*,#75,.T.);
#452 = ORIENTED_EDGE('',*,*,#393,.T.);
#453 = ORIENTED_EDGE('',*,*,#454,.F.);
#454 = EDGE_CURVE('',#428,#394,#455,.T.);
#455 = CIRCLE('',#456,1.);
#456 = AXIS2_PLACEMENT_3D('',#457,#458,#459);
#457 = CARTESIAN_POINT('',(19.05,-21.25,1.));
#458 = DIRECTION('',(0.,0.,-1.));
#459 = DIRECTION('',(0.,1.,0.));
#460 = TOROIDAL_SURFACE('',#461,2.,1.);
#461 = AXIS2_PLACEMENT_3D('',#462,#463,#464);
#462 = CARTESIAN_POINT('',(19.05,-21.25,1.));
#463 = DIRECTION('',(-0.,-0.,-1.));
#464 = DIRECTION('',(0.,1.,0.));
#465 = ADVANCED_FACE('',(#466),#485,.F.);
#466 = FACE_BOUND('',#467,.F.);
#467 = EDGE_LOOP('',(#468,#476,#477,#478));
#468 = ORIENTED_EDGE('',*,*,#469,.F.);
#469 = EDGE_CURVE('',#117,#470,#472,.T.);
#470 = VERTEX_POINT('',#471);
#471 = CARTESIAN_POINT('',(18.3,-3.375,0.5));
#472 = LINE('',#473,#474);
#473 = CARTESIAN_POINT('',(18.3,-3.375,0.5));
#474 = VECTOR('',#475,1.);
#475 = DIRECTION('',(-0.707106781187,0.,0.707106781187));
#476 = ORIENTED_EDGE('',*,*,#116,.T.);
#477 = ORIENTED_EDGE('',*,*,#469,.T.);
#478 = ORIENTED_EDGE('',*,*,#479,.F.);
#479 = EDGE_CURVE('',#470,#470,#480,.T.);
#480 = CIRCLE('',#481,1.8);
#481 = AXIS2_PLACEMENT_3D('',#482,#483,#484);
#482 = CARTESIAN_POINT('',(16.5,-3.375,0.5));
#483 = DIRECTION('',(0.,0.,1.));
#484 = DIRECTION('',(1.,0.,-0.));
#485 = CONICAL_SURFACE('',#486,1.8,0.785398163397);
#486 = AXIS2_PLACEMENT_3D('',#487,#488,#489);
#487 = CARTESIAN_POINT('',(16.5,-3.375,0.5));
#488 = DIRECTION('',(-0.,-0.,-1.));
#489 = DIRECTION('',(1.,0.,-0.));
#490 = ADVANCED_FACE('',(#491),#510,.F.);
#491 = FACE_BOUND('',#492,.F.);
#492 = EDGE_LOOP('',(#493,#501,#502,#503));
#493 = ORIENTED_EDGE('',*,*,#494,.F.);
#494 = EDGE_CURVE('',#128,#495,#497,.T.);
#495 = VERTEX_POINT('',#496);
#496 = CARTESIAN_POINT('',(29.3,-23.625,0.5));
#497 = LINE('',#498,#499);
#498 = CARTESIAN_POINT('',(29.3,-23.625,0.5));
#499 = VECTOR('',#500,1.);
#500 = DIRECTION('',(-0.707106781187,0.,0.707106781187));
#501 = ORIENTED_EDGE('',*,*,#127,.T.);
#502 = ORIENTED_EDGE('',*,*,#494,.T.);
#503 = ORIENTED_EDGE('',*,*,#504,.F.);
#504 = EDGE_CURVE('',#495,#495,#505,.T.);
#505 = CIRCLE('',#506,1.8);
#506 = AXIS2_PLACEMENT_3D('',#507,#508,#509);
#507 = CARTESIAN_POINT('',(27.5,-23.625,0.5));
#508 = DIRECTION('',(0.,0.,1.));
#509 = DIRECTION('',(1.,0.,-0.));
#510 = CONICAL_SURFACE('',#511,1.8,0.785398163397);
#511 = AXIS2_PLACEMENT_3D('',#512,#513,#514);
#512 = CARTESIAN_POINT('',(27.5,-23.625,0.5));
#513 = DIRECTION('',(-0.,-0.,-1.));
#514 = DIRECTION('',(1.,0.,-0.));
#515 = ADVANCED_FACE('',(#516),#535,.F.);
#516 = FACE_BOUND('',#517,.T.);
#517 = EDGE_LOOP('',(#518,#526,#533,#534));
#518 = ORIENTED_EDGE('',*,*,#519,.T.);
#519 = EDGE_CURVE('',#145,#520,#522,.T.);
#520 = VERTEX_POINT('',#521);
#521 = CARTESIAN_POINT('',(7.3,-23.625,3.5));
#522 = LINE('',#523,#524);
#523 = CARTESIAN_POINT('',(7.3,-23.625,0.));
#524 = VECTOR('',#525,1.);
#525 = DIRECTION('',(0.,0.,1.));
#526 = ORIENTED_EDGE('',*,*,#527,.T.);
#527 = EDGE_CURVE('',#520,#520,#528,.T.);
#528 = CIRCLE('',#529,1.8);
#529 = AXIS2_PLACEMENT_3D('',#530,#531,#532);
#530 = CARTESIAN_POINT('',(5.5,-23.625,3.5));
#531 = DIRECTION('',(0.,0.,1.));
#532 = DIRECTION('',(1.,0.,0.));
#533 = ORIENTED_EDGE('',*,*,#519,.F.);
#534 = ORIENTED_EDGE('',*,*,#154,.F.);
#535 = CYLINDRICAL_SURFACE('',#536,1.8);
#536 = AXIS2_PLACEMENT_3D('',#537,#538,#539);
#537 = CARTESIAN_POINT('',(5.5,-23.625,0.));
#538 = DIRECTION('',(-0.,-0.,-1.));
#539 = DIRECTION('',(1.,0.,0.));
#540 = ADVANCED_FACE('',(#541),#552,.T.);
#541 = FACE_BOUND('',#542,.T.);
#542 = EDGE_LOOP('',(#543,#544,#545));
#543 = ORIENTED_EDGE('',*,*,#219,.F.);
#544 = ORIENTED_EDGE('',*,*,#169,.T.);
#545 = ORIENTED_EDGE('',*,*,#546,.F.);
#546 = EDGE_CURVE('',#212,#170,#547,.T.);
#547 = CIRCLE('',#548,1.);
#548 = AXIS2_PLACEMENT_3D('',#549,#550,#551);
#549 = CARTESIAN_POINT('',(1.,-1.,1.));
#550 = DIRECTION('',(0.,0.,1.));
#551 = DIRECTION('',(-2.2E-16,1.,0.));
#552 = SPHERICAL_SURFACE('',#553,1.);
#553 = AXIS2_PLACEMENT_3D('',#554,#555,#556);
#554 = CARTESIAN_POINT('',(1.,-1.,1.));
#555 = DIRECTION('',(0.,0.,1.));
#556 = DIRECTION('',(-2.2E-16,1.,0.));
#557 = ADVANCED_FACE('',(#558),#583,.F.);
#558 = FACE_BOUND('',#559,.F.);
#559 = EDGE_LOOP('',(#560,#568,#576,#582));
#560 = ORIENTED_EDGE('',*,*,#561,.T.);
#561 = EDGE_CURVE('',#170,#562,#564,.T.);
#562 = VERTEX_POINT('',#563);
#563 = CARTESIAN_POINT('',(0.,-1.,3.));
#564 = LINE('',#565,#566);
#565 = CARTESIAN_POINT('',(-2.2E-16,-1.,0.));
#566 = VECTOR('',#567,1.);
#567 = DIRECTION('',(0.,0.,1.));
#568 = ORIENTED_EDGE('',*,*,#569,.T.);
#569 = EDGE_CURVE('',#562,#570,#572,.T.);
#570 = VERTEX_POINT('',#571);
#571 = CARTESIAN_POINT('',(0.,-26.,3.));
#572 = LINE('',#573,#574);
#573 = CARTESIAN_POINT('',(-2.2E-16,0.,3.));
#574 = VECTOR('',#575,1.);
#575 = DIRECTION('',(0.,-1.,0.));
#576 = ORIENTED_EDGE('',*,*,#577,.F.);
#577 = EDGE_CURVE('',#179,#570,#578,.T.);
#578 = LINE('',#579,#580);
#579 = CARTESIAN_POINT('',(-2.2E-16,-26.,0.));
#580 = VECTOR('',#581,1.);
#581 = DIRECTION('',(0.,0.,1.));
#582 = ORIENTED_EDGE('',*,*,#178,.F.);
#583 = PLANE('',#584);
#584 = AXIS2_PLACEMENT_3D('',#585,#586,#587);
#585 = CARTESIAN_POINT('',(0.,0.,0.));
#586 = DIRECTION('',(1.,0.,0.));
#587 = DIRECTION('',(0.,-1.,0.));
#588 = ADVANCED_FACE('',(#589),#600,.T.);
#589 = FACE_BOUND('',#590,.T.);
#590 = EDGE_LOOP('',(#591,#592,#593));
#591 = ORIENTED_EDGE('',*,*,#186,.F.);
#592 = ORIENTED_EDGE('',*,*,#235,.T.);
#593 = ORIENTED_EDGE('',*,*,#594,.F.);
#594 = EDGE_CURVE('',#179,#236,#595,.T.);
#595 = CIRCLE('',#596,1.);
#596 = AXIS2_PLACEMENT_3D('',#597,#598,#599);
#597 = CARTESIAN_POINT('',(1.,-26.,1.));
#598 = DIRECTION('',(0.,0.,1.));
#599 = DIRECTION('',(-1.,0.,0.));
#600 = SPHERICAL_SURFACE('',#601,1.);
#601 = AXIS2_PLACEMENT_3D('',#602,#603,#604);
#602 = CARTESIAN_POINT('',(1.,-26.,1.));
#603 = DIRECTION('',(0.,0.,1.));
#604 = DIRECTION('',(-1.,0.,0.));
#605 = ADVANCED_FACE('',(#606),#617,.T.);
#606 = FACE_BOUND('',#607,.T.);
#607 = EDGE_LOOP('',(#608,#609,#610));
#608 = ORIENTED_EDGE('',*,*,#285,.F.);
#609 = ORIENTED_EDGE('',*,*,#202,.T.);
#610 = ORIENTED_EDGE('',*,*,#611,.F.);
#611 = EDGE_CURVE('',#278,#203,#612,.T.);
#612 = CIRCLE('',#613,1.);
#613 = AXIS2_PLACEMENT_3D('',#614,#615,#616);
#614 = CARTESIAN_POINT('',(32.,-1.,1.));
#615 = DIRECTION('',(0.,-0.,1.));
#616 = DIRECTION('',(1.,2.2E-16,0.));
#617 = SPHERICAL_SURFACE('',#618,1.);
#618 = AXIS2_PLACEMENT_3D('',#619,#620,#621);
#619 = CARTESIAN_POINT('',(32.,-1.,1.));
#620 = DIRECTION('',(0.,0.,1.));
#621 = DIRECTION('',(1.,2.2E-16,0.));
#622 = ADVANCED_FACE('',(#623),#648,.F.);
#623 = FACE_BOUND('',#624,.F.);
#624 = EDGE_LOOP('',(#625,#633,#641,#647));
#625 = ORIENTED_EDGE('',*,*,#626,.T.);
#626 = EDGE_CURVE('',#203,#627,#629,.T.);
#627 = VERTEX_POINT('',#628);
#628 = CARTESIAN_POINT('',(32.,0.,3.));
#629 = LINE('',#630,#631);
#630 = CARTESIAN_POINT('',(32.,2.2E-16,0.));
#631 = VECTOR('',#632,1.);
#632 = DIRECTION('',(0.,0.,1.));
#633 = ORIENTED_EDGE('',*,*,#634,.T.);
#634 = EDGE_CURVE('',#627,#635,#637,.T.);
#635 = VERTEX_POINT('',#636);
#636 = CARTESIAN_POINT('',(1.,0.,3.));
#637 = LINE('',#638,#639);
#638 = CARTESIAN_POINT('',(33.,2.2E-16,3.));
#639 = VECTOR('',#640,1.);
#640 = DIRECTION('',(-1.,0.,0.));
#641 = ORIENTED_EDGE('',*,*,#642,.F.);
#642 = EDGE_CURVE('',#212,#635,#643,.T.);
#643 = LINE('',#644,#645);
#644 = CARTESIAN_POINT('',(1.,2.2E-16,0.));
#645 = VECTOR('',#646,1.);
#646 = DIRECTION('',(0.,0.,1.));
#647 = ORIENTED_EDGE('',*,*,#211,.F.);
#648 = PLANE('',#649);
#649 = AXIS2_PLACEMENT_3D('',#650,#651,#652);
#650 = CARTESIAN_POINT('',(33.,0.,0.));
#651 = DIRECTION('',(0.,-1.,0.));
#652 = DIRECTION('',(-1.,0.,0.));
#653 = ADVANCED_FACE('',(#654),#679,.F.);
#654 = FACE_BOUND('',#655,.F.);
#655 = EDGE_LOOP('',(#656,#664,#672,#678));
#656 = ORIENTED_EDGE('',*,*,#657,.T.);
#657 = EDGE_CURVE('',#236,#658,#660,.T.);
#658 = VERTEX_POINT('',#659);
#659 = CARTESIAN_POINT('',(1.,-27.,3.));
#660 = LINE('',#661,#662);
#661 = CARTESIAN_POINT('',(1.,-27.,0.));
#662 = VECTOR('',#663,1.);
#663 = DIRECTION('',(0.,0.,1.));
#664 = ORIENTED_EDGE('',*,*,#665,.T.);
#665 = EDGE_CURVE('',#658,#666,#668,.T.);
#666 = VERTEX_POINT('',#667);
#667 = CARTESIAN_POINT('',(11.95,-27.,3.));
#668 = LINE('',#669,#670);
#669 = CARTESIAN_POINT('',(0.,-27.,3.));
#670 = VECTOR('',#671,1.);
#671 = DIRECTION('',(1.,0.,0.));
#672 = ORIENTED_EDGE('',*,*,#673,.F.);
#673 = EDGE_CURVE('',#245,#666,#674,.T.);
#674 = LINE('',#675,#676);
#675 = CARTESIAN_POINT('',(11.95,-27.,0.));
#676 = VECTOR('',#677,1.);
#677 = DIRECTION('',(0.,0.,1.));
#678 = ORIENTED_EDGE('',*,*,#244,.F.);
#679 = PLANE('',#680);
#680 = AXIS2_PLACEMENT_3D('',#681,#682,#683);
#681 = CARTESIAN_POINT('',(0.,-27.,0.));
#682 = DIRECTION('',(0.,1.,0.));
#683 = DIRECTION('',(1.,0.,0.));
#684 = ADVANCED_FACE('',(#685),#696,.T.);
#685 = FACE_BOUND('',#686,.T.);
#686 = EDGE_LOOP('',(#687,#688,#689));
#687 = ORIENTED_EDGE('',*,*,#252,.F.);
#688 = ORIENTED_EDGE('',*,*,#301,.T.);
#689 = ORIENTED_EDGE('',*,*,#690,.F.);
#690 = EDGE_CURVE('',#245,#302,#691,.T.);
#691 = CIRCLE('',#692,1.);
#692 = AXIS2_PLACEMENT_3D('',#693,#694,#695);
#693 = CARTESIAN_POINT('',(11.95,-26.,1.));
#694 = DIRECTION('',(-0.,0.,1.));
#695 = DIRECTION('',(0.,-1.,0.));
#696 = SPHERICAL_SURFACE('',#697,1.);
#697 = AXIS2_PLACEMENT_3D('',#698,#699,#700);
#698 = CARTESIAN_POINT('',(11.95,-26.,1.));
#699 = DIRECTION('',(0.,0.,1.));
#700 = DIRECTION('',(0.,-1.,0.));
#701 = ADVANCED_FACE('',(#702),#713,.T.);
#702 = FACE_BOUND('',#703,.T.);
#703 = EDGE_LOOP('',(#704,#705,#706));
#704 = ORIENTED_EDGE('',*,*,#351,.F.);
#705 = ORIENTED_EDGE('',*,*,#268,.T.);
#706 = ORIENTED_EDGE('',*,*,#707,.F.);
#707 = EDGE_CURVE('',#344,#269,#708,.T.);
#708 = CIRCLE('',#709,1.);
#709 = AXIS2_PLACEMENT_3D('',#710,#711,#712);
#710 = CARTESIAN_POINT('',(32.,-26.,1.));
#711 = DIRECTION('',(-0.,0.,1.));
#712 = DIRECTION('',(0.,-1.,0.));
#713 = SPHERICAL_SURFACE('',#714,1.);
#714 = AXIS2_PLACEMENT_3D('',#715,#716,#717);
#715 = CARTESIAN_POINT('',(32.,-26.,1.));
#716 = DIRECTION('',(0.,0.,1.));
#717 = DIRECTION('',(0.,-1.,0.));
#718 = ADVANCED_FACE('',(#719),#744,.F.);
#719 = FACE_BOUND('',#720,.F.);
#720 = EDGE_LOOP('',(#721,#729,#737,#743));
#721 = ORIENTED_EDGE('',*,*,#722,.T.);
#722 = EDGE_CURVE('',#269,#723,#725,.T.);
#723 = VERTEX_POINT('',#724);
#724 = CARTESIAN_POINT('',(33.,-26.,3.));
#725 = LINE('',#726,#727);
#726 = CARTESIAN_POINT('',(33.,-26.,0.));
#727 = VECTOR('',#728,1.);
#728 = DIRECTION('',(0.,0.,1.));
#729 = ORIENTED_EDGE('',*,*,#730,.T.);
#730 = EDGE_CURVE('',#723,#731,#733,.T.);
#731 = VERTEX_POINT('',#732);
#732 = CARTESIAN_POINT('',(33.,-1.,3.));
#733 = LINE('',#734,#735);
#734 = CARTESIAN_POINT('',(33.,-27.,3.));
#735 = VECTOR('',#736,1.);
#736 = DIRECTION('',(0.,1.,0.));
#737 = ORIENTED_EDGE('',*,*,#738,.F.);
#738 = EDGE_CURVE('',#278,#731,#739,.T.);
#739 = LINE('',#740,#741);
#740 = CARTESIAN_POINT('',(33.,-1.,0.));
#741 = VECTOR('',#742,1.);
#742 = DIRECTION('',(0.,0.,1.));
#743 = ORIENTED_EDGE('',*,*,#277,.F.);
#744 = PLANE('',#745);
#745 = AXIS2_PLACEMENT_3D('',#746,#747,#748);
#746 = CARTESIAN_POINT('',(33.,-27.,0.));
#747 = DIRECTION('',(-1.,0.,0.));
#748 = DIRECTION('',(0.,1.,0.));
#749 = ADVANCED_FACE('',(#750),#775,.T.);
#750 = FACE_BOUND('',#751,.T.);
#751 = EDGE_LOOP('',(#752,#760,#768,#774));
#752 = ORIENTED_EDGE('',*,*,#753,.T.);
#753 = EDGE_CURVE('',#311,#754,#756,.T.);
#754 = VERTEX_POINT('',#755);
#755 = CARTESIAN_POINT('',(12.95,-21.25,3.));
#756 = LINE('',#757,#758);
#757 = CARTESIAN_POINT('',(12.95,-21.25,0.));
#758 = VECTOR('',#759,1.);
#759 = DIRECTION('',(0.,0.,1.));
#760 = ORIENTED_EDGE('',*,*,#761,.T.);
#761 = EDGE_CURVE('',#754,#762,#764,.T.);
#762 = VERTEX_POINT('',#763);
#763 = CARTESIAN_POINT('',(12.95,-26.,3.));
#764 = LINE('',#765,#766);
#765 = CARTESIAN_POINT('',(12.95,-20.25,3.));
#766 = VECTOR('',#767,1.);
#767 = DIRECTION('',(0.,-1.,0.));
#768 = ORIENTED_EDGE('',*,*,#769,.F.);
#769 = EDGE_CURVE('',#302,#762,#770,.T.);
#770 = LINE('',#771,#772);
#771 = CARTESIAN_POINT('',(12.95,-26.,0.));
#772 = VECTOR('',#773,1.);
#773 = DIRECTION('',(0.,0.,1.));
#774 = ORIENTED_EDGE('',*,*,#310,.T.);
#775 = PLANE('',#776);
#776 = AXIS2_PLACEMENT_3D('',#777,#778,#779);
#777 = CARTESIAN_POINT('',(12.95,-20.25,0.));
#778 = DIRECTION('',(1.,0.,0.));
#779 = DIRECTION('',(0.,-1.,0.));
#780 = ADVANCED_FACE('',(#781),#792,.T.);
#781 = FACE_BOUND('',#782,.T.);
#782 = EDGE_LOOP('',(#783,#784,#785));
#783 = ORIENTED_EDGE('',*,*,#410,.F.);
#784 = ORIENTED_EDGE('',*,*,#334,.T.);
#785 = ORIENTED_EDGE('',*,*,#786,.F.);
#786 = EDGE_CURVE('',#403,#335,#787,.T.);
#787 = CIRCLE('',#788,1.);
#788 = AXIS2_PLACEMENT_3D('',#789,#790,#791);
#789 = CARTESIAN_POINT('',(21.05,-26.,1.));
#790 = DIRECTION('',(0.,0.,1.));
#791 = DIRECTION('',(-1.,0.,0.));
#792 = SPHERICAL_SURFACE('',#793,1.);
#793 = AXIS2_PLACEMENT_3D('',#794,#795,#796);
#794 = CARTESIAN_POINT('',(21.05,-26.,1.));
#795 = DIRECTION('',(0.,0.,1.));
#796 = DIRECTION('',(-1.,0.,0.));
#797 = ADVANCED_FACE('',(#798),#823,.F.);
#798 = FACE_BOUND('',#799,.F.);
#799 = EDGE_LOOP('',(#800,#808,#816,#822));
#800 = ORIENTED_EDGE('',*,*,#801,.T.);
#801 = EDGE_CURVE('',#335,#802,#804,.T.);
#802 = VERTEX_POINT('',#803);
#803 = CARTESIAN_POINT('',(21.05,-27.,3.));
#804 = LINE('',#805,#806);
#805 = CARTESIAN_POINT('',(21.05,-27.,0.));
#806 = VECTOR('',#807,1.);
#807 = DIRECTION('',(0.,0.,1.));
#808 = ORIENTED_EDGE('',*,*,#809,.T.);
#809 = EDGE_CURVE('',#802,#810,#812,.T.);
#810 = VERTEX_POINT('',#811);
#811 = CARTESIAN_POINT('',(32.,-27.,3.));
#812 = LINE('',#813,#814);
#813 = CARTESIAN_POINT('',(20.05,-27.,3.));
#814 = VECTOR('',#815,1.);
#815 = DIRECTION('',(1.,0.,0.));
#816 = ORIENTED_EDGE('',*,*,#817,.F.);
#817 = EDGE_CURVE('',#344,#810,#818,.T.);
#818 = LINE('',#819,#820);
#819 = CARTESIAN_POINT('',(32.,-27.,0.));
#820 = VECTOR('',#821,1.);
#821 = DIRECTION('',(0.,0.,1.));
#822 = ORIENTED_EDGE('',*,*,#343,.F.);
#823 = PLANE('',#824);
#824 = AXIS2_PLACEMENT_3D('',#825,#826,#827);
#825 = CARTESIAN_POINT('',(20.05,-27.,0.));
#826 = DIRECTION('',(0.,1.,0.));
#827 = DIRECTION('',(1.,0.,0.));
#828 = ADVANCED_FACE('',(#829),#848,.F.);
#829 = FACE_BOUND('',#830,.T.);
#830 = EDGE_LOOP('',(#831,#832,#833,#841));
#831 = ORIENTED_EDGE('',*,*,#753,.F.);
#832 = ORIENTED_EDGE('',*,*,#378,.T.);
#833 = ORIENTED_EDGE('',*,*,#834,.T.);
#834 = EDGE_CURVE('',#370,#835,#837,.T.);
#835 = VERTEX_POINT('',#836);
#836 = CARTESIAN_POINT('',(13.95,-20.25,3.));
#837 = LINE('',#838,#839);
#838 = CARTESIAN_POINT('',(13.95,-20.25,0.));
#839 = VECTOR('',#840,1.);
#840 = DIRECTION('',(0.,0.,1.));
#841 = ORIENTED_EDGE('',*,*,#842,.T.);
#842 = EDGE_CURVE('',#835,#754,#843,.T.);
#843 = CIRCLE('',#844,1.);
#844 = AXIS2_PLACEMENT_3D('',#845,#846,#847);
#845 = CARTESIAN_POINT('',(13.95,-21.25,3.));
#846 = DIRECTION('',(0.,-0.,1.));
#847 = DIRECTION('',(0.,1.,0.));
#848 = CYLINDRICAL_SURFACE('',#849,1.);
#849 = AXIS2_PLACEMENT_3D('',#850,#851,#852);
#850 = CARTESIAN_POINT('',(13.95,-21.25,0.));
#851 = DIRECTION('',(0.,0.,1.));
#852 = DIRECTION('',(-1.,0.,0.));
#853 = ADVANCED_FACE('',(#854),#879,.T.);
#854 = FACE_BOUND('',#855,.T.);
#855 = EDGE_LOOP('',(#856,#864,#872,#878));
#856 = ORIENTED_EDGE('',*,*,#857,.T.);
#857 = EDGE_CURVE('',#403,#858,#860,.T.);
#858 = VERTEX_POINT('',#859);
#859 = CARTESIAN_POINT('',(20.05,-26.,3.));
#860 = LINE('',#861,#862);
#861 = CARTESIAN_POINT('',(20.05,-26.,0.));
#862 = VECTOR('',#863,1.);
#863 = DIRECTION('',(0.,0.,1.));
#864 = ORIENTED_EDGE('',*,*,#865,.T.);
#865 = EDGE_CURVE('',#858,#866,#868,.T.);
#866 = VERTEX_POINT('',#867);
#867 = CARTESIAN_POINT('',(20.05,-21.25,3.));
#868 = LINE('',#869,#870);
#869 = CARTESIAN_POINT('',(20.05,-27.,3.));
#870 = VECTOR('',#871,1.);
#871 = DIRECTION('',(0.,1.,0.));
#872 = ORIENTED_EDGE('',*,*,#873,.F.);
#873 = EDGE_CURVE('',#394,#866,#874,.T.);
#874 = LINE('',#875,#876);
#875 = CARTESIAN_POINT('',(20.05,-21.25,0.));
#876 = VECTOR('',#877,1.);
#877 = DIRECTION('',(0.,0.,1.));
#878 = ORIENTED_EDGE('',*,*,#402,.T.);
#879 = PLANE('',#880);
#880 = AXIS2_PLACEMENT_3D('',#881,#882,#883);
#881 = CARTESIAN_POINT('',(20.05,-27.,0.));
#882 = DIRECTION('',(-1.,0.,0.));
#883 = DIRECTION('',(0.,1.,0.));
#884 = ADVANCED_FACE('',(#885),#903,.T.);
#885 = FACE_BOUND('',#886,.T.);
#886 = EDGE_LOOP('',(#887,#895,#901,#902));
#887 = ORIENTED_EDGE('',*,*,#888,.T.);
#888 = EDGE_CURVE('',#428,#889,#891,.T.);
#889 = VERTEX_POINT('',#890);
#890 = CARTESIAN_POINT('',(19.05,-20.25,3.));
#891 = LINE('',#892,#893);
#892 = CARTESIAN_POINT('',(19.05,-20.25,0.));
#893 = VECTOR('',#894,1.);
#894 = DIRECTION('',(0.,0.,1.));
#895 = ORIENTED_EDGE('',*,*,#896,.T.);
#896 = EDGE_CURVE('',#889,#835,#897,.T.);
#897 = LINE('',#898,#899);
#898 = CARTESIAN_POINT('',(20.05,-20.25,3.));
#899 = VECTOR('',#900,1.);
#900 = DIRECTION('',(-1.,0.,0.));
#901 = ORIENTED_EDGE('',*,*,#834,.F.);
#902 = ORIENTED_EDGE('',*,*,#427,.T.);
#903 = PLANE('',#904);
#904 = AXIS2_PLACEMENT_3D('',#905,#906,#907);
#905 = CARTESIAN_POINT('',(20.05,-20.25,0.));
#906 = DIRECTION('',(0.,-1.,0.));
#907 = DIRECTION('',(-1.,0.,0.));
#908 = ADVANCED_FACE('',(#909),#921,.F.);
#909 = FACE_BOUND('',#910,.T.);
#910 = EDGE_LOOP('',(#911,#912,#913,#914));
#911 = ORIENTED_EDGE('',*,*,#888,.F.);
#912 = ORIENTED_EDGE('',*,*,#454,.T.);
#913 = ORIENTED_EDGE('',*,*,#873,.T.);
#914 = ORIENTED_EDGE('',*,*,#915,.F.);
#915 = EDGE_CURVE('',#889,#866,#916,.T.);
#916 = CIRCLE('',#917,1.);
#917 = AXIS2_PLACEMENT_3D('',#918,#919,#920);
#918 = CARTESIAN_POINT('',(19.05,-21.25,3.));
#919 = DIRECTION('',(0.,0.,-1.));
#920 = DIRECTION('',(0.,1.,0.));
#921 = CYLINDRICAL_SURFACE('',#922,1.);
#922 = AXIS2_PLACEMENT_3D('',#923,#924,#925);
#923 = CARTESIAN_POINT('',(19.05,-21.25,0.));
#924 = DIRECTION('',(0.,0.,1.));
#925 = DIRECTION('',(0.,1.,0.));
#926 = ADVANCED_FACE('',(#927),#946,.F.);
#927 = FACE_BOUND('',#928,.T.);
#928 = EDGE_LOOP('',(#929,#937,#944,#945));
#929 = ORIENTED_EDGE('',*,*,#930,.T.);
#930 = EDGE_CURVE('',#470,#931,#933,.T.);
#931 = VERTEX_POINT('',#932);
#932 = CARTESIAN_POINT('',(18.3,-3.375,3.5));
#933 = LINE('',#934,#935);
#934 = CARTESIAN_POINT('',(18.3,-3.375,0.));
#935 = VECTOR('',#936,1.);
#936 = DIRECTION('',(0.,0.,1.));
#937 = ORIENTED_EDGE('',*,*,#938,.T.);
#938 = EDGE_CURVE('',#931,#931,#939,.T.);
#939 = CIRCLE('',#940,1.8);
#940 = AXIS2_PLACEMENT_3D('',#941,#942,#943);
#941 = CARTESIAN_POINT('',(16.5,-3.375,3.5));
#942 = DIRECTION('',(0.,0.,1.));
#943 = DIRECTION('',(1.,0.,0.));
#944 = ORIENTED_EDGE('',*,*,#930,.F.);
#945 = ORIENTED_EDGE('',*,*,#479,.F.);
#946 = CYLINDRICAL_SURFACE('',#947,1.8);
#947 = AXIS2_PLACEMENT_3D('',#948,#949,#950);
#948 = CARTESIAN_POINT('',(16.5,-3.375,0.));
#949 = DIRECTION('',(-0.,-0.,-1.));
#950 = DIRECTION('',(1.,0.,0.));
#951 = ADVANCED_FACE('',(#952),#971,.F.);
#952 = FACE_BOUND('',#953,.T.);
#953 = EDGE_LOOP('',(#954,#962,#969,#970));
#954 = ORIENTED_EDGE('',*,*,#955,.T.);
#955 = EDGE_CURVE('',#495,#956,#958,.T.);
#956 = VERTEX_POINT('',#957);
#957 = CARTESIAN_POINT('',(29.3,-23.625,3.5));
#958 = LINE('',#959,#960);
#959 = CARTESIAN_POINT('',(29.3,-23.625,0.));
#960 = VECTOR('',#961,1.);
#961 = DIRECTION('',(0.,0.,1.));
#962 = ORIENTED_EDGE('',*,*,#963,.T.);
#963 = EDGE_CURVE('',#956,#956,#964,.T.);
#964 = CIRCLE('',#965,1.8);
#965 = AXIS2_PLACEMENT_3D('',#966,#967,#968);
#966 = CARTESIAN_POINT('',(27.5,-23.625,3.5));
#967 = DIRECTION('',(0.,0.,1.));
#968 = DIRECTION('',(1.,0.,0.));
#969 = ORIENTED_EDGE('',*,*,#955,.F.);
#970 = ORIENTED_EDGE('',*,*,#504,.F.);
#971 = CYLINDRICAL_SURFACE('',#972,1.8);
#972 = AXIS2_PLACEMENT_3D('',#973,#974,#975);
#973 = CARTESIAN_POINT('',(27.5,-23.625,0.));
#974 = DIRECTION('',(-0.,-0.,-1.));
#975 = DIRECTION('',(1.,0.,0.));
#976 = ADVANCED_FACE('',(#977),#996,.F.);
#977 = FACE_BOUND('',#978,.F.);
#978 = EDGE_LOOP('',(#979,#987,#988,#989));
#979 = ORIENTED_EDGE('',*,*,#980,.F.);
#980 = EDGE_CURVE('',#520,#981,#983,.T.);
#981 = VERTEX_POINT('',#982);
#982 = CARTESIAN_POINT('',(7.8,-23.625,4.));
#983 = LINE('',#984,#985);
#984 = CARTESIAN_POINT('',(7.3,-23.625,3.5));
#985 = VECTOR('',#986,1.);
#986 = DIRECTION('',(0.707106781187,0.,0.707106781187));
#987 = ORIENTED_EDGE('',*,*,#527,.T.);
#988 = ORIENTED_EDGE('',*,*,#980,.T.);
#989 = ORIENTED_EDGE('',*,*,#990,.F.);
#990 = EDGE_CURVE('',#981,#981,#991,.T.);
#991 = CIRCLE('',#992,2.3);
#992 = AXIS2_PLACEMENT_3D('',#993,#994,#995);
#993 = CARTESIAN_POINT('',(5.5,-23.625,4.));
#994 = DIRECTION('',(0.,0.,1.));
#995 = DIRECTION('',(1.,0.,0.));
#996 = CONICAL_SURFACE('',#997,1.8,0.785398163397);
#997 = AXIS2_PLACEMENT_3D('',#998,#999,#1000);
#998 = CARTESIAN_POINT('',(5.5,-23.625,3.5));
#999 = DIRECTION('',(0.,0.,1.));
#1000 = DIRECTION('',(1.,0.,0.));
#1001 = ADVANCED_FACE('',(#1002),#1014,.T.);
#1002 = FACE_BOUND('',#1003,.T.);
#1003 = EDGE_LOOP('',(#1004,#1005,#1006,#1007));
#1004 = ORIENTED_EDGE('',*,*,#642,.F.);
#1005 = ORIENTED_EDGE('',*,*,#546,.T.);
#1006 = ORIENTED_EDGE('',*,*,#561,.T.);
#1007 = ORIENTED_EDGE('',*,*,#1008,.F.);
#1008 = EDGE_CURVE('',#635,#562,#1009,.T.);
#1009 = CIRCLE('',#1010,1.);
#1010 = AXIS2_PLACEMENT_3D('',#1011,#1012,#1013);
#1011 = CARTESIAN_POINT('',(1.,-1.,3.));
#1012 = DIRECTION('',(-5.E-17,0.,1.));
#1013 = DIRECTION('',(-1.,0.,-5.E-17));
#1014 = CYLINDRICAL_SURFACE('',#1015,1.);
#1015 = AXIS2_PLACEMENT_3D('',#1016,#1017,#1018);
#1016 = CARTESIAN_POINT('',(1.,-1.,0.));
#1017 = DIRECTION('',(0.,0.,1.));
#1018 = DIRECTION('',(0.,1.,0.));
#1019 = ADVANCED_FACE('',(#1020),#1047,.T.);
#1020 = FACE_BOUND('',#1021,.F.);
#1021 = EDGE_LOOP('',(#1022,#1023,#1032,#1040));
#1022 = ORIENTED_EDGE('',*,*,#569,.F.);
#1023 = ORIENTED_EDGE('',*,*,#1024,.F.);
#1024 = EDGE_CURVE('',#1025,#562,#1027,.T.);
#1025 = VERTEX_POINT('',#1026);
#1026 = CARTESIAN_POINT('',(1.,-1.,4.));
#1027 = CIRCLE('',#1028,1.);
#1028 = AXIS2_PLACEMENT_3D('',#1029,#1030,#1031);
#1029 = CARTESIAN_POINT('',(1.,-1.,3.));
#1030 = DIRECTION('',(0.,-1.,0.));
#1031 = DIRECTION('',(-3.3E-16,0.,1.));
#1032 = ORIENTED_EDGE('',*,*,#1033,.T.);
#1033 = EDGE_CURVE('',#1025,#1034,#1036,.T.);
#1034 = VERTEX_POINT('',#1035);
#1035 = CARTESIAN_POINT('',(1.,-26.,4.));
#1036 = LINE('',#1037,#1038);
#1037 = CARTESIAN_POINT('',(1.,0.,4.));
#1038 = VECTOR('',#1039,1.);
#1039 = DIRECTION('',(0.,-1.,0.));
#1040 = ORIENTED_EDGE('',*,*,#1041,.F.);
#1041 = EDGE_CURVE('',#570,#1034,#1042,.T.);
#1042 = CIRCLE('',#1043,1.);
#1043 = AXIS2_PLACEMENT_3D('',#1044,#1045,#1046);
#1044 = CARTESIAN_POINT('',(1.,-26.,3.));
#1045 = DIRECTION('',(0.,1.,0.));
#1046 = DIRECTION('',(0.,0.,1.));
#1047 = CYLINDRICAL_SURFACE('',#1048,1.);
#1048 = AXIS2_PLACEMENT_3D('',#1049,#1050,#1051);
#1049 = CARTESIAN_POINT('',(1.,0.,3.));
#1050 = DIRECTION('',(0.,-1.,0.));
#1051 = DIRECTION('',(-1.,0.,0.));
#1052 = ADVANCED_FACE('',(#1053),#1065,.T.);
#1053 = FACE_BOUND('',#1054,.T.);
#1054 = EDGE_LOOP('',(#1055,#1056,#1057,#1058));
#1055 = ORIENTED_EDGE('',*,*,#577,.F.);
#1056 = ORIENTED_EDGE('',*,*,#594,.T.);
#1057 = ORIENTED_EDGE('',*,*,#657,.T.);
#1058 = ORIENTED_EDGE('',*,*,#1059,.F.);
#1059 = EDGE_CURVE('',#570,#658,#1060,.T.);
#1060 = CIRCLE('',#1061,1.);
#1061 = AXIS2_PLACEMENT_3D('',#1062,#1063,#1064);
#1062 = CARTESIAN_POINT('',(1.,-26.,3.));
#1063 = DIRECTION('',(-0.,6.E-17,1.));
#1064 = DIRECTION('',(0.,-1.,6.E-17));
#1065 = CYLINDRICAL_SURFACE('',#1066,1.);
#1066 = AXIS2_PLACEMENT_3D('',#1067,#1068,#1069);
#1067 = CARTESIAN_POINT('',(1.,-26.,0.));
#1068 = DIRECTION('',(0.,0.,1.));
#1069 = DIRECTION('',(-1.,0.,0.));
#1070 = ADVANCED_FACE('',(#1071),#1083,.T.);
#1071 = FACE_BOUND('',#1072,.T.);
#1072 = EDGE_LOOP('',(#1073,#1074,#1075,#1076));
#1073 = ORIENTED_EDGE('',*,*,#738,.F.);
#1074 = ORIENTED_EDGE('',*,*,#611,.T.);
#1075 = ORIENTED_EDGE('',*,*,#626,.T.);
#1076 = ORIENTED_EDGE('',*,*,#1077,.T.);
#1077 = EDGE_CURVE('',#627,#731,#1078,.T.);
#1078 = CIRCLE('',#1079,1.);
#1079 = AXIS2_PLACEMENT_3D('',#1080,#1081,#1082);
#1080 = CARTESIAN_POINT('',(32.,-1.,3.));
#1081 = DIRECTION('',(6.E-17,0.,-1.));
#1082 = DIRECTION('',(1.,0.,6.E-17));
#1083 = CYLINDRICAL_SURFACE('',#1084,1.);
#1084 = AXIS2_PLACEMENT_3D('',#1085,#1086,#1087);
#1085 = CARTESIAN_POINT('',(32.,-1.,0.));
#1086 = DIRECTION('',(0.,0.,1.));
#1087 = DIRECTION('',(1.,0.,0.));
#1088 = ADVANCED_FACE('',(#1089),#1114,.T.);
#1089 = FACE_BOUND('',#1090,.F.);
#1090 = EDGE_LOOP('',(#1091,#1100,#1106,#1113));
#1091 = ORIENTED_EDGE('',*,*,#1092,.T.);
#1092 = EDGE_CURVE('',#627,#1093,#1095,.T.);
#1093 = VERTEX_POINT('',#1094);
#1094 = CARTESIAN_POINT('',(32.,-1.,4.));
#1095 = CIRCLE('',#1096,1.);
#1096 = AXIS2_PLACEMENT_3D('',#1097,#1098,#1099);
#1097 = CARTESIAN_POINT('',(32.,-1.,3.));
#1098 = DIRECTION('',(1.,0.,-0.));
#1099 = DIRECTION('',(0.,0.,1.));
#1100 = ORIENTED_EDGE('',*,*,#1101,.T.);
#1101 = EDGE_CURVE('',#1093,#1025,#1102,.T.);
#1102 = LINE('',#1103,#1104);
#1103 = CARTESIAN_POINT('',(33.,-1.,4.));
#1104 = VECTOR('',#1105,1.);
#1105 = DIRECTION('',(-1.,0.,0.));
#1106 = ORIENTED_EDGE('',*,*,#1107,.F.);
#1107 = EDGE_CURVE('',#635,#1025,#1108,.T.);
#1108 = CIRCLE('',#1109,1.);
#1109 = AXIS2_PLACEMENT_3D('',#1110,#1111,#1112);
#1110 = CARTESIAN_POINT('',(1.,-1.,3.));
#1111 = DIRECTION('',(1.,0.,3.3E-16));
#1112 = DIRECTION('',(-3.3E-16,0.,1.));
#1113 = ORIENTED_EDGE('',*,*,#634,.F.);
#1114 = CYLINDRICAL_SURFACE('',#1115,1.);
#1115 = AXIS2_PLACEMENT_3D('',#1116,#1117,#1118);
#1116 = CARTESIAN_POINT('',(33.,-1.,3.));
#1117 = DIRECTION('',(-1.,0.,0.));
#1118 = DIRECTION('',(0.,1.,0.));
#1119 = ADVANCED_FACE('',(#1120),#1145,.T.);
#1120 = FACE_BOUND('',#1121,.F.);
#1121 = EDGE_LOOP('',(#1122,#1123,#1130,#1138));
#1122 = ORIENTED_EDGE('',*,*,#665,.F.);
#1123 = ORIENTED_EDGE('',*,*,#1124,.F.);
#1124 = EDGE_CURVE('',#1034,#658,#1125,.T.);
#1125 = CIRCLE('',#1126,1.);
#1126 = AXIS2_PLACEMENT_3D('',#1127,#1128,#1129);
#1127 = CARTESIAN_POINT('',(1.,-26.,3.));
#1128 = DIRECTION('',(1.,0.,-0.));
#1129 = DIRECTION('',(0.,0.,1.));
#1130 = ORIENTED_EDGE('',*,*,#1131,.T.);
#1131 = EDGE_CURVE('',#1034,#1132,#1134,.T.);
#1132 = VERTEX_POINT('',#1133);
#1133 = CARTESIAN_POINT('',(11.95,-26.,4.));
#1134 = LINE('',#1135,#1136);
#1135 = CARTESIAN_POINT('',(0.,-26.,4.));
#1136 = VECTOR('',#1137,1.);
#1137 = DIRECTION('',(1.,0.,0.));
#1138 = ORIENTED_EDGE('',*,*,#1139,.F.);
#1139 = EDGE_CURVE('',#666,#1132,#1140,.T.);
#1140 = CIRCLE('',#1141,1.);
#1141 = AXIS2_PLACEMENT_3D('',#1142,#1143,#1144);
#1142 = CARTESIAN_POINT('',(11.95,-26.,3.));
#1143 = DIRECTION('',(-1.,0.,0.));
#1144 = DIRECTION('',(0.,0.,1.));
#1145 = CYLINDRICAL_SURFACE('',#1146,1.);
#1146 = AXIS2_PLACEMENT_3D('',#1147,#1148,#1149);
#1147 = CARTESIAN_POINT('',(0.,-26.,3.));
#1148 = DIRECTION('',(1.,0.,0.));
#1149 = DIRECTION('',(0.,-1.,0.));
#1150 = ADVANCED_FACE('',(#1151),#1163,.T.);
#1151 = FACE_BOUND('',#1152,.T.);
#1152 = EDGE_LOOP('',(#1153,#1154,#1155,#1156));
#1153 = ORIENTED_EDGE('',*,*,#673,.F.);
#1154 = ORIENTED_EDGE('',*,*,#690,.T.);
#1155 = ORIENTED_EDGE('',*,*,#769,.T.);
#1156 = ORIENTED_EDGE('',*,*,#1157,.F.);
#1157 = EDGE_CURVE('',#666,#762,#1158,.T.);
#1158 = CIRCLE('',#1159,1.);
#1159 = AXIS2_PLACEMENT_3D('',#1160,#1161,#1162);
#1160 = CARTESIAN_POINT('',(11.95,-26.,3.));
#1161 = DIRECTION('',(-6.E-17,0.,1.));
#1162 = DIRECTION('',(1.,0.,6.E-17));
#1163 = CYLINDRICAL_SURFACE('',#1164,1.);
#1164 = AXIS2_PLACEMENT_3D('',#1165,#1166,#1167);
#1165 = CARTESIAN_POINT('',(11.95,-26.,0.));
#1166 = DIRECTION('',(0.,0.,1.));
#1167 = DIRECTION('',(0.,-1.,0.));
#1168 = ADVANCED_FACE('',(#1169),#1181,.T.);
#1169 = FACE_BOUND('',#1170,.T.);
#1170 = EDGE_LOOP('',(#1171,#1172,#1173,#1174));
#1171 = ORIENTED_EDGE('',*,*,#817,.F.);
#1172 = ORIENTED_EDGE('',*,*,#707,.T.);
#1173 = ORIENTED_EDGE('',*,*,#722,.T.);
#1174 = ORIENTED_EDGE('',*,*,#1175,.T.);
#1175 = EDGE_CURVE('',#723,#810,#1176,.T.);
#1176 = CIRCLE('',#1177,1.);
#1177 = AXIS2_PLACEMENT_3D('',#1178,#1179,#1180);
#1178 = CARTESIAN_POINT('',(32.,-26.,3.));
#1179 = DIRECTION('',(-0.,-6.E-17,-1.));
#1180 = DIRECTION('',(0.,-1.,6.E-17));
#1181 = CYLINDRICAL_SURFACE('',#1182,1.);
#1182 = AXIS2_PLACEMENT_3D('',#1183,#1184,#1185);
#1183 = CARTESIAN_POINT('',(32.,-26.,0.));
#1184 = DIRECTION('',(0.,0.,1.));
#1185 = DIRECTION('',(0.,-1.,0.));
#1186 = ADVANCED_FACE('',(#1187),#1212,.T.);
#1187 = FACE_BOUND('',#1188,.F.);
#1188 = EDGE_LOOP('',(#1189,#1198,#1204,#1211));
#1189 = ORIENTED_EDGE('',*,*,#1190,.T.);
#1190 = EDGE_CURVE('',#723,#1191,#1193,.T.);
#1191 = VERTEX_POINT('',#1192);
#1192 = CARTESIAN_POINT('',(32.,-26.,4.));
#1193 = CIRCLE('',#1194,1.);
#1194 = AXIS2_PLACEMENT_3D('',#1195,#1196,#1197);
#1195 = CARTESIAN_POINT('',(32.,-26.,3.));
#1196 = DIRECTION('',(0.,-1.,0.));
#1197 = DIRECTION('',(0.,0.,1.));
#1198 = ORIENTED_EDGE('',*,*,#1199,.T.);
#1199 = EDGE_CURVE('',#1191,#1093,#1200,.T.);
#1200 = LINE('',#1201,#1202);
#1201 = CARTESIAN_POINT('',(32.,-27.,4.));
#1202 = VECTOR('',#1203,1.);
#1203 = DIRECTION('',(0.,1.,0.));
#1204 = ORIENTED_EDGE('',*,*,#1205,.T.);
#1205 = EDGE_CURVE('',#1093,#731,#1206,.T.);
#1206 = CIRCLE('',#1207,1.);
#1207 = AXIS2_PLACEMENT_3D('',#1208,#1209,#1210);
#1208 = CARTESIAN_POINT('',(32.,-1.,3.));
#1209 = DIRECTION('',(0.,1.,0.));
#1210 = DIRECTION('',(0.,0.,1.));
#1211 = ORIENTED_EDGE('',*,*,#730,.F.);
#1212 = CYLINDRICAL_SURFACE('',#1213,1.);
#1213 = AXIS2_PLACEMENT_3D('',#1214,#1215,#1216);
#1214 = CARTESIAN_POINT('',(32.,-27.,3.));
#1215 = DIRECTION('',(0.,1.,0.));
#1216 = DIRECTION('',(1.,0.,0.));
#1217 = ADVANCED_FACE('',(#1218),#1243,.T.);
#1218 = FACE_BOUND('',#1219,.T.);
#1219 = EDGE_LOOP('',(#1220,#1229,#1235,#1242));
#1220 = ORIENTED_EDGE('',*,*,#1221,.F.);
#1221 = EDGE_CURVE('',#1222,#754,#1224,.T.);
#1222 = VERTEX_POINT('',#1223);
#1223 = CARTESIAN_POINT('',(11.95,-21.25,4.));
#1224 = CIRCLE('',#1225,1.);
#1225 = AXIS2_PLACEMENT_3D('',#1226,#1227,#1228);
#1226 = CARTESIAN_POINT('',(11.95,-21.25,3.));
#1227 = DIRECTION('',(6.E-17,1.,-0.));
#1228 = DIRECTION('',(-1.,6.E-17,0.));
#1229 = ORIENTED_EDGE('',*,*,#1230,.T.);
#1230 = EDGE_CURVE('',#1222,#1132,#1231,.T.);
#1231 = LINE('',#1232,#1233);
#1232 = CARTESIAN_POINT('',(11.95,-20.25,4.));
#1233 = VECTOR('',#1234,1.);
#1234 = DIRECTION('',(0.,-1.,0.));
#1235 = ORIENTED_EDGE('',*,*,#1236,.T.);
#1236 = EDGE_CURVE('',#1132,#762,#1237,.T.);
#1237 = CIRCLE('',#1238,1.);
#1238 = AXIS2_PLACEMENT_3D('',#1239,#1240,#1241);
#1239 = CARTESIAN_POINT('',(11.95,-26.,3.));
#1240 = DIRECTION('',(0.,1.,0.));
#1241 = DIRECTION('',(0.,0.,1.));
#1242 = ORIENTED_EDGE('',*,*,#761,.F.);
#1243 = CYLINDRICAL_SURFACE('',#1244,1.);
#1244 = AXIS2_PLACEMENT_3D('',#1245,#1246,#1247);
#1245 = CARTESIAN_POINT('',(11.95,-20.25,3.));
#1246 = DIRECTION('',(0.,-1.,0.));
#1247 = DIRECTION('',(1.,0.,0.));
#1248 = ADVANCED_FACE('',(#1249),#1261,.T.);
#1249 = FACE_BOUND('',#1250,.F.);
#1250 = EDGE_LOOP('',(#1251,#1252,#1253,#1254));
#1251 = ORIENTED_EDGE('',*,*,#801,.F.);
#1252 = ORIENTED_EDGE('',*,*,#786,.F.);
#1253 = ORIENTED_EDGE('',*,*,#857,.T.);
#1254 = ORIENTED_EDGE('',*,*,#1255,.F.);
#1255 = EDGE_CURVE('',#802,#858,#1256,.T.);
#1256 = CIRCLE('',#1257,1.);
#1257 = AXIS2_PLACEMENT_3D('',#1258,#1259,#1260);
#1258 = CARTESIAN_POINT('',(21.05,-26.,3.));
#1259 = DIRECTION('',(-6.E-17,0.,-1.));
#1260 = DIRECTION('',(-1.,0.,6.E-17));
#1261 = CYLINDRICAL_SURFACE('',#1262,1.);
#1262 = AXIS2_PLACEMENT_3D('',#1263,#1264,#1265);
#1263 = CARTESIAN_POINT('',(21.05,-26.,0.));
#1264 = DIRECTION('',(0.,0.,1.));
#1265 = DIRECTION('',(0.,-1.,0.));
#1266 = ADVANCED_FACE('',(#1267),#1292,.T.);
#1267 = FACE_BOUND('',#1268,.F.);
#1268 = EDGE_LOOP('',(#1269,#1278,#1284,#1291));
#1269 = ORIENTED_EDGE('',*,*,#1270,.T.);
#1270 = EDGE_CURVE('',#802,#1271,#1273,.T.);
#1271 = VERTEX_POINT('',#1272);
#1272 = CARTESIAN_POINT('',(21.05,-26.,4.));
#1273 = CIRCLE('',#1274,1.);
#1274 = AXIS2_PLACEMENT_3D('',#1275,#1276,#1277);
#1275 = CARTESIAN_POINT('',(21.05,-26.,3.));
#1276 = DIRECTION('',(-1.,0.,0.));
#1277 = DIRECTION('',(0.,0.,1.));
#1278 = ORIENTED_EDGE('',*,*,#1279,.T.);
#1279 = EDGE_CURVE('',#1271,#1191,#1280,.T.);
#1280 = LINE('',#1281,#1282);
#1281 = CARTESIAN_POINT('',(20.05,-26.,4.));
#1282 = VECTOR('',#1283,1.);
#1283 = DIRECTION('',(1.,0.,0.));
#1284 = ORIENTED_EDGE('',*,*,#1285,.T.);
#1285 = EDGE_CURVE('',#1191,#810,#1286,.T.);
#1286 = CIRCLE('',#1287,1.);
#1287 = AXIS2_PLACEMENT_3D('',#1288,#1289,#1290);
#1288 = CARTESIAN_POINT('',(32.,-26.,3.));
#1289 = DIRECTION('',(1.,0.,-0.));
#1290 = DIRECTION('',(0.,0.,1.));
#1291 = ORIENTED_EDGE('',*,*,#809,.F.);
#1292 = CYLINDRICAL_SURFACE('',#1293,1.);
#1293 = AXIS2_PLACEMENT_3D('',#1294,#1295,#1296);
#1294 = CARTESIAN_POINT('',(20.05,-26.,3.));
#1295 = DIRECTION('',(1.,0.,0.));
#1296 = DIRECTION('',(0.,-1.,0.));
#1297 = ADVANCED_FACE('',(#1298),#1318,.T.);
#1298 = FACE_BOUND('',#1299,.T.);
#1299 = EDGE_LOOP('',(#1300,#1309,#1316,#1317));
#1300 = ORIENTED_EDGE('',*,*,#1301,.F.);
#1301 = EDGE_CURVE('',#1302,#835,#1304,.T.);
#1302 = VERTEX_POINT('',#1303);
#1303 = CARTESIAN_POINT('',(13.95,-19.25,4.));
#1304 = CIRCLE('',#1305,1.);
#1305 = AXIS2_PLACEMENT_3D('',#1306,#1307,#1308);
#1306 = CARTESIAN_POINT('',(13.95,-19.25,3.));
#1307 = DIRECTION('',(1.,0.,0.));
#1308 = DIRECTION('',(0.,1.,0.));
#1309 = ORIENTED_EDGE('',*,*,#1310,.T.);
#1310 = EDGE_CURVE('',#1302,#1222,#1311,.T.);
#1311 = CIRCLE('',#1312,2.);
#1312 = AXIS2_PLACEMENT_3D('',#1313,#1314,#1315);
#1313 = CARTESIAN_POINT('',(13.95,-21.25,4.));
#1314 = DIRECTION('',(0.,-0.,1.));
#1315 = DIRECTION('',(0.,1.,0.));
#1316 = ORIENTED_EDGE('',*,*,#1221,.T.);
#1317 = ORIENTED_EDGE('',*,*,#842,.F.);
#1318 = TOROIDAL_SURFACE('',#1319,2.,1.);
#1319 = AXIS2_PLACEMENT_3D('',#1320,#1321,#1322);
#1320 = CARTESIAN_POINT('',(13.95,-21.25,3.));
#1321 = DIRECTION('',(0.,0.,1.));
#1322 = DIRECTION('',(0.,1.,0.));
#1323 = ADVANCED_FACE('',(#1324),#1349,.T.);
#1324 = FACE_BOUND('',#1325,.T.);
#1325 = EDGE_LOOP('',(#1326,#1327,#1334,#1342));
#1326 = ORIENTED_EDGE('',*,*,#865,.F.);
#1327 = ORIENTED_EDGE('',*,*,#1328,.F.);
#1328 = EDGE_CURVE('',#1271,#858,#1329,.T.);
#1329 = CIRCLE('',#1330,1.);
#1330 = AXIS2_PLACEMENT_3D('',#1331,#1332,#1333);
#1331 = CARTESIAN_POINT('',(21.05,-26.,3.));
#1332 = DIRECTION('',(0.,-1.,0.));
#1333 = DIRECTION('',(0.,0.,1.));
#1334 = ORIENTED_EDGE('',*,*,#1335,.T.);
#1335 = EDGE_CURVE('',#1271,#1336,#1338,.T.);
#1336 = VERTEX_POINT('',#1337);
#1337 = CARTESIAN_POINT('',(21.05,-21.25,4.));
#1338 = LINE('',#1339,#1340);
#1339 = CARTESIAN_POINT('',(21.05,-27.,4.));
#1340 = VECTOR('',#1341,1.);
#1341 = DIRECTION('',(0.,1.,0.));
#1342 = ORIENTED_EDGE('',*,*,#1343,.T.);
#1343 = EDGE_CURVE('',#1336,#866,#1344,.T.);
#1344 = CIRCLE('',#1345,1.);
#1345 = AXIS2_PLACEMENT_3D('',#1346,#1347,#1348);
#1346 = CARTESIAN_POINT('',(21.05,-21.25,3.));
#1347 = DIRECTION('',(6.E-17,-1.,0.));
#1348 = DIRECTION('',(1.,6.E-17,0.));
#1349 = CYLINDRICAL_SURFACE('',#1350,1.);
#1350 = AXIS2_PLACEMENT_3D('',#1351,#1352,#1353);
#1351 = CARTESIAN_POINT('',(21.05,-27.,3.));
#1352 = DIRECTION('',(0.,1.,0.));
#1353 = DIRECTION('',(-1.,0.,0.));
#1354 = ADVANCED_FACE('',(#1355),#1374,.T.);
#1355 = FACE_BOUND('',#1356,.T.);
#1356 = EDGE_LOOP('',(#1357,#1366,#1372,#1373));
#1357 = ORIENTED_EDGE('',*,*,#1358,.F.);
#1358 = EDGE_CURVE('',#1359,#889,#1361,.T.);
#1359 = VERTEX_POINT('',#1360);
#1360 = CARTESIAN_POINT('',(19.05,-19.25,4.));
#1361 = CIRCLE('',#1362,1.);
#1362 = AXIS2_PLACEMENT_3D('',#1363,#1364,#1365);
#1363 = CARTESIAN_POINT('',(19.05,-19.25,3.));
#1364 = DIRECTION('',(1.,0.,0.));
#1365 = DIRECTION('',(0.,1.,0.));
#1366 = ORIENTED_EDGE('',*,*,#1367,.T.);
#1367 = EDGE_CURVE('',#1359,#1302,#1368,.T.);
#1368 = LINE('',#1369,#1370);
#1369 = CARTESIAN_POINT('',(20.05,-19.25,4.));
#1370 = VECTOR('',#1371,1.);
#1371 = DIRECTION('',(-1.,0.,0.));
#1372 = ORIENTED_EDGE('',*,*,#1301,.T.);
#1373 = ORIENTED_EDGE('',*,*,#896,.F.);
#1374 = CYLINDRICAL_SURFACE('',#1375,1.);
#1375 = AXIS2_PLACEMENT_3D('',#1376,#1377,#1378);
#1376 = CARTESIAN_POINT('',(20.05,-19.25,3.));
#1377 = DIRECTION('',(-1.,0.,0.));
#1378 = DIRECTION('',(0.,-1.,0.));
#1379 = ADVANCED_FACE('',(#1380),#1392,.T.);
#1380 = FACE_BOUND('',#1381,.F.);
#1381 = EDGE_LOOP('',(#1382,#1383,#1390,#1391));
#1382 = ORIENTED_EDGE('',*,*,#1358,.F.);
#1383 = ORIENTED_EDGE('',*,*,#1384,.T.);
#1384 = EDGE_CURVE('',#1359,#1336,#1385,.T.);
#1385 = CIRCLE('',#1386,2.);
#1386 = AXIS2_PLACEMENT_3D('',#1387,#1388,#1389);
#1387 = CARTESIAN_POINT('',(19.05,-21.25,4.));
#1388 = DIRECTION('',(0.,0.,-1.));
#1389 = DIRECTION('',(0.,1.,0.));
#1390 = ORIENTED_EDGE('',*,*,#1343,.T.);
#1391 = ORIENTED_EDGE('',*,*,#915,.F.);
#1392 = TOROIDAL_SURFACE('',#1393,2.,1.);
#1393 = AXIS2_PLACEMENT_3D('',#1394,#1395,#1396);
#1394 = CARTESIAN_POINT('',(19.05,-21.25,3.));
#1395 = DIRECTION('',(0.,0.,1.));
#1396 = DIRECTION('',(0.,1.,0.));
#1397 = ADVANCED_FACE('',(#1398),#1417,.F.);
#1398 = FACE_BOUND('',#1399,.F.);
#1399 = EDGE_LOOP('',(#1400,#1408,#1409,#1410));
#1400 = ORIENTED_EDGE('',*,*,#1401,.F.);
#1401 = EDGE_CURVE('',#931,#1402,#1404,.T.);
#1402 = VERTEX_POINT('',#1403);
#1403 = CARTESIAN_POINT('',(18.8,-3.375,4.));
#1404 = LINE('',#1405,#1406);
#1405 = CARTESIAN_POINT('',(18.3,-3.375,3.5));
#1406 = VECTOR('',#1407,1.);
#1407 = DIRECTION('',(0.707106781187,0.,0.707106781187));
#1408 = ORIENTED_EDGE('',*,*,#938,.T.);
#1409 = ORIENTED_EDGE('',*,*,#1401,.T.);
#1410 = ORIENTED_EDGE('',*,*,#1411,.F.);
#1411 = EDGE_CURVE('',#1402,#1402,#1412,.T.);
#1412 = CIRCLE('',#1413,2.3);
#1413 = AXIS2_PLACEMENT_3D('',#1414,#1415,#1416);
#1414 = CARTESIAN_POINT('',(16.5,-3.375,4.));
#1415 = DIRECTION('',(0.,0.,1.));
#1416 = DIRECTION('',(1.,0.,0.));
#1417 = CONICAL_SURFACE('',#1418,1.8,0.785398163397);
#1418 = AXIS2_PLACEMENT_3D('',#1419,#1420,#1421);
#1419 = CARTESIAN_POINT('',(16.5,-3.375,3.5));
#1420 = DIRECTION('',(0.,0.,1.));
#1421 = DIRECTION('',(1.,0.,0.));
#1422 = ADVANCED_FACE('',(#1423),#1442,.F.);
#1423 = FACE_BOUND('',#1424,.F.);
#1424 = EDGE_LOOP('',(#1425,#1433,#1434,#1435));
#1425 = ORIENTED_EDGE('',*,*,#1426,.F.);
#1426 = EDGE_CURVE('',#956,#1427,#1429,.T.);
#1427 = VERTEX_POINT('',#1428);
#1428 = CARTESIAN_POINT('',(29.8,-23.625,4.));
#1429 = LINE('',#1430,#1431);
#1430 = CARTESIAN_POINT('',(29.3,-23.625,3.5));
#1431 = VECTOR('',#1432,1.);
#1432 = DIRECTION('',(0.707106781187,0.,0.707106781187));
#1433 = ORIENTED_EDGE('',*,*,#963,.T.);
#1434 = ORIENTED_EDGE('',*,*,#1426,.T.);
#1435 = ORIENTED_EDGE('',*,*,#1436,.F.);
#1436 = EDGE_CURVE('',#1427,#1427,#1437,.T.);
#1437 = CIRCLE('',#1438,2.3);
#1438 = AXIS2_PLACEMENT_3D('',#1439,#1440,#1441);
#1439 = CARTESIAN_POINT('',(27.5,-23.625,4.));
#1440 = DIRECTION('',(0.,0.,1.));
#1441 = DIRECTION('',(1.,0.,0.));
#1442 = CONICAL_SURFACE('',#1443,1.8,0.785398163397);
#1443 = AXIS2_PLACEMENT_3D('',#1444,#1445,#1446);
#1444 = CARTESIAN_POINT('',(27.5,-23.625,3.5));
#1445 = DIRECTION('',(0.,0.,1.));
#1446 = DIRECTION('',(1.,0.,0.));
#1447 = ADVANCED_FACE('',(#1448,#1451,#1463,#1466),#1469,.T.);
#1448 = FACE_BOUND('',#1449,.T.);
#1449 = EDGE_LOOP('',(#1450));
#1450 = ORIENTED_EDGE('',*,*,#1436,.F.);
#1451 = FACE_BOUND('',#1452,.T.);
#1452 = EDGE_LOOP('',(#1453,#1454,#1455,#1456,#1457,#1458,#1459,#1460,
    #1461,#1462));
#1453 = ORIENTED_EDGE('',*,*,#1367,.F.);
#1454 = ORIENTED_EDGE('',*,*,#1384,.T.);
#1455 = ORIENTED_EDGE('',*,*,#1335,.F.);
#1456 = ORIENTED_EDGE('',*,*,#1279,.T.);
#1457 = ORIENTED_EDGE('',*,*,#1199,.T.);
#1458 = ORIENTED_EDGE('',*,*,#1101,.T.);
#1459 = ORIENTED_EDGE('',*,*,#1033,.T.);
#1460 = ORIENTED_EDGE('',*,*,#1131,.T.);
#1461 = ORIENTED_EDGE('',*,*,#1230,.F.);
#1462 = ORIENTED_EDGE('',*,*,#1310,.F.);
#1463 = FACE_BOUND('',#1464,.T.);
#1464 = EDGE_LOOP('',(#1465));
#1465 = ORIENTED_EDGE('',*,*,#1411,.F.);
#1466 = FACE_BOUND('',#1467,.T.);
#1467 = EDGE_LOOP('',(#1468));
#1468 = ORIENTED_EDGE('',*,*,#990,.F.);
#1469 = PLANE('',#1470);
#1470 = AXIS2_PLACEMENT_3D('',#1471,#1472,#1473);
#1471 = CARTESIAN_POINT('',(16.5,-14.63557353398,4.));
#1472 = DIRECTION('',(0.,0.,1.));
#1473 = DIRECTION('',(1.,0.,0.));
#1474 = ADVANCED_FACE('',(#1475),#1480,.T.);
#1475 = FACE_BOUND('',#1476,.T.);
#1476 = EDGE_LOOP('',(#1477,#1478,#1479));
#1477 = ORIENTED_EDGE('',*,*,#1107,.F.);
#1478 = ORIENTED_EDGE('',*,*,#1008,.T.);
#1479 = ORIENTED_EDGE('',*,*,#1024,.F.);
#1480 = SPHERICAL_SURFACE('',#1481,1.);
#1481 = AXIS2_PLACEMENT_3D('',#1482,#1483,#1484);
#1482 = CARTESIAN_POINT('',(1.,-1.,3.));
#1483 = DIRECTION('',(0.,-1.,0.));
#1484 = DIRECTION('',(-3.3E-16,0.,1.));
#1485 = ADVANCED_FACE('',(#1486),#1491,.T.);
#1486 = FACE_BOUND('',#1487,.T.);
#1487 = EDGE_LOOP('',(#1488,#1489,#1490));
#1488 = ORIENTED_EDGE('',*,*,#1041,.F.);
#1489 = ORIENTED_EDGE('',*,*,#1059,.T.);
#1490 = ORIENTED_EDGE('',*,*,#1124,.F.);
#1491 = SPHERICAL_SURFACE('',#1492,1.);
#1492 = AXIS2_PLACEMENT_3D('',#1493,#1494,#1495);
#1493 = CARTESIAN_POINT('',(1.,-26.,3.));
#1494 = DIRECTION('',(1.,0.,0.));
#1495 = DIRECTION('',(0.,0.,1.));
#1496 = ADVANCED_FACE('',(#1497),#1502,.T.);
#1497 = FACE_BOUND('',#1498,.F.);
#1498 = EDGE_LOOP('',(#1499,#1500,#1501));
#1499 = ORIENTED_EDGE('',*,*,#1092,.F.);
#1500 = ORIENTED_EDGE('',*,*,#1077,.T.);
#1501 = ORIENTED_EDGE('',*,*,#1205,.F.);
#1502 = SPHERICAL_SURFACE('',#1503,1.);
#1503 = AXIS2_PLACEMENT_3D('',#1504,#1505,#1506);
#1504 = CARTESIAN_POINT('',(32.,-1.,3.));
#1505 = DIRECTION('',(0.,-1.,0.));
#1506 = DIRECTION('',(0.,0.,1.));
#1507 = ADVANCED_FACE('',(#1508),#1513,.T.);
#1508 = FACE_BOUND('',#1509,.T.);
#1509 = EDGE_LOOP('',(#1510,#1511,#1512));
#1510 = ORIENTED_EDGE('',*,*,#1139,.F.);
#1511 = ORIENTED_EDGE('',*,*,#1157,.T.);
#1512 = ORIENTED_EDGE('',*,*,#1236,.F.);
#1513 = SPHERICAL_SURFACE('',#1514,1.);
#1514 = AXIS2_PLACEMENT_3D('',#1515,#1516,#1517);
#1515 = CARTESIAN_POINT('',(11.95,-26.,3.));
#1516 = DIRECTION('',(0.,1.,0.));
#1517 = DIRECTION('',(0.,0.,1.));
#1518 = ADVANCED_FACE('',(#1519),#1524,.T.);
#1519 = FACE_BOUND('',#1520,.F.);
#1520 = EDGE_LOOP('',(#1521,#1522,#1523));
#1521 = ORIENTED_EDGE('',*,*,#1190,.F.);
#1522 = ORIENTED_EDGE('',*,*,#1175,.T.);
#1523 = ORIENTED_EDGE('',*,*,#1285,.F.);
#1524 = SPHERICAL_SURFACE('',#1525,1.);
#1525 = AXIS2_PLACEMENT_3D('',#1526,#1527,#1528);
#1526 = CARTESIAN_POINT('',(32.,-26.,3.));
#1527 = DIRECTION('',(-1.,0.,0.));
#1528 = DIRECTION('',(0.,0.,1.));
#1529 = ADVANCED_FACE('',(#1530),#1535,.T.);
#1530 = FACE_BOUND('',#1531,.F.);
#1531 = EDGE_LOOP('',(#1532,#1533,#1534));
#1532 = ORIENTED_EDGE('',*,*,#1270,.F.);
#1533 = ORIENTED_EDGE('',*,*,#1255,.T.);
#1534 = ORIENTED_EDGE('',*,*,#1328,.F.);
#1535 = SPHERICAL_SURFACE('',#1536,1.);
#1536 = AXIS2_PLACEMENT_3D('',#1537,#1538,#1539);
#1537 = CARTESIAN_POINT('',(21.05,-26.,3.));
#1538 = DIRECTION('',(0.,1.,0.));
#1539 = DIRECTION('',(0.,0.,1.));
#1540 = ( GEOMETRIC_REPRESENTATION_CONTEXT(3) 
GLOBAL_UNCERTAINTY_ASSIGNED_CONTEXT((#1544)) 
GLOBAL_UNIT_ASSIGNED_CONTEXT((#1541,#1542,#1543)) REPRESENTATION_CONTEXT
('Context #1','3D Context with UNIT and UNCERTAINTY') );
#1541 = ( LENGTH_UNIT() NAMED_UNIT(*) SI_UNIT(.MILLI.,.METRE.) );
#1542 = ( NAMED_UNIT(*) PLANE_ANGLE_UNIT() SI_UNIT($,.RADIAN.) );
#1543 = ( NAMED_UNIT(*) SI_UNIT($,.STERADIAN.) SOLID_ANGLE_UNIT() );
#1544 = UNCERTAINTY_MEASURE_WITH_UNIT(LENGTH_MEASURE(1.E-07),#1541,
  'distance_accuracy_value','confusion accuracy');
#1545 = PRODUCT_RELATED_PRODUCT_CATEGORY('part',$,(#7));
#1546 = MECHANICAL_DESIGN_GEOMETRIC_PRESENTATION_REPRESENTATION('',(
    #1547),#1540);
#1547 = STYLED_ITEM('color',(#1548),#15);
#1548 = PRESENTATION_STYLE_ASSIGNMENT((#1549,#1555));
#1549 = SURFACE_STYLE_USAGE(.BOTH.,#1550);
#1550 = SURFACE_SIDE_STYLE('',(#1551));
#1551 = SURFACE_STYLE_FILL_AREA(#1552);
#1552 = FILL_AREA_STYLE('',(#1553));
#1553 = FILL_AREA_STYLE_COLOUR('',#1554);
#1554 = COLOUR_RGB('',0.678431390124,0.709803936702,0.741176476869);
#1555 = CURVE_STYLE('',#1556,POSITIVE_LENGTH_MEASURE(0.1),#1557);
#1556 = DRAUGHTING_PRE_DEFINED_CURVE_FONT('continuous');
#1557 = COLOUR_RGB('',9.803921802644E-02,9.803921802644E-02,
  9.803921802644E-02);
ENDSEC;
END-ISO-10303-21;
