ISO-10303-21;
HEADER;
FILE_DESCRIPTION(('FreeCAD Model'),'2;1');
FILE_NAME('Open CASCADE Shape Model','2026-09-13T19:05:34',(''),(''),
  'Open CASCADE STEP processor 7.8','FreeCAD','Unknown');
FILE_SCHEMA(('AUTOMOTIVE_DESIGN { 1 0 10303 214 1 1 1 1 }'));
ENDSEC;
DATA;
#1 = APPLICATION_PROTOCOL_DEFINITION('international standard',
  'automotive_design',2000,#2);
#2 = APPLICATION_CONTEXT(
  'core data for automotive mechanical design processes');
#3 = SHAPE_DEFINITION_REPRESENTATION(#4,#10);
#4 = PRODUCT_DEFINITION_SHAPE('','',#5);
#5 = PRODUCT_DEFINITION('design','',#6,#9);
#6 = PRODUCT_DEFINITION_FORMATION('','',#7);
#7 = PRODUCT('Filter Cover','Filter Cover','',(#8));
#8 = PRODUCT_CONTEXT('',#2,'mechanical');
#9 = PRODUCT_DEFINITION_CONTEXT('part definition',#2,'design');
#10 = ADVANCED_BREP_SHAPE_REPRESENTATION('',(#11,#15),#1391);
#11 = AXIS2_PLACEMENT_3D('',#12,#13,#14);
#12 = CARTESIAN_POINT('',(0.,0.,0.));
#13 = DIRECTION('',(0.,0.,1.));
#14 = DIRECTION('',(1.,0.,-0.));
#15 = MANIFOLD_SOLID_BREP('',#16);
#16 = CLOSED_SHELL('',(#17,#112,#298,#345,#357,#382,#421,#453,#478,#496,
    #567,#607,#617,#661,#718,#742,#792,#819,#837,#860,#872,#904,#928,
    #959,#992,#1026,#1059,#1076,#1101,#1126,#1160,#1193,#1213,#1240,
    #1257,#1279,#1296,#1321,#1333,#1350,#1367,#1379));
#17 = ADVANCED_FACE('',(#18,#78),#107,.T.);
#18 = FACE_BOUND('',#19,.T.);
#19 = EDGE_LOOP('',(#20,#30,#39,#48,#56,#64,#72));
#20 = ORIENTED_EDGE('',*,*,#21,.T.);
#21 = EDGE_CURVE('',#22,#24,#26,.T.);
#22 = VERTEX_POINT('',#23);
#23 = CARTESIAN_POINT('',(56.708203932499,-0.5,29.5));
#24 = VERTEX_POINT('',#25);
#25 = CARTESIAN_POINT('',(56.708203932499,-1.675963691012,29.5));
#26 = LINE('',#27,#28);
#27 = CARTESIAN_POINT('',(56.708203932499,1.31E-14,29.5));
#28 = VECTOR('',#29,1.);
#29 = DIRECTION('',(0.,-1.,4.4E-16));
#30 = ORIENTED_EDGE('',*,*,#31,.T.);
#31 = EDGE_CURVE('',#24,#32,#34,.T.);
#32 = VERTEX_POINT('',#33);
#33 = CARTESIAN_POINT('',(55.12,-4.25,29.5));
#34 = CIRCLE('',#35,2.88);
#35 = AXIS2_PLACEMENT_3D('',#36,#37,#38);
#36 = CARTESIAN_POINT('',(58.,-4.25,29.5));
#37 = DIRECTION('',(0.,0.,1.));
#38 = DIRECTION('',(-1.,0.,0.));
#39 = ORIENTED_EDGE('',*,*,#40,.T.);
#40 = EDGE_CURVE('',#32,#41,#43,.T.);
#41 = VERTEX_POINT('',#42);
#42 = CARTESIAN_POINT('',(56.708203932499,-6.824036308988,29.5));
#43 = CIRCLE('',#44,2.88);
#44 = AXIS2_PLACEMENT_3D('',#45,#46,#47);
#45 = CARTESIAN_POINT('',(58.,-4.25,29.5));
#46 = DIRECTION('',(0.,0.,1.));
#47 = DIRECTION('',(-1.,0.,0.));
#48 = ORIENTED_EDGE('',*,*,#49,.T.);
#49 = EDGE_CURVE('',#41,#50,#52,.T.);
#50 = VERTEX_POINT('',#51);
#51 = CARTESIAN_POINT('',(56.708203932499,-8.,29.5));
#52 = LINE('',#53,#54);
#53 = CARTESIAN_POINT('',(56.708203932499,1.31E-14,29.5));
#54 = VECTOR('',#55,1.);
#55 = DIRECTION('',(0.,-1.,4.4E-16));
#56 = ORIENTED_EDGE('',*,*,#57,.F.);
#57 = EDGE_CURVE('',#58,#50,#60,.T.);
#58 = VERTEX_POINT('',#59);
#59 = CARTESIAN_POINT('',(60.5,-8.,29.5));
#60 = LINE('',#61,#62);
#61 = CARTESIAN_POINT('',(61.,-8.,29.5));
#62 = VECTOR('',#63,1.);
#63 = DIRECTION('',(-1.,0.,0.));
#64 = ORIENTED_EDGE('',*,*,#65,.F.);
#65 = EDGE_CURVE('',#66,#58,#68,.T.);
#66 = VERTEX_POINT('',#67);
#67 = CARTESIAN_POINT('',(60.5,-0.5,29.5));
#68 = LINE('',#69,#70);
#69 = CARTESIAN_POINT('',(60.5,1.289E-14,29.5));
#70 = VECTOR('',#71,1.);
#71 = DIRECTION('',(0.,-1.,4.4E-16));
#72 = ORIENTED_EDGE('',*,*,#73,.T.);
#73 = EDGE_CURVE('',#66,#22,#74,.T.);
#74 = LINE('',#75,#76);
#75 = CARTESIAN_POINT('',(61.,-0.5,29.5));
#76 = VECTOR('',#77,1.);
#77 = DIRECTION('',(-1.,0.,0.));
#78 = FACE_BOUND('',#79,.T.);
#79 = EDGE_LOOP('',(#80,#91,#100));
#80 = ORIENTED_EDGE('',*,*,#81,.F.);
#81 = EDGE_CURVE('',#82,#84,#86,.T.);
#82 = VERTEX_POINT('',#83);
#83 = CARTESIAN_POINT('',(55.7,-4.25,29.5));
#84 = VERTEX_POINT('',#85);
#85 = CARTESIAN_POINT('',(56.349371691527,-5.851694785927,29.5));
#86 = CIRCLE('',#87,2.3);
#87 = AXIS2_PLACEMENT_3D('',#88,#89,#90);
#88 = CARTESIAN_POINT('',(58.,-4.25,29.5));
#89 = DIRECTION('',(0.,4.1E-16,1.));
#90 = DIRECTION('',(-1.,-4.9E-16,2.009E-31));
#91 = ORIENTED_EDGE('',*,*,#92,.F.);
#92 = EDGE_CURVE('',#93,#82,#95,.T.);
#93 = VERTEX_POINT('',#94);
#94 = CARTESIAN_POINT('',(56.349371691527,-2.648305214072,29.5));
#95 = CIRCLE('',#96,2.3);
#96 = AXIS2_PLACEMENT_3D('',#97,#98,#99);
#97 = CARTESIAN_POINT('',(58.,-4.25,29.5));
#98 = DIRECTION('',(0.,4.1E-16,1.));
#99 = DIRECTION('',(-0.717664481945,0.69638903736,-2.855195053175E-16));
#100 = ORIENTED_EDGE('',*,*,#101,.F.);
#101 = EDGE_CURVE('',#84,#93,#102,.T.);
#102 = CIRCLE('',#103,2.3);
#103 = AXIS2_PLACEMENT_3D('',#104,#105,#106);
#104 = CARTESIAN_POINT('',(58.,-4.25,29.5));
#105 = DIRECTION('',(0.,4.1E-16,1.));
#106 = DIRECTION('',(-0.717664481945,-0.69638903736,2.855195053175E-16)
  );
#107 = PLANE('',#108);
#108 = AXIS2_PLACEMENT_3D('',#109,#110,#111);
#109 = CARTESIAN_POINT('',(58.520238681644,-4.25,29.5));
#110 = DIRECTION('',(0.,4.1E-16,1.));
#111 = DIRECTION('',(0.,-1.,4.1E-16));
#112 = ADVANCED_FACE('',(#113),#293,.T.);
#113 = FACE_BOUND('',#114,.F.);
#114 = EDGE_LOOP('',(#115,#125,#132,#133,#170,#205,#206,#215,#223));
#115 = ORIENTED_EDGE('',*,*,#116,.F.);
#116 = EDGE_CURVE('',#117,#119,#121,.T.);
#117 = VERTEX_POINT('',#118);
#118 = CARTESIAN_POINT('',(43.291796067501,-0.5,29.5));
#119 = VERTEX_POINT('',#120);
#120 = CARTESIAN_POINT('',(43.291796067501,-1.675963691012,29.5));
#121 = LINE('',#122,#123);
#122 = CARTESIAN_POINT('',(43.291796067501,1.31E-14,29.5));
#123 = VECTOR('',#124,1.);
#124 = DIRECTION('',(0.,-1.,4.4E-16));
#125 = ORIENTED_EDGE('',*,*,#126,.F.);
#126 = EDGE_CURVE('',#22,#117,#127,.T.);
#127 = CIRCLE('',#128,7.);
#128 = AXIS2_PLACEMENT_3D('',#129,#130,#131);
#129 = CARTESIAN_POINT('',(50.,-0.5,27.5));
#130 = DIRECTION('',(0.,-1.,0.));
#131 = DIRECTION('',(0.9583148475,0.,0.285714285714));
#132 = ORIENTED_EDGE('',*,*,#21,.T.);
#133 = ORIENTED_EDGE('',*,*,#134,.T.);
#134 = EDGE_CURVE('',#24,#135,#137,.T.);
#135 = VERTEX_POINT('',#136);
#136 = CARTESIAN_POINT('',(55.12,-4.25,32.273426442295));
#137 = B_SPLINE_CURVE_WITH_KNOTS('',6,(#138,#139,#140,#141,#142,#143,
    #144,#145,#146,#147,#148,#149,#150,#151,#152,#153,#154,#155,#156,
    #157,#158,#159,#160,#161,#162,#163,#164,#165,#166,#167,#168,#169),
  .UNSPECIFIED.,.F.,.F.,(7,5,5,5,5,5,7),(0.,0.367108340107,
    0.500825325293,0.579790359823,0.67224624304,0.784318170359,1.),
  .UNSPECIFIED.);
#138 = CARTESIAN_POINT('',(56.708203932499,-1.675963691012,29.5));
#139 = CARTESIAN_POINT('',(56.630538781699,-1.714940428067,
    29.760496835008));
#140 = CARTESIAN_POINT('',(56.540488044375,-1.763654176641,
    30.018201973101));
#141 = CARTESIAN_POINT('',(56.438502617128,-1.824217595273,
    30.271074215447));
#142 = CARTESIAN_POINT('',(56.325575055465,-1.899366922487,
    30.516923531212));
#143 = CARTESIAN_POINT('',(56.203455136053,-1.992457735483,
    30.753258000314));
#144 = CARTESIAN_POINT('',(56.028644285585,-2.149501691562,
    31.058690294489));
#145 = CARTESIAN_POINT('',(55.9812193653,-2.194311390528,31.138505114072
    ));
#146 = CARTESIAN_POINT('',(55.933268797006,-2.242125781505,
    31.216328817064));
#147 = CARTESIAN_POINT('',(55.885043591179,-2.293057223861,
    31.291925932757));
#148 = CARTESIAN_POINT('',(55.836815326488,-2.347204474431,
    31.365081958734));
#149 = CARTESIAN_POINT('',(55.76055907882,-2.438576017924,
    31.477247163871));
#150 = CARTESIAN_POINT('',(55.732352047134,-2.473643607217,
    31.517963343886));
#151 = CARTESIAN_POINT('',(55.704320409248,-2.509858425811,
    31.557696524565));
#152 = CARTESIAN_POINT('',(55.676534743426,-2.547220132497,
    31.596396925825));
#153 = CARTESIAN_POINT('',(55.649066363216,-2.585723783026,
    31.634019229923));
#154 = CARTESIAN_POINT('',(55.590281929008,-2.671767531466,
    31.713262379223));
#155 = CARTESIAN_POINT('',(55.559111248859,-2.719725809537,
    31.754466539561));
#156 = CARTESIAN_POINT('',(55.528597794132,-2.769207737061,
    31.794058993196));
#157 = CARTESIAN_POINT('',(55.498863286868,-2.820174546891,
    31.831973748598));
#158 = CARTESIAN_POINT('',(55.470026226481,-2.872575428274,
    31.868154144478));
#159 = CARTESIAN_POINT('',(55.408468789902,-2.991527814455,
    31.944248155512));
#160 = CARTESIAN_POINT('',(55.376227344427,-3.058713641959,
    31.983319288896));
#161 = CARTESIAN_POINT('',(55.345674299394,-3.127793498638,
    32.019682607639));
#162 = CARTESIAN_POINT('',(55.316996651638,-3.198630529556,32.0532729803
    ));
#163 = CARTESIAN_POINT('',(55.290363394575,-3.271062277974,
    32.084040968876));
#164 = CARTESIAN_POINT('',(55.218877914735,-3.487002151057,
    32.165663001641));
#165 = CARTESIAN_POINT('',(55.179983964398,-3.634196942446,
    32.208745772072));
#166 = CARTESIAN_POINT('',(55.150144571198,-3.785440290942,
    32.241093737367));
#167 = CARTESIAN_POINT('',(55.130038094087,-3.939446210689,
    32.262659399879));
#168 = CARTESIAN_POINT('',(55.12,-4.094786282174,32.273426442295));
#169 = CARTESIAN_POINT('',(55.12,-4.25,32.273426442295));
#170 = ORIENTED_EDGE('',*,*,#171,.T.);
#171 = EDGE_CURVE('',#135,#41,#172,.T.);
#172 = B_SPLINE_CURVE_WITH_KNOTS('',6,(#173,#174,#175,#176,#177,#178,
    #179,#180,#181,#182,#183,#184,#185,#186,#187,#188,#189,#190,#191,
    #192,#193,#194,#195,#196,#197,#198,#199,#200,#201,#202,#203,#204),
  .UNSPECIFIED.,.F.,.F.,(7,5,5,5,5,5,7),(0.,0.216031315851,
    0.327601635567,0.41992126307,0.500637752767,0.632940371958,1.),
  .UNSPECIFIED.);
#173 = CARTESIAN_POINT('',(55.12,-4.25,32.273426442295));
#174 = CARTESIAN_POINT('',(55.12,-4.405462988195,32.273426442295));
#175 = CARTESIAN_POINT('',(55.130070362421,-4.561053333962,
    32.262624786933));
#176 = CARTESIAN_POINT('',(55.150241665148,-4.715303053174,
    32.240989600519));
#177 = CARTESIAN_POINT('',(55.180176196812,-4.866776523887,
    32.208537375765));
#178 = CARTESIAN_POINT('',(55.21919105423,-5.014181738472,
    32.165316111427));
#179 = CARTESIAN_POINT('',(55.290741489942,-5.229955205807,
    32.083603680641));
#180 = CARTESIAN_POINT('',(55.317277400409,-5.302044295754,
    32.052942926238));
#181 = CARTESIAN_POINT('',(55.345838062369,-5.372551751002,
    32.019485441172));
#182 = CARTESIAN_POINT('',(55.376256662173,-5.441317383962,
    31.98328008508));
#183 = CARTESIAN_POINT('',(55.408348710267,-5.508206159328,
    31.944391138863));
#184 = CARTESIAN_POINT('',(55.469694664534,-5.626811730939,
    31.868568473836));
#185 = CARTESIAN_POINT('',(55.498479664792,-5.679148837327,
    31.832459123649));
#186 = CARTESIAN_POINT('',(55.52816041382,-5.730056596991,
    31.794620109478));
#187 = CARTESIAN_POINT('',(55.558618957898,-5.779484326853,
    31.75510779385));
#188 = CARTESIAN_POINT('',(55.589734127107,-5.827393321725,
    31.713987813426));
#189 = CARTESIAN_POINT('',(55.649055875604,-5.914292835349,
    31.63404451974));
#190 = CARTESIAN_POINT('',(55.67713563652,-5.9536458937,31.595583578618)
  );
#191 = CARTESIAN_POINT('',(55.705546310344,-5.991805669819,
    31.555996513206));
#192 = CARTESIAN_POINT('',(55.73421179724,-6.028767012787,
    31.515331700491));
#193 = CARTESIAN_POINT('',(55.76305681566,-6.064529778438,
    31.473642379257));
#194 = CARTESIAN_POINT('',(55.83945906869,-6.155761055347,
    31.361069527631));
#195 = CARTESIAN_POINT('',(55.887176771239,-6.209195587862,
    31.288581580039));
#196 = CARTESIAN_POINT('',(55.93488221332,-6.259484725708,
    31.213711636341));
#197 = CARTESIAN_POINT('',(55.982313148781,-6.306724870032,
    31.136667443364));
#198 = CARTESIAN_POINT('',(56.029227096821,-6.35102530797,
    31.057676727132));
#199 = CARTESIAN_POINT('',(56.203522811385,-6.507593554562,
    30.753126617857));
#200 = CARTESIAN_POINT('',(56.325624799612,-6.600666293616,
    30.516815188466));
#201 = CARTESIAN_POINT('',(56.438537180013,-6.675803058785,
    30.270989158372));
#202 = CARTESIAN_POINT('',(56.540509289298,-6.736357358687,
    30.01814171923));
#203 = CARTESIAN_POINT('',(56.630548429704,-6.785064413844,
    29.760464474617));
#204 = CARTESIAN_POINT('',(56.708203932499,-6.824036308988,29.5));
#205 = ORIENTED_EDGE('',*,*,#49,.T.);
#206 = ORIENTED_EDGE('',*,*,#207,.T.);
#207 = EDGE_CURVE('',#50,#208,#210,.T.);
#208 = VERTEX_POINT('',#209);
#209 = CARTESIAN_POINT('',(43.291796067501,-8.,29.5));
#210 = CIRCLE('',#211,7.);
#211 = AXIS2_PLACEMENT_3D('',#212,#213,#214);
#212 = CARTESIAN_POINT('',(50.,-8.,27.5));
#213 = DIRECTION('',(0.,-1.,0.));
#214 = DIRECTION('',(0.9583148475,0.,0.285714285714));
#215 = ORIENTED_EDGE('',*,*,#216,.F.);
#216 = EDGE_CURVE('',#217,#208,#219,.T.);
#217 = VERTEX_POINT('',#218);
#218 = CARTESIAN_POINT('',(43.291796067501,-6.824036308988,29.5));
#219 = LINE('',#220,#221);
#220 = CARTESIAN_POINT('',(43.291796067501,1.31E-14,29.5));
#221 = VECTOR('',#222,1.);
#222 = DIRECTION('',(0.,-1.,4.4E-16));
#223 = ORIENTED_EDGE('',*,*,#224,.T.);
#224 = EDGE_CURVE('',#217,#119,#225,.T.);
#225 = B_SPLINE_CURVE_WITH_KNOTS('',6,(#226,#227,#228,#229,#230,#231,
    #232,#233,#234,#235,#236,#237,#238,#239,#240,#241,#242,#243,#244,
    #245,#246,#247,#248,#249,#250,#251,#252,#253,#254,#255,#256,#257,
    #258,#259,#260,#261,#262,#263,#264,#265,#266,#267,#268,#269,#270,
    #271,#272,#273,#274,#275,#276,#277,#278,#279,#280,#281,#282,#283,
    #284,#285,#286,#287,#288,#289,#290,#291,#292),.UNSPECIFIED.,.F.,.F.,
  (7,5,5,5,5,5,5,5,5,5,5,5,5,7),(0.,0.18362283155,0.250506333676,
    0.290003620034,0.336248851789,0.392305771347,0.443329604534,
    0.500148412887,0.608132002653,0.663900600769,0.710046712542,
    0.750392979436,0.816524655933,1.),.UNSPECIFIED.);
#226 = CARTESIAN_POINT('',(43.291796067501,-6.824036308988,29.5));
#227 = CARTESIAN_POINT('',(43.369461218301,-6.785059571933,
    29.760496835008));
#228 = CARTESIAN_POINT('',(43.459511955625,-6.736345823359,
    30.018201973101));
#229 = CARTESIAN_POINT('',(43.561497382871,-6.675782404727,
    30.271074215447));
#230 = CARTESIAN_POINT('',(43.674424944535,-6.600633077513,
    30.516923531212));
#231 = CARTESIAN_POINT('',(43.796544863947,-6.507542264517,
    30.753258000314));
#232 = CARTESIAN_POINT('',(43.971355714415,-6.350498308438,
    31.058690294489));
#233 = CARTESIAN_POINT('',(44.0187806347,-6.305688609472,31.138505114073
    ));
#234 = CARTESIAN_POINT('',(44.066731202994,-6.257874218495,
    31.216328817064));
#235 = CARTESIAN_POINT('',(44.114956408821,-6.206942776139,
    31.291925932757));
#236 = CARTESIAN_POINT('',(44.163184673512,-6.152795525569,
    31.365081958734));
#237 = CARTESIAN_POINT('',(44.23944092118,-6.061423982076,
    31.477247163871));
#238 = CARTESIAN_POINT('',(44.267647952866,-6.026356392783,
    31.517963343886));
#239 = CARTESIAN_POINT('',(44.295679590752,-5.990141574189,
    31.557696524565));
#240 = CARTESIAN_POINT('',(44.323465256574,-5.952779867503,
    31.596396925825));
#241 = CARTESIAN_POINT('',(44.350933636784,-5.914276216974,
    31.634019229923));
#242 = CARTESIAN_POINT('',(44.409718069493,-5.828232470728,
    31.713262377203));
#243 = CARTESIAN_POINT('',(44.440888751616,-5.780274190016,
    31.754466540258));
#244 = CARTESIAN_POINT('',(44.471402207277,-5.730792260572,
    31.794058995019));
#245 = CARTESIAN_POINT('',(44.501136713412,-5.67982545229,
    31.831973748876));
#246 = CARTESIAN_POINT('',(44.52997377221,-5.627424574256,
    31.868154142859));
#247 = CARTESIAN_POINT('',(44.591531210098,-5.508472185545,
    31.944248155512));
#248 = CARTESIAN_POINT('',(44.623772655573,-5.441286358041,
    31.983319288896));
#249 = CARTESIAN_POINT('',(44.654325700606,-5.372206501362,
    32.019682607639));
#250 = CARTESIAN_POINT('',(44.683003348362,-5.301369470444,32.0532729803
    ));
#251 = CARTESIAN_POINT('',(44.709636605425,-5.228937722026,
    32.084040968876));
#252 = CARTESIAN_POINT('',(44.756329326691,-5.087890612505,
    32.137354660462));
#253 = CARTESIAN_POINT('',(44.77676438185,-5.01951628348,32.160390638144
    ));
#254 = CARTESIAN_POINT('',(44.795283119446,-4.950096942048,
    32.18104001216));
#255 = CARTESIAN_POINT('',(44.811796899646,-4.879764399208,
    32.199289735201));
#256 = CARTESIAN_POINT('',(44.826232883779,-4.808661546176,
    32.215131551831));
#257 = CARTESIAN_POINT('',(44.852236684364,-4.657077375329,
    32.243516016567));
#258 = CARTESIAN_POINT('',(44.863293549596,-4.576442102892,
    32.255480705478));
#259 = CARTESIAN_POINT('',(44.871634848192,-4.495222290088,
    32.264454027641));
#260 = CARTESIAN_POINT('',(44.877211847017,-4.413609696243,
    32.270435808241));
#261 = CARTESIAN_POINT('',(44.88,-4.331801519577,32.273426442295));
#262 = CARTESIAN_POINT('',(44.88,-4.094537011805,32.273426442295));
#263 = CARTESIAN_POINT('',(44.869929637579,-3.938946666037,
    32.262624786933));
#264 = CARTESIAN_POINT('',(44.849758334852,-3.784696946826,
    32.240989600519));
#265 = CARTESIAN_POINT('',(44.819823803188,-3.633223476113,
    32.208537375765));
#266 = CARTESIAN_POINT('',(44.78080894577,-3.485818261528,
    32.165316111427));
#267 = CARTESIAN_POINT('',(44.709258510058,-3.270044794193,
    32.083603680641));
#268 = CARTESIAN_POINT('',(44.682722599591,-3.197955704246,
    32.052942926238));
#269 = CARTESIAN_POINT('',(44.654161937631,-3.127448248997,
    32.019485441172));
#270 = CARTESIAN_POINT('',(44.623743337827,-3.058682616038,
    31.98328008508));
#271 = CARTESIAN_POINT('',(44.591651289733,-2.991793840672,
    31.944391138863));
#272 = CARTESIAN_POINT('',(44.530305334173,-2.873188266561,
    31.868568472238));
#273 = CARTESIAN_POINT('',(44.501520335487,-2.820851163487,
    31.832459123928));
#274 = CARTESIAN_POINT('',(44.471839587574,-2.769943405351,
    31.794620111282));
#275 = CARTESIAN_POINT('',(44.441381042567,-2.720515673582,
    31.755107794533));
#276 = CARTESIAN_POINT('',(44.410265871403,-2.672606676093,
    31.713987811418));
#277 = CARTESIAN_POINT('',(44.350944124396,-2.585707164651,
    31.634044519739));
#278 = CARTESIAN_POINT('',(44.32286436348,-2.5463541063,31.595583578618)
  );
#279 = CARTESIAN_POINT('',(44.294453689656,-2.508194330181,
    31.555996513206));
#280 = CARTESIAN_POINT('',(44.26578820276,-2.471232987213,
    31.515331700491));
#281 = CARTESIAN_POINT('',(44.23694318434,-2.435470221562,
    31.473642379257));
#282 = CARTESIAN_POINT('',(44.16054093131,-2.344238944653,
    31.361069527631));
#283 = CARTESIAN_POINT('',(44.112823228761,-2.290804412138,
    31.288581580039));
#284 = CARTESIAN_POINT('',(44.06511778668,-2.240515274292,
    31.213711636341));
#285 = CARTESIAN_POINT('',(44.017686851219,-2.193275129968,
    31.136667443364));
#286 = CARTESIAN_POINT('',(43.970772903179,-2.14897469203,
    31.057676727132));
#287 = CARTESIAN_POINT('',(43.796477188615,-1.992406445438,
    30.753126617857));
#288 = CARTESIAN_POINT('',(43.674375200388,-1.899333706384,
    30.516815188466));
#289 = CARTESIAN_POINT('',(43.561462819987,-1.824196941215,
    30.270989158372));
#290 = CARTESIAN_POINT('',(43.459490710702,-1.763642641313,
    30.01814171923));
#291 = CARTESIAN_POINT('',(43.369451570296,-1.714935586156,
    29.760464474617));
#292 = CARTESIAN_POINT('',(43.291796067501,-1.675963691012,29.5));
#293 = CYLINDRICAL_SURFACE('',#294,7.);
#294 = AXIS2_PLACEMENT_3D('',#295,#296,#297);
#295 = CARTESIAN_POINT('',(50.,1.221E-14,27.5));
#296 = DIRECTION('',(0.,1.,-4.4E-16));
#297 = DIRECTION('',(1.,0.,0.));
#298 = ADVANCED_FACE('',(#299),#340,.T.);
#299 = FACE_BOUND('',#300,.T.);
#300 = EDGE_LOOP('',(#301,#310,#318,#339));
#301 = ORIENTED_EDGE('',*,*,#302,.T.);
#302 = EDGE_CURVE('',#66,#303,#305,.T.);
#303 = VERTEX_POINT('',#304);
#304 = CARTESIAN_POINT('',(61.,0.,29.));
#305 = ELLIPSE('',#306,0.707106781187,0.5);
#306 = AXIS2_PLACEMENT_3D('',#307,#308,#309);
#307 = CARTESIAN_POINT('',(60.5,-0.5,29.));
#308 = DIRECTION('',(-0.707106781187,0.707106781187,-3.1E-16));
#309 = DIRECTION('',(-0.707106781187,-0.707106781187,3.1E-16));
#310 = ORIENTED_EDGE('',*,*,#311,.T.);
#311 = EDGE_CURVE('',#303,#312,#314,.T.);
#312 = VERTEX_POINT('',#313);
#313 = CARTESIAN_POINT('',(56.324555320337,7.E-15,29.));
#314 = LINE('',#315,#316);
#315 = CARTESIAN_POINT('',(61.,6.88E-15,29.));
#316 = VECTOR('',#317,1.);
#317 = DIRECTION('',(-1.,0.,0.));
#318 = ORIENTED_EDGE('',*,*,#319,.F.);
#319 = EDGE_CURVE('',#22,#312,#320,.T.);
#320 = B_SPLINE_CURVE_WITH_KNOTS('',5,(#321,#322,#323,#324,#325,#326,
    #327,#328,#329,#330,#331,#332,#333,#334,#335,#336,#337,#338),
  .UNSPECIFIED.,.F.,.F.,(6,4,4,4,6),(0.,0.253261816292,0.509404239124,
    0.752429318098,1.),.UNSPECIFIED.);
#321 = CARTESIAN_POINT('',(56.708203932499,-0.5,29.5));
#322 = CARTESIAN_POINT('',(56.708203932499,-0.458921974844,29.5));
#323 = CARTESIAN_POINT('',(56.70505966444,-0.417841177589,
    29.495781590244));
#324 = CARTESIAN_POINT('',(56.698770170128,-0.377416490083,
    29.487343038093));
#325 = CARTESIAN_POINT('',(56.689458054042,-0.338282112681,
    29.47487020723));
#326 = CARTESIAN_POINT('',(56.665072727275,-0.263232086827,
    29.442304411276));
#327 = CARTESIAN_POINT('',(56.649933994746,-0.2273547786,29.422124714403
    ));
#328 = CARTESIAN_POINT('',(56.632134458206,-0.193885272672,
    29.398464498179));
#329 = CARTESIAN_POINT('',(56.611968666063,-0.163240540372,
    29.371763606664));
#330 = CARTESIAN_POINT('',(56.568673332916,-0.109594750059,
    29.314702503876));
#331 = CARTESIAN_POINT('',(56.545748152878,-8.628237172084E-02,
    29.28459930667));
#332 = CARTESIAN_POINT('',(56.521245417916,-6.602456809785E-02,
    29.252567103911));
#333 = CARTESIAN_POINT('',(56.495449206068,-4.897339912653E-02,
    29.21901416447));
#334 = CARTESIAN_POINT('',(56.441328956888,-2.120508023591E-02,
    29.148997284834));
#335 = CARTESIAN_POINT('',(56.41296735636,-1.061274623927E-02,
    29.112491556208));
#336 = CARTESIAN_POINT('',(56.383851513192,-3.534310438728E-03,
    29.075225247468));
#337 = CARTESIAN_POINT('',(56.354280113258,1.464814814E-08,
    29.03759925017));
#338 = CARTESIAN_POINT('',(56.324555322337,6.72E-15,28.999999991567));
#339 = ORIENTED_EDGE('',*,*,#73,.F.);
#340 = CYLINDRICAL_SURFACE('',#341,0.5);
#341 = AXIS2_PLACEMENT_3D('',#342,#343,#344);
#342 = CARTESIAN_POINT('',(61.,-0.5,29.));
#343 = DIRECTION('',(-1.,0.,0.));
#344 = DIRECTION('',(0.,4.1E-16,1.));
#345 = ADVANCED_FACE('',(#346),#352,.F.);
#346 = FACE_BOUND('',#347,.T.);
#347 = EDGE_LOOP('',(#348,#349,#350,#351));
#348 = ORIENTED_EDGE('',*,*,#31,.F.);
#349 = ORIENTED_EDGE('',*,*,#134,.T.);
#350 = ORIENTED_EDGE('',*,*,#171,.T.);
#351 = ORIENTED_EDGE('',*,*,#40,.F.);
#352 = CYLINDRICAL_SURFACE('',#353,2.88);
#353 = AXIS2_PLACEMENT_3D('',#354,#355,#356);
#354 = CARTESIAN_POINT('',(58.,-4.25,29.5));
#355 = DIRECTION('',(0.,-2.2E-16,-1.));
#356 = DIRECTION('',(-1.,0.,0.));
#357 = ADVANCED_FACE('',(#358),#377,.T.);
#358 = FACE_BOUND('',#359,.F.);
#359 = EDGE_LOOP('',(#360,#361,#369,#376));
#360 = ORIENTED_EDGE('',*,*,#302,.T.);
#361 = ORIENTED_EDGE('',*,*,#362,.T.);
#362 = EDGE_CURVE('',#303,#363,#365,.T.);
#363 = VERTEX_POINT('',#364);
#364 = CARTESIAN_POINT('',(61.,-8.5,29.));
#365 = LINE('',#366,#367);
#366 = CARTESIAN_POINT('',(61.,1.267E-14,29.));
#367 = VECTOR('',#368,1.);
#368 = DIRECTION('',(0.,-1.,4.4E-16));
#369 = ORIENTED_EDGE('',*,*,#370,.F.);
#370 = EDGE_CURVE('',#58,#363,#371,.T.);
#371 = ELLIPSE('',#372,0.707106781187,0.5);
#372 = AXIS2_PLACEMENT_3D('',#373,#374,#375);
#373 = CARTESIAN_POINT('',(60.5,-8.,29.));
#374 = DIRECTION('',(0.707106781187,0.707106781187,-3.1E-16));
#375 = DIRECTION('',(-0.707106781187,0.707106781187,-3.1E-16));
#376 = ORIENTED_EDGE('',*,*,#65,.F.);
#377 = CYLINDRICAL_SURFACE('',#378,0.5);
#378 = AXIS2_PLACEMENT_3D('',#379,#380,#381);
#379 = CARTESIAN_POINT('',(60.5,1.267E-14,29.));
#380 = DIRECTION('',(0.,-1.,4.4E-16));
#381 = DIRECTION('',(0.,4.4E-16,1.));
#382 = ADVANCED_FACE('',(#383),#416,.T.);
#383 = FACE_BOUND('',#384,.F.);
#384 = EDGE_LOOP('',(#385,#386,#394,#415));
#385 = ORIENTED_EDGE('',*,*,#370,.T.);
#386 = ORIENTED_EDGE('',*,*,#387,.T.);
#387 = EDGE_CURVE('',#363,#388,#390,.T.);
#388 = VERTEX_POINT('',#389);
#389 = CARTESIAN_POINT('',(56.324555320337,-8.5,29.));
#390 = LINE('',#391,#392);
#391 = CARTESIAN_POINT('',(61.,-8.5,29.));
#392 = VECTOR('',#393,1.);
#393 = DIRECTION('',(-1.,0.,0.));
#394 = ORIENTED_EDGE('',*,*,#395,.F.);
#395 = EDGE_CURVE('',#50,#388,#396,.T.);
#396 = B_SPLINE_CURVE_WITH_KNOTS('',5,(#397,#398,#399,#400,#401,#402,
    #403,#404,#405,#406,#407,#408,#409,#410,#411,#412,#413,#414),
  .UNSPECIFIED.,.F.,.F.,(6,4,4,4,6),(0.,0.253261817956,0.509404242454,
    0.752429323009,1.),.UNSPECIFIED.);
#397 = CARTESIAN_POINT('',(56.708203932499,-8.,29.5));
#398 = CARTESIAN_POINT('',(56.708203932499,-8.041078025158,29.5));
#399 = CARTESIAN_POINT('',(56.705059664439,-8.082158822416,
    29.495781590243));
#400 = CARTESIAN_POINT('',(56.698770170127,-8.122583509925,
    29.487343038092));
#401 = CARTESIAN_POINT('',(56.689458054039,-8.161717887329,
    29.474870207227));
#402 = CARTESIAN_POINT('',(56.665072727271,-8.236767913184,
    29.44230441127));
#403 = CARTESIAN_POINT('',(56.649933994741,-8.272645221411,
    29.422124714396));
#404 = CARTESIAN_POINT('',(56.6321344582,-8.306114727339,29.398464498171
    ));
#405 = CARTESIAN_POINT('',(56.611968666056,-8.336759459638,
    29.371763606655));
#406 = CARTESIAN_POINT('',(56.568673332908,-8.39040524995,
    29.314702503866));
#407 = CARTESIAN_POINT('',(56.54574815287,-8.413717628287,29.28459930666
    ));
#408 = CARTESIAN_POINT('',(56.521245417907,-8.433975431909,29.2525671039
    ));
#409 = CARTESIAN_POINT('',(56.495449206059,-8.451026600879,
    29.219014164458));
#410 = CARTESIAN_POINT('',(56.441328957598,-8.478794919399,
    29.148997285753));
#411 = CARTESIAN_POINT('',(56.412967363269,-8.489387253241,
    29.112491552929));
#412 = CARTESIAN_POINT('',(56.383851502236,-8.496465688997,
    29.075225262602));
#413 = CARTESIAN_POINT('',(56.354280129527,-8.500000014294,
    29.037599241772));
#414 = CARTESIAN_POINT('',(56.324555319812,-8.5,29.00000000221));
#415 = ORIENTED_EDGE('',*,*,#57,.F.);
#416 = CYLINDRICAL_SURFACE('',#417,0.5);
#417 = AXIS2_PLACEMENT_3D('',#418,#419,#420);
#418 = CARTESIAN_POINT('',(61.,-8.,29.));
#419 = DIRECTION('',(-1.,0.,0.));
#420 = DIRECTION('',(0.,4.1E-16,1.));
#421 = ADVANCED_FACE('',(#422),#448,.F.);
#422 = FACE_BOUND('',#423,.T.);
#423 = EDGE_LOOP('',(#424,#432,#433,#441));
#424 = ORIENTED_EDGE('',*,*,#425,.F.);
#425 = EDGE_CURVE('',#82,#426,#428,.T.);
#426 = VERTEX_POINT('',#427);
#427 = CARTESIAN_POINT('',(56.2,-4.25,29.));
#428 = LINE('',#429,#430);
#429 = CARTESIAN_POINT('',(56.2,-4.25,29.));
#430 = VECTOR('',#431,1.);
#431 = DIRECTION('',(0.707106781187,-2.9E-16,-0.707106781187));
#432 = ORIENTED_EDGE('',*,*,#81,.T.);
#433 = ORIENTED_EDGE('',*,*,#434,.T.);
#434 = EDGE_CURVE('',#84,#435,#437,.T.);
#435 = VERTEX_POINT('',#436);
#436 = CARTESIAN_POINT('',(56.708203932499,-5.503500267248,29.));
#437 = LINE('',#438,#439);
#438 = CARTESIAN_POINT('',(56.708203932499,-5.503500267248,29.));
#439 = VECTOR('',#440,1.);
#440 = DIRECTION('',(0.5074654218,0.492421410661,-0.707106781187));
#441 = ORIENTED_EDGE('',*,*,#442,.F.);
#442 = EDGE_CURVE('',#426,#435,#443,.T.);
#443 = CIRCLE('',#444,1.8);
#444 = AXIS2_PLACEMENT_3D('',#445,#446,#447);
#445 = CARTESIAN_POINT('',(58.,-4.25,29.));
#446 = DIRECTION('',(0.,4.1E-16,1.));
#447 = DIRECTION('',(-1.,-4.9E-16,2.009E-31));
#448 = CONICAL_SURFACE('',#449,1.8,0.785398163397);
#449 = AXIS2_PLACEMENT_3D('',#450,#451,#452);
#450 = CARTESIAN_POINT('',(58.,-4.25,29.));
#451 = DIRECTION('',(0.,4.1E-16,1.));
#452 = DIRECTION('',(-1.,-4.9E-16,2.009E-31));
#453 = ADVANCED_FACE('',(#454),#473,.F.);
#454 = FACE_BOUND('',#455,.T.);
#455 = EDGE_LOOP('',(#456,#464,#465,#466));
#456 = ORIENTED_EDGE('',*,*,#457,.F.);
#457 = EDGE_CURVE('',#93,#458,#460,.T.);
#458 = VERTEX_POINT('',#459);
#459 = CARTESIAN_POINT('',(56.708203932499,-2.996499732752,29.));
#460 = LINE('',#461,#462);
#461 = CARTESIAN_POINT('',(56.708203932499,-2.996499732752,29.));
#462 = VECTOR('',#463,1.);
#463 = DIRECTION('',(0.5074654218,-0.492421410661,-0.707106781187));
#464 = ORIENTED_EDGE('',*,*,#92,.T.);
#465 = ORIENTED_EDGE('',*,*,#425,.T.);
#466 = ORIENTED_EDGE('',*,*,#467,.F.);
#467 = EDGE_CURVE('',#458,#426,#468,.T.);
#468 = CIRCLE('',#469,1.8);
#469 = AXIS2_PLACEMENT_3D('',#470,#471,#472);
#470 = CARTESIAN_POINT('',(58.,-4.25,29.));
#471 = DIRECTION('',(0.,4.1E-16,1.));
#472 = DIRECTION('',(-0.717664481945,0.69638903736,-2.855195053175E-16)
  );
#473 = CONICAL_SURFACE('',#474,1.8,0.785398163397);
#474 = AXIS2_PLACEMENT_3D('',#475,#476,#477);
#475 = CARTESIAN_POINT('',(58.,-4.25,29.));
#476 = DIRECTION('',(0.,4.1E-16,1.));
#477 = DIRECTION('',(-0.717664481945,0.69638903736,-2.855195053175E-16)
  );
#478 = ADVANCED_FACE('',(#479),#491,.F.);
#479 = FACE_BOUND('',#480,.T.);
#480 = EDGE_LOOP('',(#481,#482,#483,#484));
#481 = ORIENTED_EDGE('',*,*,#434,.F.);
#482 = ORIENTED_EDGE('',*,*,#101,.T.);
#483 = ORIENTED_EDGE('',*,*,#457,.T.);
#484 = ORIENTED_EDGE('',*,*,#485,.F.);
#485 = EDGE_CURVE('',#435,#458,#486,.T.);
#486 = CIRCLE('',#487,1.8);
#487 = AXIS2_PLACEMENT_3D('',#488,#489,#490);
#488 = CARTESIAN_POINT('',(58.,-4.25,29.));
#489 = DIRECTION('',(0.,4.1E-16,1.));
#490 = DIRECTION('',(-0.717664481945,-0.69638903736,2.855195053175E-16)
  );
#491 = CONICAL_SURFACE('',#492,1.8,0.785398163397);
#492 = AXIS2_PLACEMENT_3D('',#493,#494,#495);
#493 = CARTESIAN_POINT('',(58.,-4.25,29.));
#494 = DIRECTION('',(0.,4.1E-16,1.));
#495 = DIRECTION('',(-0.717664481945,-0.69638903736,2.855195053175E-16)
  );
#496 = ADVANCED_FACE('',(#497,#530),#562,.T.);
#497 = FACE_BOUND('',#498,.T.);
#498 = EDGE_LOOP('',(#499,#500,#507,#508,#516,#524));
#499 = ORIENTED_EDGE('',*,*,#216,.F.);
#500 = ORIENTED_EDGE('',*,*,#501,.T.);
#501 = EDGE_CURVE('',#217,#119,#502,.T.);
#502 = CIRCLE('',#503,2.88);
#503 = AXIS2_PLACEMENT_3D('',#504,#505,#506);
#504 = CARTESIAN_POINT('',(42.,-4.25,29.5));
#505 = DIRECTION('',(0.,0.,1.));
#506 = DIRECTION('',(-1.,0.,0.));
#507 = ORIENTED_EDGE('',*,*,#116,.F.);
#508 = ORIENTED_EDGE('',*,*,#509,.T.);
#509 = EDGE_CURVE('',#117,#510,#512,.T.);
#510 = VERTEX_POINT('',#511);
#511 = CARTESIAN_POINT('',(39.5,-0.5,29.5));
#512 = LINE('',#513,#514);
#513 = CARTESIAN_POINT('',(43.291796067501,-0.5,29.5));
#514 = VECTOR('',#515,1.);
#515 = DIRECTION('',(-1.,0.,0.));
#516 = ORIENTED_EDGE('',*,*,#517,.T.);
#517 = EDGE_CURVE('',#510,#518,#520,.T.);
#518 = VERTEX_POINT('',#519);
#519 = CARTESIAN_POINT('',(39.5,-8.,29.5));
#520 = LINE('',#521,#522);
#521 = CARTESIAN_POINT('',(39.5,1.289E-14,29.5));
#522 = VECTOR('',#523,1.);
#523 = DIRECTION('',(0.,-1.,4.4E-16));
#524 = ORIENTED_EDGE('',*,*,#525,.F.);
#525 = EDGE_CURVE('',#208,#518,#526,.T.);
#526 = LINE('',#527,#528);
#527 = CARTESIAN_POINT('',(43.291796067501,-8.,29.5));
#528 = VECTOR('',#529,1.);
#529 = DIRECTION('',(-1.,0.,0.));
#530 = FACE_BOUND('',#531,.T.);
#531 = EDGE_LOOP('',(#532,#543,#552));
#532 = ORIENTED_EDGE('',*,*,#533,.F.);
#533 = EDGE_CURVE('',#534,#536,#538,.T.);
#534 = VERTEX_POINT('',#535);
#535 = CARTESIAN_POINT('',(39.7,-4.25,29.5));
#536 = VERTEX_POINT('',#537);
#537 = CARTESIAN_POINT('',(43.650628308473,-5.851694785928,29.5));
#538 = CIRCLE('',#539,2.3);
#539 = AXIS2_PLACEMENT_3D('',#540,#541,#542);
#540 = CARTESIAN_POINT('',(42.,-4.25,29.5));
#541 = DIRECTION('',(0.,4.1E-16,1.));
#542 = DIRECTION('',(-1.,0.,0.));
#543 = ORIENTED_EDGE('',*,*,#544,.F.);
#544 = EDGE_CURVE('',#545,#534,#547,.T.);
#545 = VERTEX_POINT('',#546);
#546 = CARTESIAN_POINT('',(43.650628309987,-2.648305212603,29.5));
#547 = CIRCLE('',#548,2.3);
#548 = AXIS2_PLACEMENT_3D('',#549,#550,#551);
#549 = CARTESIAN_POINT('',(42.,-4.25,29.5));
#550 = DIRECTION('',(-2.465190328816E-32,4.1E-16,1.));
#551 = DIRECTION('',(0.717664481945,0.69638903736,-2.855195053175E-16));
#552 = ORIENTED_EDGE('',*,*,#553,.F.);
#553 = EDGE_CURVE('',#536,#545,#554,.T.);
#554 = B_SPLINE_CURVE_WITH_KNOTS('',6,(#555,#556,#557,#558,#559,#560,
    #561),.UNSPECIFIED.,.F.,.F.,(7,7),(4.268230323939,7.041503228985),
  .PIECEWISE_BEZIER_KNOTS.);
#555 = CARTESIAN_POINT('',(43.650628308473,-5.851694785928,29.5));
#556 = CARTESIAN_POINT('',(44.061917070842,-5.42784070331,29.5));
#557 = CARTESIAN_POINT('',(44.342600767046,-4.877304316858,29.5));
#558 = CARTESIAN_POINT('',(44.443885319169,-4.25,29.5));
#559 = CARTESIAN_POINT('',(44.342600767046,-3.622695683142,29.5));
#560 = CARTESIAN_POINT('',(44.061917070842,-3.07215929669,29.5));
#561 = CARTESIAN_POINT('',(43.650628309987,-2.648305212603,29.5));
#562 = PLANE('',#563);
#563 = AXIS2_PLACEMENT_3D('',#564,#565,#566);
#564 = CARTESIAN_POINT('',(41.449741258279,-4.25,29.5));
#565 = DIRECTION('',(0.,4.1E-16,1.));
#566 = DIRECTION('',(0.,-1.,4.1E-16));
#567 = ADVANCED_FACE('',(#568),#602,.T.);
#568 = FACE_BOUND('',#569,.T.);
#569 = EDGE_LOOP('',(#570,#579,#600,#601));
#570 = ORIENTED_EDGE('',*,*,#571,.T.);
#571 = EDGE_CURVE('',#312,#572,#574,.T.);
#572 = VERTEX_POINT('',#573);
#573 = CARTESIAN_POINT('',(43.675444679663,7.E-15,29.));
#574 = CIRCLE('',#575,6.5);
#575 = AXIS2_PLACEMENT_3D('',#576,#577,#578);
#576 = CARTESIAN_POINT('',(50.,6.69E-15,27.5));
#577 = DIRECTION('',(0.,-1.,0.));
#578 = DIRECTION('',(0.9583148475,0.,0.285714285714));
#579 = ORIENTED_EDGE('',*,*,#580,.T.);
#580 = EDGE_CURVE('',#572,#117,#581,.T.);
#581 = B_SPLINE_CURVE_WITH_KNOTS('',5,(#582,#583,#584,#585,#586,#587,
    #588,#589,#590,#591,#592,#593,#594,#595,#596,#597,#598,#599),
  .UNSPECIFIED.,.F.,.F.,(6,4,4,4,6),(0.,0.247570678007,0.490595758234,
    0.746738182386,1.),.UNSPECIFIED.);
#582 = CARTESIAN_POINT('',(43.675444679663,6.8E-15,29.));
#583 = CARTESIAN_POINT('',(43.645719873852,1.436737109E-08,
    29.037599243515));
#584 = CARTESIAN_POINT('',(43.61614849549,-3.534310885768E-03,
    29.075225259458));
#585 = CARTESIAN_POINT('',(43.587032638167,-1.061274665064E-02,
    29.112491553608));
#586 = CARTESIAN_POINT('',(43.558671042551,-2.120508052472E-02,
    29.14899728556));
#587 = CARTESIAN_POINT('',(43.504550793941,-4.897339912082E-02,
    29.219014164458));
#588 = CARTESIAN_POINT('',(43.478754582093,-6.602456809127E-02,
    29.2525671039));
#589 = CARTESIAN_POINT('',(43.45425184713,-8.628237171343E-02,
    29.28459930666));
#590 = CARTESIAN_POINT('',(43.431326667092,-0.10959475005,
    29.314702503866));
#591 = CARTESIAN_POINT('',(43.388031333944,-0.163240540362,
    29.371763606655));
#592 = CARTESIAN_POINT('',(43.3678655418,-0.193885272661,29.398464498171
    ));
#593 = CARTESIAN_POINT('',(43.350066005259,-0.227354778589,
    29.422124714396));
#594 = CARTESIAN_POINT('',(43.334927272729,-0.263232086816,
    29.44230441127));
#595 = CARTESIAN_POINT('',(43.310541945961,-0.338282112671,
    29.474870207227));
#596 = CARTESIAN_POINT('',(43.301229829873,-0.377416490075,
    29.487343038092));
#597 = CARTESIAN_POINT('',(43.294940335561,-0.417841177584,
    29.495781590243));
#598 = CARTESIAN_POINT('',(43.291796067501,-0.458921974842,29.5));
#599 = CARTESIAN_POINT('',(43.291796067501,-0.5,29.5));
#600 = ORIENTED_EDGE('',*,*,#126,.F.);
#601 = ORIENTED_EDGE('',*,*,#319,.T.);
#602 = TOROIDAL_SURFACE('',#603,6.5,0.5);
#603 = AXIS2_PLACEMENT_3D('',#604,#605,#606);
#604 = CARTESIAN_POINT('',(50.,-0.5,27.5));
#605 = DIRECTION('',(0.,-1.,0.));
#606 = DIRECTION('',(0.9583148475,0.,0.285714285714));
#607 = ADVANCED_FACE('',(#608),#612,.F.);
#608 = FACE_BOUND('',#609,.T.);
#609 = EDGE_LOOP('',(#610,#611));
#610 = ORIENTED_EDGE('',*,*,#501,.F.);
#611 = ORIENTED_EDGE('',*,*,#224,.T.);
#612 = CYLINDRICAL_SURFACE('',#613,2.88);
#613 = AXIS2_PLACEMENT_3D('',#614,#615,#616);
#614 = CARTESIAN_POINT('',(42.,-4.25,29.5));
#615 = DIRECTION('',(0.,-2.2E-16,-1.));
#616 = DIRECTION('',(-1.,0.,0.));
#617 = ADVANCED_FACE('',(#618),#656,.T.);
#618 = FACE_BOUND('',#619,.T.);
#619 = EDGE_LOOP('',(#620,#629,#630,#631));
#620 = ORIENTED_EDGE('',*,*,#621,.F.);
#621 = EDGE_CURVE('',#388,#622,#624,.T.);
#622 = VERTEX_POINT('',#623);
#623 = CARTESIAN_POINT('',(43.675444679663,-8.5,29.));
#624 = CIRCLE('',#625,6.5);
#625 = AXIS2_PLACEMENT_3D('',#626,#627,#628);
#626 = CARTESIAN_POINT('',(50.,-8.5,27.5));
#627 = DIRECTION('',(0.,-1.,0.));
#628 = DIRECTION('',(0.9583148475,0.,0.285714285714));
#629 = ORIENTED_EDGE('',*,*,#395,.F.);
#630 = ORIENTED_EDGE('',*,*,#207,.T.);
#631 = ORIENTED_EDGE('',*,*,#632,.F.);
#632 = EDGE_CURVE('',#622,#208,#633,.T.);
#633 = B_SPLINE_CURVE_WITH_KNOTS('',5,(#634,#635,#636,#637,#638,#639,
    #640,#641,#642,#643,#644,#645,#646,#647,#648,#649,#650,#651,#652,
    #653,#654,#655),.UNSPECIFIED.,.F.,.F.,(6,4,4,4,4,6),(0.,
    3.140084796406E-02,0.24859343201,0.490595535029,0.746738071436,1.),
  .UNSPECIFIED.);
#634 = CARTESIAN_POINT('',(43.675444682109,-8.5,29.000000010313));
#635 = CARTESIAN_POINT('',(43.671674502789,-8.499999999946,
    29.004768925569));
#636 = CARTESIAN_POINT('',(43.667906798989,-8.499943143284,
    29.009538300812));
#637 = CARTESIAN_POINT('',(43.66414217201,-8.499829408739,
    29.014307324716));
#638 = CARTESIAN_POINT('',(43.660381235409,-8.499658786295,
    29.019075196816));
#639 = CARTESIAN_POINT('',(43.630640918792,-8.497857648044,
    29.056805995289));
#640 = CARTESIAN_POINT('',(43.604863858968,-8.493562462336,
    29.089677487738));
#641 = CARTESIAN_POINT('',(43.579496511929,-8.486546307158,
    29.122192655432));
#642 = CARTESIAN_POINT('',(43.554740472394,-8.476834948746,
    29.154079704397));
#643 = CARTESIAN_POINT('',(43.50411654937,-8.45073913626,29.219579000715
    ));
#644 = CARTESIAN_POINT('',(43.478445221446,-8.433719431805,
    29.252971534617));
#645 = CARTESIAN_POINT('',(43.454058862355,-8.413521302931,
    29.284852718378));
#646 = CARTESIAN_POINT('',(43.431237929863,-8.390295298639,
    29.314819455135));
#647 = CARTESIAN_POINT('',(43.388031333926,-8.336759459612,
    29.371763606678));
#648 = CARTESIAN_POINT('',(43.367865541784,-8.306114727311,
    29.398464498192));
#649 = CARTESIAN_POINT('',(43.350066005245,-8.272645221381,
    29.422124714416));
#650 = CARTESIAN_POINT('',(43.334927272717,-8.236767913153,
    29.442304411287));
#651 = CARTESIAN_POINT('',(43.310541945954,-8.161717887302,
    29.474870207236));
#652 = CARTESIAN_POINT('',(43.30122982987,-8.122583509904,
    29.487343038096));
#653 = CARTESIAN_POINT('',(43.29494033556,-8.082158822402,
    29.495781590245));
#654 = CARTESIAN_POINT('',(43.291796067501,-8.041078025151,29.5));
#655 = CARTESIAN_POINT('',(43.291796067501,-8.,29.5));
#656 = TOROIDAL_SURFACE('',#657,6.5,0.5);
#657 = AXIS2_PLACEMENT_3D('',#658,#659,#660);
#658 = CARTESIAN_POINT('',(50.,-8.,27.5));
#659 = DIRECTION('',(0.,-1.,0.));
#660 = DIRECTION('',(0.9583148475,0.,0.285714285714));
#661 = ADVANCED_FACE('',(#662),#713,.T.);
#662 = FACE_BOUND('',#663,.T.);
#663 = EDGE_LOOP('',(#664,#672,#680,#689,#697,#705,#711,#712));
#664 = ORIENTED_EDGE('',*,*,#665,.F.);
#665 = EDGE_CURVE('',#666,#303,#668,.T.);
#666 = VERTEX_POINT('',#667);
#667 = CARTESIAN_POINT('',(61.,0.,28.));
#668 = LINE('',#669,#670);
#669 = CARTESIAN_POINT('',(61.,0.,27.5));
#670 = VECTOR('',#671,1.);
#671 = DIRECTION('',(0.,0.,1.));
#672 = ORIENTED_EDGE('',*,*,#673,.T.);
#673 = EDGE_CURVE('',#666,#674,#676,.T.);
#674 = VERTEX_POINT('',#675);
#675 = CARTESIAN_POINT('',(55.477225575052,7.E-15,28.));
#676 = LINE('',#677,#678);
#677 = CARTESIAN_POINT('',(61.,6.72E-15,28.));
#678 = VECTOR('',#679,1.);
#679 = DIRECTION('',(-1.,0.,0.));
#680 = ORIENTED_EDGE('',*,*,#681,.T.);
#681 = EDGE_CURVE('',#674,#682,#684,.T.);
#682 = VERTEX_POINT('',#683);
#683 = CARTESIAN_POINT('',(44.522774424948,7.E-15,28.));
#684 = CIRCLE('',#685,5.5);
#685 = AXIS2_PLACEMENT_3D('',#686,#687,#688);
#686 = CARTESIAN_POINT('',(50.,6.69E-15,27.5));
#687 = DIRECTION('',(0.,-1.,0.));
#688 = DIRECTION('',(1.,0.,2.13E-15));
#689 = ORIENTED_EDGE('',*,*,#690,.T.);
#690 = EDGE_CURVE('',#682,#691,#693,.T.);
#691 = VERTEX_POINT('',#692);
#692 = CARTESIAN_POINT('',(39.,7.E-15,28.));
#693 = LINE('',#694,#695);
#694 = CARTESIAN_POINT('',(45.,6.72E-15,28.));
#695 = VECTOR('',#696,1.);
#696 = DIRECTION('',(-1.,0.,0.));
#697 = ORIENTED_EDGE('',*,*,#698,.T.);
#698 = EDGE_CURVE('',#691,#699,#701,.T.);
#699 = VERTEX_POINT('',#700);
#700 = CARTESIAN_POINT('',(39.,7.E-15,29.));
#701 = LINE('',#702,#703);
#702 = CARTESIAN_POINT('',(39.,0.,27.5));
#703 = VECTOR('',#704,1.);
#704 = DIRECTION('',(0.,0.,1.));
#705 = ORIENTED_EDGE('',*,*,#706,.F.);
#706 = EDGE_CURVE('',#572,#699,#707,.T.);
#707 = LINE('',#708,#709);
#708 = CARTESIAN_POINT('',(43.291796067501,6.88E-15,29.));
#709 = VECTOR('',#710,1.);
#710 = DIRECTION('',(-1.,0.,0.));
#711 = ORIENTED_EDGE('',*,*,#571,.F.);
#712 = ORIENTED_EDGE('',*,*,#311,.F.);
#713 = PLANE('',#714);
#714 = AXIS2_PLACEMENT_3D('',#715,#716,#717);
#715 = CARTESIAN_POINT('',(50.,6.69E-15,30.131717455564));
#716 = DIRECTION('',(0.,1.,0.));
#717 = DIRECTION('',(0.,0.,1.));
#718 = ADVANCED_FACE('',(#719),#737,.F.);
#719 = FACE_BOUND('',#720,.F.);
#720 = EDGE_LOOP('',(#721,#722,#730,#736));
#721 = ORIENTED_EDGE('',*,*,#665,.F.);
#722 = ORIENTED_EDGE('',*,*,#723,.T.);
#723 = EDGE_CURVE('',#666,#724,#726,.T.);
#724 = VERTEX_POINT('',#725);
#725 = CARTESIAN_POINT('',(61.,-8.5,28.));
#726 = LINE('',#727,#728);
#727 = CARTESIAN_POINT('',(61.,1.243E-14,28.));
#728 = VECTOR('',#729,1.);
#729 = DIRECTION('',(0.,-1.,4.4E-16));
#730 = ORIENTED_EDGE('',*,*,#731,.T.);
#731 = EDGE_CURVE('',#724,#363,#732,.T.);
#732 = LINE('',#733,#734);
#733 = CARTESIAN_POINT('',(61.,-8.5,27.5));
#734 = VECTOR('',#735,1.);
#735 = DIRECTION('',(0.,0.,1.));
#736 = ORIENTED_EDGE('',*,*,#362,.F.);
#737 = PLANE('',#738);
#738 = AXIS2_PLACEMENT_3D('',#739,#740,#741);
#739 = CARTESIAN_POINT('',(61.,1.221E-14,27.5));
#740 = DIRECTION('',(-1.,0.,0.));
#741 = DIRECTION('',(0.,4.4E-16,1.));
#742 = ADVANCED_FACE('',(#743),#787,.F.);
#743 = FACE_BOUND('',#744,.F.);
#744 = EDGE_LOOP('',(#745,#746,#754,#763,#771,#779,#785,#786));
#745 = ORIENTED_EDGE('',*,*,#731,.F.);
#746 = ORIENTED_EDGE('',*,*,#747,.T.);
#747 = EDGE_CURVE('',#724,#748,#750,.T.);
#748 = VERTEX_POINT('',#749);
#749 = CARTESIAN_POINT('',(55.477225575052,-8.5,28.));
#750 = LINE('',#751,#752);
#751 = CARTESIAN_POINT('',(61.,-8.5,28.));
#752 = VECTOR('',#753,1.);
#753 = DIRECTION('',(-1.,0.,0.));
#754 = ORIENTED_EDGE('',*,*,#755,.T.);
#755 = EDGE_CURVE('',#748,#756,#758,.T.);
#756 = VERTEX_POINT('',#757);
#757 = CARTESIAN_POINT('',(44.522774424948,-8.5,28.));
#758 = CIRCLE('',#759,5.5);
#759 = AXIS2_PLACEMENT_3D('',#760,#761,#762);
#760 = CARTESIAN_POINT('',(50.,-8.5,27.5));
#761 = DIRECTION('',(0.,-1.,0.));
#762 = DIRECTION('',(1.,0.,2.84E-15));
#763 = ORIENTED_EDGE('',*,*,#764,.T.);
#764 = EDGE_CURVE('',#756,#765,#767,.T.);
#765 = VERTEX_POINT('',#766);
#766 = CARTESIAN_POINT('',(39.,-8.5,28.));
#767 = LINE('',#768,#769);
#768 = CARTESIAN_POINT('',(45.,-8.5,28.));
#769 = VECTOR('',#770,1.);
#770 = DIRECTION('',(-1.,0.,0.));
#771 = ORIENTED_EDGE('',*,*,#772,.T.);
#772 = EDGE_CURVE('',#765,#773,#775,.T.);
#773 = VERTEX_POINT('',#774);
#774 = CARTESIAN_POINT('',(39.,-8.5,29.));
#775 = LINE('',#776,#777);
#776 = CARTESIAN_POINT('',(39.,-8.5,27.5));
#777 = VECTOR('',#778,1.);
#778 = DIRECTION('',(0.,0.,1.));
#779 = ORIENTED_EDGE('',*,*,#780,.F.);
#780 = EDGE_CURVE('',#622,#773,#781,.T.);
#781 = LINE('',#782,#783);
#782 = CARTESIAN_POINT('',(43.291796067501,-8.5,29.));
#783 = VECTOR('',#784,1.);
#784 = DIRECTION('',(-1.,0.,0.));
#785 = ORIENTED_EDGE('',*,*,#621,.F.);
#786 = ORIENTED_EDGE('',*,*,#387,.F.);
#787 = PLANE('',#788);
#788 = AXIS2_PLACEMENT_3D('',#789,#790,#791);
#789 = CARTESIAN_POINT('',(50.,-8.5,30.131717455564));
#790 = DIRECTION('',(0.,1.,0.));
#791 = DIRECTION('',(0.,0.,1.));
#792 = ADVANCED_FACE('',(#793),#814,.F.);
#793 = FACE_BOUND('',#794,.F.);
#794 = EDGE_LOOP('',(#795,#803,#804,#805,#806,#807));
#795 = ORIENTED_EDGE('',*,*,#796,.F.);
#796 = EDGE_CURVE('',#426,#797,#799,.T.);
#797 = VERTEX_POINT('',#798);
#798 = CARTESIAN_POINT('',(56.2,-4.25,27.5));
#799 = LINE('',#800,#801);
#800 = CARTESIAN_POINT('',(56.2,-4.25,32.));
#801 = VECTOR('',#802,1.);
#802 = DIRECTION('',(0.,-2.2E-16,-1.));
#803 = ORIENTED_EDGE('',*,*,#467,.F.);
#804 = ORIENTED_EDGE('',*,*,#485,.F.);
#805 = ORIENTED_EDGE('',*,*,#442,.F.);
#806 = ORIENTED_EDGE('',*,*,#796,.T.);
#807 = ORIENTED_EDGE('',*,*,#808,.T.);
#808 = EDGE_CURVE('',#797,#797,#809,.T.);
#809 = CIRCLE('',#810,1.8);
#810 = AXIS2_PLACEMENT_3D('',#811,#812,#813);
#811 = CARTESIAN_POINT('',(58.,-4.25,27.5));
#812 = DIRECTION('',(0.,2.2E-16,1.));
#813 = DIRECTION('',(-1.,0.,0.));
#814 = CYLINDRICAL_SURFACE('',#815,1.8);
#815 = AXIS2_PLACEMENT_3D('',#816,#817,#818);
#816 = CARTESIAN_POINT('',(58.,-4.25,32.));
#817 = DIRECTION('',(0.,2.2E-16,1.));
#818 = DIRECTION('',(-1.,0.,0.));
#819 = ADVANCED_FACE('',(#820),#832,.T.);
#820 = FACE_BOUND('',#821,.T.);
#821 = EDGE_LOOP('',(#822,#823,#824,#831));
#822 = ORIENTED_EDGE('',*,*,#632,.T.);
#823 = ORIENTED_EDGE('',*,*,#525,.T.);
#824 = ORIENTED_EDGE('',*,*,#825,.T.);
#825 = EDGE_CURVE('',#518,#773,#826,.T.);
#826 = ELLIPSE('',#827,0.707106781187,0.5);
#827 = AXIS2_PLACEMENT_3D('',#828,#829,#830);
#828 = CARTESIAN_POINT('',(39.5,-8.,29.));
#829 = DIRECTION('',(0.707106781187,-0.707106781187,3.1E-16));
#830 = DIRECTION('',(-0.707106781187,-0.707106781187,3.1E-16));
#831 = ORIENTED_EDGE('',*,*,#780,.F.);
#832 = CYLINDRICAL_SURFACE('',#833,0.5);
#833 = AXIS2_PLACEMENT_3D('',#834,#835,#836);
#834 = CARTESIAN_POINT('',(43.291796067501,-8.,29.));
#835 = DIRECTION('',(-1.,0.,0.));
#836 = DIRECTION('',(0.,-1.,0.));
#837 = ADVANCED_FACE('',(#838),#855,.T.);
#838 = FACE_BOUND('',#839,.T.);
#839 = EDGE_LOOP('',(#840,#847,#853,#854));
#840 = ORIENTED_EDGE('',*,*,#841,.F.);
#841 = EDGE_CURVE('',#699,#510,#842,.T.);
#842 = ELLIPSE('',#843,0.707106781187,0.5);
#843 = AXIS2_PLACEMENT_3D('',#844,#845,#846);
#844 = CARTESIAN_POINT('',(39.5,-0.5,29.));
#845 = DIRECTION('',(0.707106781187,0.707106781187,-3.1E-16));
#846 = DIRECTION('',(-0.707106781187,0.707106781187,-3.1E-16));
#847 = ORIENTED_EDGE('',*,*,#848,.T.);
#848 = EDGE_CURVE('',#699,#773,#849,.T.);
#849 = LINE('',#850,#851);
#850 = CARTESIAN_POINT('',(39.,1.267E-14,29.));
#851 = VECTOR('',#852,1.);
#852 = DIRECTION('',(0.,-1.,4.4E-16));
#853 = ORIENTED_EDGE('',*,*,#825,.F.);
#854 = ORIENTED_EDGE('',*,*,#517,.F.);
#855 = CYLINDRICAL_SURFACE('',#856,0.5);
#856 = AXIS2_PLACEMENT_3D('',#857,#858,#859);
#857 = CARTESIAN_POINT('',(39.5,1.267E-14,29.));
#858 = DIRECTION('',(0.,-1.,4.4E-16));
#859 = DIRECTION('',(0.,4.4E-16,1.));
#860 = ADVANCED_FACE('',(#861),#867,.T.);
#861 = FACE_BOUND('',#862,.F.);
#862 = EDGE_LOOP('',(#863,#864,#865,#866));
#863 = ORIENTED_EDGE('',*,*,#580,.T.);
#864 = ORIENTED_EDGE('',*,*,#509,.T.);
#865 = ORIENTED_EDGE('',*,*,#841,.F.);
#866 = ORIENTED_EDGE('',*,*,#706,.F.);
#867 = CYLINDRICAL_SURFACE('',#868,0.5);
#868 = AXIS2_PLACEMENT_3D('',#869,#870,#871);
#869 = CARTESIAN_POINT('',(43.291796067501,-0.5,29.));
#870 = DIRECTION('',(-1.,0.,0.));
#871 = DIRECTION('',(0.,1.,0.));
#872 = ADVANCED_FACE('',(#873),#899,.F.);
#873 = FACE_BOUND('',#874,.T.);
#874 = EDGE_LOOP('',(#875,#883,#884,#892));
#875 = ORIENTED_EDGE('',*,*,#876,.F.);
#876 = EDGE_CURVE('',#534,#877,#879,.T.);
#877 = VERTEX_POINT('',#878);
#878 = CARTESIAN_POINT('',(40.2,-4.25,29.));
#879 = LINE('',#880,#881);
#880 = CARTESIAN_POINT('',(40.2,-4.25,29.));
#881 = VECTOR('',#882,1.);
#882 = DIRECTION('',(0.707106781187,-2.9E-16,-0.707106781187));
#883 = ORIENTED_EDGE('',*,*,#533,.T.);
#884 = ORIENTED_EDGE('',*,*,#885,.T.);
#885 = EDGE_CURVE('',#536,#886,#888,.T.);
#886 = VERTEX_POINT('',#887);
#887 = CARTESIAN_POINT('',(43.291796067501,-5.503500267248,29.));
#888 = LINE('',#889,#890);
#889 = CARTESIAN_POINT('',(43.291796067501,-5.503500267248,29.));
#890 = VECTOR('',#891,1.);
#891 = DIRECTION('',(-0.5074654218,0.492421410661,-0.707106781187));
#892 = ORIENTED_EDGE('',*,*,#893,.F.);
#893 = EDGE_CURVE('',#877,#886,#894,.T.);
#894 = CIRCLE('',#895,1.8);
#895 = AXIS2_PLACEMENT_3D('',#896,#897,#898);
#896 = CARTESIAN_POINT('',(42.,-4.25,29.));
#897 = DIRECTION('',(0.,4.1E-16,1.));
#898 = DIRECTION('',(-1.,0.,0.));
#899 = CONICAL_SURFACE('',#900,1.8,0.785398163397);
#900 = AXIS2_PLACEMENT_3D('',#901,#902,#903);
#901 = CARTESIAN_POINT('',(42.,-4.25,29.));
#902 = DIRECTION('',(0.,4.1E-16,1.));
#903 = DIRECTION('',(-1.,0.,0.));
#904 = ADVANCED_FACE('',(#905),#923,.F.);
#905 = FACE_BOUND('',#906,.T.);
#906 = EDGE_LOOP('',(#907,#914,#915,#916));
#907 = ORIENTED_EDGE('',*,*,#908,.F.);
#908 = EDGE_CURVE('',#545,#909,#911,.T.);
#909 = VERTEX_POINT('',#910);
#910 = CARTESIAN_POINT('',(43.291796067501,-2.996499732752,29.));
#911 = B_SPLINE_CURVE_WITH_KNOTS('',1,(#912,#913),.UNSPECIFIED.,.F.,.F.,
  (2,2),(0.,2.773272905046),.PIECEWISE_BEZIER_KNOTS.);
#912 = CARTESIAN_POINT('',(43.650628309987,-2.648305212603,29.5));
#913 = CARTESIAN_POINT('',(43.291796067501,-2.996499732752,29.));
#914 = ORIENTED_EDGE('',*,*,#544,.T.);
#915 = ORIENTED_EDGE('',*,*,#876,.T.);
#916 = ORIENTED_EDGE('',*,*,#917,.F.);
#917 = EDGE_CURVE('',#909,#877,#918,.T.);
#918 = CIRCLE('',#919,1.8);
#919 = AXIS2_PLACEMENT_3D('',#920,#921,#922);
#920 = CARTESIAN_POINT('',(42.,-4.25,29.));
#921 = DIRECTION('',(-2.465190328816E-32,4.1E-16,1.));
#922 = DIRECTION('',(0.717664481945,0.69638903736,-2.855195053175E-16));
#923 = CONICAL_SURFACE('',#924,1.8,0.785398163397);
#924 = AXIS2_PLACEMENT_3D('',#925,#926,#927);
#925 = CARTESIAN_POINT('',(42.,-4.25,29.));
#926 = DIRECTION('',(0.,4.1E-16,1.));
#927 = DIRECTION('',(0.717664481945,0.69638903736,-2.855195053175E-16));
#928 = ADVANCED_FACE('',(#929),#944,.F.);
#929 = FACE_BOUND('',#930,.F.);
#930 = EDGE_LOOP('',(#931,#932,#942,#943));
#931 = ORIENTED_EDGE('',*,*,#885,.T.);
#932 = ORIENTED_EDGE('',*,*,#933,.T.);
#933 = EDGE_CURVE('',#886,#909,#934,.T.);
#934 = B_SPLINE_CURVE_WITH_KNOTS('',6,(#935,#936,#937,#938,#939,#940,
    #941),.UNSPECIFIED.,.F.,.F.,(7,7),(4.268230323939,7.041503228985),
  .PIECEWISE_BEZIER_KNOTS.);
#935 = CARTESIAN_POINT('',(43.291796067501,-5.503500267248,29.));
#936 = CARTESIAN_POINT('',(43.613674229354,-5.171788376503,29.));
#937 = CARTESIAN_POINT('',(43.833339730732,-4.740933813193,29.));
#938 = CARTESIAN_POINT('',(43.912605901959,-4.25,29.));
#939 = CARTESIAN_POINT('',(43.833339730732,-3.759066186807,29.));
#940 = CARTESIAN_POINT('',(43.613674229354,-3.328211623496,29.));
#941 = CARTESIAN_POINT('',(43.291796067501,-2.996499732752,29.));
#942 = ORIENTED_EDGE('',*,*,#908,.F.);
#943 = ORIENTED_EDGE('',*,*,#553,.F.);
#944 = B_SPLINE_SURFACE_WITH_KNOTS('',1,6,(
    (#945,#946,#947,#948,#949,#950,#951)
    ,(#952,#953,#954,#955,#956,#957,#958
    )),.UNSPECIFIED.,.F.,.F.,.F.,(2,2),(7,7),(0.,2.773272905046),(
    4.268230323939,7.041503228985),.PIECEWISE_BEZIER_KNOTS.);
#945 = CARTESIAN_POINT('',(43.650628308473,-5.851694785928,29.5));
#946 = CARTESIAN_POINT('',(44.061917070842,-5.42784070331,29.5));
#947 = CARTESIAN_POINT('',(44.342600767046,-4.877304316858,29.5));
#948 = CARTESIAN_POINT('',(44.443885319169,-4.25,29.5));
#949 = CARTESIAN_POINT('',(44.342600767046,-3.622695683142,29.5));
#950 = CARTESIAN_POINT('',(44.061917070842,-3.07215929669,29.5));
#951 = CARTESIAN_POINT('',(43.650628309987,-2.648305212603,29.5));
#952 = CARTESIAN_POINT('',(43.291796067501,-5.503500267248,29.));
#953 = CARTESIAN_POINT('',(43.613674229354,-5.171788376503,29.));
#954 = CARTESIAN_POINT('',(43.833339730732,-4.740933813193,29.));
#955 = CARTESIAN_POINT('',(43.912605901959,-4.25,29.));
#956 = CARTESIAN_POINT('',(43.833339730732,-3.759066186807,29.));
#957 = CARTESIAN_POINT('',(43.613674229354,-3.328211623496,29.));
#958 = CARTESIAN_POINT('',(43.291796067501,-2.996499732752,29.));
#959 = ADVANCED_FACE('',(#960),#987,.T.);
#960 = FACE_BOUND('',#961,.F.);
#961 = EDGE_LOOP('',(#962,#971,#972,#981));
#962 = ORIENTED_EDGE('',*,*,#963,.F.);
#963 = EDGE_CURVE('',#666,#964,#966,.T.);
#964 = VERTEX_POINT('',#965);
#965 = CARTESIAN_POINT('',(60.5,-0.5,27.5));
#966 = ELLIPSE('',#967,0.707106781187,0.5);
#967 = AXIS2_PLACEMENT_3D('',#968,#969,#970);
#968 = CARTESIAN_POINT('',(60.5,-0.5,28.));
#969 = DIRECTION('',(-0.707106781187,0.707106781187,-3.1E-16));
#970 = DIRECTION('',(-0.707106781187,-0.707106781187,3.1E-16));
#971 = ORIENTED_EDGE('',*,*,#673,.T.);
#972 = ORIENTED_EDGE('',*,*,#973,.T.);
#973 = EDGE_CURVE('',#674,#974,#976,.T.);
#974 = VERTEX_POINT('',#975);
#975 = CARTESIAN_POINT('',(55.477225575052,-0.5,27.5));
#976 = CIRCLE('',#977,0.5);
#977 = AXIS2_PLACEMENT_3D('',#978,#979,#980);
#978 = CARTESIAN_POINT('',(55.477225575052,-0.5,28.));
#979 = DIRECTION('',(-1.,0.,3.E-17));
#980 = DIRECTION('',(-3.E-17,0.,-1.));
#981 = ORIENTED_EDGE('',*,*,#982,.F.);
#982 = EDGE_CURVE('',#964,#974,#983,.T.);
#983 = LINE('',#984,#985);
#984 = CARTESIAN_POINT('',(61.,-0.5,27.5));
#985 = VECTOR('',#986,1.);
#986 = DIRECTION('',(-1.,0.,0.));
#987 = CYLINDRICAL_SURFACE('',#988,0.5);
#988 = AXIS2_PLACEMENT_3D('',#989,#990,#991);
#989 = CARTESIAN_POINT('',(61.,-0.5,28.));
#990 = DIRECTION('',(-1.,0.,0.));
#991 = DIRECTION('',(-0.,-4.4E-16,-1.));
#992 = ADVANCED_FACE('',(#993),#1021,.T.);
#993 = FACE_BOUND('',#994,.F.);
#994 = EDGE_LOOP('',(#995,#1004,#1005,#1014));
#995 = ORIENTED_EDGE('',*,*,#996,.F.);
#996 = EDGE_CURVE('',#674,#997,#999,.T.);
#997 = VERTEX_POINT('',#998);
#998 = CARTESIAN_POINT('',(54.97929597732,-0.5,27.954545454545));
#999 = CIRCLE('',#1000,0.5);
#1000 = AXIS2_PLACEMENT_3D('',#1001,#1002,#1003);
#1001 = CARTESIAN_POINT('',(55.477225575052,-0.5,28.));
#1002 = DIRECTION('',(-9.090909090909E-02,0.,0.995859195464));
#1003 = DIRECTION('',(-0.995859195464,0.,-9.090909090909E-02));
#1004 = ORIENTED_EDGE('',*,*,#681,.T.);
#1005 = ORIENTED_EDGE('',*,*,#1006,.T.);
#1006 = EDGE_CURVE('',#682,#1007,#1009,.T.);
#1007 = VERTEX_POINT('',#1008);
#1008 = CARTESIAN_POINT('',(45.02070402268,-0.5,27.954545454545));
#1009 = CIRCLE('',#1010,0.5);
#1010 = AXIS2_PLACEMENT_3D('',#1011,#1012,#1013);
#1011 = CARTESIAN_POINT('',(44.522774424948,-0.5,28.));
#1012 = DIRECTION('',(-9.090909090909E-02,-0.,-0.995859195464));
#1013 = DIRECTION('',(0.995859195464,0.,-9.090909090909E-02));
#1014 = ORIENTED_EDGE('',*,*,#1015,.F.);
#1015 = EDGE_CURVE('',#997,#1007,#1016,.T.);
#1016 = CIRCLE('',#1017,5.);
#1017 = AXIS2_PLACEMENT_3D('',#1018,#1019,#1020);
#1018 = CARTESIAN_POINT('',(50.,-0.5,27.5));
#1019 = DIRECTION('',(0.,-1.,0.));
#1020 = DIRECTION('',(1.,0.,2.13E-15));
#1021 = TOROIDAL_SURFACE('',#1022,5.5,0.5);
#1022 = AXIS2_PLACEMENT_3D('',#1023,#1024,#1025);
#1023 = CARTESIAN_POINT('',(50.,-0.5,27.5));
#1024 = DIRECTION('',(0.,1.,0.));
#1025 = DIRECTION('',(1.,0.,2.13E-15));
#1026 = ADVANCED_FACE('',(#1027),#1054,.T.);
#1027 = FACE_BOUND('',#1028,.T.);
#1028 = EDGE_LOOP('',(#1029,#1038,#1046,#1053));
#1029 = ORIENTED_EDGE('',*,*,#1030,.T.);
#1030 = EDGE_CURVE('',#682,#1031,#1033,.T.);
#1031 = VERTEX_POINT('',#1032);
#1032 = CARTESIAN_POINT('',(44.522774424948,-0.5,27.5));
#1033 = CIRCLE('',#1034,0.5);
#1034 = AXIS2_PLACEMENT_3D('',#1035,#1036,#1037);
#1035 = CARTESIAN_POINT('',(44.522774424948,-0.5,28.));
#1036 = DIRECTION('',(-1.,-0.,-3.E-17));
#1037 = DIRECTION('',(3.E-17,0.,-1.));
#1038 = ORIENTED_EDGE('',*,*,#1039,.T.);
#1039 = EDGE_CURVE('',#1031,#1040,#1042,.T.);
#1040 = VERTEX_POINT('',#1041);
#1041 = CARTESIAN_POINT('',(39.5,-0.5,27.5));
#1042 = LINE('',#1043,#1044);
#1043 = CARTESIAN_POINT('',(45.,-0.5,27.5));
#1044 = VECTOR('',#1045,1.);
#1045 = DIRECTION('',(-1.,0.,0.));
#1046 = ORIENTED_EDGE('',*,*,#1047,.F.);
#1047 = EDGE_CURVE('',#691,#1040,#1048,.T.);
#1048 = ELLIPSE('',#1049,0.707106781187,0.5);
#1049 = AXIS2_PLACEMENT_3D('',#1050,#1051,#1052);
#1050 = CARTESIAN_POINT('',(39.5,-0.5,28.));
#1051 = DIRECTION('',(-0.707106781187,-0.707106781187,3.1E-16));
#1052 = DIRECTION('',(-0.707106781187,0.707106781187,-3.1E-16));
#1053 = ORIENTED_EDGE('',*,*,#690,.F.);
#1054 = CYLINDRICAL_SURFACE('',#1055,0.5);
#1055 = AXIS2_PLACEMENT_3D('',#1056,#1057,#1058);
#1056 = CARTESIAN_POINT('',(45.,-0.5,28.));
#1057 = DIRECTION('',(-1.,0.,0.));
#1058 = DIRECTION('',(0.,1.,0.));
#1059 = ADVANCED_FACE('',(#1060),#1071,.T.);
#1060 = FACE_BOUND('',#1061,.T.);
#1061 = EDGE_LOOP('',(#1062,#1063,#1069,#1070));
#1062 = ORIENTED_EDGE('',*,*,#698,.F.);
#1063 = ORIENTED_EDGE('',*,*,#1064,.T.);
#1064 = EDGE_CURVE('',#691,#765,#1065,.T.);
#1065 = LINE('',#1066,#1067);
#1066 = CARTESIAN_POINT('',(39.,1.243E-14,28.));
#1067 = VECTOR('',#1068,1.);
#1068 = DIRECTION('',(0.,-1.,4.4E-16));
#1069 = ORIENTED_EDGE('',*,*,#772,.T.);
#1070 = ORIENTED_EDGE('',*,*,#848,.F.);
#1071 = PLANE('',#1072);
#1072 = AXIS2_PLACEMENT_3D('',#1073,#1074,#1075);
#1073 = CARTESIAN_POINT('',(39.,1.221E-14,27.5));
#1074 = DIRECTION('',(-1.,0.,0.));
#1075 = DIRECTION('',(0.,4.4E-16,1.));
#1076 = ADVANCED_FACE('',(#1077),#1096,.T.);
#1077 = FACE_BOUND('',#1078,.F.);
#1078 = EDGE_LOOP('',(#1079,#1080,#1088,#1095));
#1079 = ORIENTED_EDGE('',*,*,#963,.T.);
#1080 = ORIENTED_EDGE('',*,*,#1081,.T.);
#1081 = EDGE_CURVE('',#964,#1082,#1084,.T.);
#1082 = VERTEX_POINT('',#1083);
#1083 = CARTESIAN_POINT('',(60.5,-8.,27.5));
#1084 = LINE('',#1085,#1086);
#1085 = CARTESIAN_POINT('',(60.5,1.221E-14,27.5));
#1086 = VECTOR('',#1087,1.);
#1087 = DIRECTION('',(0.,-1.,4.4E-16));
#1088 = ORIENTED_EDGE('',*,*,#1089,.T.);
#1089 = EDGE_CURVE('',#1082,#724,#1090,.T.);
#1090 = ELLIPSE('',#1091,0.707106781187,0.5);
#1091 = AXIS2_PLACEMENT_3D('',#1092,#1093,#1094);
#1092 = CARTESIAN_POINT('',(60.5,-8.,28.));
#1093 = DIRECTION('',(-0.707106781187,-0.707106781187,3.1E-16));
#1094 = DIRECTION('',(-0.707106781187,0.707106781187,-3.1E-16));
#1095 = ORIENTED_EDGE('',*,*,#723,.F.);
#1096 = CYLINDRICAL_SURFACE('',#1097,0.5);
#1097 = AXIS2_PLACEMENT_3D('',#1098,#1099,#1100);
#1098 = CARTESIAN_POINT('',(60.5,1.243E-14,28.));
#1099 = DIRECTION('',(0.,-1.,4.4E-16));
#1100 = DIRECTION('',(1.,0.,0.));
#1101 = ADVANCED_FACE('',(#1102),#1121,.T.);
#1102 = FACE_BOUND('',#1103,.T.);
#1103 = EDGE_LOOP('',(#1104,#1105,#1106,#1115));
#1104 = ORIENTED_EDGE('',*,*,#1089,.T.);
#1105 = ORIENTED_EDGE('',*,*,#747,.T.);
#1106 = ORIENTED_EDGE('',*,*,#1107,.T.);
#1107 = EDGE_CURVE('',#748,#1108,#1110,.T.);
#1108 = VERTEX_POINT('',#1109);
#1109 = CARTESIAN_POINT('',(55.477225575052,-8.,27.5));
#1110 = CIRCLE('',#1111,0.5);
#1111 = AXIS2_PLACEMENT_3D('',#1112,#1113,#1114);
#1112 = CARTESIAN_POINT('',(55.477225575052,-8.,28.));
#1113 = DIRECTION('',(1.,0.,-7.12E-15));
#1114 = DIRECTION('',(-7.12E-15,-0.,-1.));
#1115 = ORIENTED_EDGE('',*,*,#1116,.F.);
#1116 = EDGE_CURVE('',#1082,#1108,#1117,.T.);
#1117 = LINE('',#1118,#1119);
#1118 = CARTESIAN_POINT('',(61.,-8.,27.5));
#1119 = VECTOR('',#1120,1.);
#1120 = DIRECTION('',(-1.,0.,0.));
#1121 = CYLINDRICAL_SURFACE('',#1122,0.5);
#1122 = AXIS2_PLACEMENT_3D('',#1123,#1124,#1125);
#1123 = CARTESIAN_POINT('',(61.,-8.,28.));
#1124 = DIRECTION('',(-1.,0.,0.));
#1125 = DIRECTION('',(-0.,-4.4E-16,-1.));
#1126 = ADVANCED_FACE('',(#1127),#1155,.T.);
#1127 = FACE_BOUND('',#1128,.T.);
#1128 = EDGE_LOOP('',(#1129,#1138,#1139,#1148));
#1129 = ORIENTED_EDGE('',*,*,#1130,.F.);
#1130 = EDGE_CURVE('',#748,#1131,#1133,.T.);
#1131 = VERTEX_POINT('',#1132);
#1132 = CARTESIAN_POINT('',(54.97929597732,-8.,27.954545454545));
#1133 = CIRCLE('',#1134,0.5);
#1134 = AXIS2_PLACEMENT_3D('',#1135,#1136,#1137);
#1135 = CARTESIAN_POINT('',(55.477225575052,-8.,28.));
#1136 = DIRECTION('',(9.090909090908E-02,0.,-0.995859195464));
#1137 = DIRECTION('',(-0.995859195464,-0.,-9.090909090908E-02));
#1138 = ORIENTED_EDGE('',*,*,#755,.T.);
#1139 = ORIENTED_EDGE('',*,*,#1140,.T.);
#1140 = EDGE_CURVE('',#756,#1141,#1143,.T.);
#1141 = VERTEX_POINT('',#1142);
#1142 = CARTESIAN_POINT('',(45.02070402268,-8.,27.954545454545));
#1143 = CIRCLE('',#1144,0.5);
#1144 = AXIS2_PLACEMENT_3D('',#1145,#1146,#1147);
#1145 = CARTESIAN_POINT('',(44.522774424948,-8.,28.));
#1146 = DIRECTION('',(9.090909090908E-02,-0.,0.995859195464));
#1147 = DIRECTION('',(0.995859195464,0.,-9.090909090908E-02));
#1148 = ORIENTED_EDGE('',*,*,#1149,.F.);
#1149 = EDGE_CURVE('',#1131,#1141,#1150,.T.);
#1150 = CIRCLE('',#1151,5.);
#1151 = AXIS2_PLACEMENT_3D('',#1152,#1153,#1154);
#1152 = CARTESIAN_POINT('',(50.,-8.,27.5));
#1153 = DIRECTION('',(0.,-1.,0.));
#1154 = DIRECTION('',(1.,0.,2.84E-15));
#1155 = TOROIDAL_SURFACE('',#1156,5.5,0.5);
#1156 = AXIS2_PLACEMENT_3D('',#1157,#1158,#1159);
#1157 = CARTESIAN_POINT('',(50.,-8.,27.5));
#1158 = DIRECTION('',(0.,-1.,0.));
#1159 = DIRECTION('',(1.,0.,2.84E-15));
#1160 = ADVANCED_FACE('',(#1161),#1188,.T.);
#1161 = FACE_BOUND('',#1162,.F.);
#1162 = EDGE_LOOP('',(#1163,#1172,#1180,#1187));
#1163 = ORIENTED_EDGE('',*,*,#1164,.T.);
#1164 = EDGE_CURVE('',#756,#1165,#1167,.T.);
#1165 = VERTEX_POINT('',#1166);
#1166 = CARTESIAN_POINT('',(44.522774424948,-8.,27.5));
#1167 = CIRCLE('',#1168,0.5);
#1168 = AXIS2_PLACEMENT_3D('',#1169,#1170,#1171);
#1169 = CARTESIAN_POINT('',(44.522774424948,-8.,28.));
#1170 = DIRECTION('',(1.,0.,-7.09E-15));
#1171 = DIRECTION('',(-7.09E-15,-0.,-1.));
#1172 = ORIENTED_EDGE('',*,*,#1173,.T.);
#1173 = EDGE_CURVE('',#1165,#1174,#1176,.T.);
#1174 = VERTEX_POINT('',#1175);
#1175 = CARTESIAN_POINT('',(39.5,-8.,27.5));
#1176 = LINE('',#1177,#1178);
#1177 = CARTESIAN_POINT('',(45.,-8.,27.5));
#1178 = VECTOR('',#1179,1.);
#1179 = DIRECTION('',(-1.,0.,0.));
#1180 = ORIENTED_EDGE('',*,*,#1181,.F.);
#1181 = EDGE_CURVE('',#765,#1174,#1182,.T.);
#1182 = ELLIPSE('',#1183,0.707106781187,0.5);
#1183 = AXIS2_PLACEMENT_3D('',#1184,#1185,#1186);
#1184 = CARTESIAN_POINT('',(39.5,-8.,28.));
#1185 = DIRECTION('',(0.707106781187,-0.707106781187,3.1E-16));
#1186 = DIRECTION('',(-0.707106781187,-0.707106781187,3.1E-16));
#1187 = ORIENTED_EDGE('',*,*,#764,.F.);
#1188 = CYLINDRICAL_SURFACE('',#1189,0.5);
#1189 = AXIS2_PLACEMENT_3D('',#1190,#1191,#1192);
#1190 = CARTESIAN_POINT('',(45.,-8.,28.));
#1191 = DIRECTION('',(-1.,0.,0.));
#1192 = DIRECTION('',(0.,-1.,0.));
#1193 = ADVANCED_FACE('',(#1194,#1205),#1208,.T.);
#1194 = FACE_BOUND('',#1195,.T.);
#1195 = EDGE_LOOP('',(#1196,#1202,#1203,#1204));
#1196 = ORIENTED_EDGE('',*,*,#1197,.F.);
#1197 = EDGE_CURVE('',#974,#1108,#1198,.T.);
#1198 = LINE('',#1199,#1200);
#1199 = CARTESIAN_POINT('',(55.477225575052,1.221E-14,27.5));
#1200 = VECTOR('',#1201,1.);
#1201 = DIRECTION('',(0.,-1.,4.4E-16));
#1202 = ORIENTED_EDGE('',*,*,#982,.F.);
#1203 = ORIENTED_EDGE('',*,*,#1081,.T.);
#1204 = ORIENTED_EDGE('',*,*,#1116,.T.);
#1205 = FACE_BOUND('',#1206,.T.);
#1206 = EDGE_LOOP('',(#1207));
#1207 = ORIENTED_EDGE('',*,*,#808,.T.);
#1208 = PLANE('',#1209);
#1209 = AXIS2_PLACEMENT_3D('',#1210,#1211,#1212);
#1210 = CARTESIAN_POINT('',(61.,1.221E-14,27.5));
#1211 = DIRECTION('',(0.,-4.4E-16,-1.));
#1212 = DIRECTION('',(-1.,0.,0.));
#1213 = ADVANCED_FACE('',(#1214),#1235,.F.);
#1214 = FACE_BOUND('',#1215,.F.);
#1215 = EDGE_LOOP('',(#1216,#1224,#1225,#1226,#1227,#1228));
#1216 = ORIENTED_EDGE('',*,*,#1217,.F.);
#1217 = EDGE_CURVE('',#877,#1218,#1220,.T.);
#1218 = VERTEX_POINT('',#1219);
#1219 = CARTESIAN_POINT('',(40.2,-4.25,27.5));
#1220 = LINE('',#1221,#1222);
#1221 = CARTESIAN_POINT('',(40.2,-4.25,32.));
#1222 = VECTOR('',#1223,1.);
#1223 = DIRECTION('',(0.,-2.2E-16,-1.));
#1224 = ORIENTED_EDGE('',*,*,#917,.F.);
#1225 = ORIENTED_EDGE('',*,*,#933,.F.);
#1226 = ORIENTED_EDGE('',*,*,#893,.F.);
#1227 = ORIENTED_EDGE('',*,*,#1217,.T.);
#1228 = ORIENTED_EDGE('',*,*,#1229,.T.);
#1229 = EDGE_CURVE('',#1218,#1218,#1230,.T.);
#1230 = CIRCLE('',#1231,1.8);
#1231 = AXIS2_PLACEMENT_3D('',#1232,#1233,#1234);
#1232 = CARTESIAN_POINT('',(42.,-4.25,27.5));
#1233 = DIRECTION('',(0.,2.2E-16,1.));
#1234 = DIRECTION('',(-1.,0.,0.));
#1235 = CYLINDRICAL_SURFACE('',#1236,1.8);
#1236 = AXIS2_PLACEMENT_3D('',#1237,#1238,#1239);
#1237 = CARTESIAN_POINT('',(42.,-4.25,32.));
#1238 = DIRECTION('',(0.,2.2E-16,1.));
#1239 = DIRECTION('',(-1.,0.,0.));
#1240 = ADVANCED_FACE('',(#1241),#1252,.T.);
#1241 = FACE_BOUND('',#1242,.T.);
#1242 = EDGE_LOOP('',(#1243,#1244,#1245));
#1243 = ORIENTED_EDGE('',*,*,#996,.F.);
#1244 = ORIENTED_EDGE('',*,*,#973,.T.);
#1245 = ORIENTED_EDGE('',*,*,#1246,.F.);
#1246 = EDGE_CURVE('',#997,#974,#1247,.T.);
#1247 = CIRCLE('',#1248,0.5);
#1248 = AXIS2_PLACEMENT_3D('',#1249,#1250,#1251);
#1249 = CARTESIAN_POINT('',(55.477225575052,-0.5,28.));
#1250 = DIRECTION('',(0.,-1.,-0.));
#1251 = DIRECTION('',(-0.995859195464,0.,-9.090909090909E-02));
#1252 = SPHERICAL_SURFACE('',#1253,0.5);
#1253 = AXIS2_PLACEMENT_3D('',#1254,#1255,#1256);
#1254 = CARTESIAN_POINT('',(55.477225575052,-0.5,28.));
#1255 = DIRECTION('',(0.,-1.,0.));
#1256 = DIRECTION('',(-0.995859195464,-0.,-9.090909090909E-02));
#1257 = ADVANCED_FACE('',(#1258),#1274,.F.);
#1258 = FACE_BOUND('',#1259,.T.);
#1259 = EDGE_LOOP('',(#1260,#1266,#1267,#1273));
#1260 = ORIENTED_EDGE('',*,*,#1261,.T.);
#1261 = EDGE_CURVE('',#997,#1131,#1262,.T.);
#1262 = LINE('',#1263,#1264);
#1263 = CARTESIAN_POINT('',(54.97929597732,1.241E-14,27.954545454545));
#1264 = VECTOR('',#1265,1.);
#1265 = DIRECTION('',(0.,-1.,4.4E-16));
#1266 = ORIENTED_EDGE('',*,*,#1149,.T.);
#1267 = ORIENTED_EDGE('',*,*,#1268,.F.);
#1268 = EDGE_CURVE('',#1007,#1141,#1269,.T.);
#1269 = LINE('',#1270,#1271);
#1270 = CARTESIAN_POINT('',(45.02070402268,1.241E-14,27.954545454545));
#1271 = VECTOR('',#1272,1.);
#1272 = DIRECTION('',(0.,-1.,4.4E-16));
#1273 = ORIENTED_EDGE('',*,*,#1015,.F.);
#1274 = CYLINDRICAL_SURFACE('',#1275,5.);
#1275 = AXIS2_PLACEMENT_3D('',#1276,#1277,#1278);
#1276 = CARTESIAN_POINT('',(50.,1.221E-14,27.5));
#1277 = DIRECTION('',(0.,1.,-4.4E-16));
#1278 = DIRECTION('',(1.,0.,0.));
#1279 = ADVANCED_FACE('',(#1280),#1291,.T.);
#1280 = FACE_BOUND('',#1281,.F.);
#1281 = EDGE_LOOP('',(#1282,#1283,#1284));
#1282 = ORIENTED_EDGE('',*,*,#1006,.F.);
#1283 = ORIENTED_EDGE('',*,*,#1030,.T.);
#1284 = ORIENTED_EDGE('',*,*,#1285,.F.);
#1285 = EDGE_CURVE('',#1007,#1031,#1286,.T.);
#1286 = CIRCLE('',#1287,0.5);
#1287 = AXIS2_PLACEMENT_3D('',#1288,#1289,#1290);
#1288 = CARTESIAN_POINT('',(44.522774424948,-0.5,28.));
#1289 = DIRECTION('',(0.,1.,0.));
#1290 = DIRECTION('',(0.995859195464,0.,-9.090909090909E-02));
#1291 = SPHERICAL_SURFACE('',#1292,0.5);
#1292 = AXIS2_PLACEMENT_3D('',#1293,#1294,#1295);
#1293 = CARTESIAN_POINT('',(44.522774424948,-0.5,28.));
#1294 = DIRECTION('',(0.,-1.,0.));
#1295 = DIRECTION('',(0.995859195464,0.,-9.090909090909E-02));
#1296 = ADVANCED_FACE('',(#1297,#1313),#1316,.T.);
#1297 = FACE_BOUND('',#1298,.T.);
#1298 = EDGE_LOOP('',(#1299,#1305,#1306,#1312));
#1299 = ORIENTED_EDGE('',*,*,#1300,.T.);
#1300 = EDGE_CURVE('',#1031,#1165,#1301,.T.);
#1301 = LINE('',#1302,#1303);
#1302 = CARTESIAN_POINT('',(44.522774424948,1.221E-14,27.5));
#1303 = VECTOR('',#1304,1.);
#1304 = DIRECTION('',(0.,-1.,4.4E-16));
#1305 = ORIENTED_EDGE('',*,*,#1173,.T.);
#1306 = ORIENTED_EDGE('',*,*,#1307,.F.);
#1307 = EDGE_CURVE('',#1040,#1174,#1308,.T.);
#1308 = LINE('',#1309,#1310);
#1309 = CARTESIAN_POINT('',(39.5,1.221E-14,27.5));
#1310 = VECTOR('',#1311,1.);
#1311 = DIRECTION('',(0.,-1.,4.4E-16));
#1312 = ORIENTED_EDGE('',*,*,#1039,.F.);
#1313 = FACE_BOUND('',#1314,.T.);
#1314 = EDGE_LOOP('',(#1315));
#1315 = ORIENTED_EDGE('',*,*,#1229,.T.);
#1316 = PLANE('',#1317);
#1317 = AXIS2_PLACEMENT_3D('',#1318,#1319,#1320);
#1318 = CARTESIAN_POINT('',(45.,1.221E-14,27.5));
#1319 = DIRECTION('',(0.,-4.4E-16,-1.));
#1320 = DIRECTION('',(-1.,0.,0.));
#1321 = ADVANCED_FACE('',(#1322),#1328,.T.);
#1322 = FACE_BOUND('',#1323,.T.);
#1323 = EDGE_LOOP('',(#1324,#1325,#1326,#1327));
#1324 = ORIENTED_EDGE('',*,*,#1047,.T.);
#1325 = ORIENTED_EDGE('',*,*,#1307,.T.);
#1326 = ORIENTED_EDGE('',*,*,#1181,.F.);
#1327 = ORIENTED_EDGE('',*,*,#1064,.F.);
#1328 = CYLINDRICAL_SURFACE('',#1329,0.5);
#1329 = AXIS2_PLACEMENT_3D('',#1330,#1331,#1332);
#1330 = CARTESIAN_POINT('',(39.5,1.243E-14,28.));
#1331 = DIRECTION('',(0.,-1.,4.4E-16));
#1332 = DIRECTION('',(-1.,0.,0.));
#1333 = ADVANCED_FACE('',(#1334),#1345,.T.);
#1334 = FACE_BOUND('',#1335,.F.);
#1335 = EDGE_LOOP('',(#1336,#1337,#1338));
#1336 = ORIENTED_EDGE('',*,*,#1130,.F.);
#1337 = ORIENTED_EDGE('',*,*,#1107,.T.);
#1338 = ORIENTED_EDGE('',*,*,#1339,.F.);
#1339 = EDGE_CURVE('',#1131,#1108,#1340,.T.);
#1340 = CIRCLE('',#1341,0.5);
#1341 = AXIS2_PLACEMENT_3D('',#1342,#1343,#1344);
#1342 = CARTESIAN_POINT('',(55.477225575052,-8.,28.));
#1343 = DIRECTION('',(0.,-1.,-0.));
#1344 = DIRECTION('',(-0.995859195464,0.,-9.090909090908E-02));
#1345 = SPHERICAL_SURFACE('',#1346,0.5);
#1346 = AXIS2_PLACEMENT_3D('',#1347,#1348,#1349);
#1347 = CARTESIAN_POINT('',(55.477225575052,-8.,28.));
#1348 = DIRECTION('',(0.,1.,0.));
#1349 = DIRECTION('',(-0.995859195464,0.,-9.090909090908E-02));
#1350 = ADVANCED_FACE('',(#1351),#1362,.T.);
#1351 = FACE_BOUND('',#1352,.T.);
#1352 = EDGE_LOOP('',(#1353,#1354,#1355));
#1353 = ORIENTED_EDGE('',*,*,#1140,.F.);
#1354 = ORIENTED_EDGE('',*,*,#1164,.T.);
#1355 = ORIENTED_EDGE('',*,*,#1356,.F.);
#1356 = EDGE_CURVE('',#1141,#1165,#1357,.T.);
#1357 = CIRCLE('',#1358,0.5);
#1358 = AXIS2_PLACEMENT_3D('',#1359,#1360,#1361);
#1359 = CARTESIAN_POINT('',(44.522774424948,-8.,28.));
#1360 = DIRECTION('',(0.,1.,0.));
#1361 = DIRECTION('',(0.995859195464,0.,-9.090909090908E-02));
#1362 = SPHERICAL_SURFACE('',#1363,0.5);
#1363 = AXIS2_PLACEMENT_3D('',#1364,#1365,#1366);
#1364 = CARTESIAN_POINT('',(44.522774424948,-8.,28.));
#1365 = DIRECTION('',(0.,1.,0.));
#1366 = DIRECTION('',(0.995859195464,0.,-9.090909090908E-02));
#1367 = ADVANCED_FACE('',(#1368),#1374,.T.);
#1368 = FACE_BOUND('',#1369,.F.);
#1369 = EDGE_LOOP('',(#1370,#1371,#1372,#1373));
#1370 = ORIENTED_EDGE('',*,*,#1197,.F.);
#1371 = ORIENTED_EDGE('',*,*,#1246,.F.);
#1372 = ORIENTED_EDGE('',*,*,#1261,.T.);
#1373 = ORIENTED_EDGE('',*,*,#1339,.T.);
#1374 = CYLINDRICAL_SURFACE('',#1375,0.5);
#1375 = AXIS2_PLACEMENT_3D('',#1376,#1377,#1378);
#1376 = CARTESIAN_POINT('',(55.477225575052,1.243E-14,28.));
#1377 = DIRECTION('',(0.,-1.,4.4E-16));
#1378 = DIRECTION('',(0.,-4.4E-16,-1.));
#1379 = ADVANCED_FACE('',(#1380),#1386,.T.);
#1380 = FACE_BOUND('',#1381,.F.);
#1381 = EDGE_LOOP('',(#1382,#1383,#1384,#1385));
#1382 = ORIENTED_EDGE('',*,*,#1268,.F.);
#1383 = ORIENTED_EDGE('',*,*,#1285,.T.);
#1384 = ORIENTED_EDGE('',*,*,#1300,.T.);
#1385 = ORIENTED_EDGE('',*,*,#1356,.F.);
#1386 = CYLINDRICAL_SURFACE('',#1387,0.5);
#1387 = AXIS2_PLACEMENT_3D('',#1388,#1389,#1390);
#1388 = CARTESIAN_POINT('',(44.522774424948,1.243E-14,28.));
#1389 = DIRECTION('',(0.,-1.,4.4E-16));
#1390 = DIRECTION('',(0.995859195464,-4.E-17,-9.090909090909E-02));
#1391 = ( GEOMETRIC_REPRESENTATION_CONTEXT(3) 
GLOBAL_UNCERTAINTY_ASSIGNED_CONTEXT((#1395)) 
GLOBAL_UNIT_ASSIGNED_CONTEXT((#1392,#1393,#1394)) REPRESENTATION_CONTEXT
('Context #1','3D Context with UNIT and UNCERTAINTY') );
#1392 = ( LENGTH_UNIT() NAMED_UNIT(*) SI_UNIT(.MILLI.,.METRE.) );
#1393 = ( NAMED_UNIT(*) PLANE_ANGLE_UNIT() SI_UNIT($,.RADIAN.) );
#1394 = ( NAMED_UNIT(*) SI_UNIT($,.STERADIAN.) SOLID_ANGLE_UNIT() );
#1395 = UNCERTAINTY_MEASURE_WITH_UNIT(LENGTH_MEASURE(1.E-06),#1392,
  'distance_accuracy_value','confusion accuracy');
#1396 = PRODUCT_RELATED_PRODUCT_CATEGORY('part',$,(#7));
#1397 = MECHANICAL_DESIGN_GEOMETRIC_PRESENTATION_REPRESENTATION('',(
    #1398),#1391);
#1398 = STYLED_ITEM('color',(#1399),#15);
#1399 = PRESENTATION_STYLE_ASSIGNMENT((#1400,#1406));
#1400 = SURFACE_STYLE_USAGE(.BOTH.,#1401);
#1401 = SURFACE_SIDE_STYLE('',(#1402));
#1402 = SURFACE_STYLE_FILL_AREA(#1403);
#1403 = FILL_AREA_STYLE('',(#1404));
#1404 = FILL_AREA_STYLE_COLOUR('',#1405);
#1405 = COLOUR_RGB('',0.678431390124,0.709803936702,0.741176476869);
#1406 = CURVE_STYLE('',#1407,POSITIVE_LENGTH_MEASURE(0.1),#1408);
#1407 = DRAUGHTING_PRE_DEFINED_CURVE_FONT('continuous');
#1408 = COLOUR_RGB('',9.803921802644E-02,9.803921802644E-02,
  9.803921802644E-02);
ENDSEC;
END-ISO-10303-21;
