ISO-10303-21;
HEADER;
FILE_DESCRIPTION(('FreeCAD Model'),'2;1');
FILE_NAME('Open CASCADE Shape Model','2026-09-13T19:03:54',(''),(''),
  'Open CASCADE STEP processor 7.8','FreeCAD','Unknown');
FILE_SCHEMA(('AUTOMOTIVE_DESIGN { 1 0 10303 214 1 1 1 1 }'));
ENDSEC;
DATA;
#1 = APPLICATION_PROTOCOL_DEFINITION('international standard',
  'automotive_design',2000,#2);
#2 = APPLICATION_CONTEXT(
  'core data for automotive mechanical design processes');
#3 = SHAPE_DEFINITION_REPRESENTATION(#4,#10);
#4 = PRODUCT_DEFINITION_SHAPE('','',#5);
#5 = PRODUCT_DEFINITION('design','',#6,#9);
#6 = PRODUCT_DEFINITION_FORMATION('','',#7);
#7 = PRODUCT('Cover','Cover','',(#8));
#8 = PRODUCT_CONTEXT('',#2,'mechanical');
#9 = PRODUCT_DEFINITION_CONTEXT('part definition',#2,'design');
#10 = ADVANCED_BREP_SHAPE_REPRESENTATION('',(#11,#15),#1578);
#11 = AXIS2_PLACEMENT_3D('',#12,#13,#14);
#12 = CARTESIAN_POINT('',(0.,0.,0.));
#13 = DIRECTION('',(0.,0.,1.));
#14 = DIRECTION('',(1.,0.,-0.));
#15 = MANIFOLD_SOLID_BREP('',#16);
#16 = CLOSED_SHELL('',(#17,#251,#283,#307,#332,#356,#381,#405,#429,#454,
    #478,#510,#534,#559,#583,#608,#632,#657,#688,#713,#737,#761,#786,
    #803,#828,#853,#974,#1006,#1138,#1160,#1169,#1178,#1195,#1212,#1229,
    #1246,#1258,#1283,#1308,#1339,#1370,#1394,#1418,#1435,#1444,#1453,
    #1485,#1509,#1546,#1562));
#17 = ADVANCED_FACE('',(#18,#224,#235),#246,.F.);
#18 = FACE_BOUND('',#19,.F.);
#19 = EDGE_LOOP('',(#20,#31,#39,#48,#56,#64,#73,#81,#90,#99,#107,#116,
    #124,#133,#141,#150,#159,#167,#176,#184,#192,#201,#209,#218));
#20 = ORIENTED_EDGE('',*,*,#21,.F.);
#21 = EDGE_CURVE('',#22,#24,#26,.T.);
#22 = VERTEX_POINT('',#23);
#23 = CARTESIAN_POINT('',(14.98212029481,-108.4,45.579608394752));
#24 = VERTEX_POINT('',#25);
#25 = CARTESIAN_POINT('',(19.06120537705,-108.4,46.));
#26 = CIRCLE('',#27,20.);
#27 = AXIS2_PLACEMENT_3D('',#28,#29,#30);
#28 = CARTESIAN_POINT('',(19.06120537705,-108.4,26.));
#29 = DIRECTION('',(0.,1.,-2.2E-16));
#30 = DIRECTION('',(0.,-2.2E-16,-1.));
#31 = ORIENTED_EDGE('',*,*,#32,.T.);
#32 = EDGE_CURVE('',#22,#33,#35,.T.);
#33 = VERTEX_POINT('',#34);
#34 = CARTESIAN_POINT('',(8.184182983552,-108.4,44.163371454907));
#35 = LINE('',#36,#37);
#36 = CARTESIAN_POINT('',(27.909542529796,-108.4,48.272821360374));
#37 = VECTOR('',#38,1.);
#38 = DIRECTION('',(-0.978980419738,-5.E-17,-0.203954254112));
#39 = ORIENTED_EDGE('',*,*,#40,.T.);
#40 = EDGE_CURVE('',#33,#41,#43,.T.);
#41 = VERTEX_POINT('',#42);
#42 = CARTESIAN_POINT('',(5.,-108.4,40.247449775956));
#43 = CIRCLE('',#44,4.);
#44 = AXIS2_PLACEMENT_3D('',#45,#46,#47);
#45 = CARTESIAN_POINT('',(9.,-108.4,40.247449775956));
#46 = DIRECTION('',(0.,-1.,2.2E-16));
#47 = DIRECTION('',(0.,-2.2E-16,-1.));
#48 = ORIENTED_EDGE('',*,*,#49,.F.);
#49 = EDGE_CURVE('',#50,#41,#52,.T.);
#50 = VERTEX_POINT('',#51);
#51 = CARTESIAN_POINT('',(5.,-108.4,10.000000000017));
#52 = LINE('',#53,#54);
#53 = CARTESIAN_POINT('',(5.,-108.4,36.463625503396));
#54 = VECTOR('',#55,1.);
#55 = DIRECTION('',(0.,2.8E-16,1.));
#56 = ORIENTED_EDGE('',*,*,#57,.F.);
#57 = EDGE_CURVE('',#58,#50,#60,.T.);
#58 = VERTEX_POINT('',#59);
#59 = CARTESIAN_POINT('',(3.8,-108.4,10.000000000017));
#60 = LINE('',#61,#62);
#61 = CARTESIAN_POINT('',(27.5,-108.4,10.000000000017));
#62 = VECTOR('',#63,1.);
#63 = DIRECTION('',(1.,0.,0.));
#64 = ORIENTED_EDGE('',*,*,#65,.F.);
#65 = EDGE_CURVE('',#66,#58,#68,.T.);
#66 = VERTEX_POINT('',#67);
#67 = CARTESIAN_POINT('',(2.8,-108.4,9.000000000017));
#68 = CIRCLE('',#69,1.);
#69 = AXIS2_PLACEMENT_3D('',#70,#71,#72);
#70 = CARTESIAN_POINT('',(3.8,-108.4,9.000000000017));
#71 = DIRECTION('',(0.,1.,-2.2E-16));
#72 = DIRECTION('',(0.,-2.2E-16,-1.));
#73 = ORIENTED_EDGE('',*,*,#74,.F.);
#74 = EDGE_CURVE('',#75,#66,#77,.T.);
#75 = VERTEX_POINT('',#76);
#76 = CARTESIAN_POINT('',(2.8,-108.4,4.));
#77 = LINE('',#78,#79);
#78 = CARTESIAN_POINT('',(2.8,-108.4,18.463625503404));
#79 = VECTOR('',#80,1.);
#80 = DIRECTION('',(0.,2.8E-16,1.));
#81 = ORIENTED_EDGE('',*,*,#82,.F.);
#82 = EDGE_CURVE('',#83,#75,#85,.T.);
#83 = VERTEX_POINT('',#84);
#84 = CARTESIAN_POINT('',(2.098673724613,-108.4,3.045644716981));
#85 = CIRCLE('',#86,1.);
#86 = AXIS2_PLACEMENT_3D('',#87,#88,#89);
#87 = CARTESIAN_POINT('',(1.8,-108.4,4.));
#88 = DIRECTION('',(0.,-1.,2.2E-16));
#89 = DIRECTION('',(0.,-2.2E-16,-1.));
#90 = ORIENTED_EDGE('',*,*,#91,.F.);
#91 = EDGE_CURVE('',#92,#83,#94,.T.);
#92 = VERTEX_POINT('',#93);
#93 = CARTESIAN_POINT('',(1.5,-108.4,5.003272322975));
#94 = CIRCLE('',#95,3.5);
#95 = AXIS2_PLACEMENT_3D('',#96,#97,#98);
#96 = CARTESIAN_POINT('',(5.,-108.4,5.003272322975));
#97 = DIRECTION('',(0.,-1.,-2.2E-16));
#98 = DIRECTION('',(1.,0.,0.));
#99 = ORIENTED_EDGE('',*,*,#100,.F.);
#100 = EDGE_CURVE('',#101,#92,#103,.T.);
#101 = VERTEX_POINT('',#102);
#102 = CARTESIAN_POINT('',(1.5,-108.4,50.));
#103 = LINE('',#104,#105);
#104 = CARTESIAN_POINT('',(1.5,-108.4,50.));
#105 = VECTOR('',#106,1.);
#106 = DIRECTION('',(0.,2.2E-16,-1.));
#107 = ORIENTED_EDGE('',*,*,#108,.F.);
#108 = EDGE_CURVE('',#109,#101,#111,.T.);
#109 = VERTEX_POINT('',#110);
#110 = CARTESIAN_POINT('',(5.,-108.4,53.5));
#111 = CIRCLE('',#112,3.5);
#112 = AXIS2_PLACEMENT_3D('',#113,#114,#115);
#113 = CARTESIAN_POINT('',(5.,-108.4,50.));
#114 = DIRECTION('',(0.,-1.,-2.2E-16));
#115 = DIRECTION('',(1.,0.,0.));
#116 = ORIENTED_EDGE('',*,*,#117,.F.);
#117 = EDGE_CURVE('',#118,#109,#120,.T.);
#118 = VERTEX_POINT('',#119);
#119 = CARTESIAN_POINT('',(95.,-108.4,53.5));
#120 = LINE('',#121,#122);
#121 = CARTESIAN_POINT('',(95.,-108.4,53.5));
#122 = VECTOR('',#123,1.);
#123 = DIRECTION('',(-1.,0.,0.));
#124 = ORIENTED_EDGE('',*,*,#125,.F.);
#125 = EDGE_CURVE('',#126,#118,#128,.T.);
#126 = VERTEX_POINT('',#127);
#127 = CARTESIAN_POINT('',(98.5,-108.4,50.));
#128 = CIRCLE('',#129,3.5);
#129 = AXIS2_PLACEMENT_3D('',#130,#131,#132);
#130 = CARTESIAN_POINT('',(95.,-108.4,50.));
#131 = DIRECTION('',(0.,-1.,-2.2E-16));
#132 = DIRECTION('',(1.,0.,0.));
#133 = ORIENTED_EDGE('',*,*,#134,.F.);
#134 = EDGE_CURVE('',#135,#126,#137,.T.);
#135 = VERTEX_POINT('',#136);
#136 = CARTESIAN_POINT('',(98.5,-108.4,5.003272322979));
#137 = LINE('',#138,#139);
#138 = CARTESIAN_POINT('',(98.5,-108.4,0.924738656849));
#139 = VECTOR('',#140,1.);
#140 = DIRECTION('',(0.,-2.2E-16,1.));
#141 = ORIENTED_EDGE('',*,*,#142,.F.);
#142 = EDGE_CURVE('',#143,#135,#145,.T.);
#143 = VERTEX_POINT('',#144);
#144 = CARTESIAN_POINT('',(97.901326275387,-108.4,3.045644716984));
#145 = CIRCLE('',#146,3.5);
#146 = AXIS2_PLACEMENT_3D('',#147,#148,#149);
#147 = CARTESIAN_POINT('',(95.,-108.4,5.003272322979));
#148 = DIRECTION('',(0.,-1.,-2.2E-16));
#149 = DIRECTION('',(1.,0.,0.));
#150 = ORIENTED_EDGE('',*,*,#151,.T.);
#151 = EDGE_CURVE('',#143,#152,#154,.T.);
#152 = VERTEX_POINT('',#153);
#153 = CARTESIAN_POINT('',(97.2,-108.4,4.000000000003));
#154 = CIRCLE('',#155,1.);
#155 = AXIS2_PLACEMENT_3D('',#156,#157,#158);
#156 = CARTESIAN_POINT('',(98.2,-108.4,4.000000000003));
#157 = DIRECTION('',(0.,1.,-2.2E-16));
#158 = DIRECTION('',(0.,-2.2E-16,-1.));
#159 = ORIENTED_EDGE('',*,*,#160,.F.);
#160 = EDGE_CURVE('',#161,#152,#163,.T.);
#161 = VERTEX_POINT('',#162);
#162 = CARTESIAN_POINT('',(97.2,-108.4,9.));
#163 = LINE('',#164,#165);
#164 = CARTESIAN_POINT('',(97.2,-108.4,14.963625503398));
#165 = VECTOR('',#166,1.);
#166 = DIRECTION('',(2.03E-15,-2.8E-16,-1.));
#167 = ORIENTED_EDGE('',*,*,#168,.T.);
#168 = EDGE_CURVE('',#161,#169,#171,.T.);
#169 = VERTEX_POINT('',#170);
#170 = CARTESIAN_POINT('',(96.2,-108.4,10.));
#171 = CIRCLE('',#172,1.);
#172 = AXIS2_PLACEMENT_3D('',#173,#174,#175);
#173 = CARTESIAN_POINT('',(96.2,-108.4,9.));
#174 = DIRECTION('',(0.,-1.,2.2E-16));
#175 = DIRECTION('',(0.,-2.2E-16,-1.));
#176 = ORIENTED_EDGE('',*,*,#177,.F.);
#177 = EDGE_CURVE('',#178,#169,#180,.T.);
#178 = VERTEX_POINT('',#179);
#179 = CARTESIAN_POINT('',(95.,-108.4,10.));
#180 = LINE('',#181,#182);
#181 = CARTESIAN_POINT('',(73.6,-108.4,10.));
#182 = VECTOR('',#183,1.);
#183 = DIRECTION('',(1.,0.,0.));
#184 = ORIENTED_EDGE('',*,*,#185,.F.);
#185 = EDGE_CURVE('',#186,#178,#188,.T.);
#186 = VERTEX_POINT('',#187);
#187 = CARTESIAN_POINT('',(95.,-108.4,40.247449775956));
#188 = LINE('',#189,#190);
#189 = CARTESIAN_POINT('',(95.,-108.4,18.463625503396));
#190 = VECTOR('',#191,1.);
#191 = DIRECTION('',(0.,-2.8E-16,-1.));
#192 = ORIENTED_EDGE('',*,*,#193,.F.);
#193 = EDGE_CURVE('',#194,#186,#196,.T.);
#194 = VERTEX_POINT('',#195);
#195 = CARTESIAN_POINT('',(91.815817016448,-108.4,44.163371454907));
#196 = CIRCLE('',#197,4.);
#197 = AXIS2_PLACEMENT_3D('',#198,#199,#200);
#198 = CARTESIAN_POINT('',(91.,-108.4,40.247449775956));
#199 = DIRECTION('',(0.,1.,-2.2E-16));
#200 = DIRECTION('',(0.,-2.2E-16,-1.));
#201 = ORIENTED_EDGE('',*,*,#202,.F.);
#202 = EDGE_CURVE('',#203,#194,#205,.T.);
#203 = VERTEX_POINT('',#204);
#204 = CARTESIAN_POINT('',(85.01787970519,-108.4,45.579608394752));
#205 = LINE('',#206,#207);
#206 = CARTESIAN_POINT('',(72.090457470204,-108.4,48.272821360374));
#207 = VECTOR('',#208,1.);
#208 = DIRECTION('',(0.978980419738,-5.E-17,-0.203954254112));
#209 = ORIENTED_EDGE('',*,*,#210,.F.);
#210 = EDGE_CURVE('',#211,#203,#213,.T.);
#211 = VERTEX_POINT('',#212);
#212 = CARTESIAN_POINT('',(80.93879462295,-108.4,46.));
#213 = CIRCLE('',#214,20.);
#214 = AXIS2_PLACEMENT_3D('',#215,#216,#217);
#215 = CARTESIAN_POINT('',(80.93879462295,-108.4,26.));
#216 = DIRECTION('',(0.,1.,-2.2E-16));
#217 = DIRECTION('',(0.,-2.2E-16,-1.));
#218 = ORIENTED_EDGE('',*,*,#219,.F.);
#219 = EDGE_CURVE('',#24,#211,#220,.T.);
#220 = LINE('',#221,#222);
#221 = CARTESIAN_POINT('',(72.5,-108.4,46.));
#222 = VECTOR('',#223,1.);
#223 = DIRECTION('',(1.,0.,0.));
#224 = FACE_BOUND('',#225,.F.);
#225 = EDGE_LOOP('',(#226));
#226 = ORIENTED_EDGE('',*,*,#227,.T.);
#227 = EDGE_CURVE('',#228,#228,#230,.T.);
#228 = VERTEX_POINT('',#229);
#229 = CARTESIAN_POINT('',(7.32,-108.4,49.));
#230 = CIRCLE('',#231,1.32);
#231 = AXIS2_PLACEMENT_3D('',#232,#233,#234);
#232 = CARTESIAN_POINT('',(6.,-108.4,49.));
#233 = DIRECTION('',(0.,-1.,2.2E-16));
#234 = DIRECTION('',(1.,0.,0.));
#235 = FACE_BOUND('',#236,.F.);
#236 = EDGE_LOOP('',(#237));
#237 = ORIENTED_EDGE('',*,*,#238,.T.);
#238 = EDGE_CURVE('',#239,#239,#241,.T.);
#239 = VERTEX_POINT('',#240);
#240 = CARTESIAN_POINT('',(95.32,-108.4,49.));
#241 = CIRCLE('',#242,1.32);
#242 = AXIS2_PLACEMENT_3D('',#243,#244,#245);
#243 = CARTESIAN_POINT('',(94.,-108.4,49.));
#244 = DIRECTION('',(0.,-1.,2.2E-16));
#245 = DIRECTION('',(1.,0.,0.));
#246 = PLANE('',#247);
#247 = AXIS2_PLACEMENT_3D('',#248,#249,#250);
#248 = CARTESIAN_POINT('',(50.,-108.4,26.927251006792));
#249 = DIRECTION('',(0.,1.,-6.E-17));
#250 = DIRECTION('',(0.,6.E-17,1.));
#251 = ADVANCED_FACE('',(#252),#278,.F.);
#252 = FACE_BOUND('',#253,.T.);
#253 = EDGE_LOOP('',(#254,#265,#271,#272));
#254 = ORIENTED_EDGE('',*,*,#255,.T.);
#255 = EDGE_CURVE('',#256,#258,#260,.T.);
#256 = VERTEX_POINT('',#257);
#257 = CARTESIAN_POINT('',(14.98212029481,-1.6,45.579608394752));
#258 = VERTEX_POINT('',#259);
#259 = CARTESIAN_POINT('',(19.06120537705,-1.6,46.));
#260 = CIRCLE('',#261,20.);
#261 = AXIS2_PLACEMENT_3D('',#262,#263,#264);
#262 = CARTESIAN_POINT('',(19.06120537705,-1.6,26.));
#263 = DIRECTION('',(0.,1.,-2.2E-16));
#264 = DIRECTION('',(0.,-2.2E-16,-1.));
#265 = ORIENTED_EDGE('',*,*,#266,.T.);
#266 = EDGE_CURVE('',#258,#24,#267,.T.);
#267 = LINE('',#268,#269);
#268 = CARTESIAN_POINT('',(19.06120537705,-1.6,46.));
#269 = VECTOR('',#270,1.);
#270 = DIRECTION('',(0.,-1.,2.2E-16));
#271 = ORIENTED_EDGE('',*,*,#21,.F.);
#272 = ORIENTED_EDGE('',*,*,#273,.F.);
#273 = EDGE_CURVE('',#256,#22,#274,.T.);
#274 = LINE('',#275,#276);
#275 = CARTESIAN_POINT('',(14.98212029481,-1.6,45.579608394752));
#276 = VECTOR('',#277,1.);
#277 = DIRECTION('',(0.,-1.,2.2E-16));
#278 = CYLINDRICAL_SURFACE('',#279,20.);
#279 = AXIS2_PLACEMENT_3D('',#280,#281,#282);
#280 = CARTESIAN_POINT('',(19.06120537705,-1.6,26.));
#281 = DIRECTION('',(0.,-1.,2.2E-16));
#282 = DIRECTION('',(-0.203954254112,2.153756923423E-16,0.978980419738)
  );
#283 = ADVANCED_FACE('',(#284),#302,.T.);
#284 = FACE_BOUND('',#285,.T.);
#285 = EDGE_LOOP('',(#286,#287,#288,#296));
#286 = ORIENTED_EDGE('',*,*,#219,.F.);
#287 = ORIENTED_EDGE('',*,*,#266,.F.);
#288 = ORIENTED_EDGE('',*,*,#289,.T.);
#289 = EDGE_CURVE('',#258,#290,#292,.T.);
#290 = VERTEX_POINT('',#291);
#291 = CARTESIAN_POINT('',(80.93879462295,-1.6,46.));
#292 = LINE('',#293,#294);
#293 = CARTESIAN_POINT('',(72.5,-1.6,46.));
#294 = VECTOR('',#295,1.);
#295 = DIRECTION('',(1.,0.,0.));
#296 = ORIENTED_EDGE('',*,*,#297,.T.);
#297 = EDGE_CURVE('',#290,#211,#298,.T.);
#298 = LINE('',#299,#300);
#299 = CARTESIAN_POINT('',(80.93879462295,-1.6,46.));
#300 = VECTOR('',#301,1.);
#301 = DIRECTION('',(0.,-1.,2.2E-16));
#302 = PLANE('',#303);
#303 = AXIS2_PLACEMENT_3D('',#304,#305,#306);
#304 = CARTESIAN_POINT('',(95.,1.022E-14,46.));
#305 = DIRECTION('',(0.,-2.2E-16,-1.));
#306 = DIRECTION('',(-1.,0.,0.));
#307 = ADVANCED_FACE('',(#308),#327,.F.);
#308 = FACE_BOUND('',#309,.T.);
#309 = EDGE_LOOP('',(#310,#319,#325,#326));
#310 = ORIENTED_EDGE('',*,*,#311,.T.);
#311 = EDGE_CURVE('',#290,#312,#314,.T.);
#312 = VERTEX_POINT('',#313);
#313 = CARTESIAN_POINT('',(85.01787970519,-1.6,45.579608394752));
#314 = CIRCLE('',#315,20.);
#315 = AXIS2_PLACEMENT_3D('',#316,#317,#318);
#316 = CARTESIAN_POINT('',(80.93879462295,-1.6,26.));
#317 = DIRECTION('',(0.,1.,-2.2E-16));
#318 = DIRECTION('',(0.,-2.2E-16,-1.));
#319 = ORIENTED_EDGE('',*,*,#320,.T.);
#320 = EDGE_CURVE('',#312,#203,#321,.T.);
#321 = LINE('',#322,#323);
#322 = CARTESIAN_POINT('',(85.01787970519,-1.6,45.579608394752));
#323 = VECTOR('',#324,1.);
#324 = DIRECTION('',(0.,-1.,2.2E-16));
#325 = ORIENTED_EDGE('',*,*,#210,.F.);
#326 = ORIENTED_EDGE('',*,*,#297,.F.);
#327 = CYLINDRICAL_SURFACE('',#328,20.);
#328 = AXIS2_PLACEMENT_3D('',#329,#330,#331);
#329 = CARTESIAN_POINT('',(80.93879462295,-1.6,26.));
#330 = DIRECTION('',(0.,-1.,2.2E-16));
#331 = DIRECTION('',(0.,2.2E-16,1.));
#332 = ADVANCED_FACE('',(#333),#351,.F.);
#333 = FACE_BOUND('',#334,.F.);
#334 = EDGE_LOOP('',(#335,#343,#344,#345));
#335 = ORIENTED_EDGE('',*,*,#336,.F.);
#336 = EDGE_CURVE('',#312,#337,#339,.T.);
#337 = VERTEX_POINT('',#338);
#338 = CARTESIAN_POINT('',(91.815817016448,-1.6,44.163371454907));
#339 = LINE('',#340,#341);
#340 = CARTESIAN_POINT('',(72.033277870216,-1.6,48.284733777038));
#341 = VECTOR('',#342,1.);
#342 = DIRECTION('',(0.978980419738,0.,-0.203954254112));
#343 = ORIENTED_EDGE('',*,*,#320,.T.);
#344 = ORIENTED_EDGE('',*,*,#202,.T.);
#345 = ORIENTED_EDGE('',*,*,#346,.F.);
#346 = EDGE_CURVE('',#337,#194,#347,.T.);
#347 = LINE('',#348,#349);
#348 = CARTESIAN_POINT('',(91.815817016448,-1.6,44.163371454907));
#349 = VECTOR('',#350,1.);
#350 = DIRECTION('',(0.,-1.,2.2E-16));
#351 = PLANE('',#352);
#352 = AXIS2_PLACEMENT_3D('',#353,#354,#355);
#353 = CARTESIAN_POINT('',(89.,-1.6,44.75));
#354 = DIRECTION('',(0.203954254112,5.3E-16,0.978980419738));
#355 = DIRECTION('',(5.977628712528E-17,-1.,5.289261782014E-16));
#356 = ADVANCED_FACE('',(#357),#376,.F.);
#357 = FACE_BOUND('',#358,.T.);
#358 = EDGE_LOOP('',(#359,#368,#374,#375));
#359 = ORIENTED_EDGE('',*,*,#360,.T.);
#360 = EDGE_CURVE('',#337,#361,#363,.T.);
#361 = VERTEX_POINT('',#362);
#362 = CARTESIAN_POINT('',(95.,-1.6,40.247449775956));
#363 = CIRCLE('',#364,4.);
#364 = AXIS2_PLACEMENT_3D('',#365,#366,#367);
#365 = CARTESIAN_POINT('',(91.,-1.6,40.247449775956));
#366 = DIRECTION('',(0.,1.,-2.2E-16));
#367 = DIRECTION('',(0.,-2.2E-16,-1.));
#368 = ORIENTED_EDGE('',*,*,#369,.T.);
#369 = EDGE_CURVE('',#361,#186,#370,.T.);
#370 = LINE('',#371,#372);
#371 = CARTESIAN_POINT('',(95.,-1.6,40.247449775956));
#372 = VECTOR('',#373,1.);
#373 = DIRECTION('',(0.,-1.,2.2E-16));
#374 = ORIENTED_EDGE('',*,*,#193,.F.);
#375 = ORIENTED_EDGE('',*,*,#346,.F.);
#376 = CYLINDRICAL_SURFACE('',#377,4.);
#377 = AXIS2_PLACEMENT_3D('',#378,#379,#380);
#378 = CARTESIAN_POINT('',(91.,-1.6,40.247449775956));
#379 = DIRECTION('',(0.,-1.,2.2E-16));
#380 = DIRECTION('',(0.203954254112,2.153756923423E-16,0.978980419738));
#381 = ADVANCED_FACE('',(#382),#400,.T.);
#382 = FACE_BOUND('',#383,.T.);
#383 = EDGE_LOOP('',(#384,#385,#386,#394));
#384 = ORIENTED_EDGE('',*,*,#185,.F.);
#385 = ORIENTED_EDGE('',*,*,#369,.F.);
#386 = ORIENTED_EDGE('',*,*,#387,.T.);
#387 = EDGE_CURVE('',#361,#388,#390,.T.);
#388 = VERTEX_POINT('',#389);
#389 = CARTESIAN_POINT('',(95.,-1.6,10.));
#390 = LINE('',#391,#392);
#391 = CARTESIAN_POINT('',(95.,-1.6,18.75));
#392 = VECTOR('',#393,1.);
#393 = DIRECTION('',(0.,0.,-1.));
#394 = ORIENTED_EDGE('',*,*,#395,.T.);
#395 = EDGE_CURVE('',#388,#178,#396,.T.);
#396 = LINE('',#397,#398);
#397 = CARTESIAN_POINT('',(95.,2.22E-15,10.));
#398 = VECTOR('',#399,1.);
#399 = DIRECTION('',(0.,-1.,2.2E-16));
#400 = PLANE('',#401);
#401 = AXIS2_PLACEMENT_3D('',#402,#403,#404);
#402 = CARTESIAN_POINT('',(95.,2.22E-15,10.));
#403 = DIRECTION('',(-1.,0.,0.));
#404 = DIRECTION('',(0.,2.2E-16,1.));
#405 = ADVANCED_FACE('',(#406),#424,.T.);
#406 = FACE_BOUND('',#407,.T.);
#407 = EDGE_LOOP('',(#408,#409,#410,#418));
#408 = ORIENTED_EDGE('',*,*,#177,.F.);
#409 = ORIENTED_EDGE('',*,*,#395,.F.);
#410 = ORIENTED_EDGE('',*,*,#411,.T.);
#411 = EDGE_CURVE('',#388,#412,#414,.T.);
#412 = VERTEX_POINT('',#413);
#413 = CARTESIAN_POINT('',(96.2,-1.6,10.));
#414 = LINE('',#415,#416);
#415 = CARTESIAN_POINT('',(73.6,-1.6,10.));
#416 = VECTOR('',#417,1.);
#417 = DIRECTION('',(1.,0.,0.));
#418 = ORIENTED_EDGE('',*,*,#419,.T.);
#419 = EDGE_CURVE('',#412,#169,#420,.T.);
#420 = LINE('',#421,#422);
#421 = CARTESIAN_POINT('',(96.2,-1.6,10.));
#422 = VECTOR('',#423,1.);
#423 = DIRECTION('',(0.,-1.,2.2E-16));
#424 = PLANE('',#425);
#425 = AXIS2_PLACEMENT_3D('',#426,#427,#428);
#426 = CARTESIAN_POINT('',(97.2,2.22E-15,10.));
#427 = DIRECTION('',(0.,-2.2E-16,-1.));
#428 = DIRECTION('',(-1.,0.,0.));
#429 = ADVANCED_FACE('',(#430),#449,.F.);
#430 = FACE_BOUND('',#431,.F.);
#431 = EDGE_LOOP('',(#432,#441,#442,#443));
#432 = ORIENTED_EDGE('',*,*,#433,.T.);
#433 = EDGE_CURVE('',#434,#412,#436,.T.);
#434 = VERTEX_POINT('',#435);
#435 = CARTESIAN_POINT('',(97.2,-1.6,9.));
#436 = CIRCLE('',#437,1.);
#437 = AXIS2_PLACEMENT_3D('',#438,#439,#440);
#438 = CARTESIAN_POINT('',(96.2,-1.6,9.));
#439 = DIRECTION('',(0.,-1.,2.2E-16));
#440 = DIRECTION('',(0.,-2.2E-16,-1.));
#441 = ORIENTED_EDGE('',*,*,#419,.T.);
#442 = ORIENTED_EDGE('',*,*,#168,.F.);
#443 = ORIENTED_EDGE('',*,*,#444,.F.);
#444 = EDGE_CURVE('',#434,#161,#445,.T.);
#445 = LINE('',#446,#447);
#446 = CARTESIAN_POINT('',(97.2,-1.6,9.));
#447 = VECTOR('',#448,1.);
#448 = DIRECTION('',(0.,-1.,2.2E-16));
#449 = CYLINDRICAL_SURFACE('',#450,1.);
#450 = AXIS2_PLACEMENT_3D('',#451,#452,#453);
#451 = CARTESIAN_POINT('',(96.2,-1.6,9.));
#452 = DIRECTION('',(0.,-1.,2.2E-16));
#453 = DIRECTION('',(1.,4.466E-31,2.03E-15));
#454 = ADVANCED_FACE('',(#455),#473,.T.);
#455 = FACE_BOUND('',#456,.T.);
#456 = EDGE_LOOP('',(#457,#458,#459,#467));
#457 = ORIENTED_EDGE('',*,*,#160,.F.);
#458 = ORIENTED_EDGE('',*,*,#444,.F.);
#459 = ORIENTED_EDGE('',*,*,#460,.T.);
#460 = EDGE_CURVE('',#434,#461,#463,.T.);
#461 = VERTEX_POINT('',#462);
#462 = CARTESIAN_POINT('',(97.2,-1.6,4.000000000003));
#463 = LINE('',#464,#465);
#464 = CARTESIAN_POINT('',(97.2,-1.6,15.250000000002));
#465 = VECTOR('',#466,1.);
#466 = DIRECTION('',(2.03E-15,0.,-1.));
#467 = ORIENTED_EDGE('',*,*,#468,.T.);
#468 = EDGE_CURVE('',#461,#152,#469,.T.);
#469 = LINE('',#470,#471);
#470 = CARTESIAN_POINT('',(97.2,-1.6,4.000000000003));
#471 = VECTOR('',#472,1.);
#472 = DIRECTION('',(0.,-1.,2.2E-16));
#473 = PLANE('',#474);
#474 = AXIS2_PLACEMENT_3D('',#475,#476,#477);
#475 = CARTESIAN_POINT('',(97.2,6.6E-16,3.000000000003));
#476 = DIRECTION('',(-1.,0.,-2.03E-15));
#477 = DIRECTION('',(-2.03E-15,2.2E-16,1.));
#478 = ADVANCED_FACE('',(#479),#505,.F.);
#479 = FACE_BOUND('',#480,.T.);
#480 = EDGE_LOOP('',(#481,#489,#498,#504));
#481 = ORIENTED_EDGE('',*,*,#482,.T.);
#482 = EDGE_CURVE('',#143,#483,#485,.T.);
#483 = VERTEX_POINT('',#484);
#484 = CARTESIAN_POINT('',(97.901326275387,-112.,3.045644716984));
#485 = LINE('',#486,#487);
#486 = CARTESIAN_POINT('',(97.901326275387,-108.4,3.045644716984));
#487 = VECTOR('',#488,1.);
#488 = DIRECTION('',(0.,-1.,2.2E-16));
#489 = ORIENTED_EDGE('',*,*,#490,.T.);
#490 = EDGE_CURVE('',#483,#491,#493,.T.);
#491 = VERTEX_POINT('',#492);
#492 = CARTESIAN_POINT('',(98.5,-112.,5.003272322979));
#493 = CIRCLE('',#494,3.5);
#494 = AXIS2_PLACEMENT_3D('',#495,#496,#497);
#495 = CARTESIAN_POINT('',(95.,-112.,5.003272322979));
#496 = DIRECTION('',(0.,-1.,-2.2E-16));
#497 = DIRECTION('',(1.,0.,0.));
#498 = ORIENTED_EDGE('',*,*,#499,.F.);
#499 = EDGE_CURVE('',#135,#491,#500,.T.);
#500 = LINE('',#501,#502);
#501 = CARTESIAN_POINT('',(98.5,-108.4,5.003272322979));
#502 = VECTOR('',#503,1.);
#503 = DIRECTION('',(0.,-1.,2.2E-16));
#504 = ORIENTED_EDGE('',*,*,#142,.F.);
#505 = CYLINDRICAL_SURFACE('',#506,3.5);
#506 = AXIS2_PLACEMENT_3D('',#507,#508,#509);
#507 = CARTESIAN_POINT('',(95.,-108.4,5.003272322979));
#508 = DIRECTION('',(0.,1.,-2.2E-16));
#509 = DIRECTION('',(1.,0.,0.));
#510 = ADVANCED_FACE('',(#511),#529,.T.);
#511 = FACE_BOUND('',#512,.T.);
#512 = EDGE_LOOP('',(#513,#514,#515,#523));
#513 = ORIENTED_EDGE('',*,*,#134,.F.);
#514 = ORIENTED_EDGE('',*,*,#499,.T.);
#515 = ORIENTED_EDGE('',*,*,#516,.T.);
#516 = EDGE_CURVE('',#491,#517,#519,.T.);
#517 = VERTEX_POINT('',#518);
#518 = CARTESIAN_POINT('',(98.5,-112.,50.));
#519 = LINE('',#520,#521);
#520 = CARTESIAN_POINT('',(98.5,-112.,0.924738656849));
#521 = VECTOR('',#522,1.);
#522 = DIRECTION('',(0.,-2.2E-16,1.));
#523 = ORIENTED_EDGE('',*,*,#524,.F.);
#524 = EDGE_CURVE('',#126,#517,#525,.T.);
#525 = LINE('',#526,#527);
#526 = CARTESIAN_POINT('',(98.5,-110.,50.));
#527 = VECTOR('',#528,1.);
#528 = DIRECTION('',(0.,-1.,0.));
#529 = PLANE('',#530);
#530 = AXIS2_PLACEMENT_3D('',#531,#532,#533);
#531 = CARTESIAN_POINT('',(98.5,-110.2,26.500000000002));
#532 = DIRECTION('',(-1.,0.,0.));
#533 = DIRECTION('',(0.,1.,2.2E-16));
#534 = ADVANCED_FACE('',(#535),#554,.F.);
#535 = FACE_BOUND('',#536,.F.);
#536 = EDGE_LOOP('',(#537,#538,#539,#547));
#537 = ORIENTED_EDGE('',*,*,#524,.F.);
#538 = ORIENTED_EDGE('',*,*,#125,.T.);
#539 = ORIENTED_EDGE('',*,*,#540,.F.);
#540 = EDGE_CURVE('',#541,#118,#543,.T.);
#541 = VERTEX_POINT('',#542);
#542 = CARTESIAN_POINT('',(95.,-112.,53.5));
#543 = LINE('',#544,#545);
#544 = CARTESIAN_POINT('',(95.,-110.,53.5));
#545 = VECTOR('',#546,1.);
#546 = DIRECTION('',(0.,1.,-2.2E-16));
#547 = ORIENTED_EDGE('',*,*,#548,.F.);
#548 = EDGE_CURVE('',#517,#541,#549,.T.);
#549 = CIRCLE('',#550,3.5);
#550 = AXIS2_PLACEMENT_3D('',#551,#552,#553);
#551 = CARTESIAN_POINT('',(95.,-112.,50.));
#552 = DIRECTION('',(0.,-1.,-2.2E-16));
#553 = DIRECTION('',(1.,0.,0.));
#554 = CYLINDRICAL_SURFACE('',#555,3.5);
#555 = AXIS2_PLACEMENT_3D('',#556,#557,#558);
#556 = CARTESIAN_POINT('',(95.,-110.,50.));
#557 = DIRECTION('',(0.,-1.,2.2E-16));
#558 = DIRECTION('',(1.,0.,0.));
#559 = ADVANCED_FACE('',(#560),#578,.T.);
#560 = FACE_BOUND('',#561,.T.);
#561 = EDGE_LOOP('',(#562,#563,#571,#577));
#562 = ORIENTED_EDGE('',*,*,#540,.F.);
#563 = ORIENTED_EDGE('',*,*,#564,.T.);
#564 = EDGE_CURVE('',#541,#565,#567,.T.);
#565 = VERTEX_POINT('',#566);
#566 = CARTESIAN_POINT('',(5.,-112.,53.5));
#567 = LINE('',#568,#569);
#568 = CARTESIAN_POINT('',(95.,-112.,53.5));
#569 = VECTOR('',#570,1.);
#570 = DIRECTION('',(-1.,0.,0.));
#571 = ORIENTED_EDGE('',*,*,#572,.F.);
#572 = EDGE_CURVE('',#109,#565,#573,.T.);
#573 = LINE('',#574,#575);
#574 = CARTESIAN_POINT('',(5.,-110.,53.5));
#575 = VECTOR('',#576,1.);
#576 = DIRECTION('',(0.,-1.,0.));
#577 = ORIENTED_EDGE('',*,*,#117,.F.);
#578 = PLANE('',#579);
#579 = AXIS2_PLACEMENT_3D('',#580,#581,#582);
#580 = CARTESIAN_POINT('',(50.,-110.2,53.5));
#581 = DIRECTION('',(0.,2.2E-16,-1.));
#582 = DIRECTION('',(0.,1.,2.2E-16));
#583 = ADVANCED_FACE('',(#584),#603,.F.);
#584 = FACE_BOUND('',#585,.F.);
#585 = EDGE_LOOP('',(#586,#587,#588,#596));
#586 = ORIENTED_EDGE('',*,*,#572,.F.);
#587 = ORIENTED_EDGE('',*,*,#108,.T.);
#588 = ORIENTED_EDGE('',*,*,#589,.F.);
#589 = EDGE_CURVE('',#590,#101,#592,.T.);
#590 = VERTEX_POINT('',#591);
#591 = CARTESIAN_POINT('',(1.5,-112.,50.));
#592 = LINE('',#593,#594);
#593 = CARTESIAN_POINT('',(1.5,-110.,50.));
#594 = VECTOR('',#595,1.);
#595 = DIRECTION('',(0.,1.,-2.2E-16));
#596 = ORIENTED_EDGE('',*,*,#597,.F.);
#597 = EDGE_CURVE('',#565,#590,#598,.T.);
#598 = CIRCLE('',#599,3.5);
#599 = AXIS2_PLACEMENT_3D('',#600,#601,#602);
#600 = CARTESIAN_POINT('',(5.,-112.,50.));
#601 = DIRECTION('',(0.,-1.,-2.2E-16));
#602 = DIRECTION('',(1.,0.,0.));
#603 = CYLINDRICAL_SURFACE('',#604,3.5);
#604 = AXIS2_PLACEMENT_3D('',#605,#606,#607);
#605 = CARTESIAN_POINT('',(5.,-110.,50.));
#606 = DIRECTION('',(0.,-1.,2.2E-16));
#607 = DIRECTION('',(1.,0.,0.));
#608 = ADVANCED_FACE('',(#609),#627,.T.);
#609 = FACE_BOUND('',#610,.T.);
#610 = EDGE_LOOP('',(#611,#619,#625,#626));
#611 = ORIENTED_EDGE('',*,*,#612,.T.);
#612 = EDGE_CURVE('',#590,#613,#615,.T.);
#613 = VERTEX_POINT('',#614);
#614 = CARTESIAN_POINT('',(1.5,-112.,5.003272322975));
#615 = LINE('',#616,#617);
#616 = CARTESIAN_POINT('',(1.5,-112.,50.));
#617 = VECTOR('',#618,1.);
#618 = DIRECTION('',(0.,2.2E-16,-1.));
#619 = ORIENTED_EDGE('',*,*,#620,.F.);
#620 = EDGE_CURVE('',#92,#613,#621,.T.);
#621 = LINE('',#622,#623);
#622 = CARTESIAN_POINT('',(1.5,-108.4,5.003272322975));
#623 = VECTOR('',#624,1.);
#624 = DIRECTION('',(0.,-1.,2.2E-16));
#625 = ORIENTED_EDGE('',*,*,#100,.F.);
#626 = ORIENTED_EDGE('',*,*,#589,.F.);
#627 = PLANE('',#628);
#628 = AXIS2_PLACEMENT_3D('',#629,#630,#631);
#629 = CARTESIAN_POINT('',(1.5,-110.2,26.5));
#630 = DIRECTION('',(1.,0.,0.));
#631 = DIRECTION('',(0.,-1.,-2.2E-16));
#632 = ADVANCED_FACE('',(#633),#652,.F.);
#633 = FACE_BOUND('',#634,.T.);
#634 = EDGE_LOOP('',(#635,#636,#645,#651));
#635 = ORIENTED_EDGE('',*,*,#620,.T.);
#636 = ORIENTED_EDGE('',*,*,#637,.T.);
#637 = EDGE_CURVE('',#613,#638,#640,.T.);
#638 = VERTEX_POINT('',#639);
#639 = CARTESIAN_POINT('',(2.098673724613,-112.,3.045644716981));
#640 = CIRCLE('',#641,3.5);
#641 = AXIS2_PLACEMENT_3D('',#642,#643,#644);
#642 = CARTESIAN_POINT('',(5.,-112.,5.003272322975));
#643 = DIRECTION('',(0.,-1.,-2.2E-16));
#644 = DIRECTION('',(1.,0.,0.));
#645 = ORIENTED_EDGE('',*,*,#646,.F.);
#646 = EDGE_CURVE('',#83,#638,#647,.T.);
#647 = LINE('',#648,#649);
#648 = CARTESIAN_POINT('',(2.098673724613,-108.4,3.045644716981));
#649 = VECTOR('',#650,1.);
#650 = DIRECTION('',(0.,-1.,2.2E-16));
#651 = ORIENTED_EDGE('',*,*,#91,.F.);
#652 = CYLINDRICAL_SURFACE('',#653,3.5);
#653 = AXIS2_PLACEMENT_3D('',#654,#655,#656);
#654 = CARTESIAN_POINT('',(5.,-108.4,5.003272322975));
#655 = DIRECTION('',(0.,1.,-2.2E-16));
#656 = DIRECTION('',(1.,0.,0.));
#657 = ADVANCED_FACE('',(#658),#683,.T.);
#658 = FACE_BOUND('',#659,.T.);
#659 = EDGE_LOOP('',(#660,#661,#669,#677));
#660 = ORIENTED_EDGE('',*,*,#74,.F.);
#661 = ORIENTED_EDGE('',*,*,#662,.F.);
#662 = EDGE_CURVE('',#663,#75,#665,.T.);
#663 = VERTEX_POINT('',#664);
#664 = CARTESIAN_POINT('',(2.8,-1.6,4.));
#665 = LINE('',#666,#667);
#666 = CARTESIAN_POINT('',(2.8,-1.6,4.));
#667 = VECTOR('',#668,1.);
#668 = DIRECTION('',(0.,-1.,2.2E-16));
#669 = ORIENTED_EDGE('',*,*,#670,.T.);
#670 = EDGE_CURVE('',#663,#671,#673,.T.);
#671 = VERTEX_POINT('',#672);
#672 = CARTESIAN_POINT('',(2.8,-1.6,9.000000000017));
#673 = LINE('',#674,#675);
#674 = CARTESIAN_POINT('',(2.8,-1.6,18.750000000008));
#675 = VECTOR('',#676,1.);
#676 = DIRECTION('',(0.,0.,1.));
#677 = ORIENTED_EDGE('',*,*,#678,.T.);
#678 = EDGE_CURVE('',#671,#66,#679,.T.);
#679 = LINE('',#680,#681);
#680 = CARTESIAN_POINT('',(2.8,-1.6,9.000000000017));
#681 = VECTOR('',#682,1.);
#682 = DIRECTION('',(0.,-1.,2.2E-16));
#683 = PLANE('',#684);
#684 = AXIS2_PLACEMENT_3D('',#685,#686,#687);
#685 = CARTESIAN_POINT('',(2.8,2.22E-15,10.000000000017));
#686 = DIRECTION('',(1.,0.,0.));
#687 = DIRECTION('',(0.,-2.2E-16,-1.));
#688 = ADVANCED_FACE('',(#689),#708,.F.);
#689 = FACE_BOUND('',#690,.T.);
#690 = EDGE_LOOP('',(#691,#700,#706,#707));
#691 = ORIENTED_EDGE('',*,*,#692,.T.);
#692 = EDGE_CURVE('',#671,#693,#695,.T.);
#693 = VERTEX_POINT('',#694);
#694 = CARTESIAN_POINT('',(3.8,-1.6,10.000000000017));
#695 = CIRCLE('',#696,1.);
#696 = AXIS2_PLACEMENT_3D('',#697,#698,#699);
#697 = CARTESIAN_POINT('',(3.8,-1.6,9.000000000017));
#698 = DIRECTION('',(0.,1.,-2.2E-16));
#699 = DIRECTION('',(0.,-2.2E-16,-1.));
#700 = ORIENTED_EDGE('',*,*,#701,.T.);
#701 = EDGE_CURVE('',#693,#58,#702,.T.);
#702 = LINE('',#703,#704);
#703 = CARTESIAN_POINT('',(3.8,-1.6,10.000000000017));
#704 = VECTOR('',#705,1.);
#705 = DIRECTION('',(0.,-1.,2.2E-16));
#706 = ORIENTED_EDGE('',*,*,#65,.F.);
#707 = ORIENTED_EDGE('',*,*,#678,.F.);
#708 = CYLINDRICAL_SURFACE('',#709,1.);
#709 = AXIS2_PLACEMENT_3D('',#710,#711,#712);
#710 = CARTESIAN_POINT('',(3.8,-1.6,9.000000000017));
#711 = DIRECTION('',(0.,-1.,2.2E-16));
#712 = DIRECTION('',(-1.,0.,0.));
#713 = ADVANCED_FACE('',(#714),#732,.T.);
#714 = FACE_BOUND('',#715,.T.);
#715 = EDGE_LOOP('',(#716,#717,#718,#726));
#716 = ORIENTED_EDGE('',*,*,#57,.F.);
#717 = ORIENTED_EDGE('',*,*,#701,.F.);
#718 = ORIENTED_EDGE('',*,*,#719,.T.);
#719 = EDGE_CURVE('',#693,#720,#722,.T.);
#720 = VERTEX_POINT('',#721);
#721 = CARTESIAN_POINT('',(5.,-1.6,10.000000000017));
#722 = LINE('',#723,#724);
#723 = CARTESIAN_POINT('',(27.5,-1.6,10.000000000017));
#724 = VECTOR('',#725,1.);
#725 = DIRECTION('',(1.,0.,0.));
#726 = ORIENTED_EDGE('',*,*,#727,.T.);
#727 = EDGE_CURVE('',#720,#50,#728,.T.);
#728 = LINE('',#729,#730);
#729 = CARTESIAN_POINT('',(5.,2.22E-15,10.000000000017));
#730 = VECTOR('',#731,1.);
#731 = DIRECTION('',(0.,-1.,2.2E-16));
#732 = PLANE('',#733);
#733 = AXIS2_PLACEMENT_3D('',#734,#735,#736);
#734 = CARTESIAN_POINT('',(5.,2.22E-15,10.000000000017));
#735 = DIRECTION('',(0.,-2.2E-16,-1.));
#736 = DIRECTION('',(-1.,0.,0.));
#737 = ADVANCED_FACE('',(#738),#756,.T.);
#738 = FACE_BOUND('',#739,.T.);
#739 = EDGE_LOOP('',(#740,#741,#742,#750));
#740 = ORIENTED_EDGE('',*,*,#49,.F.);
#741 = ORIENTED_EDGE('',*,*,#727,.F.);
#742 = ORIENTED_EDGE('',*,*,#743,.T.);
#743 = EDGE_CURVE('',#720,#744,#746,.T.);
#744 = VERTEX_POINT('',#745);
#745 = CARTESIAN_POINT('',(5.,-1.6,40.247449775956));
#746 = LINE('',#747,#748);
#747 = CARTESIAN_POINT('',(5.,-1.6,36.75));
#748 = VECTOR('',#749,1.);
#749 = DIRECTION('',(0.,0.,1.));
#750 = ORIENTED_EDGE('',*,*,#751,.T.);
#751 = EDGE_CURVE('',#744,#41,#752,.T.);
#752 = LINE('',#753,#754);
#753 = CARTESIAN_POINT('',(5.,-1.6,40.247449775956));
#754 = VECTOR('',#755,1.);
#755 = DIRECTION('',(0.,-1.,2.2E-16));
#756 = PLANE('',#757);
#757 = AXIS2_PLACEMENT_3D('',#758,#759,#760);
#758 = CARTESIAN_POINT('',(5.,1.022E-14,46.));
#759 = DIRECTION('',(1.,0.,0.));
#760 = DIRECTION('',(0.,-2.2E-16,-1.));
#761 = ADVANCED_FACE('',(#762),#781,.F.);
#762 = FACE_BOUND('',#763,.F.);
#763 = EDGE_LOOP('',(#764,#773,#774,#775));
#764 = ORIENTED_EDGE('',*,*,#765,.T.);
#765 = EDGE_CURVE('',#766,#744,#768,.T.);
#766 = VERTEX_POINT('',#767);
#767 = CARTESIAN_POINT('',(8.184182983552,-1.6,44.163371454907));
#768 = CIRCLE('',#769,4.);
#769 = AXIS2_PLACEMENT_3D('',#770,#771,#772);
#770 = CARTESIAN_POINT('',(9.,-1.6,40.247449775956));
#771 = DIRECTION('',(0.,-1.,2.2E-16));
#772 = DIRECTION('',(0.,-2.2E-16,-1.));
#773 = ORIENTED_EDGE('',*,*,#751,.T.);
#774 = ORIENTED_EDGE('',*,*,#40,.F.);
#775 = ORIENTED_EDGE('',*,*,#776,.F.);
#776 = EDGE_CURVE('',#766,#33,#777,.T.);
#777 = LINE('',#778,#779);
#778 = CARTESIAN_POINT('',(8.184182983552,-1.6,44.163371454907));
#779 = VECTOR('',#780,1.);
#780 = DIRECTION('',(0.,-1.,2.2E-16));
#781 = CYLINDRICAL_SURFACE('',#782,4.);
#782 = AXIS2_PLACEMENT_3D('',#783,#784,#785);
#783 = CARTESIAN_POINT('',(9.,-1.6,40.247449775956));
#784 = DIRECTION('',(0.,-1.,2.2E-16));
#785 = DIRECTION('',(-0.203954254112,2.153756923423E-16,0.978980419738)
  );
#786 = ADVANCED_FACE('',(#787),#798,.F.);
#787 = FACE_BOUND('',#788,.T.);
#788 = EDGE_LOOP('',(#789,#795,#796,#797));
#789 = ORIENTED_EDGE('',*,*,#790,.F.);
#790 = EDGE_CURVE('',#256,#766,#791,.T.);
#791 = LINE('',#792,#793);
#792 = CARTESIAN_POINT('',(27.966722129784,-1.6,48.284733777038));
#793 = VECTOR('',#794,1.);
#794 = DIRECTION('',(-0.978980419738,-0.,-0.203954254112));
#795 = ORIENTED_EDGE('',*,*,#273,.T.);
#796 = ORIENTED_EDGE('',*,*,#32,.T.);
#797 = ORIENTED_EDGE('',*,*,#776,.F.);
#798 = PLANE('',#799);
#799 = AXIS2_PLACEMENT_3D('',#800,#801,#802);
#800 = CARTESIAN_POINT('',(11.,-1.6,44.75));
#801 = DIRECTION('',(-0.203954254112,4.8E-16,0.978980419738));
#802 = DIRECTION('',(4.997790886228E-17,1.,-4.798939625389E-16));
#803 = ADVANCED_FACE('',(#804),#823,.F.);
#804 = FACE_BOUND('',#805,.F.);
#805 = EDGE_LOOP('',(#806,#807,#815,#822));
#806 = ORIENTED_EDGE('',*,*,#227,.F.);
#807 = ORIENTED_EDGE('',*,*,#808,.T.);
#808 = EDGE_CURVE('',#228,#809,#811,.T.);
#809 = VERTEX_POINT('',#810);
#810 = CARTESIAN_POINT('',(7.32,-102.,49.));
#811 = LINE('',#812,#813);
#812 = CARTESIAN_POINT('',(7.32,-110.,49.));
#813 = VECTOR('',#814,1.);
#814 = DIRECTION('',(0.,1.,-2.2E-16));
#815 = ORIENTED_EDGE('',*,*,#816,.T.);
#816 = EDGE_CURVE('',#809,#809,#817,.T.);
#817 = CIRCLE('',#818,1.32);
#818 = AXIS2_PLACEMENT_3D('',#819,#820,#821);
#819 = CARTESIAN_POINT('',(6.,-102.,49.));
#820 = DIRECTION('',(0.,-1.,-2.2E-16));
#821 = DIRECTION('',(1.,0.,0.));
#822 = ORIENTED_EDGE('',*,*,#808,.F.);
#823 = CYLINDRICAL_SURFACE('',#824,1.32);
#824 = AXIS2_PLACEMENT_3D('',#825,#826,#827);
#825 = CARTESIAN_POINT('',(6.,-110.,49.));
#826 = DIRECTION('',(0.,-1.,2.2E-16));
#827 = DIRECTION('',(1.,0.,0.));
#828 = ADVANCED_FACE('',(#829),#848,.F.);
#829 = FACE_BOUND('',#830,.F.);
#830 = EDGE_LOOP('',(#831,#832,#840,#847));
#831 = ORIENTED_EDGE('',*,*,#238,.F.);
#832 = ORIENTED_EDGE('',*,*,#833,.T.);
#833 = EDGE_CURVE('',#239,#834,#836,.T.);
#834 = VERTEX_POINT('',#835);
#835 = CARTESIAN_POINT('',(95.32,-102.,49.));
#836 = LINE('',#837,#838);
#837 = CARTESIAN_POINT('',(95.32,-110.,49.));
#838 = VECTOR('',#839,1.);
#839 = DIRECTION('',(0.,1.,-2.2E-16));
#840 = ORIENTED_EDGE('',*,*,#841,.T.);
#841 = EDGE_CURVE('',#834,#834,#842,.T.);
#842 = CIRCLE('',#843,1.32);
#843 = AXIS2_PLACEMENT_3D('',#844,#845,#846);
#844 = CARTESIAN_POINT('',(94.,-102.,49.));
#845 = DIRECTION('',(0.,-1.,-2.2E-16));
#846 = DIRECTION('',(1.,0.,0.));
#847 = ORIENTED_EDGE('',*,*,#833,.F.);
#848 = CYLINDRICAL_SURFACE('',#849,1.32);
#849 = AXIS2_PLACEMENT_3D('',#850,#851,#852);
#850 = CARTESIAN_POINT('',(94.,-110.,49.));
#851 = DIRECTION('',(0.,-1.,2.2E-16));
#852 = DIRECTION('',(1.,0.,0.));
#853 = ADVANCED_FACE('',(#854,#947,#958),#969,.T.);
#854 = FACE_BOUND('',#855,.T.);
#855 = EDGE_LOOP('',(#856,#857,#858,#859,#860,#861,#862,#871,#880,#888,
    #897,#905,#914,#922,#931,#938,#939,#940,#941,#942,#943,#944,#945,
    #946));
#856 = ORIENTED_EDGE('',*,*,#790,.T.);
#857 = ORIENTED_EDGE('',*,*,#765,.T.);
#858 = ORIENTED_EDGE('',*,*,#743,.F.);
#859 = ORIENTED_EDGE('',*,*,#719,.F.);
#860 = ORIENTED_EDGE('',*,*,#692,.F.);
#861 = ORIENTED_EDGE('',*,*,#670,.F.);
#862 = ORIENTED_EDGE('',*,*,#863,.F.);
#863 = EDGE_CURVE('',#864,#663,#866,.T.);
#864 = VERTEX_POINT('',#865);
#865 = CARTESIAN_POINT('',(2.09685117388,-1.6,3.045076243585));
#866 = CIRCLE('',#867,1.);
#867 = AXIS2_PLACEMENT_3D('',#868,#869,#870);
#868 = CARTESIAN_POINT('',(1.8,-1.6,4.));
#869 = DIRECTION('',(0.,-1.,2.2E-16));
#870 = DIRECTION('',(0.,-2.2E-16,-1.));
#871 = ORIENTED_EDGE('',*,*,#872,.F.);
#872 = EDGE_CURVE('',#873,#864,#875,.T.);
#873 = VERTEX_POINT('',#874);
#874 = CARTESIAN_POINT('',(1.5,-1.6,5.));
#875 = CIRCLE('',#876,3.5);
#876 = AXIS2_PLACEMENT_3D('',#877,#878,#879);
#877 = CARTESIAN_POINT('',(5.,-1.6,5.));
#878 = DIRECTION('',(0.,-1.,-2.2E-16));
#879 = DIRECTION('',(1.,0.,0.));
#880 = ORIENTED_EDGE('',*,*,#881,.F.);
#881 = EDGE_CURVE('',#882,#873,#884,.T.);
#882 = VERTEX_POINT('',#883);
#883 = CARTESIAN_POINT('',(1.5,-1.6,50.));
#884 = LINE('',#885,#886);
#885 = CARTESIAN_POINT('',(1.5,-1.6,50.));
#886 = VECTOR('',#887,1.);
#887 = DIRECTION('',(0.,2.2E-16,-1.));
#888 = ORIENTED_EDGE('',*,*,#889,.F.);
#889 = EDGE_CURVE('',#890,#882,#892,.T.);
#890 = VERTEX_POINT('',#891);
#891 = CARTESIAN_POINT('',(5.,-1.6,53.5));
#892 = CIRCLE('',#893,3.5);
#893 = AXIS2_PLACEMENT_3D('',#894,#895,#896);
#894 = CARTESIAN_POINT('',(5.,-1.6,50.));
#895 = DIRECTION('',(0.,-1.,-2.2E-16));
#896 = DIRECTION('',(1.,0.,0.));
#897 = ORIENTED_EDGE('',*,*,#898,.F.);
#898 = EDGE_CURVE('',#899,#890,#901,.T.);
#899 = VERTEX_POINT('',#900);
#900 = CARTESIAN_POINT('',(95.,-1.6,53.5));
#901 = LINE('',#902,#903);
#902 = CARTESIAN_POINT('',(95.,-1.6,53.5));
#903 = VECTOR('',#904,1.);
#904 = DIRECTION('',(-1.,0.,0.));
#905 = ORIENTED_EDGE('',*,*,#906,.F.);
#906 = EDGE_CURVE('',#907,#899,#909,.T.);
#907 = VERTEX_POINT('',#908);
#908 = CARTESIAN_POINT('',(98.5,-1.6,50.));
#909 = CIRCLE('',#910,3.5);
#910 = AXIS2_PLACEMENT_3D('',#911,#912,#913);
#911 = CARTESIAN_POINT('',(95.,-1.6,50.));
#912 = DIRECTION('',(0.,-1.,-2.2E-16));
#913 = DIRECTION('',(1.,0.,0.));
#914 = ORIENTED_EDGE('',*,*,#915,.F.);
#915 = EDGE_CURVE('',#916,#907,#918,.T.);
#916 = VERTEX_POINT('',#917);
#917 = CARTESIAN_POINT('',(98.5,-1.6,5.));
#918 = LINE('',#919,#920);
#919 = CARTESIAN_POINT('',(98.5,-1.6,5.));
#920 = VECTOR('',#921,1.);
#921 = DIRECTION('',(0.,-2.2E-16,1.));
#922 = ORIENTED_EDGE('',*,*,#923,.F.);
#923 = EDGE_CURVE('',#924,#916,#926,.T.);
#924 = VERTEX_POINT('',#925);
#925 = CARTESIAN_POINT('',(97.903148826122,-1.6,3.045076243587));
#926 = CIRCLE('',#927,3.5);
#927 = AXIS2_PLACEMENT_3D('',#928,#929,#930);
#928 = CARTESIAN_POINT('',(95.,-1.6,5.));
#929 = DIRECTION('',(0.,-1.,-2.2E-16));
#930 = DIRECTION('',(1.,0.,0.));
#931 = ORIENTED_EDGE('',*,*,#932,.T.);
#932 = EDGE_CURVE('',#924,#461,#933,.T.);
#933 = CIRCLE('',#934,1.);
#934 = AXIS2_PLACEMENT_3D('',#935,#936,#937);
#935 = CARTESIAN_POINT('',(98.2,-1.6,4.000000000003));
#936 = DIRECTION('',(0.,1.,-2.2E-16));
#937 = DIRECTION('',(0.,-2.2E-16,-1.));
#938 = ORIENTED_EDGE('',*,*,#460,.F.);
#939 = ORIENTED_EDGE('',*,*,#433,.T.);
#940 = ORIENTED_EDGE('',*,*,#411,.F.);
#941 = ORIENTED_EDGE('',*,*,#387,.F.);
#942 = ORIENTED_EDGE('',*,*,#360,.F.);
#943 = ORIENTED_EDGE('',*,*,#336,.F.);
#944 = ORIENTED_EDGE('',*,*,#311,.F.);
#945 = ORIENTED_EDGE('',*,*,#289,.F.);
#946 = ORIENTED_EDGE('',*,*,#255,.F.);
#947 = FACE_BOUND('',#948,.T.);
#948 = EDGE_LOOP('',(#949));
#949 = ORIENTED_EDGE('',*,*,#950,.F.);
#950 = EDGE_CURVE('',#951,#951,#953,.T.);
#951 = VERTEX_POINT('',#952);
#952 = CARTESIAN_POINT('',(7.32,-1.6,49.));
#953 = CIRCLE('',#954,1.32);
#954 = AXIS2_PLACEMENT_3D('',#955,#956,#957);
#955 = CARTESIAN_POINT('',(6.,-1.6,49.));
#956 = DIRECTION('',(0.,1.,-2.2E-16));
#957 = DIRECTION('',(1.,0.,0.));
#958 = FACE_BOUND('',#959,.T.);
#959 = EDGE_LOOP('',(#960));
#960 = ORIENTED_EDGE('',*,*,#961,.F.);
#961 = EDGE_CURVE('',#962,#962,#964,.T.);
#962 = VERTEX_POINT('',#963);
#963 = CARTESIAN_POINT('',(95.32,-1.6,49.));
#964 = CIRCLE('',#965,1.32);
#965 = AXIS2_PLACEMENT_3D('',#966,#967,#968);
#966 = CARTESIAN_POINT('',(94.,-1.6,49.));
#967 = DIRECTION('',(0.,1.,-2.2E-16));
#968 = DIRECTION('',(1.,0.,0.));
#969 = PLANE('',#970);
#970 = AXIS2_PLACEMENT_3D('',#971,#972,#973);
#971 = CARTESIAN_POINT('',(50.,-1.6,27.5));
#972 = DIRECTION('',(0.,1.,2.2E-16));
#973 = DIRECTION('',(0.,-2.2E-16,1.));
#974 = ADVANCED_FACE('',(#975),#1001,.F.);
#975 = FACE_BOUND('',#976,.T.);
#976 = EDGE_LOOP('',(#977,#988,#994,#995));
#977 = ORIENTED_EDGE('',*,*,#978,.F.);
#978 = EDGE_CURVE('',#979,#981,#983,.T.);
#979 = VERTEX_POINT('',#980);
#980 = CARTESIAN_POINT('',(97.903148826122,2.,3.045076243587));
#981 = VERTEX_POINT('',#982);
#982 = CARTESIAN_POINT('',(98.5,2.,5.));
#983 = CIRCLE('',#984,3.5);
#984 = AXIS2_PLACEMENT_3D('',#985,#986,#987);
#985 = CARTESIAN_POINT('',(95.,2.,5.));
#986 = DIRECTION('',(0.,-1.,-2.2E-16));
#987 = DIRECTION('',(1.,0.,0.));
#988 = ORIENTED_EDGE('',*,*,#989,.T.);
#989 = EDGE_CURVE('',#979,#924,#990,.T.);
#990 = LINE('',#991,#992);
#991 = CARTESIAN_POINT('',(97.903148826122,-1.6,3.045076243587));
#992 = VECTOR('',#993,1.);
#993 = DIRECTION('',(0.,-1.,2.2E-16));
#994 = ORIENTED_EDGE('',*,*,#923,.T.);
#995 = ORIENTED_EDGE('',*,*,#996,.T.);
#996 = EDGE_CURVE('',#916,#981,#997,.T.);
#997 = LINE('',#998,#999);
#998 = CARTESIAN_POINT('',(98.5,1.11E-15,5.));
#999 = VECTOR('',#1000,1.);
#1000 = DIRECTION('',(0.,1.,0.));
#1001 = CYLINDRICAL_SURFACE('',#1002,3.5);
#1002 = AXIS2_PLACEMENT_3D('',#1003,#1004,#1005);
#1003 = CARTESIAN_POINT('',(95.,1.11E-15,5.));
#1004 = DIRECTION('',(0.,1.,-2.2E-16));
#1005 = DIRECTION('',(1.,0.,0.));
#1006 = ADVANCED_FACE('',(#1007),#1133,.T.);
#1007 = FACE_BOUND('',#1008,.T.);
#1008 = EDGE_LOOP('',(#1009,#1019,#1027,#1035,#1043,#1051,#1059,#1067,
    #1074,#1075,#1083,#1092,#1100,#1109,#1117,#1126));
#1009 = ORIENTED_EDGE('',*,*,#1010,.T.);
#1010 = EDGE_CURVE('',#1011,#1013,#1015,.T.);
#1011 = VERTEX_POINT('',#1012);
#1012 = CARTESIAN_POINT('',(1.8,2.,3.));
#1013 = VERTEX_POINT('',#1014);
#1014 = CARTESIAN_POINT('',(0.,2.,3.));
#1015 = LINE('',#1016,#1017);
#1016 = CARTESIAN_POINT('',(2.8,2.,3.));
#1017 = VECTOR('',#1018,1.);
#1018 = DIRECTION('',(-1.,0.,0.));
#1019 = ORIENTED_EDGE('',*,*,#1020,.T.);
#1020 = EDGE_CURVE('',#1013,#1021,#1023,.T.);
#1021 = VERTEX_POINT('',#1022);
#1022 = CARTESIAN_POINT('',(3.E-15,2.,52.));
#1023 = LINE('',#1024,#1025);
#1024 = CARTESIAN_POINT('',(0.,2.,3.));
#1025 = VECTOR('',#1026,1.);
#1026 = DIRECTION('',(0.,-2.2E-16,1.));
#1027 = ORIENTED_EDGE('',*,*,#1028,.F.);
#1028 = EDGE_CURVE('',#1029,#1021,#1031,.T.);
#1029 = VERTEX_POINT('',#1030);
#1030 = CARTESIAN_POINT('',(3.,2.,55.));
#1031 = LINE('',#1032,#1033);
#1032 = CARTESIAN_POINT('',(9.752435897436,2.,61.752435897436));
#1033 = VECTOR('',#1034,1.);
#1034 = DIRECTION('',(-0.707106781187,-0.,-0.707106781187));
#1035 = ORIENTED_EDGE('',*,*,#1036,.T.);
#1036 = EDGE_CURVE('',#1029,#1037,#1039,.T.);
#1037 = VERTEX_POINT('',#1038);
#1038 = CARTESIAN_POINT('',(97.,2.,55.));
#1039 = LINE('',#1040,#1041);
#1040 = CARTESIAN_POINT('',(0.,2.,55.));
#1041 = VECTOR('',#1042,1.);
#1042 = DIRECTION('',(1.,0.,0.));
#1043 = ORIENTED_EDGE('',*,*,#1044,.T.);
#1044 = EDGE_CURVE('',#1037,#1045,#1047,.T.);
#1045 = VERTEX_POINT('',#1046);
#1046 = CARTESIAN_POINT('',(100.,2.,52.));
#1047 = LINE('',#1048,#1049);
#1048 = CARTESIAN_POINT('',(90.247564102564,2.,61.752435897436));
#1049 = VECTOR('',#1050,1.);
#1050 = DIRECTION('',(0.707106781187,0.,-0.707106781187));
#1051 = ORIENTED_EDGE('',*,*,#1052,.T.);
#1052 = EDGE_CURVE('',#1045,#1053,#1055,.T.);
#1053 = VERTEX_POINT('',#1054);
#1054 = CARTESIAN_POINT('',(100.,2.,3.000000000003));
#1055 = LINE('',#1056,#1057);
#1056 = CARTESIAN_POINT('',(100.,2.,55.));
#1057 = VECTOR('',#1058,1.);
#1058 = DIRECTION('',(0.,2.2E-16,-1.));
#1059 = ORIENTED_EDGE('',*,*,#1060,.T.);
#1060 = EDGE_CURVE('',#1053,#1061,#1063,.T.);
#1061 = VERTEX_POINT('',#1062);
#1062 = CARTESIAN_POINT('',(98.2,2.,3.000000000003));
#1063 = LINE('',#1064,#1065);
#1064 = CARTESIAN_POINT('',(100.,2.,3.000000000003));
#1065 = VECTOR('',#1066,1.);
#1066 = DIRECTION('',(-1.,0.,0.));
#1067 = ORIENTED_EDGE('',*,*,#1068,.T.);
#1068 = EDGE_CURVE('',#1061,#979,#1069,.T.);
#1069 = CIRCLE('',#1070,1.);
#1070 = AXIS2_PLACEMENT_3D('',#1071,#1072,#1073);
#1071 = CARTESIAN_POINT('',(98.2,2.,4.000000000003));
#1072 = DIRECTION('',(0.,1.,-2.2E-16));
#1073 = DIRECTION('',(0.,-2.2E-16,-1.));
#1074 = ORIENTED_EDGE('',*,*,#978,.T.);
#1075 = ORIENTED_EDGE('',*,*,#1076,.T.);
#1076 = EDGE_CURVE('',#981,#1077,#1079,.T.);
#1077 = VERTEX_POINT('',#1078);
#1078 = CARTESIAN_POINT('',(98.5,2.,50.));
#1079 = LINE('',#1080,#1081);
#1080 = CARTESIAN_POINT('',(98.5,2.,5.));
#1081 = VECTOR('',#1082,1.);
#1082 = DIRECTION('',(0.,-2.2E-16,1.));
#1083 = ORIENTED_EDGE('',*,*,#1084,.T.);
#1084 = EDGE_CURVE('',#1077,#1085,#1087,.T.);
#1085 = VERTEX_POINT('',#1086);
#1086 = CARTESIAN_POINT('',(95.,2.,53.5));
#1087 = CIRCLE('',#1088,3.5);
#1088 = AXIS2_PLACEMENT_3D('',#1089,#1090,#1091);
#1089 = CARTESIAN_POINT('',(95.,2.,50.));
#1090 = DIRECTION('',(0.,-1.,-2.2E-16));
#1091 = DIRECTION('',(1.,0.,0.));
#1092 = ORIENTED_EDGE('',*,*,#1093,.T.);
#1093 = EDGE_CURVE('',#1085,#1094,#1096,.T.);
#1094 = VERTEX_POINT('',#1095);
#1095 = CARTESIAN_POINT('',(5.,2.,53.5));
#1096 = LINE('',#1097,#1098);
#1097 = CARTESIAN_POINT('',(95.,2.,53.5));
#1098 = VECTOR('',#1099,1.);
#1099 = DIRECTION('',(-1.,0.,0.));
#1100 = ORIENTED_EDGE('',*,*,#1101,.T.);
#1101 = EDGE_CURVE('',#1094,#1102,#1104,.T.);
#1102 = VERTEX_POINT('',#1103);
#1103 = CARTESIAN_POINT('',(1.5,2.,50.));
#1104 = CIRCLE('',#1105,3.5);
#1105 = AXIS2_PLACEMENT_3D('',#1106,#1107,#1108);
#1106 = CARTESIAN_POINT('',(5.,2.,50.));
#1107 = DIRECTION('',(0.,-1.,-2.2E-16));
#1108 = DIRECTION('',(1.,0.,0.));
#1109 = ORIENTED_EDGE('',*,*,#1110,.T.);
#1110 = EDGE_CURVE('',#1102,#1111,#1113,.T.);
#1111 = VERTEX_POINT('',#1112);
#1112 = CARTESIAN_POINT('',(1.5,2.,5.));
#1113 = LINE('',#1114,#1115);
#1114 = CARTESIAN_POINT('',(1.5,2.,50.));
#1115 = VECTOR('',#1116,1.);
#1116 = DIRECTION('',(0.,2.2E-16,-1.));
#1117 = ORIENTED_EDGE('',*,*,#1118,.T.);
#1118 = EDGE_CURVE('',#1111,#1119,#1121,.T.);
#1119 = VERTEX_POINT('',#1120);
#1120 = CARTESIAN_POINT('',(2.09685117388,2.,3.045076243585));
#1121 = CIRCLE('',#1122,3.5);
#1122 = AXIS2_PLACEMENT_3D('',#1123,#1124,#1125);
#1123 = CARTESIAN_POINT('',(5.,2.,5.));
#1124 = DIRECTION('',(0.,-1.,-2.2E-16));
#1125 = DIRECTION('',(1.,0.,0.));
#1126 = ORIENTED_EDGE('',*,*,#1127,.F.);
#1127 = EDGE_CURVE('',#1011,#1119,#1128,.T.);
#1128 = CIRCLE('',#1129,1.);
#1129 = AXIS2_PLACEMENT_3D('',#1130,#1131,#1132);
#1130 = CARTESIAN_POINT('',(1.8,2.,4.));
#1131 = DIRECTION('',(0.,-1.,2.2E-16));
#1132 = DIRECTION('',(0.,-2.2E-16,-1.));
#1133 = PLANE('',#1134);
#1134 = AXIS2_PLACEMENT_3D('',#1135,#1136,#1137);
#1135 = CARTESIAN_POINT('',(49.999999999999,2.,38.009743589744));
#1136 = DIRECTION('',(0.,1.,2.2E-16));
#1137 = DIRECTION('',(0.,-2.2E-16,1.));
#1138 = ADVANCED_FACE('',(#1139),#1155,.F.);
#1139 = FACE_BOUND('',#1140,.T.);
#1140 = EDGE_LOOP('',(#1141,#1142,#1148,#1149));
#1141 = ORIENTED_EDGE('',*,*,#1118,.F.);
#1142 = ORIENTED_EDGE('',*,*,#1143,.T.);
#1143 = EDGE_CURVE('',#1111,#873,#1144,.T.);
#1144 = LINE('',#1145,#1146);
#1145 = CARTESIAN_POINT('',(1.5,1.11E-15,5.));
#1146 = VECTOR('',#1147,1.);
#1147 = DIRECTION('',(0.,-1.,2.2E-16));
#1148 = ORIENTED_EDGE('',*,*,#872,.T.);
#1149 = ORIENTED_EDGE('',*,*,#1150,.T.);
#1150 = EDGE_CURVE('',#864,#1119,#1151,.T.);
#1151 = LINE('',#1152,#1153);
#1152 = CARTESIAN_POINT('',(2.09685117388,8.22E-15,3.045076243585));
#1153 = VECTOR('',#1154,1.);
#1154 = DIRECTION('',(0.,1.,0.));
#1155 = CYLINDRICAL_SURFACE('',#1156,3.5);
#1156 = AXIS2_PLACEMENT_3D('',#1157,#1158,#1159);
#1157 = CARTESIAN_POINT('',(5.,1.11E-15,5.));
#1158 = DIRECTION('',(0.,1.,-2.2E-16));
#1159 = DIRECTION('',(1.,0.,0.));
#1160 = ADVANCED_FACE('',(#1161),#1164,.F.);
#1161 = FACE_BOUND('',#1162,.T.);
#1162 = EDGE_LOOP('',(#1163));
#1163 = ORIENTED_EDGE('',*,*,#816,.T.);
#1164 = PLANE('',#1165);
#1165 = AXIS2_PLACEMENT_3D('',#1166,#1167,#1168);
#1166 = CARTESIAN_POINT('',(50.,-102.,49.));
#1167 = DIRECTION('',(0.,1.,2.2E-16));
#1168 = DIRECTION('',(0.,-2.2E-16,1.));
#1169 = ADVANCED_FACE('',(#1170),#1173,.F.);
#1170 = FACE_BOUND('',#1171,.T.);
#1171 = EDGE_LOOP('',(#1172));
#1172 = ORIENTED_EDGE('',*,*,#841,.T.);
#1173 = PLANE('',#1174);
#1174 = AXIS2_PLACEMENT_3D('',#1175,#1176,#1177);
#1175 = CARTESIAN_POINT('',(50.,-102.,49.));
#1176 = DIRECTION('',(0.,1.,2.2E-16));
#1177 = DIRECTION('',(0.,-2.2E-16,1.));
#1178 = ADVANCED_FACE('',(#1179),#1190,.T.);
#1179 = FACE_BOUND('',#1180,.T.);
#1180 = EDGE_LOOP('',(#1181,#1182,#1183,#1184));
#1181 = ORIENTED_EDGE('',*,*,#881,.T.);
#1182 = ORIENTED_EDGE('',*,*,#1143,.F.);
#1183 = ORIENTED_EDGE('',*,*,#1110,.F.);
#1184 = ORIENTED_EDGE('',*,*,#1185,.F.);
#1185 = EDGE_CURVE('',#882,#1102,#1186,.T.);
#1186 = LINE('',#1187,#1188);
#1187 = CARTESIAN_POINT('',(1.5,1.11E-14,50.));
#1188 = VECTOR('',#1189,1.);
#1189 = DIRECTION('',(0.,1.,0.));
#1190 = PLANE('',#1191);
#1191 = AXIS2_PLACEMENT_3D('',#1192,#1193,#1194);
#1192 = CARTESIAN_POINT('',(1.5,0.2,27.5));
#1193 = DIRECTION('',(1.,0.,0.));
#1194 = DIRECTION('',(0.,-1.,-2.2E-16));
#1195 = ADVANCED_FACE('',(#1196),#1207,.F.);
#1196 = FACE_BOUND('',#1197,.T.);
#1197 = EDGE_LOOP('',(#1198,#1199,#1205,#1206));
#1198 = ORIENTED_EDGE('',*,*,#1101,.F.);
#1199 = ORIENTED_EDGE('',*,*,#1200,.T.);
#1200 = EDGE_CURVE('',#1094,#890,#1201,.T.);
#1201 = LINE('',#1202,#1203);
#1202 = CARTESIAN_POINT('',(5.,1.188E-14,53.5));
#1203 = VECTOR('',#1204,1.);
#1204 = DIRECTION('',(0.,-1.,2.2E-16));
#1205 = ORIENTED_EDGE('',*,*,#889,.T.);
#1206 = ORIENTED_EDGE('',*,*,#1185,.T.);
#1207 = CYLINDRICAL_SURFACE('',#1208,3.5);
#1208 = AXIS2_PLACEMENT_3D('',#1209,#1210,#1211);
#1209 = CARTESIAN_POINT('',(5.,1.11E-14,50.));
#1210 = DIRECTION('',(0.,1.,-2.2E-16));
#1211 = DIRECTION('',(1.,0.,0.));
#1212 = ADVANCED_FACE('',(#1213),#1224,.T.);
#1213 = FACE_BOUND('',#1214,.T.);
#1214 = EDGE_LOOP('',(#1215,#1216,#1217,#1218));
#1215 = ORIENTED_EDGE('',*,*,#898,.T.);
#1216 = ORIENTED_EDGE('',*,*,#1200,.F.);
#1217 = ORIENTED_EDGE('',*,*,#1093,.F.);
#1218 = ORIENTED_EDGE('',*,*,#1219,.F.);
#1219 = EDGE_CURVE('',#899,#1085,#1220,.T.);
#1220 = LINE('',#1221,#1222);
#1221 = CARTESIAN_POINT('',(95.,1.188E-14,53.5));
#1222 = VECTOR('',#1223,1.);
#1223 = DIRECTION('',(0.,1.,0.));
#1224 = PLANE('',#1225);
#1225 = AXIS2_PLACEMENT_3D('',#1226,#1227,#1228);
#1226 = CARTESIAN_POINT('',(50.,0.2,53.5));
#1227 = DIRECTION('',(0.,2.2E-16,-1.));
#1228 = DIRECTION('',(0.,1.,2.2E-16));
#1229 = ADVANCED_FACE('',(#1230),#1241,.F.);
#1230 = FACE_BOUND('',#1231,.T.);
#1231 = EDGE_LOOP('',(#1232,#1233,#1239,#1240));
#1232 = ORIENTED_EDGE('',*,*,#1084,.F.);
#1233 = ORIENTED_EDGE('',*,*,#1234,.T.);
#1234 = EDGE_CURVE('',#1077,#907,#1235,.T.);
#1235 = LINE('',#1236,#1237);
#1236 = CARTESIAN_POINT('',(98.5,1.11E-14,50.));
#1237 = VECTOR('',#1238,1.);
#1238 = DIRECTION('',(0.,-1.,2.2E-16));
#1239 = ORIENTED_EDGE('',*,*,#906,.T.);
#1240 = ORIENTED_EDGE('',*,*,#1219,.T.);
#1241 = CYLINDRICAL_SURFACE('',#1242,3.5);
#1242 = AXIS2_PLACEMENT_3D('',#1243,#1244,#1245);
#1243 = CARTESIAN_POINT('',(95.,1.11E-14,50.));
#1244 = DIRECTION('',(0.,1.,-2.2E-16));
#1245 = DIRECTION('',(1.,0.,0.));
#1246 = ADVANCED_FACE('',(#1247),#1253,.T.);
#1247 = FACE_BOUND('',#1248,.T.);
#1248 = EDGE_LOOP('',(#1249,#1250,#1251,#1252));
#1249 = ORIENTED_EDGE('',*,*,#915,.T.);
#1250 = ORIENTED_EDGE('',*,*,#1234,.F.);
#1251 = ORIENTED_EDGE('',*,*,#1076,.F.);
#1252 = ORIENTED_EDGE('',*,*,#996,.F.);
#1253 = PLANE('',#1254);
#1254 = AXIS2_PLACEMENT_3D('',#1255,#1256,#1257);
#1255 = CARTESIAN_POINT('',(98.5,0.2,27.5));
#1256 = DIRECTION('',(-1.,0.,0.));
#1257 = DIRECTION('',(0.,1.,2.2E-16));
#1258 = ADVANCED_FACE('',(#1259),#1278,.F.);
#1259 = FACE_BOUND('',#1260,.T.);
#1260 = EDGE_LOOP('',(#1261,#1262,#1270,#1277));
#1261 = ORIENTED_EDGE('',*,*,#950,.T.);
#1262 = ORIENTED_EDGE('',*,*,#1263,.T.);
#1263 = EDGE_CURVE('',#951,#1264,#1266,.T.);
#1264 = VERTEX_POINT('',#1265);
#1265 = CARTESIAN_POINT('',(7.32,-8.,49.));
#1266 = LINE('',#1267,#1268);
#1267 = CARTESIAN_POINT('',(7.32,1.088E-14,49.));
#1268 = VECTOR('',#1269,1.);
#1269 = DIRECTION('',(0.,-1.,2.2E-16));
#1270 = ORIENTED_EDGE('',*,*,#1271,.T.);
#1271 = EDGE_CURVE('',#1264,#1264,#1272,.T.);
#1272 = CIRCLE('',#1273,1.32);
#1273 = AXIS2_PLACEMENT_3D('',#1274,#1275,#1276);
#1274 = CARTESIAN_POINT('',(6.,-8.,49.));
#1275 = DIRECTION('',(0.,-1.,-2.2E-16));
#1276 = DIRECTION('',(1.,0.,0.));
#1277 = ORIENTED_EDGE('',*,*,#1263,.F.);
#1278 = CYLINDRICAL_SURFACE('',#1279,1.32);
#1279 = AXIS2_PLACEMENT_3D('',#1280,#1281,#1282);
#1280 = CARTESIAN_POINT('',(6.,1.088E-14,49.));
#1281 = DIRECTION('',(0.,1.,-2.2E-16));
#1282 = DIRECTION('',(1.,0.,0.));
#1283 = ADVANCED_FACE('',(#1284),#1303,.F.);
#1284 = FACE_BOUND('',#1285,.T.);
#1285 = EDGE_LOOP('',(#1286,#1287,#1295,#1302));
#1286 = ORIENTED_EDGE('',*,*,#961,.T.);
#1287 = ORIENTED_EDGE('',*,*,#1288,.T.);
#1288 = EDGE_CURVE('',#962,#1289,#1291,.T.);
#1289 = VERTEX_POINT('',#1290);
#1290 = CARTESIAN_POINT('',(95.32,-8.,49.));
#1291 = LINE('',#1292,#1293);
#1292 = CARTESIAN_POINT('',(95.32,1.088E-14,49.));
#1293 = VECTOR('',#1294,1.);
#1294 = DIRECTION('',(0.,-1.,2.2E-16));
#1295 = ORIENTED_EDGE('',*,*,#1296,.T.);
#1296 = EDGE_CURVE('',#1289,#1289,#1297,.T.);
#1297 = CIRCLE('',#1298,1.32);
#1298 = AXIS2_PLACEMENT_3D('',#1299,#1300,#1301);
#1299 = CARTESIAN_POINT('',(94.,-8.,49.));
#1300 = DIRECTION('',(0.,-1.,-2.2E-16));
#1301 = DIRECTION('',(1.,0.,0.));
#1302 = ORIENTED_EDGE('',*,*,#1288,.F.);
#1303 = CYLINDRICAL_SURFACE('',#1304,1.32);
#1304 = AXIS2_PLACEMENT_3D('',#1305,#1306,#1307);
#1305 = CARTESIAN_POINT('',(94.,1.088E-14,49.));
#1306 = DIRECTION('',(0.,1.,-2.2E-16));
#1307 = DIRECTION('',(1.,0.,0.));
#1308 = ADVANCED_FACE('',(#1309),#1334,.T.);
#1309 = FACE_BOUND('',#1310,.T.);
#1310 = EDGE_LOOP('',(#1311,#1319,#1320,#1328));
#1311 = ORIENTED_EDGE('',*,*,#1312,.T.);
#1312 = EDGE_CURVE('',#1313,#1053,#1315,.T.);
#1313 = VERTEX_POINT('',#1314);
#1314 = CARTESIAN_POINT('',(100.,-112.,3.000000000003));
#1315 = LINE('',#1316,#1317);
#1316 = CARTESIAN_POINT('',(100.,6.6E-16,3.000000000003));
#1317 = VECTOR('',#1318,1.);
#1318 = DIRECTION('',(0.,1.,0.));
#1319 = ORIENTED_EDGE('',*,*,#1052,.F.);
#1320 = ORIENTED_EDGE('',*,*,#1321,.F.);
#1321 = EDGE_CURVE('',#1322,#1045,#1324,.T.);
#1322 = VERTEX_POINT('',#1323);
#1323 = CARTESIAN_POINT('',(100.,-112.,52.));
#1324 = LINE('',#1325,#1326);
#1325 = CARTESIAN_POINT('',(100.,1.154E-14,52.));
#1326 = VECTOR('',#1327,1.);
#1327 = DIRECTION('',(0.,1.,0.));
#1328 = ORIENTED_EDGE('',*,*,#1329,.T.);
#1329 = EDGE_CURVE('',#1322,#1313,#1330,.T.);
#1330 = LINE('',#1331,#1332);
#1331 = CARTESIAN_POINT('',(100.,-112.,55.));
#1332 = VECTOR('',#1333,1.);
#1333 = DIRECTION('',(0.,2.2E-16,-1.));
#1334 = PLANE('',#1335);
#1335 = AXIS2_PLACEMENT_3D('',#1336,#1337,#1338);
#1336 = CARTESIAN_POINT('',(100.,-55.,27.500000000002));
#1337 = DIRECTION('',(1.,0.,0.));
#1338 = DIRECTION('',(0.,-1.,-2.2E-16));
#1339 = ADVANCED_FACE('',(#1340),#1365,.T.);
#1340 = FACE_BOUND('',#1341,.T.);
#1341 = EDGE_LOOP('',(#1342,#1343,#1351,#1359));
#1342 = ORIENTED_EDGE('',*,*,#1020,.F.);
#1343 = ORIENTED_EDGE('',*,*,#1344,.T.);
#1344 = EDGE_CURVE('',#1013,#1345,#1347,.T.);
#1345 = VERTEX_POINT('',#1346);
#1346 = CARTESIAN_POINT('',(0.,-112.,3.));
#1347 = LINE('',#1348,#1349);
#1348 = CARTESIAN_POINT('',(0.,-110.,3.));
#1349 = VECTOR('',#1350,1.);
#1350 = DIRECTION('',(0.,-1.,0.));
#1351 = ORIENTED_EDGE('',*,*,#1352,.T.);
#1352 = EDGE_CURVE('',#1345,#1353,#1355,.T.);
#1353 = VERTEX_POINT('',#1354);
#1354 = CARTESIAN_POINT('',(-1.3E-14,-112.,52.));
#1355 = LINE('',#1356,#1357);
#1356 = CARTESIAN_POINT('',(0.,-112.,3.));
#1357 = VECTOR('',#1358,1.);
#1358 = DIRECTION('',(0.,-2.2E-16,1.));
#1359 = ORIENTED_EDGE('',*,*,#1360,.F.);
#1360 = EDGE_CURVE('',#1021,#1353,#1361,.T.);
#1361 = LINE('',#1362,#1363);
#1362 = CARTESIAN_POINT('',(-1.266E-14,-110.,52.));
#1363 = VECTOR('',#1364,1.);
#1364 = DIRECTION('',(0.,-1.,0.));
#1365 = PLANE('',#1366);
#1366 = AXIS2_PLACEMENT_3D('',#1367,#1368,#1369);
#1367 = CARTESIAN_POINT('',(-8.E-17,-55.,27.5));
#1368 = DIRECTION('',(-1.,0.,0.));
#1369 = DIRECTION('',(0.,1.,2.2E-16));
#1370 = ADVANCED_FACE('',(#1371),#1389,.T.);
#1371 = FACE_BOUND('',#1372,.T.);
#1372 = EDGE_LOOP('',(#1373,#1374,#1375,#1383));
#1373 = ORIENTED_EDGE('',*,*,#1028,.T.);
#1374 = ORIENTED_EDGE('',*,*,#1360,.T.);
#1375 = ORIENTED_EDGE('',*,*,#1376,.F.);
#1376 = EDGE_CURVE('',#1377,#1353,#1379,.T.);
#1377 = VERTEX_POINT('',#1378);
#1378 = CARTESIAN_POINT('',(3.,-112.,55.));
#1379 = LINE('',#1380,#1381);
#1380 = CARTESIAN_POINT('',(9.752435897436,-112.,61.752435897436));
#1381 = VECTOR('',#1382,1.);
#1382 = DIRECTION('',(-0.707106781187,-0.,-0.707106781187));
#1383 = ORIENTED_EDGE('',*,*,#1384,.F.);
#1384 = EDGE_CURVE('',#1029,#1377,#1385,.T.);
#1385 = LINE('',#1386,#1387);
#1386 = CARTESIAN_POINT('',(3.,-110.,55.));
#1387 = VECTOR('',#1388,1.);
#1388 = DIRECTION('',(0.,-1.,0.));
#1389 = PLANE('',#1390);
#1390 = AXIS2_PLACEMENT_3D('',#1391,#1392,#1393);
#1391 = CARTESIAN_POINT('',(1.5,-55.,53.5));
#1392 = DIRECTION('',(-0.707106781187,1.7E-16,0.707106781187));
#1393 = DIRECTION('',(0.707106781187,-1.6E-16,0.707106781187));
#1394 = ADVANCED_FACE('',(#1395),#1413,.T.);
#1395 = FACE_BOUND('',#1396,.T.);
#1396 = EDGE_LOOP('',(#1397,#1398,#1406,#1412));
#1397 = ORIENTED_EDGE('',*,*,#1384,.T.);
#1398 = ORIENTED_EDGE('',*,*,#1399,.T.);
#1399 = EDGE_CURVE('',#1377,#1400,#1402,.T.);
#1400 = VERTEX_POINT('',#1401);
#1401 = CARTESIAN_POINT('',(97.,-112.,55.));
#1402 = LINE('',#1403,#1404);
#1403 = CARTESIAN_POINT('',(0.,-112.,55.));
#1404 = VECTOR('',#1405,1.);
#1405 = DIRECTION('',(1.,0.,0.));
#1406 = ORIENTED_EDGE('',*,*,#1407,.F.);
#1407 = EDGE_CURVE('',#1037,#1400,#1408,.T.);
#1408 = LINE('',#1409,#1410);
#1409 = CARTESIAN_POINT('',(97.,-110.,55.));
#1410 = VECTOR('',#1411,1.);
#1411 = DIRECTION('',(0.,-1.,0.));
#1412 = ORIENTED_EDGE('',*,*,#1036,.F.);
#1413 = PLANE('',#1414);
#1414 = AXIS2_PLACEMENT_3D('',#1415,#1416,#1417);
#1415 = CARTESIAN_POINT('',(50.,-55.,55.));
#1416 = DIRECTION('',(0.,1.6E-16,1.));
#1417 = DIRECTION('',(0.,-1.,1.6E-16));
#1418 = ADVANCED_FACE('',(#1419),#1430,.T.);
#1419 = FACE_BOUND('',#1420,.T.);
#1420 = EDGE_LOOP('',(#1421,#1422,#1423,#1424));
#1421 = ORIENTED_EDGE('',*,*,#1321,.T.);
#1422 = ORIENTED_EDGE('',*,*,#1044,.F.);
#1423 = ORIENTED_EDGE('',*,*,#1407,.T.);
#1424 = ORIENTED_EDGE('',*,*,#1425,.T.);
#1425 = EDGE_CURVE('',#1400,#1322,#1426,.T.);
#1426 = LINE('',#1427,#1428);
#1427 = CARTESIAN_POINT('',(90.247564102564,-112.,61.752435897436));
#1428 = VECTOR('',#1429,1.);
#1429 = DIRECTION('',(0.707106781187,0.,-0.707106781187));
#1430 = PLANE('',#1431);
#1431 = AXIS2_PLACEMENT_3D('',#1432,#1433,#1434);
#1432 = CARTESIAN_POINT('',(98.5,-55.,53.5));
#1433 = DIRECTION('',(0.707106781187,0.,0.707106781187));
#1434 = DIRECTION('',(-0.707106781187,-1.6E-16,0.707106781187));
#1435 = ADVANCED_FACE('',(#1436),#1439,.T.);
#1436 = FACE_BOUND('',#1437,.F.);
#1437 = EDGE_LOOP('',(#1438));
#1438 = ORIENTED_EDGE('',*,*,#1271,.T.);
#1439 = PLANE('',#1440);
#1440 = AXIS2_PLACEMENT_3D('',#1441,#1442,#1443);
#1441 = CARTESIAN_POINT('',(50.,-8.,49.));
#1442 = DIRECTION('',(0.,1.,2.2E-16));
#1443 = DIRECTION('',(0.,-2.2E-16,1.));
#1444 = ADVANCED_FACE('',(#1445),#1448,.T.);
#1445 = FACE_BOUND('',#1446,.F.);
#1446 = EDGE_LOOP('',(#1447));
#1447 = ORIENTED_EDGE('',*,*,#1296,.T.);
#1448 = PLANE('',#1449);
#1449 = AXIS2_PLACEMENT_3D('',#1450,#1451,#1452);
#1450 = CARTESIAN_POINT('',(50.,-8.,49.));
#1451 = DIRECTION('',(0.,1.,2.2E-16));
#1452 = DIRECTION('',(0.,-2.2E-16,1.));
#1453 = ADVANCED_FACE('',(#1454),#1480,.T.);
#1454 = FACE_BOUND('',#1455,.T.);
#1455 = EDGE_LOOP('',(#1456,#1457,#1458,#1466,#1474));
#1456 = ORIENTED_EDGE('',*,*,#1060,.F.);
#1457 = ORIENTED_EDGE('',*,*,#1312,.F.);
#1458 = ORIENTED_EDGE('',*,*,#1459,.T.);
#1459 = EDGE_CURVE('',#1313,#1460,#1462,.T.);
#1460 = VERTEX_POINT('',#1461);
#1461 = CARTESIAN_POINT('',(98.5,-112.,3.000000000003));
#1462 = LINE('',#1463,#1464);
#1463 = CARTESIAN_POINT('',(100.,-112.,3.000000000003));
#1464 = VECTOR('',#1465,1.);
#1465 = DIRECTION('',(-1.,0.,0.));
#1466 = ORIENTED_EDGE('',*,*,#1467,.F.);
#1467 = EDGE_CURVE('',#1468,#1460,#1470,.T.);
#1468 = VERTEX_POINT('',#1469);
#1469 = CARTESIAN_POINT('',(98.2,-112.,3.000000000002));
#1470 = LINE('',#1471,#1472);
#1471 = CARTESIAN_POINT('',(98.2,-112.,3.000000000001));
#1472 = VECTOR('',#1473,1.);
#1473 = DIRECTION('',(1.,0.,-4.72659E-12));
#1474 = ORIENTED_EDGE('',*,*,#1475,.F.);
#1475 = EDGE_CURVE('',#1061,#1468,#1476,.T.);
#1476 = LINE('',#1477,#1478);
#1477 = CARTESIAN_POINT('',(98.2,-108.4,3.000000000002));
#1478 = VECTOR('',#1479,1.);
#1479 = DIRECTION('',(0.,-1.,2.2E-16));
#1480 = PLANE('',#1481);
#1481 = AXIS2_PLACEMENT_3D('',#1482,#1483,#1484);
#1482 = CARTESIAN_POINT('',(99.1,-55.,3.000000000003));
#1483 = DIRECTION('',(9.56E-15,-6.E-17,-1.));
#1484 = DIRECTION('',(-1.,0.,-9.56E-15));
#1485 = ADVANCED_FACE('',(#1486),#1504,.T.);
#1486 = FACE_BOUND('',#1487,.T.);
#1487 = EDGE_LOOP('',(#1488,#1489,#1490,#1498));
#1488 = ORIENTED_EDGE('',*,*,#1344,.F.);
#1489 = ORIENTED_EDGE('',*,*,#1010,.F.);
#1490 = ORIENTED_EDGE('',*,*,#1491,.F.);
#1491 = EDGE_CURVE('',#1492,#1011,#1494,.T.);
#1492 = VERTEX_POINT('',#1493);
#1493 = CARTESIAN_POINT('',(1.8,-112.,3.));
#1494 = LINE('',#1495,#1496);
#1495 = CARTESIAN_POINT('',(1.8,1.33E-15,3.));
#1496 = VECTOR('',#1497,1.);
#1497 = DIRECTION('',(0.,1.,-2.2E-16));
#1498 = ORIENTED_EDGE('',*,*,#1499,.F.);
#1499 = EDGE_CURVE('',#1345,#1492,#1500,.T.);
#1500 = LINE('',#1501,#1502);
#1501 = CARTESIAN_POINT('',(1.5,-112.,3.));
#1502 = VECTOR('',#1503,1.);
#1503 = DIRECTION('',(1.,0.,5.921E-14));
#1504 = PLANE('',#1505);
#1505 = AXIS2_PLACEMENT_3D('',#1506,#1507,#1508);
#1506 = CARTESIAN_POINT('',(0.9,-55.,3.));
#1507 = DIRECTION('',(-1.314E-14,-2.3E-16,-1.));
#1508 = DIRECTION('',(-1.,0.,1.314E-14));
#1509 = ADVANCED_FACE('',(#1510),#1541,.T.);
#1510 = FACE_BOUND('',#1511,.T.);
#1511 = EDGE_LOOP('',(#1512,#1513,#1520,#1521,#1522,#1523,#1524,#1525,
    #1526,#1527,#1528,#1535,#1536,#1537,#1538,#1539,#1540));
#1512 = ORIENTED_EDGE('',*,*,#490,.F.);
#1513 = ORIENTED_EDGE('',*,*,#1514,.T.);
#1514 = EDGE_CURVE('',#483,#1468,#1515,.T.);
#1515 = CIRCLE('',#1516,1.);
#1516 = AXIS2_PLACEMENT_3D('',#1517,#1518,#1519);
#1517 = CARTESIAN_POINT('',(98.2,-112.,4.000000000003));
#1518 = DIRECTION('',(0.,-1.,-2.2E-16));
#1519 = DIRECTION('',(1.,0.,0.));
#1520 = ORIENTED_EDGE('',*,*,#1467,.T.);
#1521 = ORIENTED_EDGE('',*,*,#1459,.F.);
#1522 = ORIENTED_EDGE('',*,*,#1329,.F.);
#1523 = ORIENTED_EDGE('',*,*,#1425,.F.);
#1524 = ORIENTED_EDGE('',*,*,#1399,.F.);
#1525 = ORIENTED_EDGE('',*,*,#1376,.T.);
#1526 = ORIENTED_EDGE('',*,*,#1352,.F.);
#1527 = ORIENTED_EDGE('',*,*,#1499,.T.);
#1528 = ORIENTED_EDGE('',*,*,#1529,.T.);
#1529 = EDGE_CURVE('',#1492,#638,#1530,.T.);
#1530 = CIRCLE('',#1531,1.);
#1531 = AXIS2_PLACEMENT_3D('',#1532,#1533,#1534);
#1532 = CARTESIAN_POINT('',(1.8,-112.,4.));
#1533 = DIRECTION('',(0.,-1.,-2.2E-16));
#1534 = DIRECTION('',(1.,0.,0.));
#1535 = ORIENTED_EDGE('',*,*,#637,.F.);
#1536 = ORIENTED_EDGE('',*,*,#612,.F.);
#1537 = ORIENTED_EDGE('',*,*,#597,.F.);
#1538 = ORIENTED_EDGE('',*,*,#564,.F.);
#1539 = ORIENTED_EDGE('',*,*,#548,.F.);
#1540 = ORIENTED_EDGE('',*,*,#516,.F.);
#1541 = PLANE('',#1542);
#1542 = AXIS2_PLACEMENT_3D('',#1543,#1544,#1545);
#1543 = CARTESIAN_POINT('',(49.999999999999,-112.,40.543354417538));
#1544 = DIRECTION('',(0.,-1.,9.E-17));
#1545 = DIRECTION('',(0.,9.E-17,1.));
#1546 = ADVANCED_FACE('',(#1547),#1557,.T.);
#1547 = FACE_BOUND('',#1548,.F.);
#1548 = EDGE_LOOP('',(#1549,#1550,#1551,#1552,#1553,#1554,#1555,#1556));
#1549 = ORIENTED_EDGE('',*,*,#1475,.F.);
#1550 = ORIENTED_EDGE('',*,*,#1068,.T.);
#1551 = ORIENTED_EDGE('',*,*,#989,.T.);
#1552 = ORIENTED_EDGE('',*,*,#932,.T.);
#1553 = ORIENTED_EDGE('',*,*,#468,.T.);
#1554 = ORIENTED_EDGE('',*,*,#151,.F.);
#1555 = ORIENTED_EDGE('',*,*,#482,.T.);
#1556 = ORIENTED_EDGE('',*,*,#1514,.T.);
#1557 = CYLINDRICAL_SURFACE('',#1558,1.);
#1558 = AXIS2_PLACEMENT_3D('',#1559,#1560,#1561);
#1559 = CARTESIAN_POINT('',(98.2,-1.6,4.000000000003));
#1560 = DIRECTION('',(0.,-1.,4.4E-16));
#1561 = DIRECTION('',(0.,-4.4E-16,-1.));
#1562 = ADVANCED_FACE('',(#1563),#1573,.T.);
#1563 = FACE_BOUND('',#1564,.T.);
#1564 = EDGE_LOOP('',(#1565,#1566,#1567,#1568,#1569,#1570,#1571,#1572));
#1565 = ORIENTED_EDGE('',*,*,#1529,.F.);
#1566 = ORIENTED_EDGE('',*,*,#1491,.T.);
#1567 = ORIENTED_EDGE('',*,*,#1127,.T.);
#1568 = ORIENTED_EDGE('',*,*,#1150,.F.);
#1569 = ORIENTED_EDGE('',*,*,#863,.T.);
#1570 = ORIENTED_EDGE('',*,*,#662,.T.);
#1571 = ORIENTED_EDGE('',*,*,#82,.F.);
#1572 = ORIENTED_EDGE('',*,*,#646,.T.);
#1573 = CYLINDRICAL_SURFACE('',#1574,1.);
#1574 = AXIS2_PLACEMENT_3D('',#1575,#1576,#1577);
#1575 = CARTESIAN_POINT('',(1.8,-1.6,4.));
#1576 = DIRECTION('',(0.,-1.,4.4E-16));
#1577 = DIRECTION('',(0.,-4.4E-16,-1.));
#1578 = ( GEOMETRIC_REPRESENTATION_CONTEXT(3) 
GLOBAL_UNCERTAINTY_ASSIGNED_CONTEXT((#1582)) 
GLOBAL_UNIT_ASSIGNED_CONTEXT((#1579,#1580,#1581)) REPRESENTATION_CONTEXT
('Context #1','3D Context with UNIT and UNCERTAINTY') );
#1579 = ( LENGTH_UNIT() NAMED_UNIT(*) SI_UNIT(.MILLI.,.METRE.) );
#1580 = ( NAMED_UNIT(*) PLANE_ANGLE_UNIT() SI_UNIT($,.RADIAN.) );
#1581 = ( NAMED_UNIT(*) SI_UNIT($,.STERADIAN.) SOLID_ANGLE_UNIT() );
#1582 = UNCERTAINTY_MEASURE_WITH_UNIT(LENGTH_MEASURE(5.E-05),#1579,
  'distance_accuracy_value','confusion accuracy');
#1583 = PRODUCT_RELATED_PRODUCT_CATEGORY('part',$,(#7));
#1584 = MECHANICAL_DESIGN_GEOMETRIC_PRESENTATION_REPRESENTATION('',(
    #1585),#1578);
#1585 = STYLED_ITEM('color',(#1586),#15);
#1586 = PRESENTATION_STYLE_ASSIGNMENT((#1587,#1593));
#1587 = SURFACE_STYLE_USAGE(.BOTH.,#1588);
#1588 = SURFACE_SIDE_STYLE('',(#1589));
#1589 = SURFACE_STYLE_FILL_AREA(#1590);
#1590 = FILL_AREA_STYLE('',(#1591));
#1591 = FILL_AREA_STYLE_COLOUR('',#1592);
#1592 = COLOUR_RGB('',0.678431390124,0.709803936702,0.741176476869);
#1593 = CURVE_STYLE('',#1594,POSITIVE_LENGTH_MEASURE(0.1),#1595);
#1594 = DRAUGHTING_PRE_DEFINED_CURVE_FONT('continuous');
#1595 = COLOUR_RGB('',9.803921802644E-02,9.803921802644E-02,
  9.803921802644E-02);
ENDSEC;
END-ISO-10303-21;
