ISO-10303-21;
HEADER;
FILE_DESCRIPTION(('FreeCAD Model'),'2;1');
FILE_NAME('Open CASCADE Shape Model','2026-09-13T19:06:32',(''),(''),
  'Open CASCADE STEP processor 7.8','FreeCAD','Unknown');
FILE_SCHEMA(('AUTOMOTIVE_DESIGN { 1 0 10303 214 1 1 1 1 }'));
ENDSEC;
DATA;
#1 = APPLICATION_PROTOCOL_DEFINITION('international standard',
  'automotive_design',2000,#2);
#2 = APPLICATION_CONTEXT(
  'core data for automotive mechanical design processes');
#3 = SHAPE_DEFINITION_REPRESENTATION(#4,#10);
#4 = PRODUCT_DEFINITION_SHAPE('','',#5);
#5 = PRODUCT_DEFINITION('design','',#6,#9);
#6 = PRODUCT_DEFINITION_FORMATION('','',#7);
#7 = PRODUCT('Top','Top','',(#8));
#8 = PRODUCT_CONTEXT('',#2,'mechanical');
#9 = PRODUCT_DEFINITION_CONTEXT('part definition',#2,'design');
#10 = ADVANCED_BREP_SHAPE_REPRESENTATION('',(#11,#15),#1770);
#11 = AXIS2_PLACEMENT_3D('',#12,#13,#14);
#12 = CARTESIAN_POINT('',(0.,0.,0.));
#13 = DIRECTION('',(0.,0.,1.));
#14 = DIRECTION('',(1.,0.,-0.));
#15 = MANIFOLD_SOLID_BREP('',#16);
#16 = CLOSED_SHELL('',(#17,#89,#184,#209,#232,#257,#297,#321,#368,#393,
    #433,#473,#512,#543,#583,#671,#702,#733,#783,#800,#824,#847,#923,
    #935,#951,#984,#1013,#1037,#1100,#1125,#1142,#1159,#1171,#1188,#1218
    ,#1242,#1266,#1283,#1300,#1331,#1355,#1379,#1396,#1408,#1442,#1482,
    #1499,#1540,#1552,#1564,#1589,#1614,#1639,#1664,#1684,#1704,#1728,
    #1752,#1761));
#17 = ADVANCED_FACE('',(#18),#84,.T.);
#18 = FACE_BOUND('',#19,.F.);
#19 = EDGE_LOOP('',(#20,#30,#39,#48,#56,#69,#77));
#20 = ORIENTED_EDGE('',*,*,#21,.T.);
#21 = EDGE_CURVE('',#22,#24,#26,.T.);
#22 = VERTEX_POINT('',#23);
#23 = CARTESIAN_POINT('',(0.368486388664,-5.6,0.9));
#24 = VERTEX_POINT('',#25);
#25 = CARTESIAN_POINT('',(0.368486388664,-5.6,0.75));
#26 = LINE('',#27,#28);
#27 = CARTESIAN_POINT('',(0.368486388664,-5.6,1.096E-14));
#28 = VECTOR('',#29,1.);
#29 = DIRECTION('',(3.88E-15,1.34E-15,-1.));
#30 = ORIENTED_EDGE('',*,*,#31,.T.);
#31 = EDGE_CURVE('',#24,#32,#34,.T.);
#32 = VERTEX_POINT('',#33);
#33 = CARTESIAN_POINT('',(0.646259455216,-4.85,6.E-15));
#34 = ELLIPSE('',#35,11.313708498985,8.);
#35 = AXIS2_PLACEMENT_3D('',#36,#37,#38);
#36 = CARTESIAN_POINT('',(8.,-8.,3.15));
#37 = DIRECTION('',(1.7E-15,-0.707106781187,-0.707106781187));
#38 = DIRECTION('',(-3.79E-15,-0.707106781187,0.707106781187));
#39 = ORIENTED_EDGE('',*,*,#40,.T.);
#40 = EDGE_CURVE('',#32,#41,#43,.T.);
#41 = VERTEX_POINT('',#42);
#42 = CARTESIAN_POINT('',(8.,-1.9E-14,1.5E-14));
#43 = CIRCLE('',#44,8.);
#44 = AXIS2_PLACEMENT_3D('',#45,#46,#47);
#45 = CARTESIAN_POINT('',(8.,-8.,2.042E-14));
#46 = DIRECTION('',(3.3E-16,-2.22E-15,-1.));
#47 = DIRECTION('',(1.,-1.E-15,3.3E-16));
#48 = ORIENTED_EDGE('',*,*,#49,.T.);
#49 = EDGE_CURVE('',#41,#50,#52,.T.);
#50 = VERTEX_POINT('',#51);
#51 = CARTESIAN_POINT('',(8.,-1.E-14,9.478082804704));
#52 = LINE('',#53,#54);
#53 = CARTESIAN_POINT('',(8.,-1.154E-14,2.66E-15));
#54 = VECTOR('',#55,1.);
#55 = DIRECTION('',(-3.88E-15,-1.34E-15,1.));
#56 = ORIENTED_EDGE('',*,*,#57,.T.);
#57 = EDGE_CURVE('',#50,#58,#60,.T.);
#58 = VERTEX_POINT('',#59);
#59 = CARTESIAN_POINT('',(-2.5E-14,-8.,10.873272038486));
#60 = B_SPLINE_CURVE_WITH_KNOTS('',7,(#61,#62,#63,#64,#65,#66,#67,#68),
  .UNSPECIFIED.,.F.,.F.,(8,8),(134.16000575154,146.64714969421),
  .PIECEWISE_BEZIER_KNOTS.);
#61 = CARTESIAN_POINT('',(8.,-2.167E-14,9.478082804704));
#62 = CARTESIAN_POINT('',(6.190599778476,-1.006E-14,9.478082804704));
#63 = CARTESIAN_POINT('',(4.369761305428,-0.47753666535,9.560601641319)
  );
#64 = CARTESIAN_POINT('',(2.693382158578,-1.443185499049,9.724618332769)
  );
#65 = CARTESIAN_POINT('',(1.358763469251,-2.838577524133,9.961938252254)
  );
#66 = CARTESIAN_POINT('',(0.457579064751,-4.469285178758,10.250996675605
    ));
#67 = CARTESIAN_POINT('',(0.,-6.230037266905,10.561179853793));
#68 = CARTESIAN_POINT('',(-4.99E-15,-8.,10.873272038486));
#69 = ORIENTED_EDGE('',*,*,#70,.F.);
#70 = EDGE_CURVE('',#71,#58,#73,.T.);
#71 = VERTEX_POINT('',#72);
#72 = CARTESIAN_POINT('',(1.1E-14,-8.,1.543078061835));
#73 = LINE('',#74,#75);
#74 = CARTESIAN_POINT('',(3.819E-14,-8.,1.776E-14));
#75 = VECTOR('',#76,1.);
#76 = DIRECTION('',(-3.88E-15,-1.34E-15,1.));
#77 = ORIENTED_EDGE('',*,*,#78,.T.);
#78 = EDGE_CURVE('',#71,#22,#79,.T.);
#79 = ELLIPSE('',#80,8.282209443281,8.);
#80 = AXIS2_PLACEMENT_3D('',#81,#82,#83);
#81 = CARTESIAN_POINT('',(8.,-8.,1.543078061835));
#82 = DIRECTION('',(-2.1E-16,-0.258819045103,-0.965925826289));
#83 = DIRECTION('',(4.5E-16,-0.965925826289,0.258819045103));
#84 = CYLINDRICAL_SURFACE('',#85,8.);
#85 = AXIS2_PLACEMENT_3D('',#86,#87,#88);
#86 = CARTESIAN_POINT('',(8.,-8.,2.042E-14));
#87 = DIRECTION('',(-3.88E-15,-1.34E-15,1.));
#88 = DIRECTION('',(-1.,1.E-15,-3.88E-15));
#89 = ADVANCED_FACE('',(#90),#179,.T.);
#90 = FACE_BOUND('',#91,.T.);
#91 = EDGE_LOOP('',(#92,#93,#101,#109,#117,#125,#133,#141,#149,#157,#165
    ,#173));
#92 = ORIENTED_EDGE('',*,*,#21,.T.);
#93 = ORIENTED_EDGE('',*,*,#94,.T.);
#94 = EDGE_CURVE('',#24,#95,#97,.T.);
#95 = VERTEX_POINT('',#96);
#96 = CARTESIAN_POINT('',(69.631513611336,-5.6,0.75));
#97 = LINE('',#98,#99);
#98 = CARTESIAN_POINT('',(0.368486388664,-5.6,0.75));
#99 = VECTOR('',#100,1.);
#100 = DIRECTION('',(1.,-2.E-15,8.9E-16));
#101 = ORIENTED_EDGE('',*,*,#102,.F.);
#102 = EDGE_CURVE('',#103,#95,#105,.T.);
#103 = VERTEX_POINT('',#104);
#104 = CARTESIAN_POINT('',(69.631513611336,-5.6,0.9));
#105 = LINE('',#106,#107);
#106 = CARTESIAN_POINT('',(69.631513611336,-5.6,-3.581E-14));
#107 = VECTOR('',#108,1.);
#108 = DIRECTION('',(2.44E-15,1.22E-15,-1.));
#109 = ORIENTED_EDGE('',*,*,#110,.F.);
#110 = EDGE_CURVE('',#111,#103,#113,.T.);
#111 = VERTEX_POINT('',#112);
#112 = CARTESIAN_POINT('',(63.,-5.6,0.9));
#113 = LINE('',#114,#115);
#114 = CARTESIAN_POINT('',(1.17E-14,-5.6,0.9));
#115 = VECTOR('',#116,1.);
#116 = DIRECTION('',(1.,-1.22E-15,-8.9E-16));
#117 = ORIENTED_EDGE('',*,*,#118,.F.);
#118 = EDGE_CURVE('',#119,#111,#121,.T.);
#119 = VERTEX_POINT('',#120);
#120 = CARTESIAN_POINT('',(59.,-5.6,0.9));
#121 = LINE('',#122,#123);
#122 = CARTESIAN_POINT('',(1.17E-14,-5.6,0.9));
#123 = VECTOR('',#124,1.);
#124 = DIRECTION('',(1.,-1.22E-15,-8.9E-16));
#125 = ORIENTED_EDGE('',*,*,#126,.F.);
#126 = EDGE_CURVE('',#127,#119,#129,.T.);
#127 = VERTEX_POINT('',#128);
#128 = CARTESIAN_POINT('',(52.,-5.6,0.9));
#129 = LINE('',#130,#131);
#130 = CARTESIAN_POINT('',(1.17E-14,-5.6,0.9));
#131 = VECTOR('',#132,1.);
#132 = DIRECTION('',(1.,-1.22E-15,-8.9E-16));
#133 = ORIENTED_EDGE('',*,*,#134,.F.);
#134 = EDGE_CURVE('',#135,#127,#137,.T.);
#135 = VERTEX_POINT('',#136);
#136 = CARTESIAN_POINT('',(47.6,-5.6,0.9));
#137 = LINE('',#138,#139);
#138 = CARTESIAN_POINT('',(1.17E-14,-5.6,0.9));
#139 = VECTOR('',#140,1.);
#140 = DIRECTION('',(1.,-1.22E-15,-8.9E-16));
#141 = ORIENTED_EDGE('',*,*,#142,.F.);
#142 = EDGE_CURVE('',#143,#135,#145,.T.);
#143 = VERTEX_POINT('',#144);
#144 = CARTESIAN_POINT('',(22.4,-5.6,0.9));
#145 = LINE('',#146,#147);
#146 = CARTESIAN_POINT('',(1.17E-14,-5.6,0.9));
#147 = VECTOR('',#148,1.);
#148 = DIRECTION('',(1.,-1.22E-15,-8.9E-16));
#149 = ORIENTED_EDGE('',*,*,#150,.F.);
#150 = EDGE_CURVE('',#151,#143,#153,.T.);
#151 = VERTEX_POINT('',#152);
#152 = CARTESIAN_POINT('',(18.,-5.6,0.9));
#153 = LINE('',#154,#155);
#154 = CARTESIAN_POINT('',(1.17E-14,-5.6,0.9));
#155 = VECTOR('',#156,1.);
#156 = DIRECTION('',(1.,-1.22E-15,-8.9E-16));
#157 = ORIENTED_EDGE('',*,*,#158,.F.);
#158 = EDGE_CURVE('',#159,#151,#161,.T.);
#159 = VERTEX_POINT('',#160);
#160 = CARTESIAN_POINT('',(11.,-5.6,0.9));
#161 = LINE('',#162,#163);
#162 = CARTESIAN_POINT('',(1.17E-14,-5.6,0.9));
#163 = VECTOR('',#164,1.);
#164 = DIRECTION('',(1.,-1.22E-15,-8.9E-16));
#165 = ORIENTED_EDGE('',*,*,#166,.F.);
#166 = EDGE_CURVE('',#167,#159,#169,.T.);
#167 = VERTEX_POINT('',#168);
#168 = CARTESIAN_POINT('',(7.,-5.6,0.9));
#169 = LINE('',#170,#171);
#170 = CARTESIAN_POINT('',(1.17E-14,-5.6,0.9));
#171 = VECTOR('',#172,1.);
#172 = DIRECTION('',(1.,-1.22E-15,-8.9E-16));
#173 = ORIENTED_EDGE('',*,*,#174,.F.);
#174 = EDGE_CURVE('',#22,#167,#175,.T.);
#175 = LINE('',#176,#177);
#176 = CARTESIAN_POINT('',(1.17E-14,-5.6,0.9));
#177 = VECTOR('',#178,1.);
#178 = DIRECTION('',(1.,-1.22E-15,-8.9E-16));
#179 = PLANE('',#180);
#180 = AXIS2_PLACEMENT_3D('',#181,#182,#183);
#181 = CARTESIAN_POINT('',(1.43E-14,-5.6,1.181E-14));
#182 = DIRECTION('',(2.33E-15,-1.,1.89E-15));
#183 = DIRECTION('',(-2.88E-15,1.89E-15,1.));
#184 = ADVANCED_FACE('',(#185),#204,.T.);
#185 = FACE_BOUND('',#186,.F.);
#186 = EDGE_LOOP('',(#187,#188,#189,#198));
#187 = ORIENTED_EDGE('',*,*,#31,.F.);
#188 = ORIENTED_EDGE('',*,*,#94,.T.);
#189 = ORIENTED_EDGE('',*,*,#190,.T.);
#190 = EDGE_CURVE('',#95,#191,#193,.T.);
#191 = VERTEX_POINT('',#192);
#192 = CARTESIAN_POINT('',(69.353740544784,-4.85,1.88E-13));
#193 = ELLIPSE('',#194,11.313708498985,8.);
#194 = AXIS2_PLACEMENT_3D('',#195,#196,#197);
#195 = CARTESIAN_POINT('',(62.,-8.,3.15));
#196 = DIRECTION('',(-1.7E-15,0.707106781187,0.707106781187));
#197 = DIRECTION('',(1.75E-15,0.707106781187,-0.707106781187));
#198 = ORIENTED_EDGE('',*,*,#199,.F.);
#199 = EDGE_CURVE('',#32,#191,#200,.T.);
#200 = LINE('',#201,#202);
#201 = CARTESIAN_POINT('',(0.368486388664,-4.85,5.02E-15));
#202 = VECTOR('',#203,1.);
#203 = DIRECTION('',(1.,-2.E-15,8.9E-16));
#204 = PLANE('',#205);
#205 = AXIS2_PLACEMENT_3D('',#206,#207,#208);
#206 = CARTESIAN_POINT('',(0.368486388664,-5.225,0.375));
#207 = DIRECTION('',(1.7E-15,-0.707106781187,-0.707106781187));
#208 = DIRECTION('',(-1.,2.429184719829E-16,-2.647081528017E-15));
#209 = ADVANCED_FACE('',(#210),#227,.F.);
#210 = FACE_BOUND('',#211,.F.);
#211 = EDGE_LOOP('',(#212,#220,#226));
#212 = ORIENTED_EDGE('',*,*,#213,.F.);
#213 = EDGE_CURVE('',#214,#71,#216,.T.);
#214 = VERTEX_POINT('',#215);
#215 = CARTESIAN_POINT('',(1.7E-14,-5.6,0.9));
#216 = LINE('',#217,#218);
#217 = CARTESIAN_POINT('',(2.31E-14,-5.6,0.9));
#218 = VECTOR('',#219,1.);
#219 = DIRECTION('',(-2.088190451025E-16,-0.965925826289,0.258819045103)
  );
#220 = ORIENTED_EDGE('',*,*,#221,.T.);
#221 = EDGE_CURVE('',#214,#22,#222,.T.);
#222 = LINE('',#223,#224);
#223 = CARTESIAN_POINT('',(2.134E-14,-5.6,0.9));
#224 = VECTOR('',#225,1.);
#225 = DIRECTION('',(1.,-1.44E-15,0.));
#226 = ORIENTED_EDGE('',*,*,#78,.F.);
#227 = PLANE('',#228);
#228 = AXIS2_PLACEMENT_3D('',#229,#230,#231);
#229 = CARTESIAN_POINT('',(2.134E-14,-5.6,0.9));
#230 = DIRECTION('',(7.1E-16,-0.258819045103,-0.965925826289));
#231 = DIRECTION('',(-5.E-16,-0.965925826289,0.258819045103));
#232 = ADVANCED_FACE('',(#233),#252,.T.);
#233 = FACE_BOUND('',#234,.T.);
#234 = EDGE_LOOP('',(#235,#236,#244,#251));
#235 = ORIENTED_EDGE('',*,*,#40,.T.);
#236 = ORIENTED_EDGE('',*,*,#237,.T.);
#237 = EDGE_CURVE('',#41,#238,#240,.T.);
#238 = VERTEX_POINT('',#239);
#239 = CARTESIAN_POINT('',(62.,-1.29E-13,5.5E-14));
#240 = LINE('',#241,#242);
#241 = CARTESIAN_POINT('',(0.,0.,0.));
#242 = VECTOR('',#243,1.);
#243 = DIRECTION('',(1.,-1.22E-15,-8.9E-16));
#244 = ORIENTED_EDGE('',*,*,#245,.T.);
#245 = EDGE_CURVE('',#238,#191,#246,.T.);
#246 = CIRCLE('',#247,8.);
#247 = AXIS2_PLACEMENT_3D('',#248,#249,#250);
#248 = CARTESIAN_POINT('',(62.,-8.,-5.373E-14));
#249 = DIRECTION('',(-1.11E-15,-1.89E-15,-1.));
#250 = DIRECTION('',(-2.33E-15,1.,-1.89E-15));
#251 = ORIENTED_EDGE('',*,*,#199,.F.);
#252 = PLANE('',#253);
#253 = AXIS2_PLACEMENT_3D('',#254,#255,#256);
#254 = CARTESIAN_POINT('',(0.,0.,0.));
#255 = DIRECTION('',(2.66E-15,1.45E-15,-1.));
#256 = DIRECTION('',(2.55E-15,-1.,-1.45E-15));
#257 = ADVANCED_FACE('',(#258),#292,.T.);
#258 = FACE_BOUND('',#259,.T.);
#259 = EDGE_LOOP('',(#260,#270,#276,#277,#278,#286));
#260 = ORIENTED_EDGE('',*,*,#261,.T.);
#261 = EDGE_CURVE('',#262,#264,#266,.T.);
#262 = VERTEX_POINT('',#263);
#263 = CARTESIAN_POINT('',(-4.E-14,-62.,5.623426560491));
#264 = VERTEX_POINT('',#265);
#265 = CARTESIAN_POINT('',(-6.6E-14,-62.,20.394928996743));
#266 = LINE('',#267,#268);
#267 = CARTESIAN_POINT('',(-1.377E-14,-62.,2.065E-14));
#268 = VECTOR('',#269,1.);
#269 = DIRECTION('',(-2.66E-15,1.1E-16,1.));
#270 = ORIENTED_EDGE('',*,*,#271,.F.);
#271 = EDGE_CURVE('',#58,#264,#272,.T.);
#272 = LINE('',#273,#274);
#273 = CARTESIAN_POINT('',(-4.42E-15,-8.173648177667,10.903890897359));
#274 = VECTOR('',#275,1.);
#275 = DIRECTION('',(1.83E-15,-0.984807753012,0.173648177667));
#276 = ORIENTED_EDGE('',*,*,#70,.F.);
#277 = ORIENTED_EDGE('',*,*,#213,.F.);
#278 = ORIENTED_EDGE('',*,*,#279,.F.);
#279 = EDGE_CURVE('',#280,#214,#282,.T.);
#280 = VERTEX_POINT('',#281);
#281 = CARTESIAN_POINT('',(-1.E-15,-23.03938981032,1.528501421022));
#282 = LINE('',#283,#284);
#283 = CARTESIAN_POINT('',(2.427149857898E-14,-23.03938981032,
    1.528501421022));
#284 = VECTOR('',#285,1.);
#285 = DIRECTION('',(-6.398419503339E-17,0.999351220439,
    -3.601580496661E-02));
#286 = ORIENTED_EDGE('',*,*,#287,.F.);
#287 = EDGE_CURVE('',#262,#280,#288,.T.);
#288 = LINE('',#289,#290);
#289 = CARTESIAN_POINT('',(2.345573955738E-14,-70.,6.464260442617));
#290 = VECTOR('',#291,1.);
#291 = DIRECTION('',(1.452846326766E-17,0.994521895368,-0.104528463268)
  );
#292 = PLANE('',#293);
#293 = AXIS2_PLACEMENT_3D('',#294,#295,#296);
#294 = CARTESIAN_POINT('',(-1.93E-15,-39.14564012094,9.59257907276));
#295 = DIRECTION('',(-1.,7.6E-16,-1.05E-15));
#296 = DIRECTION('',(1.05E-15,3.3E-16,-1.));
#297 = ADVANCED_FACE('',(#298),#316,.F.);
#298 = FACE_BOUND('',#299,.F.);
#299 = EDGE_LOOP('',(#300,#301,#302,#310));
#300 = ORIENTED_EDGE('',*,*,#49,.F.);
#301 = ORIENTED_EDGE('',*,*,#237,.T.);
#302 = ORIENTED_EDGE('',*,*,#303,.T.);
#303 = EDGE_CURVE('',#238,#304,#306,.T.);
#304 = VERTEX_POINT('',#305);
#305 = CARTESIAN_POINT('',(62.,-1.19E-13,9.478082804704));
#306 = LINE('',#307,#308);
#307 = CARTESIAN_POINT('',(62.,-7.394E-14,-4.13E-14));
#308 = VECTOR('',#309,1.);
#309 = DIRECTION('',(-2.66E-15,-1.44E-15,1.));
#310 = ORIENTED_EDGE('',*,*,#311,.T.);
#311 = EDGE_CURVE('',#304,#50,#312,.T.);
#312 = LINE('',#313,#314);
#313 = CARTESIAN_POINT('',(62.,-7.434E-14,9.478082804704));
#314 = VECTOR('',#315,1.);
#315 = DIRECTION('',(-1.,1.22E-15,6.7E-16));
#316 = PLANE('',#317);
#317 = AXIS2_PLACEMENT_3D('',#318,#319,#320);
#318 = CARTESIAN_POINT('',(0.,0.,0.));
#319 = DIRECTION('',(2.33E-15,-1.,1.89E-15));
#320 = DIRECTION('',(-2.88E-15,1.89E-15,1.));
#321 = ADVANCED_FACE('',(#322),#351,.F.);
#322 = FACE_BOUND('',#323,.F.);
#323 = EDGE_LOOP('',(#324,#332,#345,#350));
#324 = ORIENTED_EDGE('',*,*,#325,.T.);
#325 = EDGE_CURVE('',#50,#326,#328,.T.);
#326 = VERTEX_POINT('',#327);
#327 = CARTESIAN_POINT('',(8.,-0.984807753012,10.651730982371));
#328 = LINE('',#329,#330);
#329 = CARTESIAN_POINT('',(8.,-0.492403876506,10.064906893537));
#330 = VECTOR('',#331,1.);
#331 = DIRECTION('',(-6.6E-16,-0.642787609687,0.766044443119));
#332 = ORIENTED_EDGE('',*,*,#333,.T.);
#333 = EDGE_CURVE('',#326,#334,#336,.T.);
#334 = VERTEX_POINT('',#335);
#335 = CARTESIAN_POINT('',(0.99999990724,-7.826775998784,11.858154585251
    ));
#336 = B_SPLINE_CURVE_WITH_KNOTS('',7,(#337,#338,#339,#340,#341,#342,
    #343,#344),.UNSPECIFIED.,.F.,.F.,(8,8),(134.16000575154,
    146.64714969421),.PIECEWISE_BEZIER_KNOTS.);
#337 = CARTESIAN_POINT('',(8.,-0.984807753012,10.651730982371));
#338 = CARTESIAN_POINT('',(6.454331796475,-0.984807753012,
    10.651730982371));
#339 = CARTESIAN_POINT('',(4.892822523543,-1.383910887067,10.72210363299
    ));
#340 = CARTESIAN_POINT('',(3.446400667799,-2.184804320037,
    10.863322753894));
#341 = CARTESIAN_POINT('',(2.253257168579,-3.341569879765,
    11.067291732429));
#342 = CARTESIAN_POINT('',(1.421230786824,-4.747922480441,
    11.315269640318));
#343 = CARTESIAN_POINT('',(1.000675167455,-6.282846423909,
    11.585918144887));
#344 = CARTESIAN_POINT('',(0.99999990724,-7.826775998784,11.858154585251
    ));
#345 = ORIENTED_EDGE('',*,*,#346,.F.);
#346 = EDGE_CURVE('',#58,#334,#347,.T.);
#347 = B_SPLINE_CURVE_WITH_KNOTS('',1,(#348,#349),.UNSPECIFIED.,.F.,.F.,
  (2,2),(0.,12.487143942667),.PIECEWISE_BEZIER_KNOTS.);
#348 = CARTESIAN_POINT('',(-4.99E-15,-8.,10.873272038486));
#349 = CARTESIAN_POINT('',(0.99999990724,-7.826775998784,11.858154585251
    ));
#350 = ORIENTED_EDGE('',*,*,#57,.F.);
#351 = B_SPLINE_SURFACE_WITH_KNOTS('',1,7,(
    (#352,#353,#354,#355,#356,#357,#358,#359)
    ,(#360,#361,#362,#363,#364,#365,#366,#367
  )),.UNSPECIFIED.,.F.,.F.,.F.,(2,2),(8,8),(0.,12.487143942667),(
    134.16000575154,146.64714969421),.PIECEWISE_BEZIER_KNOTS.);
#352 = CARTESIAN_POINT('',(8.,-2.167E-14,9.478082804704));
#353 = CARTESIAN_POINT('',(6.190599778476,-1.006E-14,9.478082804704));
#354 = CARTESIAN_POINT('',(4.369761305428,-0.47753666535,9.560601641319)
  );
#355 = CARTESIAN_POINT('',(2.693382158578,-1.443185499049,9.724618332769
    ));
#356 = CARTESIAN_POINT('',(1.358763469251,-2.838577524133,9.961938252254
    ));
#357 = CARTESIAN_POINT('',(0.457579064751,-4.469285178758,
    10.250996675605));
#358 = CARTESIAN_POINT('',(0.,-6.230037266905,10.561179853793));
#359 = CARTESIAN_POINT('',(-4.99E-15,-8.,10.873272038486));
#360 = CARTESIAN_POINT('',(8.,-0.984807753012,10.651730982371));
#361 = CARTESIAN_POINT('',(6.454331796475,-0.984807753012,
    10.651730982371));
#362 = CARTESIAN_POINT('',(4.892822523543,-1.383910887067,10.72210363299
    ));
#363 = CARTESIAN_POINT('',(3.446400667799,-2.184804320037,
    10.863322753894));
#364 = CARTESIAN_POINT('',(2.253257168579,-3.341569879765,
    11.067291732429));
#365 = CARTESIAN_POINT('',(1.421230786824,-4.747922480441,
    11.315269640318));
#366 = CARTESIAN_POINT('',(1.000675167455,-6.282846423909,
    11.585918144887));
#367 = CARTESIAN_POINT('',(0.99999990724,-7.826775998784,11.858154585251
    ));
#368 = ADVANCED_FACE('',(#369),#388,.F.);
#369 = FACE_BOUND('',#370,.F.);
#370 = EDGE_LOOP('',(#371,#379,#385,#386,#387));
#371 = ORIENTED_EDGE('',*,*,#372,.T.);
#372 = EDGE_CURVE('',#280,#373,#375,.T.);
#373 = VERTEX_POINT('',#374);
#374 = CARTESIAN_POINT('',(7.,-23.03938981032,1.528501421022));
#375 = LINE('',#376,#377);
#376 = CARTESIAN_POINT('',(1.677E-14,-23.03938981032,1.528501421022));
#377 = VECTOR('',#378,1.);
#378 = DIRECTION('',(1.,-1.44E-15,0.));
#379 = ORIENTED_EDGE('',*,*,#380,.T.);
#380 = EDGE_CURVE('',#373,#167,#381,.T.);
#381 = LINE('',#382,#383);
#382 = CARTESIAN_POINT('',(7.,-23.03938981032,1.528501421022));
#383 = VECTOR('',#384,1.);
#384 = DIRECTION('',(-6.398419503339E-17,0.999351220439,
    -3.601580496661E-02));
#385 = ORIENTED_EDGE('',*,*,#174,.F.);
#386 = ORIENTED_EDGE('',*,*,#221,.F.);
#387 = ORIENTED_EDGE('',*,*,#279,.F.);
#388 = PLANE('',#389);
#389 = AXIS2_PLACEMENT_3D('',#390,#391,#392);
#390 = CARTESIAN_POINT('',(1.677E-14,-23.03938981032,1.528501421022));
#391 = DIRECTION('',(-8.7E-16,3.601580496661E-02,0.999351220439));
#392 = DIRECTION('',(2.6E-16,0.999351220439,-3.601580496661E-02));
#393 = ADVANCED_FACE('',(#394),#428,.T.);
#394 = FACE_BOUND('',#395,.T.);
#395 = EDGE_LOOP('',(#396,#397,#398,#399,#400,#413,#421));
#396 = ORIENTED_EDGE('',*,*,#102,.T.);
#397 = ORIENTED_EDGE('',*,*,#190,.T.);
#398 = ORIENTED_EDGE('',*,*,#245,.F.);
#399 = ORIENTED_EDGE('',*,*,#303,.T.);
#400 = ORIENTED_EDGE('',*,*,#401,.F.);
#401 = EDGE_CURVE('',#402,#304,#404,.T.);
#402 = VERTEX_POINT('',#403);
#403 = CARTESIAN_POINT('',(70.,-8.,10.873272038486));
#404 = B_SPLINE_CURVE_WITH_KNOTS('',7,(#405,#406,#407,#408,#409,#410,
    #411,#412),.UNSPECIFIED.,.F.,.F.,(8,8),(67.672861808879,
    80.160005751546),.PIECEWISE_BEZIER_KNOTS.);
#405 = CARTESIAN_POINT('',(70.,-8.,10.873272038486));
#406 = CARTESIAN_POINT('',(70.,-6.230037266906,10.561179853793));
#407 = CARTESIAN_POINT('',(69.54242093525,-4.469285178758,
    10.250996675605));
#408 = CARTESIAN_POINT('',(68.641236530749,-2.838577524133,
    9.961938252254));
#409 = CARTESIAN_POINT('',(67.306617841423,-1.443185499049,
    9.724618332769));
#410 = CARTESIAN_POINT('',(65.630238694572,-0.477536665351,
    9.560601641319));
#411 = CARTESIAN_POINT('',(63.809400221524,-9.042E-14,9.478082804704));
#412 = CARTESIAN_POINT('',(62.,-8.673E-14,9.478082804704));
#413 = ORIENTED_EDGE('',*,*,#414,.F.);
#414 = EDGE_CURVE('',#415,#402,#417,.T.);
#415 = VERTEX_POINT('',#416);
#416 = CARTESIAN_POINT('',(70.,-8.,1.543078061835));
#417 = LINE('',#418,#419);
#418 = CARTESIAN_POINT('',(70.,-8.,-3.153E-14));
#419 = VECTOR('',#420,1.);
#420 = DIRECTION('',(-2.66E-15,-1.44E-15,1.));
#421 = ORIENTED_EDGE('',*,*,#422,.T.);
#422 = EDGE_CURVE('',#415,#103,#423,.T.);
#423 = ELLIPSE('',#424,8.282209443281,8.);
#424 = AXIS2_PLACEMENT_3D('',#425,#426,#427);
#425 = CARTESIAN_POINT('',(62.,-8.,1.543078061835));
#426 = DIRECTION('',(6.9E-16,0.258819045103,0.965925826289));
#427 = DIRECTION('',(-2.2E-15,0.965925826289,-0.258819045103));
#428 = CYLINDRICAL_SURFACE('',#429,8.);
#429 = AXIS2_PLACEMENT_3D('',#430,#431,#432);
#430 = CARTESIAN_POINT('',(62.,-8.,-2.62E-14));
#431 = DIRECTION('',(2.44E-15,1.22E-15,-1.));
#432 = DIRECTION('',(-2.11E-15,1.,1.22E-15));
#433 = ADVANCED_FACE('',(#434),#468,.F.);
#434 = FACE_BOUND('',#435,.F.);
#435 = EDGE_LOOP('',(#436,#437,#445,#454,#462));
#436 = ORIENTED_EDGE('',*,*,#166,.F.);
#437 = ORIENTED_EDGE('',*,*,#438,.T.);
#438 = EDGE_CURVE('',#167,#439,#441,.T.);
#439 = VERTEX_POINT('',#440);
#440 = CARTESIAN_POINT('',(7.,-69.93725393319,18.139115234636));
#441 = LINE('',#442,#443);
#442 = CARTESIAN_POINT('',(7.,-5.6,0.9));
#443 = VECTOR('',#444,1.);
#444 = DIRECTION('',(-2.088190451025E-16,-0.965925826289,0.258819045103)
  );
#445 = ORIENTED_EDGE('',*,*,#446,.T.);
#446 = EDGE_CURVE('',#439,#447,#449,.T.);
#447 = VERTEX_POINT('',#448);
#448 = CARTESIAN_POINT('',(8.,-70.,18.155927992565));
#449 = ELLIPSE('',#450,8.282209443281,8.);
#450 = AXIS2_PLACEMENT_3D('',#451,#452,#453);
#451 = CARTESIAN_POINT('',(8.,-62.,16.012334453116));
#452 = DIRECTION('',(2.1E-16,0.258819045103,0.965925826289));
#453 = DIRECTION('',(4.5E-16,-0.965925826289,0.258819045103));
#454 = ORIENTED_EDGE('',*,*,#455,.T.);
#455 = EDGE_CURVE('',#447,#456,#458,.T.);
#456 = VERTEX_POINT('',#457);
#457 = CARTESIAN_POINT('',(11.,-70.,18.155927992565));
#458 = LINE('',#459,#460);
#459 = CARTESIAN_POINT('',(1.2634E-13,-70.,18.155927992564));
#460 = VECTOR('',#461,1.);
#461 = DIRECTION('',(1.,-1.22E-15,-8.9E-16));
#462 = ORIENTED_EDGE('',*,*,#463,.F.);
#463 = EDGE_CURVE('',#159,#456,#464,.T.);
#464 = LINE('',#465,#466);
#465 = CARTESIAN_POINT('',(11.,-5.6,0.9));
#466 = VECTOR('',#467,1.);
#467 = DIRECTION('',(3.6E-16,-0.965925826289,0.258819045103));
#468 = PLANE('',#469);
#469 = AXIS2_PLACEMENT_3D('',#470,#471,#472);
#470 = CARTESIAN_POINT('',(1.2634E-13,-70.,18.155927992564));
#471 = DIRECTION('',(-3.17E-15,0.258819045103,0.965925826289));
#472 = DIRECTION('',(-1.72E-15,0.965925826289,-0.258819045103));
#473 = ADVANCED_FACE('',(#474),#507,.F.);
#474 = FACE_BOUND('',#475,.F.);
#475 = EDGE_LOOP('',(#476,#484,#485,#493,#501));
#476 = ORIENTED_EDGE('',*,*,#477,.T.);
#477 = EDGE_CURVE('',#478,#103,#480,.T.);
#478 = VERTEX_POINT('',#479);
#479 = CARTESIAN_POINT('',(70.,-5.6,0.9));
#480 = LINE('',#481,#482);
#481 = CARTESIAN_POINT('',(70.,-5.6,0.9));
#482 = VECTOR('',#483,1.);
#483 = DIRECTION('',(-1.,6.7E-16,3.3E-16));
#484 = ORIENTED_EDGE('',*,*,#110,.F.);
#485 = ORIENTED_EDGE('',*,*,#486,.T.);
#486 = EDGE_CURVE('',#111,#487,#489,.T.);
#487 = VERTEX_POINT('',#488);
#488 = CARTESIAN_POINT('',(63.,-23.03938981032,1.528501421022));
#489 = LINE('',#490,#491);
#490 = CARTESIAN_POINT('',(63.,-5.6,0.9));
#491 = VECTOR('',#492,1.);
#492 = DIRECTION('',(1.49E-15,-0.999351220439,3.601580496661E-02));
#493 = ORIENTED_EDGE('',*,*,#494,.F.);
#494 = EDGE_CURVE('',#495,#487,#497,.T.);
#495 = VERTEX_POINT('',#496);
#496 = CARTESIAN_POINT('',(70.,-23.03938981032,1.528501421022));
#497 = LINE('',#498,#499);
#498 = CARTESIAN_POINT('',(70.,-23.03938981032,1.528501421022));
#499 = VECTOR('',#500,1.);
#500 = DIRECTION('',(-1.,6.7E-16,3.3E-16));
#501 = ORIENTED_EDGE('',*,*,#502,.F.);
#502 = EDGE_CURVE('',#478,#495,#503,.T.);
#503 = LINE('',#504,#505);
#504 = CARTESIAN_POINT('',(70.,-5.6,0.9));
#505 = VECTOR('',#506,1.);
#506 = DIRECTION('',(1.49E-15,-0.999351220439,3.601580496661E-02));
#507 = PLANE('',#508);
#508 = AXIS2_PLACEMENT_3D('',#509,#510,#511);
#509 = CARTESIAN_POINT('',(70.,-5.6,0.9));
#510 = DIRECTION('',(-1.48E-15,3.601580496661E-02,0.999351220439));
#511 = DIRECTION('',(1.27E-15,-0.999351220439,3.601580496661E-02));
#512 = ADVANCED_FACE('',(#513),#538,.F.);
#513 = FACE_BOUND('',#514,.F.);
#514 = EDGE_LOOP('',(#515,#525,#531,#532));
#515 = ORIENTED_EDGE('',*,*,#516,.T.);
#516 = EDGE_CURVE('',#517,#519,#521,.T.);
#517 = VERTEX_POINT('',#518);
#518 = CARTESIAN_POINT('',(11.,-23.03938981032,1.528501421022));
#519 = VERTEX_POINT('',#520);
#520 = CARTESIAN_POINT('',(18.,-23.03938981032,1.528501421022));
#521 = LINE('',#522,#523);
#522 = CARTESIAN_POINT('',(11.,-23.03938981032,1.528501421022));
#523 = VECTOR('',#524,1.);
#524 = DIRECTION('',(1.,-3.3E-16,0.));
#525 = ORIENTED_EDGE('',*,*,#526,.T.);
#526 = EDGE_CURVE('',#519,#151,#527,.T.);
#527 = LINE('',#528,#529);
#528 = CARTESIAN_POINT('',(18.,-23.03938981032,1.528501421022));
#529 = VECTOR('',#530,1.);
#530 = DIRECTION('',(-5.3E-16,0.999351220439,-3.601580496661E-02));
#531 = ORIENTED_EDGE('',*,*,#158,.F.);
#532 = ORIENTED_EDGE('',*,*,#533,.F.);
#533 = EDGE_CURVE('',#517,#159,#534,.T.);
#534 = LINE('',#535,#536);
#535 = CARTESIAN_POINT('',(11.,-23.03938981032,1.528501421022));
#536 = VECTOR('',#537,1.);
#537 = DIRECTION('',(-5.3E-16,0.999351220439,-3.601580496661E-02));
#538 = PLANE('',#539);
#539 = AXIS2_PLACEMENT_3D('',#540,#541,#542);
#540 = CARTESIAN_POINT('',(11.,-23.03938981032,1.528501421022));
#541 = DIRECTION('',(-4.5E-16,3.601580496661E-02,0.999351220439));
#542 = DIRECTION('',(-3.1E-16,0.999351220439,-3.601580496661E-02));
#543 = ADVANCED_FACE('',(#544),#578,.F.);
#544 = FACE_BOUND('',#545,.F.);
#545 = EDGE_LOOP('',(#546,#554,#562,#571,#577));
#546 = ORIENTED_EDGE('',*,*,#547,.F.);
#547 = EDGE_CURVE('',#548,#119,#550,.T.);
#548 = VERTEX_POINT('',#549);
#549 = CARTESIAN_POINT('',(59.,-70.,18.155927992565));
#550 = LINE('',#551,#552);
#551 = CARTESIAN_POINT('',(59.,-70.,18.155927992565));
#552 = VECTOR('',#553,1.);
#553 = DIRECTION('',(-8.3E-16,0.965925826289,-0.258819045103));
#554 = ORIENTED_EDGE('',*,*,#555,.T.);
#555 = EDGE_CURVE('',#548,#556,#558,.T.);
#556 = VERTEX_POINT('',#557);
#557 = CARTESIAN_POINT('',(62.,-70.,18.155927992565));
#558 = LINE('',#559,#560);
#559 = CARTESIAN_POINT('',(1.2634E-13,-70.,18.155927992564));
#560 = VECTOR('',#561,1.);
#561 = DIRECTION('',(1.,-1.22E-15,-8.9E-16));
#562 = ORIENTED_EDGE('',*,*,#563,.T.);
#563 = EDGE_CURVE('',#556,#564,#566,.T.);
#564 = VERTEX_POINT('',#565);
#565 = CARTESIAN_POINT('',(63.,-69.93725393319,18.139115234636));
#566 = ELLIPSE('',#567,8.282209443281,8.);
#567 = AXIS2_PLACEMENT_3D('',#568,#569,#570);
#568 = CARTESIAN_POINT('',(62.,-62.,16.012334453116));
#569 = DIRECTION('',(2.1E-16,0.258819045103,0.965925826289));
#570 = DIRECTION('',(4.5E-16,-0.965925826289,0.258819045103));
#571 = ORIENTED_EDGE('',*,*,#572,.T.);
#572 = EDGE_CURVE('',#564,#111,#573,.T.);
#573 = LINE('',#574,#575);
#574 = CARTESIAN_POINT('',(63.,-70.,18.155927992564));
#575 = VECTOR('',#576,1.);
#576 = DIRECTION('',(-1.07E-15,0.965925826289,-0.258819045103));
#577 = ORIENTED_EDGE('',*,*,#118,.F.);
#578 = PLANE('',#579);
#579 = AXIS2_PLACEMENT_3D('',#580,#581,#582);
#580 = CARTESIAN_POINT('',(1.2634E-13,-70.,18.155927992564));
#581 = DIRECTION('',(-3.17E-15,0.258819045103,0.965925826289));
#582 = DIRECTION('',(-1.72E-15,0.965925826289,-0.258819045103));
#583 = ADVANCED_FACE('',(#584,#632),#666,.F.);
#584 = FACE_BOUND('',#585,.F.);
#585 = EDGE_LOOP('',(#586,#587,#595,#603,#609,#610,#618,#626));
#586 = ORIENTED_EDGE('',*,*,#150,.F.);
#587 = ORIENTED_EDGE('',*,*,#588,.T.);
#588 = EDGE_CURVE('',#151,#589,#591,.T.);
#589 = VERTEX_POINT('',#590);
#590 = CARTESIAN_POINT('',(18.,-70.,18.155927992565));
#591 = LINE('',#592,#593);
#592 = CARTESIAN_POINT('',(18.,-5.6,0.9));
#593 = VECTOR('',#594,1.);
#594 = DIRECTION('',(3.6E-16,-0.965925826289,0.258819045103));
#595 = ORIENTED_EDGE('',*,*,#596,.T.);
#596 = EDGE_CURVE('',#589,#597,#599,.T.);
#597 = VERTEX_POINT('',#598);
#598 = CARTESIAN_POINT('',(52.,-70.,18.155927992565));
#599 = LINE('',#600,#601);
#600 = CARTESIAN_POINT('',(1.2634E-13,-70.,18.155927992564));
#601 = VECTOR('',#602,1.);
#602 = DIRECTION('',(1.,-1.22E-15,-8.9E-16));
#603 = ORIENTED_EDGE('',*,*,#604,.T.);
#604 = EDGE_CURVE('',#597,#127,#605,.T.);
#605 = LINE('',#606,#607);
#606 = CARTESIAN_POINT('',(52.,-70.,18.155927992565));
#607 = VECTOR('',#608,1.);
#608 = DIRECTION('',(-8.3E-16,0.965925826289,-0.258819045103));
#609 = ORIENTED_EDGE('',*,*,#134,.F.);
#610 = ORIENTED_EDGE('',*,*,#611,.T.);
#611 = EDGE_CURVE('',#135,#612,#614,.T.);
#612 = VERTEX_POINT('',#613);
#613 = CARTESIAN_POINT('',(47.6,-23.82219071294,5.782621285859));
#614 = LINE('',#615,#616);
#615 = CARTESIAN_POINT('',(47.6,-5.6,0.9));
#616 = VECTOR('',#617,1.);
#617 = DIRECTION('',(1.720845688169E-15,-0.965925826289,0.258819045103)
  );
#618 = ORIENTED_EDGE('',*,*,#619,.T.);
#619 = EDGE_CURVE('',#612,#620,#622,.T.);
#620 = VERTEX_POINT('',#621);
#621 = CARTESIAN_POINT('',(22.4,-23.82219071294,5.782621285859));
#622 = LINE('',#623,#624);
#623 = CARTESIAN_POINT('',(47.6,-23.82219071294,5.782621285859));
#624 = VECTOR('',#625,1.);
#625 = DIRECTION('',(-1.,1.08246744901E-15,8.9E-16));
#626 = ORIENTED_EDGE('',*,*,#627,.T.);
#627 = EDGE_CURVE('',#620,#143,#628,.T.);
#628 = LINE('',#629,#630);
#629 = CARTESIAN_POINT('',(22.4,-23.82219071294,5.782621285859));
#630 = VECTOR('',#631,1.);
#631 = DIRECTION('',(-1.720845688169E-15,0.965925826289,-0.258819045103)
  );
#632 = FACE_BOUND('',#633,.F.);
#633 = EDGE_LOOP('',(#634,#644,#652,#660));
#634 = ORIENTED_EDGE('',*,*,#635,.F.);
#635 = EDGE_CURVE('',#636,#638,#640,.T.);
#636 = VERTEX_POINT('',#637);
#637 = CARTESIAN_POINT('',(47.6,-28.25108198423,6.969339125368));
#638 = VERTEX_POINT('',#639);
#639 = CARTESIAN_POINT('',(22.4,-28.25108198423,6.969339125368));
#640 = LINE('',#641,#642);
#641 = CARTESIAN_POINT('',(11.2,-28.25108198423,6.969339125368));
#642 = VECTOR('',#643,1.);
#643 = DIRECTION('',(-1.,2.08E-15,-7.9E-16));
#644 = ORIENTED_EDGE('',*,*,#645,.F.);
#645 = EDGE_CURVE('',#646,#636,#648,.T.);
#646 = VERTEX_POINT('',#647);
#647 = CARTESIAN_POINT('',(47.6,-49.70675674831,12.718369851468));
#648 = LINE('',#649,#650);
#649 = CARTESIAN_POINT('',(47.6,-58.83052074593,15.163075046562));
#650 = VECTOR('',#651,1.);
#651 = DIRECTION('',(-4.1E-16,0.965925826289,-0.258819045103));
#652 = ORIENTED_EDGE('',*,*,#653,.T.);
#653 = EDGE_CURVE('',#646,#654,#656,.T.);
#654 = VERTEX_POINT('',#655);
#655 = CARTESIAN_POINT('',(22.4,-49.70675674831,12.718369851468));
#656 = LINE('',#657,#658);
#657 = CARTESIAN_POINT('',(11.2,-49.70675674831,12.718369851467));
#658 = VECTOR('',#659,1.);
#659 = DIRECTION('',(-1.,-2.7E-16,-1.6E-16));
#660 = ORIENTED_EDGE('',*,*,#661,.T.);
#661 = EDGE_CURVE('',#654,#638,#662,.T.);
#662 = LINE('',#663,#664);
#663 = CARTESIAN_POINT('',(22.4,-55.12136418137,14.169209540487));
#664 = VECTOR('',#665,1.);
#665 = DIRECTION('',(-9.3E-16,0.965925826289,-0.258819045103));
#666 = PLANE('',#667);
#667 = AXIS2_PLACEMENT_3D('',#668,#669,#670);
#668 = CARTESIAN_POINT('',(1.2634E-13,-70.,18.155927992564));
#669 = DIRECTION('',(-3.17E-15,0.258819045103,0.965925826289));
#670 = DIRECTION('',(-1.72E-15,0.965925826289,-0.258819045103));
#671 = ADVANCED_FACE('',(#672),#697,.F.);
#672 = FACE_BOUND('',#673,.F.);
#673 = EDGE_LOOP('',(#674,#675,#683,#691));
#674 = ORIENTED_EDGE('',*,*,#126,.F.);
#675 = ORIENTED_EDGE('',*,*,#676,.T.);
#676 = EDGE_CURVE('',#127,#677,#679,.T.);
#677 = VERTEX_POINT('',#678);
#678 = CARTESIAN_POINT('',(52.,-23.03938981032,1.528501421022));
#679 = LINE('',#680,#681);
#680 = CARTESIAN_POINT('',(52.,-5.6,0.9));
#681 = VECTOR('',#682,1.);
#682 = DIRECTION('',(1.17E-15,-0.999351220439,3.601580496661E-02));
#683 = ORIENTED_EDGE('',*,*,#684,.F.);
#684 = EDGE_CURVE('',#685,#677,#687,.T.);
#685 = VERTEX_POINT('',#686);
#686 = CARTESIAN_POINT('',(59.,-23.03938981032,1.528501421022));
#687 = LINE('',#688,#689);
#688 = CARTESIAN_POINT('',(59.,-23.03938981032,1.528501421022));
#689 = VECTOR('',#690,1.);
#690 = DIRECTION('',(-1.,5.6E-16,2.2E-16));
#691 = ORIENTED_EDGE('',*,*,#692,.F.);
#692 = EDGE_CURVE('',#119,#685,#693,.T.);
#693 = LINE('',#694,#695);
#694 = CARTESIAN_POINT('',(59.,-5.6,0.9));
#695 = VECTOR('',#696,1.);
#696 = DIRECTION('',(1.17E-15,-0.999351220439,3.601580496661E-02));
#697 = PLANE('',#698);
#698 = AXIS2_PLACEMENT_3D('',#699,#700,#701);
#699 = CARTESIAN_POINT('',(59.,-5.6,0.9));
#700 = DIRECTION('',(-1.14E-15,3.601580496661E-02,0.999351220439));
#701 = DIRECTION('',(9.5E-16,-0.999351220439,3.601580496661E-02));
#702 = ADVANCED_FACE('',(#703),#728,.F.);
#703 = FACE_BOUND('',#704,.F.);
#704 = EDGE_LOOP('',(#705,#713,#721,#727));
#705 = ORIENTED_EDGE('',*,*,#706,.T.);
#706 = EDGE_CURVE('',#143,#707,#709,.T.);
#707 = VERTEX_POINT('',#708);
#708 = CARTESIAN_POINT('',(22.4,-5.315299050387,1.962518408918));
#709 = LINE('',#710,#711);
#710 = CARTESIAN_POINT('',(22.4,-5.6,0.9));
#711 = VECTOR('',#712,1.);
#712 = DIRECTION('',(-3.42E-15,0.258819045103,0.965925826289));
#713 = ORIENTED_EDGE('',*,*,#714,.T.);
#714 = EDGE_CURVE('',#707,#715,#717,.T.);
#715 = VERTEX_POINT('',#716);
#716 = CARTESIAN_POINT('',(47.6,-5.315299050387,1.962518408918));
#717 = LINE('',#718,#719);
#718 = CARTESIAN_POINT('',(22.4,-5.315299050387,1.962518408918));
#719 = VECTOR('',#720,1.);
#720 = DIRECTION('',(1.,-1.08246744901E-15,-8.9E-16));
#721 = ORIENTED_EDGE('',*,*,#722,.F.);
#722 = EDGE_CURVE('',#135,#715,#723,.T.);
#723 = LINE('',#724,#725);
#724 = CARTESIAN_POINT('',(47.6,-5.6,0.9));
#725 = VECTOR('',#726,1.);
#726 = DIRECTION('',(-3.42E-15,0.258819045103,0.965925826289));
#727 = ORIENTED_EDGE('',*,*,#142,.F.);
#728 = PLANE('',#729);
#729 = AXIS2_PLACEMENT_3D('',#730,#731,#732);
#730 = CARTESIAN_POINT('',(22.4,-5.6,0.9));
#731 = DIRECTION('',(-1.34E-15,0.965925826289,-0.258819045103));
#732 = DIRECTION('',(1.,9.960487709332E-16,-1.46005780897E-15));
#733 = ADVANCED_FACE('',(#734),#778,.T.);
#734 = FACE_BOUND('',#735,.T.);
#735 = EDGE_LOOP('',(#736,#744,#761,#762,#771,#777));
#736 = ORIENTED_EDGE('',*,*,#737,.T.);
#737 = EDGE_CURVE('',#447,#738,#740,.T.);
#738 = VERTEX_POINT('',#739);
#739 = CARTESIAN_POINT('',(8.,-70.,21.820971454297));
#740 = LINE('',#741,#742);
#741 = CARTESIAN_POINT('',(8.,-70.,18.155927992565));
#742 = VECTOR('',#743,1.);
#743 = DIRECTION('',(-3.88E-15,-1.34E-15,1.));
#744 = ORIENTED_EDGE('',*,*,#745,.F.);
#745 = EDGE_CURVE('',#264,#738,#746,.T.);
#746 = B_SPLINE_CURVE_WITH_KNOTS('',7,(#747,#748,#749,#750,#751,#752,
    #753,#754,#755,#756,#757,#758,#759,#760),.UNSPECIFIED.,.F.,.F.,(8,6,
    8),(201.48020016752,201.65520932129,214.32001150305),.UNSPECIFIED.);
#747 = CARTESIAN_POINT('',(3.869E-14,-62.,20.394928996743));
#748 = CARTESIAN_POINT('',(3.869E-14,-62.02480688252,20.399303119439));
#749 = CARTESIAN_POINT('',(8.975175563297E-05,-62.04961399884,
    20.403677290978));
#750 = CARTESIAN_POINT('',(2.691954031172E-04,-62.07441969213,
    20.408051166746));
#751 = CARTESIAN_POINT('',(5.3853172529E-04,-62.09922952592,
    20.412425947792));
#752 = CARTESIAN_POINT('',(8.973754242696E-04,-62.12403139652,
    20.41679926511));
#753 = CARTESIAN_POINT('',(1.346329909356E-03,-62.14884495055,
    20.421175214074));
#754 = CARTESIAN_POINT('',(4.084964288962E-02,-63.96836914774,
    20.742077365576));
#755 = CARTESIAN_POINT('',(0.549682419003,-65.7442167116,21.056915978053
    ));
#756 = CARTESIAN_POINT('',(1.515274744984,-67.34919148645,21.34389740817
    ));
#757 = CARTESIAN_POINT('',(2.86772049242,-68.65232521607,21.577874544132
    ));
#758 = CARTESIAN_POINT('',(4.488738668655,-69.55029869851,
    21.739919341152));
#759 = CARTESIAN_POINT('',(6.244379916925,-70.,21.820971454297));
#760 = CARTESIAN_POINT('',(8.,-70.,21.820971454297));
#761 = ORIENTED_EDGE('',*,*,#261,.F.);
#762 = ORIENTED_EDGE('',*,*,#763,.T.);
#763 = EDGE_CURVE('',#262,#764,#766,.T.);
#764 = VERTEX_POINT('',#765);
#765 = CARTESIAN_POINT('',(7.,-69.93725393319,6.457665565249));
#766 = ELLIPSE('',#767,8.044066236508,8.);
#767 = AXIS2_PLACEMENT_3D('',#768,#769,#770);
#768 = CARTESIAN_POINT('',(8.,-62.,5.623426560491));
#769 = DIRECTION('',(-7.6E-16,0.104528463268,0.994521895368));
#770 = DIRECTION('',(1.618E-14,0.994521895368,-0.104528463268));
#771 = ORIENTED_EDGE('',*,*,#772,.F.);
#772 = EDGE_CURVE('',#439,#764,#773,.T.);
#773 = LINE('',#774,#775);
#774 = CARTESIAN_POINT('',(7.,-69.93725393319,4.25E-14));
#775 = VECTOR('',#776,1.);
#776 = DIRECTION('',(2.44E-15,-3.3E-16,-1.));
#777 = ORIENTED_EDGE('',*,*,#446,.T.);
#778 = CYLINDRICAL_SURFACE('',#779,8.);
#779 = AXIS2_PLACEMENT_3D('',#780,#781,#782);
#780 = CARTESIAN_POINT('',(8.,-62.,4.019E-14));
#781 = DIRECTION('',(2.44E-15,-3.3E-16,-1.));
#782 = DIRECTION('',(2.2E-16,1.,-3.3E-16));
#783 = ADVANCED_FACE('',(#784),#795,.F.);
#784 = FACE_BOUND('',#785,.F.);
#785 = EDGE_LOOP('',(#786,#787,#788,#794));
#786 = ORIENTED_EDGE('',*,*,#287,.F.);
#787 = ORIENTED_EDGE('',*,*,#763,.T.);
#788 = ORIENTED_EDGE('',*,*,#789,.T.);
#789 = EDGE_CURVE('',#764,#373,#790,.T.);
#790 = LINE('',#791,#792);
#791 = CARTESIAN_POINT('',(7.,-70.,6.464260442617));
#792 = VECTOR('',#793,1.);
#793 = DIRECTION('',(1.452846326766E-17,0.994521895368,-0.104528463268)
  );
#794 = ORIENTED_EDGE('',*,*,#372,.F.);
#795 = PLANE('',#796);
#796 = AXIS2_PLACEMENT_3D('',#797,#798,#799);
#797 = CARTESIAN_POINT('',(8.6E-16,-70.,6.464260442617));
#798 = DIRECTION('',(-8.3E-16,0.104528463268,0.994521895368));
#799 = DIRECTION('',(3.4E-16,0.994521895368,-0.104528463268));
#800 = ADVANCED_FACE('',(#801),#819,.F.);
#801 = FACE_BOUND('',#802,.T.);
#802 = EDGE_LOOP('',(#803,#804,#805,#813));
#803 = ORIENTED_EDGE('',*,*,#346,.F.);
#804 = ORIENTED_EDGE('',*,*,#271,.T.);
#805 = ORIENTED_EDGE('',*,*,#806,.T.);
#806 = EDGE_CURVE('',#264,#807,#809,.T.);
#807 = VERTEX_POINT('',#808);
#808 = CARTESIAN_POINT('',(1.,-61.82635182233,21.379736749755));
#809 = LINE('',#810,#811);
#810 = CARTESIAN_POINT('',(0.5,-61.91317591116,20.887332873249));
#811 = VECTOR('',#812,1.);
#812 = DIRECTION('',(0.707106781187,0.122787803969,0.69636424032));
#813 = ORIENTED_EDGE('',*,*,#814,.F.);
#814 = EDGE_CURVE('',#334,#807,#815,.T.);
#815 = LINE('',#816,#817);
#816 = CARTESIAN_POINT('',(1.,-8.,11.888698650372));
#817 = VECTOR('',#818,1.);
#818 = DIRECTION('',(1.83E-15,-0.984807753012,0.173648177667));
#819 = PLANE('',#820);
#820 = AXIS2_PLACEMENT_3D('',#821,#822,#823);
#821 = CARTESIAN_POINT('',(0.5,-8.086824088833,11.396294773865));
#822 = DIRECTION('',(0.707106781187,-0.122787803969,-0.69636424032));
#823 = DIRECTION('',(-1.845745778439E-15,0.984807753012,-0.173648177667)
  );
#824 = ADVANCED_FACE('',(#825),#842,.F.);
#825 = FACE_BOUND('',#826,.T.);
#826 = EDGE_LOOP('',(#827,#834,#835,#836));
#827 = ORIENTED_EDGE('',*,*,#828,.F.);
#828 = EDGE_CURVE('',#304,#829,#831,.T.);
#829 = VERTEX_POINT('',#830);
#830 = CARTESIAN_POINT('',(62.,-0.984807753012,10.651730982371));
#831 = B_SPLINE_CURVE_WITH_KNOTS('',1,(#832,#833),.UNSPECIFIED.,.F.,.F.,
  (2,2),(0.,12.487143942667),.PIECEWISE_BEZIER_KNOTS.);
#832 = CARTESIAN_POINT('',(62.,-8.673E-14,9.478082804704));
#833 = CARTESIAN_POINT('',(62.,-0.984807753012,10.651730982371));
#834 = ORIENTED_EDGE('',*,*,#311,.T.);
#835 = ORIENTED_EDGE('',*,*,#325,.T.);
#836 = ORIENTED_EDGE('',*,*,#837,.F.);
#837 = EDGE_CURVE('',#829,#326,#838,.T.);
#838 = LINE('',#839,#840);
#839 = CARTESIAN_POINT('',(62.,-0.984807753012,10.651730982371));
#840 = VECTOR('',#841,1.);
#841 = DIRECTION('',(-1.,1.22E-15,6.7E-16));
#842 = PLANE('',#843);
#843 = AXIS2_PLACEMENT_3D('',#844,#845,#846);
#844 = CARTESIAN_POINT('',(62.,-0.492403876506,10.064906893537));
#845 = DIRECTION('',(3.44E-15,-0.766044443119,-0.642787609687));
#846 = DIRECTION('',(1.,2.455372076117E-15,2.425491471532E-15));
#847 = ADVANCED_FACE('',(#848),#918,.T.);
#848 = FACE_BOUND('',#849,.T.);
#849 = EDGE_LOOP('',(#850,#860,#871,#872,#873,#874,#893,#901));
#850 = ORIENTED_EDGE('',*,*,#851,.T.);
#851 = EDGE_CURVE('',#852,#854,#856,.T.);
#852 = VERTEX_POINT('',#853);
#853 = CARTESIAN_POINT('',(69.,-61.82635182233,21.379736749755));
#854 = VERTEX_POINT('',#855);
#855 = CARTESIAN_POINT('',(69.,-7.826351822333,11.858079791498));
#856 = LINE('',#857,#858);
#857 = CARTESIAN_POINT('',(69.,-62.,21.410355608629));
#858 = VECTOR('',#859,1.);
#859 = DIRECTION('',(-1.83E-15,0.984807753012,-0.173648177667));
#860 = ORIENTED_EDGE('',*,*,#861,.T.);
#861 = EDGE_CURVE('',#854,#829,#862,.T.);
#862 = B_SPLINE_CURVE_WITH_KNOTS('',7,(#863,#864,#865,#866,#867,#868,
    #869,#870),.UNSPECIFIED.,.F.,.F.,(8,8),(67.672861808879,
    80.160005751546),.PIECEWISE_BEZIER_KNOTS.);
#863 = CARTESIAN_POINT('',(69.00000009276,-7.826775998784,
    11.858154585251));
#864 = CARTESIAN_POINT('',(68.999324832545,-6.282846423909,
    11.585918144887));
#865 = CARTESIAN_POINT('',(68.578769213176,-4.747922480441,
    11.315269640318));
#866 = CARTESIAN_POINT('',(67.746742831421,-3.341569879765,
    11.067291732429));
#867 = CARTESIAN_POINT('',(66.553599332201,-2.184804320037,
    10.863322753895));
#868 = CARTESIAN_POINT('',(65.107177476458,-1.383910887067,
    10.72210363299));
#869 = CARTESIAN_POINT('',(63.545668203525,-0.984807753012,
    10.651730982371));
#870 = CARTESIAN_POINT('',(62.,-0.984807753012,10.651730982371));
#871 = ORIENTED_EDGE('',*,*,#837,.T.);
#872 = ORIENTED_EDGE('',*,*,#333,.T.);
#873 = ORIENTED_EDGE('',*,*,#814,.T.);
#874 = ORIENTED_EDGE('',*,*,#875,.T.);
#875 = EDGE_CURVE('',#807,#876,#878,.T.);
#876 = VERTEX_POINT('',#877);
#877 = CARTESIAN_POINT('',(7.999999999999,-69.01519224698,22.64732327663
    ));
#878 = B_SPLINE_CURVE_WITH_KNOTS('',7,(#879,#880,#881,#882,#883,#884,
    #885,#886,#887,#888,#889,#890,#891,#892),.UNSPECIFIED.,.F.,.F.,(8,6,
    8),(201.48020016752,201.65520932129,214.32001150305),.UNSPECIFIED.);
#879 = CARTESIAN_POINT('',(1.,-61.82635182233,21.379736749755));
#880 = CARTESIAN_POINT('',(1.,-61.85115870485,21.384110872451));
#881 = CARTESIAN_POINT('',(0.99999981683,-61.87598697595,21.38848876653)
  );
#882 = CARTESIAN_POINT('',(1.000001496343,-61.90067750125,
    21.392842372308));
#883 = CARTESIAN_POINT('',(0.999994340504,-61.92581806865,
    21.397275332651));
#884 = CARTESIAN_POINT('',(1.000014471984,-61.94985145047,
    21.401513066303));
#885 = CARTESIAN_POINT('',(0.999969906119,-61.97686168984,21.40627570026
    ));
#886 = CARTESIAN_POINT('',(1.002114084727,-63.57922490811,
    21.688815568537));
#887 = CARTESIAN_POINT('',(1.412403037127,-65.15456755316,21.96659098072
    ));
#888 = CARTESIAN_POINT('',(2.2391709908,-66.60150539386,22.221725161443)
  );
#889 = CARTESIAN_POINT('',(3.425213788084,-67.78443547866,
    22.430307651685));
#890 = CARTESIAN_POINT('',(4.865310850031,-68.60479936089,
    22.574959938121));
#891 = CARTESIAN_POINT('',(6.432672571873,-69.01519224699,22.64732327663
    ));
#892 = CARTESIAN_POINT('',(7.999999999999,-69.01519224698,22.64732327663
    ));
#893 = ORIENTED_EDGE('',*,*,#894,.T.);
#894 = EDGE_CURVE('',#876,#895,#897,.T.);
#895 = VERTEX_POINT('',#896);
#896 = CARTESIAN_POINT('',(62.,-69.01519224698,22.64732327663));
#897 = LINE('',#898,#899);
#898 = CARTESIAN_POINT('',(8.,-69.01519224698,22.64732327663));
#899 = VECTOR('',#900,1.);
#900 = DIRECTION('',(1.,-1.22E-15,-6.7E-16));
#901 = ORIENTED_EDGE('',*,*,#902,.T.);
#902 = EDGE_CURVE('',#895,#852,#903,.T.);
#903 = B_SPLINE_CURVE_WITH_KNOTS('',7,(#904,#905,#906,#907,#908,#909,
    #910,#911,#912,#913,#914,#915,#916,#917),.UNSPECIFIED.,.F.,.F.,(8,6,
    8),(268.32001150309,280.98481368488,281.15982283865),.UNSPECIFIED.);
#904 = CARTESIAN_POINT('',(62.000000000001,-69.01519224698,
    22.64732327663));
#905 = CARTESIAN_POINT('',(63.567327428133,-69.01519224698,
    22.64732327663));
#906 = CARTESIAN_POINT('',(65.134689149957,-68.6047993609,
    22.574959938122));
#907 = CARTESIAN_POINT('',(66.57478621193,-67.78443547866,
    22.430307651684));
#908 = CARTESIAN_POINT('',(67.760829009193,-66.60150539387,
    22.221725161444));
#909 = CARTESIAN_POINT('',(68.587596962875,-65.15456755316,
    21.966590980719));
#910 = CARTESIAN_POINT('',(68.997885915272,-63.57922490812,
    21.688815568537));
#911 = CARTESIAN_POINT('',(69.000030093882,-61.97686168984,
    21.40627570026));
#912 = CARTESIAN_POINT('',(68.999985528016,-61.94985145047,
    21.401513066303));
#913 = CARTESIAN_POINT('',(69.000005659498,-61.92581806865,
    21.397275332652));
#914 = CARTESIAN_POINT('',(68.999998503656,-61.90067750125,
    21.392842372308));
#915 = CARTESIAN_POINT('',(69.000000183171,-61.87598697595,
    21.38848876653));
#916 = CARTESIAN_POINT('',(69.,-61.85115870485,21.384110872451));
#917 = CARTESIAN_POINT('',(69.,-61.82635182233,21.379736749755));
#918 = PLANE('',#919);
#919 = AXIS2_PLACEMENT_3D('',#920,#921,#922);
#920 = CARTESIAN_POINT('',(1.1287E-13,-70.,22.820971454297));
#921 = DIRECTION('',(-3.03E-15,0.173648177667,0.984807753012));
#922 = DIRECTION('',(-2.01E-15,0.984807753012,-0.173648177667));
#923 = ADVANCED_FACE('',(#924),#930,.T.);
#924 = FACE_BOUND('',#925,.T.);
#925 = EDGE_LOOP('',(#926,#927,#928,#929));
#926 = ORIENTED_EDGE('',*,*,#438,.T.);
#927 = ORIENTED_EDGE('',*,*,#772,.T.);
#928 = ORIENTED_EDGE('',*,*,#789,.T.);
#929 = ORIENTED_EDGE('',*,*,#380,.T.);
#930 = PLANE('',#931);
#931 = AXIS2_PLACEMENT_3D('',#932,#933,#934);
#932 = CARTESIAN_POINT('',(7.,-40.44596434073,6.91493984277));
#933 = DIRECTION('',(1.,-1.33E-15,-3.3E-16));
#934 = DIRECTION('',(1.33E-15,1.,-7.8E-16));
#935 = ADVANCED_FACE('',(#936),#946,.F.);
#936 = FACE_BOUND('',#937,.F.);
#937 = EDGE_LOOP('',(#938,#944,#945));
#938 = ORIENTED_EDGE('',*,*,#939,.F.);
#939 = EDGE_CURVE('',#415,#478,#940,.T.);
#940 = LINE('',#941,#942);
#941 = CARTESIAN_POINT('',(70.,-70.,18.155927992564));
#942 = VECTOR('',#943,1.);
#943 = DIRECTION('',(-1.07E-15,0.965925826289,-0.258819045103));
#944 = ORIENTED_EDGE('',*,*,#422,.T.);
#945 = ORIENTED_EDGE('',*,*,#477,.F.);
#946 = PLANE('',#947);
#947 = AXIS2_PLACEMENT_3D('',#948,#949,#950);
#948 = CARTESIAN_POINT('',(70.,-70.,18.155927992565));
#949 = DIRECTION('',(1.68E-15,-0.258819045103,-0.965925826289));
#950 = DIRECTION('',(-8.6E-16,0.965925826289,-0.258819045103));
#951 = ADVANCED_FACE('',(#952),#979,.T.);
#952 = FACE_BOUND('',#953,.T.);
#953 = EDGE_LOOP('',(#954,#955,#956,#964,#972,#978));
#954 = ORIENTED_EDGE('',*,*,#939,.F.);
#955 = ORIENTED_EDGE('',*,*,#414,.T.);
#956 = ORIENTED_EDGE('',*,*,#957,.F.);
#957 = EDGE_CURVE('',#958,#402,#960,.T.);
#958 = VERTEX_POINT('',#959);
#959 = CARTESIAN_POINT('',(70.,-62.,20.394928996743));
#960 = LINE('',#961,#962);
#961 = CARTESIAN_POINT('',(70.,-62.17364817766,20.425547855617));
#962 = VECTOR('',#963,1.);
#963 = DIRECTION('',(-1.83E-15,0.984807753012,-0.173648177667));
#964 = ORIENTED_EDGE('',*,*,#965,.F.);
#965 = EDGE_CURVE('',#966,#958,#968,.T.);
#966 = VERTEX_POINT('',#967);
#967 = CARTESIAN_POINT('',(70.,-62.,5.623426560491));
#968 = LINE('',#969,#970);
#969 = CARTESIAN_POINT('',(70.,-62.,18.155927992565));
#970 = VECTOR('',#971,1.);
#971 = DIRECTION('',(-3.88E-15,1.22E-15,1.));
#972 = ORIENTED_EDGE('',*,*,#973,.F.);
#973 = EDGE_CURVE('',#495,#966,#974,.T.);
#974 = LINE('',#975,#976);
#975 = CARTESIAN_POINT('',(70.,-23.03938981032,1.528501421021));
#976 = VECTOR('',#977,1.);
#977 = DIRECTION('',(1.37E-15,-0.994521895368,0.104528463268));
#978 = ORIENTED_EDGE('',*,*,#502,.F.);
#979 = PLANE('',#980);
#980 = AXIS2_PLACEMENT_3D('',#981,#982,#983);
#981 = CARTESIAN_POINT('',(70.,-39.14564012094,9.59257907276));
#982 = DIRECTION('',(1.,-4.4E-16,7.7E-16));
#983 = DIRECTION('',(-7.7E-16,-7.8E-16,1.));
#984 = ADVANCED_FACE('',(#985),#996,.F.);
#985 = FACE_BOUND('',#986,.F.);
#986 = EDGE_LOOP('',(#987,#993,#994,#995));
#987 = ORIENTED_EDGE('',*,*,#988,.T.);
#988 = EDGE_CURVE('',#402,#854,#989,.T.);
#989 = LINE('',#990,#991);
#990 = CARTESIAN_POINT('',(69.5,-7.913175911167,11.365675914992));
#991 = VECTOR('',#992,1.);
#992 = DIRECTION('',(-0.707106781187,0.122787803969,0.69636424032));
#993 = ORIENTED_EDGE('',*,*,#861,.T.);
#994 = ORIENTED_EDGE('',*,*,#828,.F.);
#995 = ORIENTED_EDGE('',*,*,#401,.F.);
#996 = B_SPLINE_SURFACE_WITH_KNOTS('',1,7,(
    (#997,#998,#999,#1000,#1001,#1002,#1003,#1004)
    ,(#1005,#1006,#1007,#1008,#1009,#1010,#1011,#1012
  )),.UNSPECIFIED.,.F.,.F.,.F.,(2,2),(8,8),(0.,12.487143942667),(
    67.672861808879,80.160005751546),.PIECEWISE_BEZIER_KNOTS.);
#997 = CARTESIAN_POINT('',(70.,-8.,10.873272038486));
#998 = CARTESIAN_POINT('',(70.,-6.230037266906,10.561179853793));
#999 = CARTESIAN_POINT('',(69.54242093525,-4.469285178758,
    10.250996675605));
#1000 = CARTESIAN_POINT('',(68.641236530749,-2.838577524133,
    9.961938252254));
#1001 = CARTESIAN_POINT('',(67.306617841423,-1.443185499049,
    9.724618332769));
#1002 = CARTESIAN_POINT('',(65.630238694572,-0.477536665351,
    9.560601641319));
#1003 = CARTESIAN_POINT('',(63.809400221524,-9.042E-14,9.478082804704));
#1004 = CARTESIAN_POINT('',(62.,-8.673E-14,9.478082804704));
#1005 = CARTESIAN_POINT('',(69.00000009276,-7.826775998784,
    11.858154585251));
#1006 = CARTESIAN_POINT('',(68.999324832545,-6.282846423909,
    11.585918144887));
#1007 = CARTESIAN_POINT('',(68.578769213176,-4.747922480441,
    11.315269640318));
#1008 = CARTESIAN_POINT('',(67.746742831421,-3.341569879765,
    11.067291732429));
#1009 = CARTESIAN_POINT('',(66.553599332201,-2.184804320037,
    10.863322753895));
#1010 = CARTESIAN_POINT('',(65.107177476458,-1.383910887067,
    10.72210363299));
#1011 = CARTESIAN_POINT('',(63.545668203525,-0.984807753012,
    10.651730982371));
#1012 = CARTESIAN_POINT('',(62.,-0.984807753012,10.651730982371));
#1013 = ADVANCED_FACE('',(#1014),#1032,.F.);
#1014 = FACE_BOUND('',#1015,.F.);
#1015 = EDGE_LOOP('',(#1016,#1024,#1030,#1031));
#1016 = ORIENTED_EDGE('',*,*,#1017,.T.);
#1017 = EDGE_CURVE('',#456,#1018,#1020,.T.);
#1018 = VERTEX_POINT('',#1019);
#1019 = CARTESIAN_POINT('',(11.,-70.,6.464260442617));
#1020 = LINE('',#1021,#1022);
#1021 = CARTESIAN_POINT('',(11.,-70.,18.155927992565));
#1022 = VECTOR('',#1023,1.);
#1023 = DIRECTION('',(6.7E-16,3.3E-16,-1.));
#1024 = ORIENTED_EDGE('',*,*,#1025,.T.);
#1025 = EDGE_CURVE('',#1018,#517,#1026,.T.);
#1026 = LINE('',#1027,#1028);
#1027 = CARTESIAN_POINT('',(11.,-70.,6.464260442617));
#1028 = VECTOR('',#1029,1.);
#1029 = DIRECTION('',(-4.8E-16,0.994521895368,-0.104528463268));
#1030 = ORIENTED_EDGE('',*,*,#533,.T.);
#1031 = ORIENTED_EDGE('',*,*,#463,.T.);
#1032 = PLANE('',#1033);
#1033 = AXIS2_PLACEMENT_3D('',#1034,#1035,#1036);
#1034 = CARTESIAN_POINT('',(11.,-40.44596434073,6.91493984277));
#1035 = DIRECTION('',(1.,-3.3E-16,-2.2E-16));
#1036 = DIRECTION('',(2.2E-16,-3.3E-16,1.));
#1037 = ADVANCED_FACE('',(#1038),#1095,.T.);
#1038 = FACE_BOUND('',#1039,.T.);
#1039 = EDGE_LOOP('',(#1040,#1041,#1042,#1043,#1051,#1057,#1058,#1066,
    #1074,#1080,#1081,#1089));
#1040 = ORIENTED_EDGE('',*,*,#737,.F.);
#1041 = ORIENTED_EDGE('',*,*,#455,.T.);
#1042 = ORIENTED_EDGE('',*,*,#1017,.T.);
#1043 = ORIENTED_EDGE('',*,*,#1044,.T.);
#1044 = EDGE_CURVE('',#1018,#1045,#1047,.T.);
#1045 = VERTEX_POINT('',#1046);
#1046 = CARTESIAN_POINT('',(18.,-70.,6.464260442617));
#1047 = LINE('',#1048,#1049);
#1048 = CARTESIAN_POINT('',(11.,-70.,6.464260442617));
#1049 = VECTOR('',#1050,1.);
#1050 = DIRECTION('',(1.,-3.3E-16,0.));
#1051 = ORIENTED_EDGE('',*,*,#1052,.F.);
#1052 = EDGE_CURVE('',#589,#1045,#1053,.T.);
#1053 = LINE('',#1054,#1055);
#1054 = CARTESIAN_POINT('',(18.,-70.,18.155927992565));
#1055 = VECTOR('',#1056,1.);
#1056 = DIRECTION('',(6.7E-16,3.3E-16,-1.));
#1057 = ORIENTED_EDGE('',*,*,#596,.T.);
#1058 = ORIENTED_EDGE('',*,*,#1059,.F.);
#1059 = EDGE_CURVE('',#1060,#597,#1062,.T.);
#1060 = VERTEX_POINT('',#1061);
#1061 = CARTESIAN_POINT('',(52.,-70.,6.464260442617));
#1062 = LINE('',#1063,#1064);
#1063 = CARTESIAN_POINT('',(52.,-70.,6.464260442617));
#1064 = VECTOR('',#1065,1.);
#1065 = DIRECTION('',(-1.33E-15,-7.8E-16,1.));
#1066 = ORIENTED_EDGE('',*,*,#1067,.F.);
#1067 = EDGE_CURVE('',#1068,#1060,#1070,.T.);
#1068 = VERTEX_POINT('',#1069);
#1069 = CARTESIAN_POINT('',(59.,-70.,6.464260442617));
#1070 = LINE('',#1071,#1072);
#1071 = CARTESIAN_POINT('',(59.,-70.,6.464260442617));
#1072 = VECTOR('',#1073,1.);
#1073 = DIRECTION('',(-1.,5.6E-16,2.2E-16));
#1074 = ORIENTED_EDGE('',*,*,#1075,.T.);
#1075 = EDGE_CURVE('',#1068,#548,#1076,.T.);
#1076 = LINE('',#1077,#1078);
#1077 = CARTESIAN_POINT('',(59.,-70.,6.464260442617));
#1078 = VECTOR('',#1079,1.);
#1079 = DIRECTION('',(-1.33E-15,-7.8E-16,1.));
#1080 = ORIENTED_EDGE('',*,*,#555,.T.);
#1081 = ORIENTED_EDGE('',*,*,#1082,.T.);
#1082 = EDGE_CURVE('',#556,#1083,#1085,.T.);
#1083 = VERTEX_POINT('',#1084);
#1084 = CARTESIAN_POINT('',(62.,-70.,21.820971454297));
#1085 = LINE('',#1086,#1087);
#1086 = CARTESIAN_POINT('',(62.,-70.,18.155927992565));
#1087 = VECTOR('',#1088,1.);
#1088 = DIRECTION('',(-3.88E-15,-1.34E-15,1.));
#1089 = ORIENTED_EDGE('',*,*,#1090,.F.);
#1090 = EDGE_CURVE('',#738,#1083,#1091,.T.);
#1091 = LINE('',#1092,#1093);
#1092 = CARTESIAN_POINT('',(8.,-70.,21.820971454297));
#1093 = VECTOR('',#1094,1.);
#1094 = DIRECTION('',(1.,-1.22E-15,-6.7E-16));
#1095 = PLANE('',#1096);
#1096 = AXIS2_PLACEMENT_3D('',#1097,#1098,#1099);
#1097 = CARTESIAN_POINT('',(35.,-70.,16.763373080348));
#1098 = DIRECTION('',(-1.44E-15,-1.,-5.34E-15));
#1099 = DIRECTION('',(4.4E-16,5.34E-15,-1.));
#1100 = ADVANCED_FACE('',(#1101),#1120,.F.);
#1101 = FACE_BOUND('',#1102,.F.);
#1102 = EDGE_LOOP('',(#1103,#1104,#1105,#1113));
#1103 = ORIENTED_EDGE('',*,*,#973,.F.);
#1104 = ORIENTED_EDGE('',*,*,#494,.T.);
#1105 = ORIENTED_EDGE('',*,*,#1106,.T.);
#1106 = EDGE_CURVE('',#487,#1107,#1109,.T.);
#1107 = VERTEX_POINT('',#1108);
#1108 = CARTESIAN_POINT('',(63.,-69.93725393319,6.457665565249));
#1109 = LINE('',#1110,#1111);
#1110 = CARTESIAN_POINT('',(63.,-23.03938981032,1.528501421021));
#1111 = VECTOR('',#1112,1.);
#1112 = DIRECTION('',(1.37E-15,-0.994521895368,0.104528463268));
#1113 = ORIENTED_EDGE('',*,*,#1114,.T.);
#1114 = EDGE_CURVE('',#1107,#966,#1115,.T.);
#1115 = ELLIPSE('',#1116,8.044066236508,8.);
#1116 = AXIS2_PLACEMENT_3D('',#1117,#1118,#1119);
#1117 = CARTESIAN_POINT('',(62.,-62.,5.623426560491));
#1118 = DIRECTION('',(-1.41E-15,0.104528463268,0.994521895368));
#1119 = DIRECTION('',(9.93E-15,0.994521895368,-0.104528463268));
#1120 = PLANE('',#1121);
#1121 = AXIS2_PLACEMENT_3D('',#1122,#1123,#1124);
#1122 = CARTESIAN_POINT('',(70.,-23.03938981032,1.528501421022));
#1123 = DIRECTION('',(-1.55E-15,0.104528463268,0.994521895368));
#1124 = DIRECTION('',(1.15E-15,-0.994521895368,0.104528463268));
#1125 = ADVANCED_FACE('',(#1126),#1137,.F.);
#1126 = FACE_BOUND('',#1127,.F.);
#1127 = EDGE_LOOP('',(#1128,#1129,#1130,#1136));
#1128 = ORIENTED_EDGE('',*,*,#486,.F.);
#1129 = ORIENTED_EDGE('',*,*,#572,.F.);
#1130 = ORIENTED_EDGE('',*,*,#1131,.T.);
#1131 = EDGE_CURVE('',#564,#1107,#1132,.T.);
#1132 = LINE('',#1133,#1134);
#1133 = CARTESIAN_POINT('',(63.,-69.93725393319,1.7528E-13));
#1134 = VECTOR('',#1135,1.);
#1135 = DIRECTION('',(2.44E-15,-3.3E-16,-1.));
#1136 = ORIENTED_EDGE('',*,*,#1106,.F.);
#1137 = PLANE('',#1138);
#1138 = AXIS2_PLACEMENT_3D('',#1139,#1140,#1141);
#1139 = CARTESIAN_POINT('',(63.,-40.44596434073,6.91493984277));
#1140 = DIRECTION('',(1.,-6.7E-16,-5.6E-16));
#1141 = DIRECTION('',(5.6E-16,-1.E-15,1.));
#1142 = ADVANCED_FACE('',(#1143),#1154,.F.);
#1143 = FACE_BOUND('',#1144,.F.);
#1144 = EDGE_LOOP('',(#1145,#1146,#1152,#1153));
#1145 = ORIENTED_EDGE('',*,*,#1044,.T.);
#1146 = ORIENTED_EDGE('',*,*,#1147,.T.);
#1147 = EDGE_CURVE('',#1045,#519,#1148,.T.);
#1148 = LINE('',#1149,#1150);
#1149 = CARTESIAN_POINT('',(18.,-70.,6.464260442617));
#1150 = VECTOR('',#1151,1.);
#1151 = DIRECTION('',(-4.8E-16,0.994521895368,-0.104528463268));
#1152 = ORIENTED_EDGE('',*,*,#516,.F.);
#1153 = ORIENTED_EDGE('',*,*,#1025,.F.);
#1154 = PLANE('',#1155);
#1155 = AXIS2_PLACEMENT_3D('',#1156,#1157,#1158);
#1156 = CARTESIAN_POINT('',(11.,-70.,6.464260442617));
#1157 = DIRECTION('',(-4.5E-16,0.104528463268,0.994521895368));
#1158 = DIRECTION('',(-2.6E-16,0.994521895368,-0.104528463268));
#1159 = ADVANCED_FACE('',(#1160),#1166,.T.);
#1160 = FACE_BOUND('',#1161,.T.);
#1161 = EDGE_LOOP('',(#1162,#1163,#1164,#1165));
#1162 = ORIENTED_EDGE('',*,*,#1052,.T.);
#1163 = ORIENTED_EDGE('',*,*,#1147,.T.);
#1164 = ORIENTED_EDGE('',*,*,#526,.T.);
#1165 = ORIENTED_EDGE('',*,*,#588,.T.);
#1166 = PLANE('',#1167);
#1167 = AXIS2_PLACEMENT_3D('',#1168,#1169,#1170);
#1168 = CARTESIAN_POINT('',(18.,-40.44596434073,6.91493984277));
#1169 = DIRECTION('',(1.,-3.3E-16,-2.2E-16));
#1170 = DIRECTION('',(2.2E-16,-3.3E-16,1.));
#1171 = ADVANCED_FACE('',(#1172),#1183,.T.);
#1172 = FACE_BOUND('',#1173,.F.);
#1173 = EDGE_LOOP('',(#1174,#1180,#1181,#1182));
#1174 = ORIENTED_EDGE('',*,*,#1175,.T.);
#1175 = EDGE_CURVE('',#685,#1068,#1176,.T.);
#1176 = LINE('',#1177,#1178);
#1177 = CARTESIAN_POINT('',(59.,-23.03938981032,1.528501421022));
#1178 = VECTOR('',#1179,1.);
#1179 = DIRECTION('',(1.08E-15,-0.994521895368,0.104528463268));
#1180 = ORIENTED_EDGE('',*,*,#1075,.T.);
#1181 = ORIENTED_EDGE('',*,*,#547,.T.);
#1182 = ORIENTED_EDGE('',*,*,#692,.T.);
#1183 = PLANE('',#1184);
#1184 = AXIS2_PLACEMENT_3D('',#1185,#1186,#1187);
#1185 = CARTESIAN_POINT('',(59.,-40.44596434073,6.91493984277));
#1186 = DIRECTION('',(1.,-5.6E-16,-4.4E-16));
#1187 = DIRECTION('',(4.4E-16,-7.8E-16,1.));
#1188 = ADVANCED_FACE('',(#1189),#1213,.T.);
#1189 = FACE_BOUND('',#1190,.T.);
#1190 = EDGE_LOOP('',(#1191,#1192,#1193,#1194,#1211,#1212));
#1191 = ORIENTED_EDGE('',*,*,#1131,.T.);
#1192 = ORIENTED_EDGE('',*,*,#1114,.T.);
#1193 = ORIENTED_EDGE('',*,*,#965,.T.);
#1194 = ORIENTED_EDGE('',*,*,#1195,.F.);
#1195 = EDGE_CURVE('',#1083,#958,#1196,.T.);
#1196 = B_SPLINE_CURVE_WITH_KNOTS('',7,(#1197,#1198,#1199,#1200,#1201,
    #1202,#1203,#1204,#1205,#1206,#1207,#1208,#1209,#1210),
  .UNSPECIFIED.,.F.,.F.,(8,6,8),(268.32001150309,280.98481368488,
    281.15982283865),.UNSPECIFIED.);
#1197 = CARTESIAN_POINT('',(62.,-70.,21.820971454297));
#1198 = CARTESIAN_POINT('',(63.755620083076,-70.,21.820971454297));
#1199 = CARTESIAN_POINT('',(65.511261331344,-69.55029869851,
    21.739919341152));
#1200 = CARTESIAN_POINT('',(67.132279507581,-68.65232521607,
    21.577874544132));
#1201 = CARTESIAN_POINT('',(68.484725255016,-67.34919148645,
    21.343897408171));
#1202 = CARTESIAN_POINT('',(69.450317580997,-65.7442167116,
    21.056915978053));
#1203 = CARTESIAN_POINT('',(69.959150357111,-63.96836914775,
    20.742077365575));
#1204 = CARTESIAN_POINT('',(69.998653670091,-62.14884495055,
    20.421175214074));
#1205 = CARTESIAN_POINT('',(69.999102624575,-62.12403139652,
    20.41679926511));
#1206 = CARTESIAN_POINT('',(69.999461468277,-62.09922952592,
    20.412425947793));
#1207 = CARTESIAN_POINT('',(69.999730804596,-62.07441969213,
    20.408051166746));
#1208 = CARTESIAN_POINT('',(69.999910248246,-62.04961399885,
    20.403677290978));
#1209 = CARTESIAN_POINT('',(70.,-62.02480688252,20.399303119439));
#1210 = CARTESIAN_POINT('',(70.,-62.,20.394928996743));
#1211 = ORIENTED_EDGE('',*,*,#1082,.F.);
#1212 = ORIENTED_EDGE('',*,*,#563,.T.);
#1213 = CYLINDRICAL_SURFACE('',#1214,8.);
#1214 = AXIS2_PLACEMENT_3D('',#1215,#1216,#1217);
#1215 = CARTESIAN_POINT('',(62.,-62.,18.155927992565));
#1216 = DIRECTION('',(-3.88E-15,1.22E-15,1.));
#1217 = DIRECTION('',(-8.9E-16,-1.,1.22E-15));
#1218 = ADVANCED_FACE('',(#1219),#1237,.F.);
#1219 = FACE_BOUND('',#1220,.F.);
#1220 = EDGE_LOOP('',(#1221,#1229,#1235,#1236));
#1221 = ORIENTED_EDGE('',*,*,#1222,.T.);
#1222 = EDGE_CURVE('',#620,#1223,#1225,.T.);
#1223 = VERTEX_POINT('',#1224);
#1224 = CARTESIAN_POINT('',(22.4,-23.53748976333,6.845139694777));
#1225 = LINE('',#1226,#1227);
#1226 = CARTESIAN_POINT('',(22.4,-23.82219071294,5.782621285859));
#1227 = VECTOR('',#1228,1.);
#1228 = DIRECTION('',(-3.42E-15,0.258819045103,0.965925826289));
#1229 = ORIENTED_EDGE('',*,*,#1230,.T.);
#1230 = EDGE_CURVE('',#1223,#707,#1231,.T.);
#1231 = LINE('',#1232,#1233);
#1232 = CARTESIAN_POINT('',(22.4,-23.53748976333,6.845139694777));
#1233 = VECTOR('',#1234,1.);
#1234 = DIRECTION('',(-1.720845688169E-15,0.965925826289,-0.258819045103
    ));
#1235 = ORIENTED_EDGE('',*,*,#706,.F.);
#1236 = ORIENTED_EDGE('',*,*,#627,.F.);
#1237 = PLANE('',#1238);
#1238 = AXIS2_PLACEMENT_3D('',#1239,#1240,#1241);
#1239 = CARTESIAN_POINT('',(22.4,-23.82219071294,5.782621285859));
#1240 = DIRECTION('',(-1.,1.22E-15,6.4E-16));
#1241 = DIRECTION('',(1.012785319207E-15,0.965925826289,-0.258819045103)
  );
#1242 = ADVANCED_FACE('',(#1243),#1261,.F.);
#1243 = FACE_BOUND('',#1244,.F.);
#1244 = EDGE_LOOP('',(#1245,#1253,#1259,#1260));
#1245 = ORIENTED_EDGE('',*,*,#1246,.T.);
#1246 = EDGE_CURVE('',#612,#1247,#1249,.T.);
#1247 = VERTEX_POINT('',#1248);
#1248 = CARTESIAN_POINT('',(47.6,-23.53748976333,6.845139694777));
#1249 = LINE('',#1250,#1251);
#1250 = CARTESIAN_POINT('',(47.6,-23.82219071294,5.782621285859));
#1251 = VECTOR('',#1252,1.);
#1252 = DIRECTION('',(-3.42E-15,0.258819045103,0.965925826289));
#1253 = ORIENTED_EDGE('',*,*,#1254,.T.);
#1254 = EDGE_CURVE('',#1247,#1223,#1255,.T.);
#1255 = LINE('',#1256,#1257);
#1256 = CARTESIAN_POINT('',(47.6,-23.53748976333,6.845139694777));
#1257 = VECTOR('',#1258,1.);
#1258 = DIRECTION('',(-1.,1.08246744901E-15,8.9E-16));
#1259 = ORIENTED_EDGE('',*,*,#1222,.F.);
#1260 = ORIENTED_EDGE('',*,*,#619,.F.);
#1261 = PLANE('',#1262);
#1262 = AXIS2_PLACEMENT_3D('',#1263,#1264,#1265);
#1263 = CARTESIAN_POINT('',(47.6,-23.82219071294,5.782621285859));
#1264 = DIRECTION('',(1.34E-15,-0.965925826289,0.258819045103));
#1265 = DIRECTION('',(-1.,-9.960487709332E-16,1.46005780897E-15));
#1266 = ADVANCED_FACE('',(#1267),#1278,.F.);
#1267 = FACE_BOUND('',#1268,.F.);
#1268 = EDGE_LOOP('',(#1269,#1270,#1276,#1277));
#1269 = ORIENTED_EDGE('',*,*,#722,.T.);
#1270 = ORIENTED_EDGE('',*,*,#1271,.T.);
#1271 = EDGE_CURVE('',#715,#1247,#1272,.T.);
#1272 = LINE('',#1273,#1274);
#1273 = CARTESIAN_POINT('',(47.6,-5.315299050387,1.962518408918));
#1274 = VECTOR('',#1275,1.);
#1275 = DIRECTION('',(1.720845688169E-15,-0.965925826289,0.258819045103)
  );
#1276 = ORIENTED_EDGE('',*,*,#1246,.F.);
#1277 = ORIENTED_EDGE('',*,*,#611,.F.);
#1278 = PLANE('',#1279);
#1279 = AXIS2_PLACEMENT_3D('',#1280,#1281,#1282);
#1280 = CARTESIAN_POINT('',(47.6,-5.6,0.9));
#1281 = DIRECTION('',(1.,-1.22E-15,-6.4E-16));
#1282 = DIRECTION('',(-1.012785319207E-15,-0.965925826289,0.258819045103
    ));
#1283 = ADVANCED_FACE('',(#1284),#1295,.F.);
#1284 = FACE_BOUND('',#1285,.T.);
#1285 = EDGE_LOOP('',(#1286,#1292,#1293,#1294));
#1286 = ORIENTED_EDGE('',*,*,#1287,.T.);
#1287 = EDGE_CURVE('',#677,#1060,#1288,.T.);
#1288 = LINE('',#1289,#1290);
#1289 = CARTESIAN_POINT('',(52.,-23.03938981032,1.528501421022));
#1290 = VECTOR('',#1291,1.);
#1291 = DIRECTION('',(1.08E-15,-0.994521895368,0.104528463268));
#1292 = ORIENTED_EDGE('',*,*,#1059,.T.);
#1293 = ORIENTED_EDGE('',*,*,#604,.T.);
#1294 = ORIENTED_EDGE('',*,*,#676,.T.);
#1295 = PLANE('',#1296);
#1296 = AXIS2_PLACEMENT_3D('',#1297,#1298,#1299);
#1297 = CARTESIAN_POINT('',(52.,-40.44596434073,6.91493984277));
#1298 = DIRECTION('',(1.,-5.6E-16,-4.4E-16));
#1299 = DIRECTION('',(4.4E-16,-7.8E-16,1.));
#1300 = ADVANCED_FACE('',(#1301),#1326,.F.);
#1301 = FACE_BOUND('',#1302,.F.);
#1302 = EDGE_LOOP('',(#1303,#1311,#1319,#1325));
#1303 = ORIENTED_EDGE('',*,*,#1304,.F.);
#1304 = EDGE_CURVE('',#1305,#638,#1307,.T.);
#1305 = VERTEX_POINT('',#1306);
#1306 = CARTESIAN_POINT('',(22.4,-33.32558519879,11.784862869664));
#1307 = LINE('',#1308,#1309);
#1308 = CARTESIAN_POINT('',(22.4,-33.32558519879,11.784862869664));
#1309 = VECTOR('',#1310,1.);
#1310 = DIRECTION('',(1.E-17,0.725374371012,-0.688354575694));
#1311 = ORIENTED_EDGE('',*,*,#1312,.F.);
#1312 = EDGE_CURVE('',#1313,#1305,#1315,.T.);
#1313 = VERTEX_POINT('',#1314);
#1314 = CARTESIAN_POINT('',(47.6,-33.32558519879,11.784862869665));
#1315 = LINE('',#1316,#1317);
#1316 = CARTESIAN_POINT('',(47.6,-33.32558519879,11.784862869664));
#1317 = VECTOR('',#1318,1.);
#1318 = DIRECTION('',(-1.,9.436895709314E-16,1.21E-15));
#1319 = ORIENTED_EDGE('',*,*,#1320,.T.);
#1320 = EDGE_CURVE('',#1313,#636,#1321,.T.);
#1321 = LINE('',#1322,#1323);
#1322 = CARTESIAN_POINT('',(47.6,-37.55974102454,15.802926718247));
#1323 = VECTOR('',#1324,1.);
#1324 = DIRECTION('',(7.7E-16,0.725374371012,-0.688354575694));
#1325 = ORIENTED_EDGE('',*,*,#635,.T.);
#1326 = PLANE('',#1327);
#1327 = AXIS2_PLACEMENT_3D('',#1328,#1329,#1330);
#1328 = CARTESIAN_POINT('',(22.4,-33.32558519879,11.784862869664));
#1329 = DIRECTION('',(-2.28E-15,0.688354575694,0.725374371012));
#1330 = DIRECTION('',(1.7E-16,0.725374371012,-0.688354575694));
#1331 = ADVANCED_FACE('',(#1332),#1350,.T.);
#1332 = FACE_BOUND('',#1333,.T.);
#1333 = EDGE_LOOP('',(#1334,#1335,#1336,#1344));
#1334 = ORIENTED_EDGE('',*,*,#1320,.T.);
#1335 = ORIENTED_EDGE('',*,*,#645,.F.);
#1336 = ORIENTED_EDGE('',*,*,#1337,.F.);
#1337 = EDGE_CURVE('',#1338,#646,#1340,.T.);
#1338 = VERTEX_POINT('',#1339);
#1339 = CARTESIAN_POINT('',(47.6,-47.11289374096,14.215937357002));
#1340 = LINE('',#1341,#1342);
#1341 = CARTESIAN_POINT('',(47.6,-47.11289374096,14.215937357002));
#1342 = VECTOR('',#1343,1.);
#1343 = DIRECTION('',(1.96E-15,-0.866025403784,-0.5));
#1344 = ORIENTED_EDGE('',*,*,#1345,.T.);
#1345 = EDGE_CURVE('',#1338,#1313,#1346,.T.);
#1346 = LINE('',#1347,#1348);
#1347 = CARTESIAN_POINT('',(47.6,-47.11289374096,14.215937357001));
#1348 = VECTOR('',#1349,1.);
#1349 = DIRECTION('',(-1.7763568394E-15,0.984807753012,-0.173648177667)
  );
#1350 = PLANE('',#1351);
#1351 = AXIS2_PLACEMENT_3D('',#1352,#1353,#1354);
#1352 = CARTESIAN_POINT('',(47.6,-38.72595993011,10.964522134265));
#1353 = DIRECTION('',(-1.,1.3E-15,1.06E-15));
#1354 = DIRECTION('',(-1.3E-15,-1.,1.22E-15));
#1355 = ADVANCED_FACE('',(#1356),#1374,.T.);
#1356 = FACE_BOUND('',#1357,.T.);
#1357 = EDGE_LOOP('',(#1358,#1359,#1367,#1373));
#1358 = ORIENTED_EDGE('',*,*,#1304,.F.);
#1359 = ORIENTED_EDGE('',*,*,#1360,.T.);
#1360 = EDGE_CURVE('',#1305,#1361,#1363,.T.);
#1361 = VERTEX_POINT('',#1362);
#1362 = CARTESIAN_POINT('',(22.4,-47.11289374096,14.215937357002));
#1363 = LINE('',#1364,#1365);
#1364 = CARTESIAN_POINT('',(22.4,-33.32558519879,11.784862869664));
#1365 = VECTOR('',#1366,1.);
#1366 = DIRECTION('',(1.7763568394E-15,-0.984807753012,0.173648177667));
#1367 = ORIENTED_EDGE('',*,*,#1368,.T.);
#1368 = EDGE_CURVE('',#1361,#654,#1369,.T.);
#1369 = LINE('',#1370,#1371);
#1370 = CARTESIAN_POINT('',(22.4,-47.11289374096,14.215937357001));
#1371 = VECTOR('',#1372,1.);
#1372 = DIRECTION('',(2.63E-15,-0.866025403784,-0.5));
#1373 = ORIENTED_EDGE('',*,*,#661,.T.);
#1374 = PLANE('',#1375);
#1375 = AXIS2_PLACEMENT_3D('',#1376,#1377,#1378);
#1376 = CARTESIAN_POINT('',(22.4,-38.72595993011,10.964522134265));
#1377 = DIRECTION('',(1.,-9.1E-16,7.8E-16));
#1378 = DIRECTION('',(-7.8E-16,-1.E-15,1.));
#1379 = ADVANCED_FACE('',(#1380),#1391,.T.);
#1380 = FACE_BOUND('',#1381,.T.);
#1381 = EDGE_LOOP('',(#1382,#1383,#1389,#1390));
#1382 = ORIENTED_EDGE('',*,*,#1368,.F.);
#1383 = ORIENTED_EDGE('',*,*,#1384,.T.);
#1384 = EDGE_CURVE('',#1361,#1338,#1385,.T.);
#1385 = LINE('',#1386,#1387);
#1386 = CARTESIAN_POINT('',(22.4,-47.11289374096,14.215937357002));
#1387 = VECTOR('',#1388,1.);
#1388 = DIRECTION('',(1.,-9.436895709314E-16,-1.21E-15));
#1389 = ORIENTED_EDGE('',*,*,#1337,.T.);
#1390 = ORIENTED_EDGE('',*,*,#653,.T.);
#1391 = PLANE('',#1392);
#1392 = AXIS2_PLACEMENT_3D('',#1393,#1394,#1395);
#1393 = CARTESIAN_POINT('',(22.4,-47.11289374096,14.215937357002));
#1394 = DIRECTION('',(8.2E-16,0.5,-0.866025403784));
#1395 = DIRECTION('',(2.44E-15,-0.866025403784,-0.5));
#1396 = ADVANCED_FACE('',(#1397),#1403,.F.);
#1397 = FACE_BOUND('',#1398,.F.);
#1398 = EDGE_LOOP('',(#1399,#1400,#1401,#1402));
#1399 = ORIENTED_EDGE('',*,*,#684,.T.);
#1400 = ORIENTED_EDGE('',*,*,#1287,.T.);
#1401 = ORIENTED_EDGE('',*,*,#1067,.F.);
#1402 = ORIENTED_EDGE('',*,*,#1175,.F.);
#1403 = PLANE('',#1404);
#1404 = AXIS2_PLACEMENT_3D('',#1405,#1406,#1407);
#1405 = CARTESIAN_POINT('',(59.,-23.03938981032,1.528501421022));
#1406 = DIRECTION('',(-1.19E-15,0.104528463268,0.994521895368));
#1407 = DIRECTION('',(8.5E-16,-0.994521895368,0.104528463268));
#1408 = ADVANCED_FACE('',(#1409,#1415,#1426),#1437,.F.);
#1409 = FACE_BOUND('',#1410,.F.);
#1410 = EDGE_LOOP('',(#1411,#1412,#1413,#1414));
#1411 = ORIENTED_EDGE('',*,*,#1254,.F.);
#1412 = ORIENTED_EDGE('',*,*,#1271,.F.);
#1413 = ORIENTED_EDGE('',*,*,#714,.F.);
#1414 = ORIENTED_EDGE('',*,*,#1230,.F.);
#1415 = FACE_BOUND('',#1416,.F.);
#1416 = EDGE_LOOP('',(#1417));
#1417 = ORIENTED_EDGE('',*,*,#1418,.T.);
#1418 = EDGE_CURVE('',#1419,#1419,#1421,.T.);
#1419 = VERTEX_POINT('',#1420);
#1420 = CARTESIAN_POINT('',(42.,-15.37541653118,4.658118763661));
#1421 = CIRCLE('',#1422,2.85);
#1422 = AXIS2_PLACEMENT_3D('',#1423,#1424,#1425);
#1423 = CARTESIAN_POINT('',(42.,-18.12830513611,5.395753042203));
#1424 = DIRECTION('',(-1.142166750541E-15,-0.258819045103,
    -0.965925826289));
#1425 = DIRECTION('',(-1.748601263785E-15,0.965925826289,-0.258819045103
    ));
#1426 = FACE_BOUND('',#1427,.F.);
#1427 = EDGE_LOOP('',(#1428));
#1428 = ORIENTED_EDGE('',*,*,#1429,.T.);
#1429 = EDGE_CURVE('',#1430,#1430,#1432,.T.);
#1430 = VERTEX_POINT('',#1431);
#1431 = CARTESIAN_POINT('',(28.,-15.37541653118,4.658118763661));
#1432 = CIRCLE('',#1433,2.85);
#1433 = AXIS2_PLACEMENT_3D('',#1434,#1435,#1436);
#1434 = CARTESIAN_POINT('',(28.,-18.12830513611,5.395753042203));
#1435 = DIRECTION('',(-1.142166750541E-15,-0.258819045103,
    -0.965925826289));
#1436 = DIRECTION('',(-1.748601263785E-15,0.965925826289,-0.258819045103
    ));
#1437 = PLANE('',#1438);
#1438 = AXIS2_PLACEMENT_3D('',#1439,#1440,#1441);
#1439 = CARTESIAN_POINT('',(35.,-14.42639440685,4.403829051848));
#1440 = DIRECTION('',(-3.23E-15,0.258819045103,0.965925826289));
#1441 = DIRECTION('',(-1.78E-15,0.965925826289,-0.258819045103));
#1442 = ADVANCED_FACE('',(#1443),#1453,.F.);
#1443 = FACE_BOUND('',#1444,.F.);
#1444 = EDGE_LOOP('',(#1445,#1446,#1447,#1452));
#1445 = ORIENTED_EDGE('',*,*,#806,.T.);
#1446 = ORIENTED_EDGE('',*,*,#875,.T.);
#1447 = ORIENTED_EDGE('',*,*,#1448,.F.);
#1448 = EDGE_CURVE('',#738,#876,#1449,.T.);
#1449 = B_SPLINE_CURVE_WITH_KNOTS('',1,(#1450,#1451),.UNSPECIFIED.,.F.,
  .F.,(2,2),(0.,12.839811335531),.PIECEWISE_BEZIER_KNOTS.);
#1450 = CARTESIAN_POINT('',(8.,-70.,21.820971454297));
#1451 = CARTESIAN_POINT('',(7.999999999999,-69.01519224698,
    22.64732327663));
#1452 = ORIENTED_EDGE('',*,*,#745,.F.);
#1453 = B_SPLINE_SURFACE_WITH_KNOTS('',1,7,(
    (#1454,#1455,#1456,#1457,#1458,#1459,#1460,#1461,#1462,#1463,#1464
      ,#1465,#1466,#1467)
    ,(#1468,#1469,#1470,#1471,#1472,#1473,#1474,#1475,#1476,#1477,#1478
      ,#1479,#1480,#1481
    )),.UNSPECIFIED.,.F.,.F.,.F.,(2,2),(8,6,8),(0.,12.839811335531),(
    201.48020016752,201.65520932129,214.32001150305),.UNSPECIFIED.);
#1454 = CARTESIAN_POINT('',(3.869E-14,-62.,20.394928996743));
#1455 = CARTESIAN_POINT('',(3.869E-14,-62.02480688252,20.399303119439));
#1456 = CARTESIAN_POINT('',(8.975175563297E-05,-62.04961399884,
    20.403677290978));
#1457 = CARTESIAN_POINT('',(2.691954031172E-04,-62.07441969213,
    20.408051166746));
#1458 = CARTESIAN_POINT('',(5.3853172529E-04,-62.09922952592,
    20.412425947792));
#1459 = CARTESIAN_POINT('',(8.973754242696E-04,-62.12403139652,
    20.41679926511));
#1460 = CARTESIAN_POINT('',(1.346329909356E-03,-62.14884495055,
    20.421175214074));
#1461 = CARTESIAN_POINT('',(4.084964288962E-02,-63.96836914774,
    20.742077365576));
#1462 = CARTESIAN_POINT('',(0.549682419003,-65.7442167116,
    21.056915978053));
#1463 = CARTESIAN_POINT('',(1.515274744984,-67.34919148645,
    21.34389740817));
#1464 = CARTESIAN_POINT('',(2.86772049242,-68.65232521607,
    21.577874544132));
#1465 = CARTESIAN_POINT('',(4.488738668655,-69.55029869851,
    21.739919341152));
#1466 = CARTESIAN_POINT('',(6.244379916925,-70.,21.820971454297));
#1467 = CARTESIAN_POINT('',(8.,-70.,21.820971454297));
#1468 = CARTESIAN_POINT('',(1.,-61.82635182233,21.379736749755));
#1469 = CARTESIAN_POINT('',(1.,-61.85115870485,21.384110872451));
#1470 = CARTESIAN_POINT('',(0.99999981683,-61.87598697595,21.38848876653
    ));
#1471 = CARTESIAN_POINT('',(1.000001496343,-61.90067750125,
    21.392842372308));
#1472 = CARTESIAN_POINT('',(0.999994340504,-61.92581806865,
    21.397275332651));
#1473 = CARTESIAN_POINT('',(1.000014471984,-61.94985145047,
    21.401513066303));
#1474 = CARTESIAN_POINT('',(0.999969906119,-61.97686168984,
    21.40627570026));
#1475 = CARTESIAN_POINT('',(1.002114084727,-63.57922490811,
    21.688815568537));
#1476 = CARTESIAN_POINT('',(1.412403037127,-65.15456755316,
    21.96659098072));
#1477 = CARTESIAN_POINT('',(2.2391709908,-66.60150539386,22.221725161443
    ));
#1478 = CARTESIAN_POINT('',(3.425213788084,-67.78443547866,
    22.430307651685));
#1479 = CARTESIAN_POINT('',(4.865310850031,-68.60479936089,
    22.574959938121));
#1480 = CARTESIAN_POINT('',(6.432672571873,-69.01519224699,
    22.64732327663));
#1481 = CARTESIAN_POINT('',(7.999999999999,-69.01519224698,
    22.64732327663));
#1482 = ADVANCED_FACE('',(#1483),#1494,.T.);
#1483 = FACE_BOUND('',#1484,.T.);
#1484 = EDGE_LOOP('',(#1485,#1491,#1492,#1493));
#1485 = ORIENTED_EDGE('',*,*,#1486,.F.);
#1486 = EDGE_CURVE('',#958,#852,#1487,.T.);
#1487 = LINE('',#1488,#1489);
#1488 = CARTESIAN_POINT('',(69.5,-61.91317591116,20.887332873249));
#1489 = VECTOR('',#1490,1.);
#1490 = DIRECTION('',(-0.707106781187,0.122787803969,0.69636424032));
#1491 = ORIENTED_EDGE('',*,*,#957,.T.);
#1492 = ORIENTED_EDGE('',*,*,#988,.T.);
#1493 = ORIENTED_EDGE('',*,*,#851,.F.);
#1494 = PLANE('',#1495);
#1495 = AXIS2_PLACEMENT_3D('',#1496,#1497,#1498);
#1496 = CARTESIAN_POINT('',(69.5,-62.08682408883,20.917951732123));
#1497 = DIRECTION('',(0.707106781187,0.122787803969,0.69636424032));
#1498 = DIRECTION('',(8.187894806611E-16,0.984807753012,-0.173648177667)
  );
#1499 = ADVANCED_FACE('',(#1500),#1511,.F.);
#1500 = FACE_BOUND('',#1501,.F.);
#1501 = EDGE_LOOP('',(#1502,#1508,#1509,#1510));
#1502 = ORIENTED_EDGE('',*,*,#1503,.T.);
#1503 = EDGE_CURVE('',#1083,#895,#1504,.T.);
#1504 = LINE('',#1505,#1506);
#1505 = CARTESIAN_POINT('',(62.,-69.50759612349,22.234147365463));
#1506 = VECTOR('',#1507,1.);
#1507 = DIRECTION('',(-3.02E-15,0.766044443119,0.642787609687));
#1508 = ORIENTED_EDGE('',*,*,#902,.T.);
#1509 = ORIENTED_EDGE('',*,*,#1486,.F.);
#1510 = ORIENTED_EDGE('',*,*,#1195,.F.);
#1511 = B_SPLINE_SURFACE_WITH_KNOTS('',1,7,(
    (#1512,#1513,#1514,#1515,#1516,#1517,#1518,#1519,#1520,#1521,#1522
      ,#1523,#1524,#1525)
    ,(#1526,#1527,#1528,#1529,#1530,#1531,#1532,#1533,#1534,#1535,#1536
      ,#1537,#1538,#1539
    )),.UNSPECIFIED.,.F.,.F.,.F.,(2,2),(8,6,8),(0.,12.839811335566),(
    268.32001150309,280.98481368488,281.15982283865),.UNSPECIFIED.);
#1512 = CARTESIAN_POINT('',(62.,-70.,21.820971454297));
#1513 = CARTESIAN_POINT('',(63.755620083076,-70.,21.820971454297));
#1514 = CARTESIAN_POINT('',(65.511261331344,-69.55029869851,
    21.739919341152));
#1515 = CARTESIAN_POINT('',(67.132279507581,-68.65232521607,
    21.577874544132));
#1516 = CARTESIAN_POINT('',(68.484725255016,-67.34919148645,
    21.343897408171));
#1517 = CARTESIAN_POINT('',(69.450317580997,-65.7442167116,
    21.056915978053));
#1518 = CARTESIAN_POINT('',(69.959150357111,-63.96836914775,
    20.742077365575));
#1519 = CARTESIAN_POINT('',(69.998653670091,-62.14884495055,
    20.421175214074));
#1520 = CARTESIAN_POINT('',(69.999102624575,-62.12403139652,
    20.41679926511));
#1521 = CARTESIAN_POINT('',(69.999461468277,-62.09922952592,
    20.412425947793));
#1522 = CARTESIAN_POINT('',(69.999730804596,-62.07441969213,
    20.408051166746));
#1523 = CARTESIAN_POINT('',(69.999910248246,-62.04961399885,
    20.403677290978));
#1524 = CARTESIAN_POINT('',(70.,-62.02480688252,20.399303119439));
#1525 = CARTESIAN_POINT('',(70.,-62.,20.394928996743));
#1526 = CARTESIAN_POINT('',(62.000000000001,-69.01519224698,
    22.64732327663));
#1527 = CARTESIAN_POINT('',(63.567327428133,-69.01519224698,
    22.64732327663));
#1528 = CARTESIAN_POINT('',(65.134689149957,-68.6047993609,
    22.574959938122));
#1529 = CARTESIAN_POINT('',(66.57478621193,-67.78443547866,
    22.430307651684));
#1530 = CARTESIAN_POINT('',(67.760829009193,-66.60150539387,
    22.221725161444));
#1531 = CARTESIAN_POINT('',(68.587596962875,-65.15456755316,
    21.966590980719));
#1532 = CARTESIAN_POINT('',(68.997885915272,-63.57922490812,
    21.688815568537));
#1533 = CARTESIAN_POINT('',(69.000030093882,-61.97686168984,
    21.40627570026));
#1534 = CARTESIAN_POINT('',(68.999985528016,-61.94985145047,
    21.401513066303));
#1535 = CARTESIAN_POINT('',(69.000005659498,-61.92581806865,
    21.397275332652));
#1536 = CARTESIAN_POINT('',(68.999998503656,-61.90067750125,
    21.392842372308));
#1537 = CARTESIAN_POINT('',(69.000000183171,-61.87598697595,
    21.38848876653));
#1538 = CARTESIAN_POINT('',(69.,-61.85115870485,21.384110872451));
#1539 = CARTESIAN_POINT('',(69.,-61.82635182233,21.379736749755));
#1540 = ADVANCED_FACE('',(#1541),#1547,.T.);
#1541 = FACE_BOUND('',#1542,.T.);
#1542 = EDGE_LOOP('',(#1543,#1544,#1545,#1546));
#1543 = ORIENTED_EDGE('',*,*,#1448,.F.);
#1544 = ORIENTED_EDGE('',*,*,#1090,.T.);
#1545 = ORIENTED_EDGE('',*,*,#1503,.T.);
#1546 = ORIENTED_EDGE('',*,*,#894,.F.);
#1547 = PLANE('',#1548);
#1548 = AXIS2_PLACEMENT_3D('',#1549,#1550,#1551);
#1549 = CARTESIAN_POINT('',(8.,-69.50759612349,22.234147365463));
#1550 = DIRECTION('',(-3.7E-16,-0.642787609687,0.766044443119));
#1551 = DIRECTION('',(1.,-1.281443879296E-15,-5.922583894389E-16));
#1552 = ADVANCED_FACE('',(#1553),#1559,.F.);
#1553 = FACE_BOUND('',#1554,.F.);
#1554 = EDGE_LOOP('',(#1555,#1556,#1557,#1558));
#1555 = ORIENTED_EDGE('',*,*,#1312,.T.);
#1556 = ORIENTED_EDGE('',*,*,#1360,.T.);
#1557 = ORIENTED_EDGE('',*,*,#1384,.T.);
#1558 = ORIENTED_EDGE('',*,*,#1345,.T.);
#1559 = PLANE('',#1560);
#1560 = AXIS2_PLACEMENT_3D('',#1561,#1562,#1563);
#1561 = CARTESIAN_POINT('',(35.,-40.21923946988,13.000400113333));
#1562 = DIRECTION('',(-2.68E-15,0.173648177667,0.984807753012));
#1563 = DIRECTION('',(-1.78E-15,0.984807753012,-0.173648177667));
#1564 = ADVANCED_FACE('',(#1565),#1584,.T.);
#1565 = FACE_BOUND('',#1566,.F.);
#1566 = EDGE_LOOP('',(#1567,#1575,#1582,#1583));
#1567 = ORIENTED_EDGE('',*,*,#1568,.T.);
#1568 = EDGE_CURVE('',#1419,#1569,#1571,.T.);
#1569 = VERTEX_POINT('',#1570);
#1570 = CARTESIAN_POINT('',(42.,-15.40129843569,4.561526181032));
#1571 = LINE('',#1572,#1573);
#1572 = CARTESIAN_POINT('',(42.,-15.37541653118,4.658118763661));
#1573 = VECTOR('',#1574,1.);
#1574 = DIRECTION('',(3.42E-15,-0.258819045103,-0.965925826289));
#1575 = ORIENTED_EDGE('',*,*,#1576,.T.);
#1576 = EDGE_CURVE('',#1569,#1569,#1577,.T.);
#1577 = CIRCLE('',#1578,2.85);
#1578 = AXIS2_PLACEMENT_3D('',#1579,#1580,#1581);
#1579 = CARTESIAN_POINT('',(42.,-18.15418704062,5.299160459574));
#1580 = DIRECTION('',(-1.18E-15,-0.258819045103,-0.965925826289));
#1581 = DIRECTION('',(-1.78E-15,0.965925826289,-0.258819045103));
#1582 = ORIENTED_EDGE('',*,*,#1568,.F.);
#1583 = ORIENTED_EDGE('',*,*,#1418,.F.);
#1584 = CYLINDRICAL_SURFACE('',#1585,2.85);
#1585 = AXIS2_PLACEMENT_3D('',#1586,#1587,#1588);
#1586 = CARTESIAN_POINT('',(42.,-18.12830513611,5.395753042203));
#1587 = DIRECTION('',(-3.14E-15,0.258819045103,0.965925826289));
#1588 = DIRECTION('',(-1.5E-15,0.965925826289,-0.258819045103));
#1589 = ADVANCED_FACE('',(#1590),#1609,.T.);
#1590 = FACE_BOUND('',#1591,.F.);
#1591 = EDGE_LOOP('',(#1592,#1600,#1607,#1608));
#1592 = ORIENTED_EDGE('',*,*,#1593,.T.);
#1593 = EDGE_CURVE('',#1430,#1594,#1596,.T.);
#1594 = VERTEX_POINT('',#1595);
#1595 = CARTESIAN_POINT('',(28.,-15.40129843569,4.561526181032));
#1596 = LINE('',#1597,#1598);
#1597 = CARTESIAN_POINT('',(28.,-15.37541653118,4.658118763661));
#1598 = VECTOR('',#1599,1.);
#1599 = DIRECTION('',(3.42E-15,-0.258819045103,-0.965925826289));
#1600 = ORIENTED_EDGE('',*,*,#1601,.T.);
#1601 = EDGE_CURVE('',#1594,#1594,#1602,.T.);
#1602 = CIRCLE('',#1603,2.85);
#1603 = AXIS2_PLACEMENT_3D('',#1604,#1605,#1606);
#1604 = CARTESIAN_POINT('',(28.,-18.15418704062,5.299160459574));
#1605 = DIRECTION('',(-1.18E-15,-0.258819045103,-0.965925826289));
#1606 = DIRECTION('',(-5.3E-16,0.965925826289,-0.258819045103));
#1607 = ORIENTED_EDGE('',*,*,#1593,.F.);
#1608 = ORIENTED_EDGE('',*,*,#1429,.F.);
#1609 = CYLINDRICAL_SURFACE('',#1610,2.85);
#1610 = AXIS2_PLACEMENT_3D('',#1611,#1612,#1613);
#1611 = CARTESIAN_POINT('',(28.,-18.12830513611,5.395753042203));
#1612 = DIRECTION('',(-3.14E-15,0.258819045103,0.965925826289));
#1613 = DIRECTION('',(-1.5E-15,0.965925826289,-0.258819045103));
#1614 = ADVANCED_FACE('',(#1615),#1634,.T.);
#1615 = FACE_BOUND('',#1616,.T.);
#1616 = EDGE_LOOP('',(#1617,#1625,#1626,#1627));
#1617 = ORIENTED_EDGE('',*,*,#1618,.F.);
#1618 = EDGE_CURVE('',#1569,#1619,#1621,.T.);
#1619 = VERTEX_POINT('',#1620);
#1620 = CARTESIAN_POINT('',(42.,-16.62604330709,3.854419399845));
#1621 = LINE('',#1622,#1623);
#1622 = CARTESIAN_POINT('',(42.,-15.40129843569,4.561526181032));
#1623 = VECTOR('',#1624,1.);
#1624 = DIRECTION('',(3.5E-15,-0.866025403784,-0.5));
#1625 = ORIENTED_EDGE('',*,*,#1576,.T.);
#1626 = ORIENTED_EDGE('',*,*,#1618,.T.);
#1627 = ORIENTED_EDGE('',*,*,#1628,.F.);
#1628 = EDGE_CURVE('',#1619,#1619,#1629,.T.);
#1629 = CIRCLE('',#1630,1.85);
#1630 = AXIS2_PLACEMENT_3D('',#1631,#1632,#1633);
#1631 = CARTESIAN_POINT('',(42.,-18.41300608572,4.333234633285));
#1632 = DIRECTION('',(-1.18E-15,-0.258819045103,-0.965925826289));
#1633 = DIRECTION('',(-1.78E-15,0.965925826289,-0.258819045103));
#1634 = CONICAL_SURFACE('',#1635,2.85,0.785398163397);
#1635 = AXIS2_PLACEMENT_3D('',#1636,#1637,#1638);
#1636 = CARTESIAN_POINT('',(42.,-18.15418704062,5.299160459574));
#1637 = DIRECTION('',(-3.17E-15,0.258819045103,0.965925826289));
#1638 = DIRECTION('',(-1.78E-15,0.965925826289,-0.258819045103));
#1639 = ADVANCED_FACE('',(#1640),#1659,.T.);
#1640 = FACE_BOUND('',#1641,.T.);
#1641 = EDGE_LOOP('',(#1642,#1650,#1651,#1652));
#1642 = ORIENTED_EDGE('',*,*,#1643,.F.);
#1643 = EDGE_CURVE('',#1594,#1644,#1646,.T.);
#1644 = VERTEX_POINT('',#1645);
#1645 = CARTESIAN_POINT('',(28.,-16.62604330709,3.854419399845));
#1646 = LINE('',#1647,#1648);
#1647 = CARTESIAN_POINT('',(28.,-15.40129843569,4.561526181032));
#1648 = VECTOR('',#1649,1.);
#1649 = DIRECTION('',(2.62E-15,-0.866025403784,-0.5));
#1650 = ORIENTED_EDGE('',*,*,#1601,.T.);
#1651 = ORIENTED_EDGE('',*,*,#1643,.T.);
#1652 = ORIENTED_EDGE('',*,*,#1653,.F.);
#1653 = EDGE_CURVE('',#1644,#1644,#1654,.T.);
#1654 = CIRCLE('',#1655,1.85);
#1655 = AXIS2_PLACEMENT_3D('',#1656,#1657,#1658);
#1656 = CARTESIAN_POINT('',(28.,-18.41300608572,4.333234633285));
#1657 = DIRECTION('',(-1.18E-15,-0.258819045103,-0.965925826289));
#1658 = DIRECTION('',(-5.3E-16,0.965925826289,-0.258819045103));
#1659 = CONICAL_SURFACE('',#1660,2.85,0.785398163397);
#1660 = AXIS2_PLACEMENT_3D('',#1661,#1662,#1663);
#1661 = CARTESIAN_POINT('',(28.,-18.15418704062,5.299160459574));
#1662 = DIRECTION('',(-3.17E-15,0.258819045103,0.965925826289));
#1663 = DIRECTION('',(-5.3E-16,0.965925826289,-0.258819045103));
#1664 = ADVANCED_FACE('',(#1665,#1668),#1679,.F.);
#1665 = FACE_BOUND('',#1666,.F.);
#1666 = EDGE_LOOP('',(#1667));
#1667 = ORIENTED_EDGE('',*,*,#1628,.F.);
#1668 = FACE_BOUND('',#1669,.F.);
#1669 = EDGE_LOOP('',(#1670));
#1670 = ORIENTED_EDGE('',*,*,#1671,.T.);
#1671 = EDGE_CURVE('',#1672,#1672,#1674,.T.);
#1672 = VERTEX_POINT('',#1673);
#1673 = CARTESIAN_POINT('',(42.,-17.0124136376,3.957947017886));
#1674 = CIRCLE('',#1675,1.45);
#1675 = AXIS2_PLACEMENT_3D('',#1676,#1677,#1678);
#1676 = CARTESIAN_POINT('',(42.,-18.41300608572,4.333234633285));
#1677 = DIRECTION('',(-1.21E-15,-0.258819045103,-0.965925826289));
#1678 = DIRECTION('',(-1.5E-15,0.965925826289,-0.258819045103));
#1679 = PLANE('',#1680);
#1680 = AXIS2_PLACEMENT_3D('',#1681,#1682,#1683);
#1681 = CARTESIAN_POINT('',(35.,-18.41300608572,4.333234633285));
#1682 = DIRECTION('',(-3.23E-15,0.258819045103,0.965925826289));
#1683 = DIRECTION('',(-1.78E-15,0.965925826289,-0.258819045103));
#1684 = ADVANCED_FACE('',(#1685,#1688),#1699,.F.);
#1685 = FACE_BOUND('',#1686,.F.);
#1686 = EDGE_LOOP('',(#1687));
#1687 = ORIENTED_EDGE('',*,*,#1653,.F.);
#1688 = FACE_BOUND('',#1689,.F.);
#1689 = EDGE_LOOP('',(#1690));
#1690 = ORIENTED_EDGE('',*,*,#1691,.T.);
#1691 = EDGE_CURVE('',#1692,#1692,#1694,.T.);
#1692 = VERTEX_POINT('',#1693);
#1693 = CARTESIAN_POINT('',(28.,-17.0124136376,3.957947017886));
#1694 = CIRCLE('',#1695,1.45);
#1695 = AXIS2_PLACEMENT_3D('',#1696,#1697,#1698);
#1696 = CARTESIAN_POINT('',(28.,-18.41300608572,4.333234633285));
#1697 = DIRECTION('',(-1.21E-15,-0.258819045103,-0.965925826289));
#1698 = DIRECTION('',(-1.5E-15,0.965925826289,-0.258819045103));
#1699 = PLANE('',#1700);
#1700 = AXIS2_PLACEMENT_3D('',#1701,#1702,#1703);
#1701 = CARTESIAN_POINT('',(35.,-18.41300608572,4.333234633285));
#1702 = DIRECTION('',(-3.23E-15,0.258819045103,0.965925826289));
#1703 = DIRECTION('',(-1.78E-15,0.965925826289,-0.258819045103));
#1704 = ADVANCED_FACE('',(#1705),#1723,.F.);
#1705 = FACE_BOUND('',#1706,.T.);
#1706 = EDGE_LOOP('',(#1707,#1716,#1721,#1722));
#1707 = ORIENTED_EDGE('',*,*,#1708,.F.);
#1708 = EDGE_CURVE('',#1709,#1709,#1711,.T.);
#1709 = VERTEX_POINT('',#1710);
#1710 = CARTESIAN_POINT('',(42.,-15.17479841737,10.816020384539));
#1711 = CIRCLE('',#1712,1.45);
#1712 = AXIS2_PLACEMENT_3D('',#1713,#1714,#1715);
#1713 = CARTESIAN_POINT('',(42.,-16.57539086549,11.191307999937));
#1714 = DIRECTION('',(-1.1E-15,-0.258819045103,-0.965925826289));
#1715 = DIRECTION('',(-1.41E-15,0.965925826289,-0.258819045103));
#1716 = ORIENTED_EDGE('',*,*,#1717,.F.);
#1717 = EDGE_CURVE('',#1672,#1709,#1718,.T.);
#1718 = B_SPLINE_CURVE_WITH_KNOTS('',1,(#1719,#1720),.UNSPECIFIED.,.F.,
  .F.,(2,2),(-1.1,6.),.PIECEWISE_BEZIER_KNOTS.);
#1719 = CARTESIAN_POINT('',(42.,-17.0124136376,3.957947017886));
#1720 = CARTESIAN_POINT('',(42.,-15.17479841737,10.816020384539));
#1721 = ORIENTED_EDGE('',*,*,#1671,.T.);
#1722 = ORIENTED_EDGE('',*,*,#1717,.T.);
#1723 = CYLINDRICAL_SURFACE('',#1724,1.45);
#1724 = AXIS2_PLACEMENT_3D('',#1725,#1726,#1727);
#1725 = CARTESIAN_POINT('',(42.,-18.12830513611,5.395753042203));
#1726 = DIRECTION('',(-3.14E-15,0.258819045103,0.965925826289));
#1727 = DIRECTION('',(-1.5E-15,0.965925826289,-0.258819045103));
#1728 = ADVANCED_FACE('',(#1729),#1747,.F.);
#1729 = FACE_BOUND('',#1730,.T.);
#1730 = EDGE_LOOP('',(#1731,#1740,#1745,#1746));
#1731 = ORIENTED_EDGE('',*,*,#1732,.F.);
#1732 = EDGE_CURVE('',#1733,#1733,#1735,.T.);
#1733 = VERTEX_POINT('',#1734);
#1734 = CARTESIAN_POINT('',(28.,-15.17479841737,10.816020384539));
#1735 = CIRCLE('',#1736,1.45);
#1736 = AXIS2_PLACEMENT_3D('',#1737,#1738,#1739);
#1737 = CARTESIAN_POINT('',(28.,-16.57539086549,11.191307999937));
#1738 = DIRECTION('',(-1.1E-15,-0.258819045103,-0.965925826289));
#1739 = DIRECTION('',(-1.41E-15,0.965925826289,-0.258819045103));
#1740 = ORIENTED_EDGE('',*,*,#1741,.F.);
#1741 = EDGE_CURVE('',#1692,#1733,#1742,.T.);
#1742 = B_SPLINE_CURVE_WITH_KNOTS('',1,(#1743,#1744),.UNSPECIFIED.,.F.,
  .F.,(2,2),(-1.1,6.),.PIECEWISE_BEZIER_KNOTS.);
#1743 = CARTESIAN_POINT('',(28.,-17.0124136376,3.957947017886));
#1744 = CARTESIAN_POINT('',(28.,-15.17479841737,10.816020384539));
#1745 = ORIENTED_EDGE('',*,*,#1691,.T.);
#1746 = ORIENTED_EDGE('',*,*,#1741,.T.);
#1747 = CYLINDRICAL_SURFACE('',#1748,1.45);
#1748 = AXIS2_PLACEMENT_3D('',#1749,#1750,#1751);
#1749 = CARTESIAN_POINT('',(28.,-18.12830513611,5.395753042203));
#1750 = DIRECTION('',(-3.14E-15,0.258819045103,0.965925826289));
#1751 = DIRECTION('',(-1.5E-15,0.965925826289,-0.258819045103));
#1752 = ADVANCED_FACE('',(#1753),#1756,.F.);
#1753 = FACE_BOUND('',#1754,.T.);
#1754 = EDGE_LOOP('',(#1755));
#1755 = ORIENTED_EDGE('',*,*,#1708,.T.);
#1756 = PLANE('',#1757);
#1757 = AXIS2_PLACEMENT_3D('',#1758,#1759,#1760);
#1758 = CARTESIAN_POINT('',(35.,-16.57539086549,11.191307999937));
#1759 = DIRECTION('',(-3.23E-15,0.258819045103,0.965925826289));
#1760 = DIRECTION('',(-1.78E-15,0.965925826289,-0.258819045103));
#1761 = ADVANCED_FACE('',(#1762),#1765,.F.);
#1762 = FACE_BOUND('',#1763,.T.);
#1763 = EDGE_LOOP('',(#1764));
#1764 = ORIENTED_EDGE('',*,*,#1732,.T.);
#1765 = PLANE('',#1766);
#1766 = AXIS2_PLACEMENT_3D('',#1767,#1768,#1769);
#1767 = CARTESIAN_POINT('',(35.,-16.57539086549,11.191307999937));
#1768 = DIRECTION('',(-3.23E-15,0.258819045103,0.965925826289));
#1769 = DIRECTION('',(-1.78E-15,0.965925826289,-0.258819045103));
#1770 = ( GEOMETRIC_REPRESENTATION_CONTEXT(3) 
GLOBAL_UNCERTAINTY_ASSIGNED_CONTEXT((#1774)) 
GLOBAL_UNIT_ASSIGNED_CONTEXT((#1771,#1772,#1773)) REPRESENTATION_CONTEXT
('Context #1','3D Context with UNIT and UNCERTAINTY') );
#1771 = ( LENGTH_UNIT() NAMED_UNIT(*) SI_UNIT(.MILLI.,.METRE.) );
#1772 = ( NAMED_UNIT(*) PLANE_ANGLE_UNIT() SI_UNIT($,.RADIAN.) );
#1773 = ( NAMED_UNIT(*) SI_UNIT($,.STERADIAN.) SOLID_ANGLE_UNIT() );
#1774 = UNCERTAINTY_MEASURE_WITH_UNIT(LENGTH_MEASURE(2.E-05),#1771,
  'distance_accuracy_value','confusion accuracy');
#1775 = PRODUCT_RELATED_PRODUCT_CATEGORY('part',$,(#7));
#1776 = MECHANICAL_DESIGN_GEOMETRIC_PRESENTATION_REPRESENTATION('',(
    #1777),#1770);
#1777 = STYLED_ITEM('color',(#1778),#15);
#1778 = PRESENTATION_STYLE_ASSIGNMENT((#1779,#1785));
#1779 = SURFACE_STYLE_USAGE(.BOTH.,#1780);
#1780 = SURFACE_SIDE_STYLE('',(#1781));
#1781 = SURFACE_STYLE_FILL_AREA(#1782);
#1782 = FILL_AREA_STYLE('',(#1783));
#1783 = FILL_AREA_STYLE_COLOUR('',#1784);
#1784 = COLOUR_RGB('',0.678431390124,0.709803936702,0.741176476869);
#1785 = CURVE_STYLE('',#1786,POSITIVE_LENGTH_MEASURE(0.1),#1787);
#1786 = DRAUGHTING_PRE_DEFINED_CURVE_FONT('continuous');
#1787 = COLOUR_RGB('',9.803921802644E-02,9.803921802644E-02,
  9.803921802644E-02);
ENDSEC;
END-ISO-10303-21;
