ISO-10303-21;
HEADER;
FILE_DESCRIPTION(('FreeCAD Model'),'2;1');
FILE_NAME('Open CASCADE Shape Model','2026-09-13T19:06:22',(''),(''),
  'Open CASCADE STEP processor 7.8','FreeCAD','Unknown');
FILE_SCHEMA(('AUTOMOTIVE_DESIGN { 1 0 10303 214 1 1 1 1 }'));
ENDSEC;
DATA;
#1 = APPLICATION_PROTOCOL_DEFINITION('international standard',
  'automotive_design',2000,#2);
#2 = APPLICATION_CONTEXT(
  'core data for automotive mechanical design processes');
#3 = SHAPE_DEFINITION_REPRESENTATION(#4,#10);
#4 = PRODUCT_DEFINITION_SHAPE('','',#5);
#5 = PRODUCT_DEFINITION('design','',#6,#9);
#6 = PRODUCT_DEFINITION_FORMATION('','',#7);
#7 = PRODUCT('Front','Front','',(#8));
#8 = PRODUCT_CONTEXT('',#2,'mechanical');
#9 = PRODUCT_DEFINITION_CONTEXT('part definition',#2,'design');
#10 = ADVANCED_BREP_SHAPE_REPRESENTATION('',(#11,#15),#666);
#11 = AXIS2_PLACEMENT_3D('',#12,#13,#14);
#12 = CARTESIAN_POINT('',(0.,0.,0.));
#13 = DIRECTION('',(0.,0.,1.));
#14 = DIRECTION('',(1.,0.,-0.));
#15 = MANIFOLD_SOLID_BREP('',#16);
#16 = CLOSED_SHELL('',(#17,#57,#158,#182,#247,#272,#314,#338,#355,#379,
    #403,#420,#445,#470,#487,#499,#524,#563,#580,#592,#612,#632,#649));
#17 = ADVANCED_FACE('',(#18),#52,.F.);
#18 = FACE_BOUND('',#19,.F.);
#19 = EDGE_LOOP('',(#20,#30,#38,#46));
#20 = ORIENTED_EDGE('',*,*,#21,.T.);
#21 = EDGE_CURVE('',#22,#24,#26,.T.);
#22 = VERTEX_POINT('',#23);
#23 = CARTESIAN_POINT('',(-35.,0.,1.));
#24 = VERTEX_POINT('',#25);
#25 = CARTESIAN_POINT('',(-35.,0.,10.6));
#26 = LINE('',#27,#28);
#27 = CARTESIAN_POINT('',(-35.,0.,0.));
#28 = VECTOR('',#29,1.);
#29 = DIRECTION('',(0.,0.,1.));
#30 = ORIENTED_EDGE('',*,*,#31,.T.);
#31 = EDGE_CURVE('',#24,#32,#34,.T.);
#32 = VERTEX_POINT('',#33);
#33 = CARTESIAN_POINT('',(-35.,-2.,10.6));
#34 = LINE('',#35,#36);
#35 = CARTESIAN_POINT('',(-35.,0.,10.6));
#36 = VECTOR('',#37,1.);
#37 = DIRECTION('',(0.,-1.,0.));
#38 = ORIENTED_EDGE('',*,*,#39,.F.);
#39 = EDGE_CURVE('',#40,#32,#42,.T.);
#40 = VERTEX_POINT('',#41);
#41 = CARTESIAN_POINT('',(-35.,-2.,1.));
#42 = LINE('',#43,#44);
#43 = CARTESIAN_POINT('',(-35.,-2.,0.));
#44 = VECTOR('',#45,1.);
#45 = DIRECTION('',(0.,0.,1.));
#46 = ORIENTED_EDGE('',*,*,#47,.F.);
#47 = EDGE_CURVE('',#22,#40,#48,.T.);
#48 = LINE('',#49,#50);
#49 = CARTESIAN_POINT('',(-35.,0.,1.));
#50 = VECTOR('',#51,1.);
#51 = DIRECTION('',(0.,-1.,0.));
#52 = PLANE('',#53);
#53 = AXIS2_PLACEMENT_3D('',#54,#55,#56);
#54 = CARTESIAN_POINT('',(-35.,0.,0.));
#55 = DIRECTION('',(1.,0.,0.));
#56 = DIRECTION('',(0.,-1.,0.));
#57 = ADVANCED_FACE('',(#58,#131,#142),#153,.T.);
#58 = FACE_BOUND('',#59,.T.);
#59 = EDGE_LOOP('',(#60,#70,#76,#77,#85,#93,#101,#109,#117,#125));
#60 = ORIENTED_EDGE('',*,*,#61,.F.);
#61 = EDGE_CURVE('',#62,#64,#66,.T.);
#62 = VERTEX_POINT('',#63);
#63 = CARTESIAN_POINT('',(-34.,0.,1.E-15));
#64 = VERTEX_POINT('',#65);
#65 = CARTESIAN_POINT('',(34.,0.,1.E-15));
#66 = LINE('',#67,#68);
#67 = CARTESIAN_POINT('',(-35.,0.,0.));
#68 = VECTOR('',#69,1.);
#69 = DIRECTION('',(1.,0.,0.));
#70 = ORIENTED_EDGE('',*,*,#71,.T.);
#71 = EDGE_CURVE('',#62,#22,#72,.T.);
#72 = LINE('',#73,#74);
#73 = CARTESIAN_POINT('',(-34.5,0.,0.5));
#74 = VECTOR('',#75,1.);
#75 = DIRECTION('',(-0.707106781187,0.,0.707106781187));
#76 = ORIENTED_EDGE('',*,*,#21,.T.);
#77 = ORIENTED_EDGE('',*,*,#78,.T.);
#78 = EDGE_CURVE('',#24,#79,#81,.T.);
#79 = VERTEX_POINT('',#80);
#80 = CARTESIAN_POINT('',(-12.6,0.,10.6));
#81 = LINE('',#82,#83);
#82 = CARTESIAN_POINT('',(-35.,0.,10.6));
#83 = VECTOR('',#84,1.);
#84 = DIRECTION('',(1.,0.,0.));
#85 = ORIENTED_EDGE('',*,*,#86,.T.);
#86 = EDGE_CURVE('',#79,#87,#89,.T.);
#87 = VERTEX_POINT('',#88);
#88 = CARTESIAN_POINT('',(-12.6,0.,5.));
#89 = LINE('',#90,#91);
#90 = CARTESIAN_POINT('',(-12.6,0.,10.6));
#91 = VECTOR('',#92,1.);
#92 = DIRECTION('',(-0.,-0.,-1.));
#93 = ORIENTED_EDGE('',*,*,#94,.F.);
#94 = EDGE_CURVE('',#95,#87,#97,.T.);
#95 = VERTEX_POINT('',#96);
#96 = CARTESIAN_POINT('',(12.6,0.,5.));
#97 = LINE('',#98,#99);
#98 = CARTESIAN_POINT('',(12.6,0.,5.));
#99 = VECTOR('',#100,1.);
#100 = DIRECTION('',(-1.,0.,0.));
#101 = ORIENTED_EDGE('',*,*,#102,.F.);
#102 = EDGE_CURVE('',#103,#95,#105,.T.);
#103 = VERTEX_POINT('',#104);
#104 = CARTESIAN_POINT('',(12.6,0.,10.6));
#105 = LINE('',#106,#107);
#106 = CARTESIAN_POINT('',(12.6,0.,10.6));
#107 = VECTOR('',#108,1.);
#108 = DIRECTION('',(-0.,-0.,-1.));
#109 = ORIENTED_EDGE('',*,*,#110,.T.);
#110 = EDGE_CURVE('',#103,#111,#113,.T.);
#111 = VERTEX_POINT('',#112);
#112 = CARTESIAN_POINT('',(35.,0.,10.6));
#113 = LINE('',#114,#115);
#114 = CARTESIAN_POINT('',(-35.,0.,10.6));
#115 = VECTOR('',#116,1.);
#116 = DIRECTION('',(1.,0.,0.));
#117 = ORIENTED_EDGE('',*,*,#118,.F.);
#118 = EDGE_CURVE('',#119,#111,#121,.T.);
#119 = VERTEX_POINT('',#120);
#120 = CARTESIAN_POINT('',(35.,0.,1.));
#121 = LINE('',#122,#123);
#122 = CARTESIAN_POINT('',(35.,0.,0.));
#123 = VECTOR('',#124,1.);
#124 = DIRECTION('',(0.,0.,1.));
#125 = ORIENTED_EDGE('',*,*,#126,.F.);
#126 = EDGE_CURVE('',#64,#119,#127,.T.);
#127 = LINE('',#128,#129);
#128 = CARTESIAN_POINT('',(17.,-2.2E-16,-17.));
#129 = VECTOR('',#130,1.);
#130 = DIRECTION('',(0.707106781187,0.,0.707106781187));
#131 = FACE_BOUND('',#132,.T.);
#132 = EDGE_LOOP('',(#133));
#133 = ORIENTED_EDGE('',*,*,#134,.T.);
#134 = EDGE_CURVE('',#135,#135,#137,.T.);
#135 = VERTEX_POINT('',#136);
#136 = CARTESIAN_POINT('',(-14.68,0.,5.3));
#137 = CIRCLE('',#138,1.32);
#138 = AXIS2_PLACEMENT_3D('',#139,#140,#141);
#139 = CARTESIAN_POINT('',(-16.,0.,5.3));
#140 = DIRECTION('',(0.,-1.,2.2E-16));
#141 = DIRECTION('',(1.,0.,0.));
#142 = FACE_BOUND('',#143,.T.);
#143 = EDGE_LOOP('',(#144));
#144 = ORIENTED_EDGE('',*,*,#145,.T.);
#145 = EDGE_CURVE('',#146,#146,#148,.T.);
#146 = VERTEX_POINT('',#147);
#147 = CARTESIAN_POINT('',(17.32,0.,5.3));
#148 = CIRCLE('',#149,1.32);
#149 = AXIS2_PLACEMENT_3D('',#150,#151,#152);
#150 = CARTESIAN_POINT('',(16.,0.,5.3));
#151 = DIRECTION('',(0.,-1.,2.2E-16));
#152 = DIRECTION('',(1.,0.,0.));
#153 = PLANE('',#154);
#154 = AXIS2_PLACEMENT_3D('',#155,#156,#157);
#155 = CARTESIAN_POINT('',(-35.,0.,0.));
#156 = DIRECTION('',(0.,1.,0.));
#157 = DIRECTION('',(1.,0.,0.));
#158 = ADVANCED_FACE('',(#159),#177,.T.);
#159 = FACE_BOUND('',#160,.T.);
#160 = EDGE_LOOP('',(#161,#162,#170,#176));
#161 = ORIENTED_EDGE('',*,*,#71,.F.);
#162 = ORIENTED_EDGE('',*,*,#163,.T.);
#163 = EDGE_CURVE('',#62,#164,#166,.T.);
#164 = VERTEX_POINT('',#165);
#165 = CARTESIAN_POINT('',(-34.,-2.,1.E-15));
#166 = LINE('',#167,#168);
#167 = CARTESIAN_POINT('',(-34.,0.,0.));
#168 = VECTOR('',#169,1.);
#169 = DIRECTION('',(0.,-1.,0.));
#170 = ORIENTED_EDGE('',*,*,#171,.T.);
#171 = EDGE_CURVE('',#164,#40,#172,.T.);
#172 = LINE('',#173,#174);
#173 = CARTESIAN_POINT('',(-34.5,-2.,0.5));
#174 = VECTOR('',#175,1.);
#175 = DIRECTION('',(-0.707106781187,0.,0.707106781187));
#176 = ORIENTED_EDGE('',*,*,#47,.F.);
#177 = PLANE('',#178);
#178 = AXIS2_PLACEMENT_3D('',#179,#180,#181);
#179 = CARTESIAN_POINT('',(-34.5,0.,0.5));
#180 = DIRECTION('',(-0.707106781187,0.,-0.707106781187));
#181 = DIRECTION('',(0.,-1.,0.));
#182 = ADVANCED_FACE('',(#183),#242,.T.);
#183 = FACE_BOUND('',#184,.T.);
#184 = EDGE_LOOP('',(#185,#186,#187,#196,#204,#213,#219,#220,#228,#236)
  );
#185 = ORIENTED_EDGE('',*,*,#78,.F.);
#186 = ORIENTED_EDGE('',*,*,#31,.T.);
#187 = ORIENTED_EDGE('',*,*,#188,.T.);
#188 = EDGE_CURVE('',#32,#189,#191,.T.);
#189 = VERTEX_POINT('',#190);
#190 = CARTESIAN_POINT('',(-27.,-10.,10.6));
#191 = CIRCLE('',#192,8.);
#192 = AXIS2_PLACEMENT_3D('',#193,#194,#195);
#193 = CARTESIAN_POINT('',(-27.,-2.,10.6));
#194 = DIRECTION('',(0.,0.,1.));
#195 = DIRECTION('',(1.,0.,0.));
#196 = ORIENTED_EDGE('',*,*,#197,.T.);
#197 = EDGE_CURVE('',#189,#198,#200,.T.);
#198 = VERTEX_POINT('',#199);
#199 = CARTESIAN_POINT('',(26.999999999997,-9.99999999999,10.6));
#200 = LINE('',#201,#202);
#201 = CARTESIAN_POINT('',(-27.,-10.,10.6));
#202 = VECTOR('',#203,1.);
#203 = DIRECTION('',(1.,0.,0.));
#204 = ORIENTED_EDGE('',*,*,#205,.T.);
#205 = EDGE_CURVE('',#198,#206,#208,.T.);
#206 = VERTEX_POINT('',#207);
#207 = CARTESIAN_POINT('',(34.999999999989,-1.999999999999,10.6));
#208 = CIRCLE('',#209,8.);
#209 = AXIS2_PLACEMENT_3D('',#210,#211,#212);
#210 = CARTESIAN_POINT('',(26.999999999979,-1.999999999979,10.6));
#211 = DIRECTION('',(0.,0.,1.));
#212 = DIRECTION('',(1.,0.,0.));
#213 = ORIENTED_EDGE('',*,*,#214,.F.);
#214 = EDGE_CURVE('',#111,#206,#215,.T.);
#215 = LINE('',#216,#217);
#216 = CARTESIAN_POINT('',(35.,0.,10.6));
#217 = VECTOR('',#218,1.);
#218 = DIRECTION('',(0.,-1.,0.));
#219 = ORIENTED_EDGE('',*,*,#110,.F.);
#220 = ORIENTED_EDGE('',*,*,#221,.F.);
#221 = EDGE_CURVE('',#222,#103,#224,.T.);
#222 = VERTEX_POINT('',#223);
#223 = CARTESIAN_POINT('',(12.6,-4.,10.6));
#224 = LINE('',#225,#226);
#225 = CARTESIAN_POINT('',(12.6,-4.,10.6));
#226 = VECTOR('',#227,1.);
#227 = DIRECTION('',(0.,1.,0.));
#228 = ORIENTED_EDGE('',*,*,#229,.F.);
#229 = EDGE_CURVE('',#230,#222,#232,.T.);
#230 = VERTEX_POINT('',#231);
#231 = CARTESIAN_POINT('',(-12.6,-4.,10.6));
#232 = LINE('',#233,#234);
#233 = CARTESIAN_POINT('',(-12.6,-4.,10.6));
#234 = VECTOR('',#235,1.);
#235 = DIRECTION('',(1.,0.,0.));
#236 = ORIENTED_EDGE('',*,*,#237,.F.);
#237 = EDGE_CURVE('',#79,#230,#238,.T.);
#238 = LINE('',#239,#240);
#239 = CARTESIAN_POINT('',(-12.6,0.,10.6));
#240 = VECTOR('',#241,1.);
#241 = DIRECTION('',(0.,-1.,0.));
#242 = PLANE('',#243);
#243 = AXIS2_PLACEMENT_3D('',#244,#245,#246);
#244 = CARTESIAN_POINT('',(-9.25492E-12,-4.693147439775,10.6));
#245 = DIRECTION('',(0.,0.,1.));
#246 = DIRECTION('',(1.,0.,0.));
#247 = ADVANCED_FACE('',(#248),#267,.T.);
#248 = FACE_BOUND('',#249,.F.);
#249 = EDGE_LOOP('',(#250,#251,#252,#260));
#250 = ORIENTED_EDGE('',*,*,#39,.T.);
#251 = ORIENTED_EDGE('',*,*,#188,.T.);
#252 = ORIENTED_EDGE('',*,*,#253,.F.);
#253 = EDGE_CURVE('',#254,#189,#256,.T.);
#254 = VERTEX_POINT('',#255);
#255 = CARTESIAN_POINT('',(-27.,-10.,1.));
#256 = LINE('',#257,#258);
#257 = CARTESIAN_POINT('',(-27.,-10.,0.));
#258 = VECTOR('',#259,1.);
#259 = DIRECTION('',(0.,0.,1.));
#260 = ORIENTED_EDGE('',*,*,#261,.F.);
#261 = EDGE_CURVE('',#40,#254,#262,.T.);
#262 = CIRCLE('',#263,8.);
#263 = AXIS2_PLACEMENT_3D('',#264,#265,#266);
#264 = CARTESIAN_POINT('',(-27.,-2.,1.));
#265 = DIRECTION('',(0.,0.,1.));
#266 = DIRECTION('',(-1.,-1.632E-14,0.));
#267 = CYLINDRICAL_SURFACE('',#268,8.);
#268 = AXIS2_PLACEMENT_3D('',#269,#270,#271);
#269 = CARTESIAN_POINT('',(-27.,-2.,0.));
#270 = DIRECTION('',(-0.,-0.,-1.));
#271 = DIRECTION('',(1.,0.,0.));
#272 = ADVANCED_FACE('',(#273),#309,.F.);
#273 = FACE_BOUND('',#274,.F.);
#274 = EDGE_LOOP('',(#275,#276,#277,#286,#294,#303));
#275 = ORIENTED_EDGE('',*,*,#61,.F.);
#276 = ORIENTED_EDGE('',*,*,#163,.T.);
#277 = ORIENTED_EDGE('',*,*,#278,.T.);
#278 = EDGE_CURVE('',#164,#279,#281,.T.);
#279 = VERTEX_POINT('',#280);
#280 = CARTESIAN_POINT('',(-27.,-9.,0.));
#281 = CIRCLE('',#282,7.);
#282 = AXIS2_PLACEMENT_3D('',#283,#284,#285);
#283 = CARTESIAN_POINT('',(-27.,-2.,0.));
#284 = DIRECTION('',(0.,0.,1.));
#285 = DIRECTION('',(-1.,-1.632E-14,0.));
#286 = ORIENTED_EDGE('',*,*,#287,.T.);
#287 = EDGE_CURVE('',#279,#288,#290,.T.);
#288 = VERTEX_POINT('',#289);
#289 = CARTESIAN_POINT('',(26.999999999997,-9.,0.));
#290 = LINE('',#291,#292);
#291 = CARTESIAN_POINT('',(-27.,-9.,0.));
#292 = VECTOR('',#293,1.);
#293 = DIRECTION('',(1.,0.,0.));
#294 = ORIENTED_EDGE('',*,*,#295,.T.);
#295 = EDGE_CURVE('',#288,#296,#298,.T.);
#296 = VERTEX_POINT('',#297);
#297 = CARTESIAN_POINT('',(33.999999999979,-1.999999999995,0.));
#298 = CIRCLE('',#299,7.);
#299 = AXIS2_PLACEMENT_3D('',#300,#301,#302);
#300 = CARTESIAN_POINT('',(26.999999999979,-1.999999999979,0.));
#301 = DIRECTION('',(-0.,0.,1.));
#302 = DIRECTION('',(2.32969E-12,-1.,0.));
#303 = ORIENTED_EDGE('',*,*,#304,.T.);
#304 = EDGE_CURVE('',#296,#64,#305,.T.);
#305 = LINE('',#306,#307);
#306 = CARTESIAN_POINT('',(34.,-2.,0.));
#307 = VECTOR('',#308,1.);
#308 = DIRECTION('',(0.,1.,0.));
#309 = PLANE('',#310);
#310 = AXIS2_PLACEMENT_3D('',#311,#312,#313);
#311 = CARTESIAN_POINT('',(-9.25492E-12,-4.693147439775,0.));
#312 = DIRECTION('',(0.,0.,1.));
#313 = DIRECTION('',(1.,0.,0.));
#314 = ADVANCED_FACE('',(#315),#333,.F.);
#315 = FACE_BOUND('',#316,.T.);
#316 = EDGE_LOOP('',(#317,#325,#326,#327));
#317 = ORIENTED_EDGE('',*,*,#318,.F.);
#318 = EDGE_CURVE('',#296,#319,#321,.T.);
#319 = VERTEX_POINT('',#320);
#320 = CARTESIAN_POINT('',(34.999999999979,-1.999999999997,1.));
#321 = LINE('',#322,#323);
#322 = CARTESIAN_POINT('',(34.999999999979,-1.999999999997,1.));
#323 = VECTOR('',#324,1.);
#324 = DIRECTION('',(0.707106781187,-1.59149E-12,0.707106781187));
#325 = ORIENTED_EDGE('',*,*,#304,.T.);
#326 = ORIENTED_EDGE('',*,*,#126,.T.);
#327 = ORIENTED_EDGE('',*,*,#328,.F.);
#328 = EDGE_CURVE('',#319,#119,#329,.T.);
#329 = LINE('',#330,#331);
#330 = CARTESIAN_POINT('',(35.,-2.,1.));
#331 = VECTOR('',#332,1.);
#332 = DIRECTION('',(0.,1.,0.));
#333 = PLANE('',#334);
#334 = AXIS2_PLACEMENT_3D('',#335,#336,#337);
#335 = CARTESIAN_POINT('',(34.5,-2.,0.5));
#336 = DIRECTION('',(-0.707106781187,0.,0.707106781187));
#337 = DIRECTION('',(-0.,-1.,-0.));
#338 = ADVANCED_FACE('',(#339),#350,.T.);
#339 = FACE_BOUND('',#340,.T.);
#340 = EDGE_LOOP('',(#341,#342,#343,#349));
#341 = ORIENTED_EDGE('',*,*,#118,.T.);
#342 = ORIENTED_EDGE('',*,*,#214,.T.);
#343 = ORIENTED_EDGE('',*,*,#344,.F.);
#344 = EDGE_CURVE('',#319,#206,#345,.T.);
#345 = LINE('',#346,#347);
#346 = CARTESIAN_POINT('',(34.999999999989,-1.999999999999,0.));
#347 = VECTOR('',#348,1.);
#348 = DIRECTION('',(0.,0.,1.));
#349 = ORIENTED_EDGE('',*,*,#328,.T.);
#350 = PLANE('',#351);
#351 = AXIS2_PLACEMENT_3D('',#352,#353,#354);
#352 = CARTESIAN_POINT('',(35.,0.,0.));
#353 = DIRECTION('',(1.,0.,0.));
#354 = DIRECTION('',(0.,-1.,0.));
#355 = ADVANCED_FACE('',(#356),#374,.F.);
#356 = FACE_BOUND('',#357,.F.);
#357 = EDGE_LOOP('',(#358,#359,#367,#373));
#358 = ORIENTED_EDGE('',*,*,#86,.T.);
#359 = ORIENTED_EDGE('',*,*,#360,.T.);
#360 = EDGE_CURVE('',#87,#361,#363,.T.);
#361 = VERTEX_POINT('',#362);
#362 = CARTESIAN_POINT('',(-12.6,-4.,5.));
#363 = LINE('',#364,#365);
#364 = CARTESIAN_POINT('',(-12.6,0.,5.));
#365 = VECTOR('',#366,1.);
#366 = DIRECTION('',(0.,-1.,0.));
#367 = ORIENTED_EDGE('',*,*,#368,.F.);
#368 = EDGE_CURVE('',#230,#361,#369,.T.);
#369 = LINE('',#370,#371);
#370 = CARTESIAN_POINT('',(-12.6,-4.,10.6));
#371 = VECTOR('',#372,1.);
#372 = DIRECTION('',(-0.,-0.,-1.));
#373 = ORIENTED_EDGE('',*,*,#237,.F.);
#374 = PLANE('',#375);
#375 = AXIS2_PLACEMENT_3D('',#376,#377,#378);
#376 = CARTESIAN_POINT('',(-12.6,0.,10.6));
#377 = DIRECTION('',(-1.,0.,0.));
#378 = DIRECTION('',(0.,-1.,0.));
#379 = ADVANCED_FACE('',(#380),#398,.F.);
#380 = FACE_BOUND('',#381,.F.);
#381 = EDGE_LOOP('',(#382,#390,#396,#397));
#382 = ORIENTED_EDGE('',*,*,#383,.T.);
#383 = EDGE_CURVE('',#222,#384,#386,.T.);
#384 = VERTEX_POINT('',#385);
#385 = CARTESIAN_POINT('',(12.6,-4.,5.));
#386 = LINE('',#387,#388);
#387 = CARTESIAN_POINT('',(12.6,-4.,10.6));
#388 = VECTOR('',#389,1.);
#389 = DIRECTION('',(-0.,-0.,-1.));
#390 = ORIENTED_EDGE('',*,*,#391,.T.);
#391 = EDGE_CURVE('',#384,#95,#392,.T.);
#392 = LINE('',#393,#394);
#393 = CARTESIAN_POINT('',(12.6,-4.,5.));
#394 = VECTOR('',#395,1.);
#395 = DIRECTION('',(0.,1.,0.));
#396 = ORIENTED_EDGE('',*,*,#102,.F.);
#397 = ORIENTED_EDGE('',*,*,#221,.F.);
#398 = PLANE('',#399);
#399 = AXIS2_PLACEMENT_3D('',#400,#401,#402);
#400 = CARTESIAN_POINT('',(12.6,-4.,10.6));
#401 = DIRECTION('',(1.,0.,0.));
#402 = DIRECTION('',(0.,1.,0.));
#403 = ADVANCED_FACE('',(#404),#415,.T.);
#404 = FACE_BOUND('',#405,.T.);
#405 = EDGE_LOOP('',(#406,#407,#413,#414));
#406 = ORIENTED_EDGE('',*,*,#360,.T.);
#407 = ORIENTED_EDGE('',*,*,#408,.T.);
#408 = EDGE_CURVE('',#361,#384,#409,.T.);
#409 = LINE('',#410,#411);
#410 = CARTESIAN_POINT('',(-12.6,-4.,5.));
#411 = VECTOR('',#412,1.);
#412 = DIRECTION('',(1.,0.,0.));
#413 = ORIENTED_EDGE('',*,*,#391,.T.);
#414 = ORIENTED_EDGE('',*,*,#94,.T.);
#415 = PLANE('',#416);
#416 = AXIS2_PLACEMENT_3D('',#417,#418,#419);
#417 = CARTESIAN_POINT('',(0.,-2.,5.));
#418 = DIRECTION('',(0.,0.,1.));
#419 = DIRECTION('',(1.,0.,0.));
#420 = ADVANCED_FACE('',(#421),#440,.F.);
#421 = FACE_BOUND('',#422,.F.);
#422 = EDGE_LOOP('',(#423,#432,#438,#439));
#423 = ORIENTED_EDGE('',*,*,#424,.F.);
#424 = EDGE_CURVE('',#425,#425,#427,.T.);
#425 = VERTEX_POINT('',#426);
#426 = CARTESIAN_POINT('',(-14.68,-7.,5.3));
#427 = CIRCLE('',#428,1.32);
#428 = AXIS2_PLACEMENT_3D('',#429,#430,#431);
#429 = CARTESIAN_POINT('',(-16.,-7.,5.3));
#430 = DIRECTION('',(0.,-1.,2.2E-16));
#431 = DIRECTION('',(1.,0.,0.));
#432 = ORIENTED_EDGE('',*,*,#433,.T.);
#433 = EDGE_CURVE('',#425,#135,#434,.T.);
#434 = LINE('',#435,#436);
#435 = CARTESIAN_POINT('',(-14.68,-10.,5.3));
#436 = VECTOR('',#437,1.);
#437 = DIRECTION('',(0.,1.,-2.2E-16));
#438 = ORIENTED_EDGE('',*,*,#134,.T.);
#439 = ORIENTED_EDGE('',*,*,#433,.F.);
#440 = CYLINDRICAL_SURFACE('',#441,1.32);
#441 = AXIS2_PLACEMENT_3D('',#442,#443,#444);
#442 = CARTESIAN_POINT('',(-16.,-10.,5.3));
#443 = DIRECTION('',(0.,-1.,2.2E-16));
#444 = DIRECTION('',(1.,0.,0.));
#445 = ADVANCED_FACE('',(#446),#465,.F.);
#446 = FACE_BOUND('',#447,.F.);
#447 = EDGE_LOOP('',(#448,#457,#463,#464));
#448 = ORIENTED_EDGE('',*,*,#449,.F.);
#449 = EDGE_CURVE('',#450,#450,#452,.T.);
#450 = VERTEX_POINT('',#451);
#451 = CARTESIAN_POINT('',(17.32,-7.,5.3));
#452 = CIRCLE('',#453,1.32);
#453 = AXIS2_PLACEMENT_3D('',#454,#455,#456);
#454 = CARTESIAN_POINT('',(16.,-7.,5.3));
#455 = DIRECTION('',(0.,-1.,2.2E-16));
#456 = DIRECTION('',(1.,0.,0.));
#457 = ORIENTED_EDGE('',*,*,#458,.T.);
#458 = EDGE_CURVE('',#450,#146,#459,.T.);
#459 = LINE('',#460,#461);
#460 = CARTESIAN_POINT('',(17.32,-10.,5.3));
#461 = VECTOR('',#462,1.);
#462 = DIRECTION('',(0.,1.,-2.2E-16));
#463 = ORIENTED_EDGE('',*,*,#145,.T.);
#464 = ORIENTED_EDGE('',*,*,#458,.F.);
#465 = CYLINDRICAL_SURFACE('',#466,1.32);
#466 = AXIS2_PLACEMENT_3D('',#467,#468,#469);
#467 = CARTESIAN_POINT('',(16.,-10.,5.3));
#468 = DIRECTION('',(0.,-1.,2.2E-16));
#469 = DIRECTION('',(1.,0.,0.));
#470 = ADVANCED_FACE('',(#471),#482,.T.);
#471 = FACE_BOUND('',#472,.T.);
#472 = EDGE_LOOP('',(#473,#474,#475,#481));
#473 = ORIENTED_EDGE('',*,*,#171,.F.);
#474 = ORIENTED_EDGE('',*,*,#278,.T.);
#475 = ORIENTED_EDGE('',*,*,#476,.T.);
#476 = EDGE_CURVE('',#279,#254,#477,.T.);
#477 = LINE('',#478,#479);
#478 = CARTESIAN_POINT('',(-27.,-10.,1.));
#479 = VECTOR('',#480,1.);
#480 = DIRECTION('',(-1.143E-14,-0.707106781187,0.707106781187));
#481 = ORIENTED_EDGE('',*,*,#261,.F.);
#482 = CONICAL_SURFACE('',#483,8.,0.785398163397);
#483 = AXIS2_PLACEMENT_3D('',#484,#485,#486);
#484 = CARTESIAN_POINT('',(-27.,-2.,1.));
#485 = DIRECTION('',(0.,0.,1.));
#486 = DIRECTION('',(-1.,-1.632E-14,0.));
#487 = ADVANCED_FACE('',(#488),#494,.F.);
#488 = FACE_BOUND('',#489,.F.);
#489 = EDGE_LOOP('',(#490,#491,#492,#493));
#490 = ORIENTED_EDGE('',*,*,#368,.T.);
#491 = ORIENTED_EDGE('',*,*,#408,.T.);
#492 = ORIENTED_EDGE('',*,*,#383,.F.);
#493 = ORIENTED_EDGE('',*,*,#229,.F.);
#494 = PLANE('',#495);
#495 = AXIS2_PLACEMENT_3D('',#496,#497,#498);
#496 = CARTESIAN_POINT('',(-12.6,-4.,10.6));
#497 = DIRECTION('',(0.,-1.,0.));
#498 = DIRECTION('',(1.,0.,0.));
#499 = ADVANCED_FACE('',(#500),#519,.T.);
#500 = FACE_BOUND('',#501,.F.);
#501 = EDGE_LOOP('',(#502,#510,#511,#512));
#502 = ORIENTED_EDGE('',*,*,#503,.T.);
#503 = EDGE_CURVE('',#504,#198,#506,.T.);
#504 = VERTEX_POINT('',#505);
#505 = CARTESIAN_POINT('',(26.999999999997,-10.,1.));
#506 = LINE('',#507,#508);
#507 = CARTESIAN_POINT('',(26.999999999997,-9.99999999999,0.));
#508 = VECTOR('',#509,1.);
#509 = DIRECTION('',(0.,0.,1.));
#510 = ORIENTED_EDGE('',*,*,#205,.T.);
#511 = ORIENTED_EDGE('',*,*,#344,.F.);
#512 = ORIENTED_EDGE('',*,*,#513,.F.);
#513 = EDGE_CURVE('',#504,#319,#514,.T.);
#514 = CIRCLE('',#515,8.);
#515 = AXIS2_PLACEMENT_3D('',#516,#517,#518);
#516 = CARTESIAN_POINT('',(26.999999999979,-1.999999999979,1.));
#517 = DIRECTION('',(-0.,0.,1.));
#518 = DIRECTION('',(2.32969E-12,-1.,0.));
#519 = CYLINDRICAL_SURFACE('',#520,8.);
#520 = AXIS2_PLACEMENT_3D('',#521,#522,#523);
#521 = CARTESIAN_POINT('',(26.999999999979,-1.999999999979,0.));
#522 = DIRECTION('',(-0.,-0.,-1.));
#523 = DIRECTION('',(1.,0.,0.));
#524 = ADVANCED_FACE('',(#525,#536,#547),#558,.F.);
#525 = FACE_BOUND('',#526,.F.);
#526 = EDGE_LOOP('',(#527,#528,#529,#530));
#527 = ORIENTED_EDGE('',*,*,#253,.T.);
#528 = ORIENTED_EDGE('',*,*,#197,.T.);
#529 = ORIENTED_EDGE('',*,*,#503,.F.);
#530 = ORIENTED_EDGE('',*,*,#531,.F.);
#531 = EDGE_CURVE('',#254,#504,#532,.T.);
#532 = LINE('',#533,#534);
#533 = CARTESIAN_POINT('',(-27.,-10.,1.));
#534 = VECTOR('',#535,1.);
#535 = DIRECTION('',(1.,0.,0.));
#536 = FACE_BOUND('',#537,.F.);
#537 = EDGE_LOOP('',(#538));
#538 = ORIENTED_EDGE('',*,*,#539,.T.);
#539 = EDGE_CURVE('',#540,#540,#542,.T.);
#540 = VERTEX_POINT('',#541);
#541 = CARTESIAN_POINT('',(-13.,-10.,5.3));
#542 = CIRCLE('',#543,3.);
#543 = AXIS2_PLACEMENT_3D('',#544,#545,#546);
#544 = CARTESIAN_POINT('',(-16.,-10.,5.3));
#545 = DIRECTION('',(0.,-1.,0.));
#546 = DIRECTION('',(1.,0.,0.));
#547 = FACE_BOUND('',#548,.F.);
#548 = EDGE_LOOP('',(#549));
#549 = ORIENTED_EDGE('',*,*,#550,.T.);
#550 = EDGE_CURVE('',#551,#551,#553,.T.);
#551 = VERTEX_POINT('',#552);
#552 = CARTESIAN_POINT('',(19.,-10.,5.3));
#553 = CIRCLE('',#554,3.);
#554 = AXIS2_PLACEMENT_3D('',#555,#556,#557);
#555 = CARTESIAN_POINT('',(16.,-10.,5.3));
#556 = DIRECTION('',(0.,-1.,0.));
#557 = DIRECTION('',(1.,0.,0.));
#558 = PLANE('',#559);
#559 = AXIS2_PLACEMENT_3D('',#560,#561,#562);
#560 = CARTESIAN_POINT('',(-27.,-10.,0.));
#561 = DIRECTION('',(0.,1.,0.));
#562 = DIRECTION('',(1.,0.,0.));
#563 = ADVANCED_FACE('',(#564),#575,.T.);
#564 = FACE_BOUND('',#565,.T.);
#565 = EDGE_LOOP('',(#566,#572,#573,#574));
#566 = ORIENTED_EDGE('',*,*,#567,.F.);
#567 = EDGE_CURVE('',#288,#504,#568,.T.);
#568 = LINE('',#569,#570);
#569 = CARTESIAN_POINT('',(26.999999999997,-9.5,0.5));
#570 = VECTOR('',#571,1.);
#571 = DIRECTION('',(0.,-0.707106781187,0.707106781187));
#572 = ORIENTED_EDGE('',*,*,#295,.T.);
#573 = ORIENTED_EDGE('',*,*,#318,.T.);
#574 = ORIENTED_EDGE('',*,*,#513,.F.);
#575 = CONICAL_SURFACE('',#576,8.,0.785398163397);
#576 = AXIS2_PLACEMENT_3D('',#577,#578,#579);
#577 = CARTESIAN_POINT('',(26.999999999979,-1.999999999979,1.));
#578 = DIRECTION('',(0.,0.,1.));
#579 = DIRECTION('',(2.32969E-12,-1.,0.));
#580 = ADVANCED_FACE('',(#581),#587,.T.);
#581 = FACE_BOUND('',#582,.T.);
#582 = EDGE_LOOP('',(#583,#584,#585,#586));
#583 = ORIENTED_EDGE('',*,*,#476,.F.);
#584 = ORIENTED_EDGE('',*,*,#287,.T.);
#585 = ORIENTED_EDGE('',*,*,#567,.T.);
#586 = ORIENTED_EDGE('',*,*,#531,.F.);
#587 = PLANE('',#588);
#588 = AXIS2_PLACEMENT_3D('',#589,#590,#591);
#589 = CARTESIAN_POINT('',(-27.,-9.5,0.5));
#590 = DIRECTION('',(0.,-0.707106781187,-0.707106781187));
#591 = DIRECTION('',(1.,0.,0.));
#592 = ADVANCED_FACE('',(#593,#604),#607,.F.);
#593 = FACE_BOUND('',#594,.F.);
#594 = EDGE_LOOP('',(#595));
#595 = ORIENTED_EDGE('',*,*,#596,.F.);
#596 = EDGE_CURVE('',#597,#597,#599,.T.);
#597 = VERTEX_POINT('',#598);
#598 = CARTESIAN_POINT('',(-13.,-7.,5.3));
#599 = CIRCLE('',#600,3.);
#600 = AXIS2_PLACEMENT_3D('',#601,#602,#603);
#601 = CARTESIAN_POINT('',(-16.,-7.,5.3));
#602 = DIRECTION('',(0.,-1.,0.));
#603 = DIRECTION('',(1.,0.,0.));
#604 = FACE_BOUND('',#605,.F.);
#605 = EDGE_LOOP('',(#606));
#606 = ORIENTED_EDGE('',*,*,#424,.T.);
#607 = PLANE('',#608);
#608 = AXIS2_PLACEMENT_3D('',#609,#610,#611);
#609 = CARTESIAN_POINT('',(-2.3E-16,-7.,5.3));
#610 = DIRECTION('',(0.,1.,-3.4E-16));
#611 = DIRECTION('',(0.,3.4E-16,1.));
#612 = ADVANCED_FACE('',(#613,#624),#627,.F.);
#613 = FACE_BOUND('',#614,.F.);
#614 = EDGE_LOOP('',(#615));
#615 = ORIENTED_EDGE('',*,*,#616,.F.);
#616 = EDGE_CURVE('',#617,#617,#619,.T.);
#617 = VERTEX_POINT('',#618);
#618 = CARTESIAN_POINT('',(19.,-7.,5.3));
#619 = CIRCLE('',#620,3.);
#620 = AXIS2_PLACEMENT_3D('',#621,#622,#623);
#621 = CARTESIAN_POINT('',(16.,-7.,5.3));
#622 = DIRECTION('',(0.,-1.,0.));
#623 = DIRECTION('',(1.,0.,0.));
#624 = FACE_BOUND('',#625,.F.);
#625 = EDGE_LOOP('',(#626));
#626 = ORIENTED_EDGE('',*,*,#449,.T.);
#627 = PLANE('',#628);
#628 = AXIS2_PLACEMENT_3D('',#629,#630,#631);
#629 = CARTESIAN_POINT('',(-2.3E-16,-7.,5.3));
#630 = DIRECTION('',(0.,1.,-3.4E-16));
#631 = DIRECTION('',(0.,3.4E-16,1.));
#632 = ADVANCED_FACE('',(#633),#644,.F.);
#633 = FACE_BOUND('',#634,.F.);
#634 = EDGE_LOOP('',(#635,#641,#642,#643));
#635 = ORIENTED_EDGE('',*,*,#636,.T.);
#636 = EDGE_CURVE('',#540,#597,#637,.T.);
#637 = LINE('',#638,#639);
#638 = CARTESIAN_POINT('',(-13.,-10.,5.3));
#639 = VECTOR('',#640,1.);
#640 = DIRECTION('',(0.,1.,-2.2E-16));
#641 = ORIENTED_EDGE('',*,*,#596,.T.);
#642 = ORIENTED_EDGE('',*,*,#636,.F.);
#643 = ORIENTED_EDGE('',*,*,#539,.F.);
#644 = CYLINDRICAL_SURFACE('',#645,3.);
#645 = AXIS2_PLACEMENT_3D('',#646,#647,#648);
#646 = CARTESIAN_POINT('',(-16.,-10.,5.3));
#647 = DIRECTION('',(0.,-1.,2.2E-16));
#648 = DIRECTION('',(1.,0.,0.));
#649 = ADVANCED_FACE('',(#650),#661,.F.);
#650 = FACE_BOUND('',#651,.F.);
#651 = EDGE_LOOP('',(#652,#658,#659,#660));
#652 = ORIENTED_EDGE('',*,*,#653,.T.);
#653 = EDGE_CURVE('',#551,#617,#654,.T.);
#654 = LINE('',#655,#656);
#655 = CARTESIAN_POINT('',(19.,-10.,5.3));
#656 = VECTOR('',#657,1.);
#657 = DIRECTION('',(0.,1.,-2.2E-16));
#658 = ORIENTED_EDGE('',*,*,#616,.T.);
#659 = ORIENTED_EDGE('',*,*,#653,.F.);
#660 = ORIENTED_EDGE('',*,*,#550,.F.);
#661 = CYLINDRICAL_SURFACE('',#662,3.);
#662 = AXIS2_PLACEMENT_3D('',#663,#664,#665);
#663 = CARTESIAN_POINT('',(16.,-10.,5.3));
#664 = DIRECTION('',(0.,-1.,2.2E-16));
#665 = DIRECTION('',(1.,0.,0.));
#666 = ( GEOMETRIC_REPRESENTATION_CONTEXT(3) 
GLOBAL_UNCERTAINTY_ASSIGNED_CONTEXT((#670)) GLOBAL_UNIT_ASSIGNED_CONTEXT
((#667,#668,#669)) REPRESENTATION_CONTEXT('Context #1',
  '3D Context with UNIT and UNCERTAINTY') );
#667 = ( LENGTH_UNIT() NAMED_UNIT(*) SI_UNIT(.MILLI.,.METRE.) );
#668 = ( NAMED_UNIT(*) PLANE_ANGLE_UNIT() SI_UNIT($,.RADIAN.) );
#669 = ( NAMED_UNIT(*) SI_UNIT($,.STERADIAN.) SOLID_ANGLE_UNIT() );
#670 = UNCERTAINTY_MEASURE_WITH_UNIT(LENGTH_MEASURE(1.E-07),#667,
  'distance_accuracy_value','confusion accuracy');
#671 = PRODUCT_RELATED_PRODUCT_CATEGORY('part',$,(#7));
#672 = MECHANICAL_DESIGN_GEOMETRIC_PRESENTATION_REPRESENTATION('',(#673)
  ,#666);
#673 = STYLED_ITEM('color',(#674),#15);
#674 = PRESENTATION_STYLE_ASSIGNMENT((#675,#681));
#675 = SURFACE_STYLE_USAGE(.BOTH.,#676);
#676 = SURFACE_SIDE_STYLE('',(#677));
#677 = SURFACE_STYLE_FILL_AREA(#678);
#678 = FILL_AREA_STYLE('',(#679));
#679 = FILL_AREA_STYLE_COLOUR('',#680);
#680 = COLOUR_RGB('',0.678431390124,0.709803936702,0.741176476869);
#681 = CURVE_STYLE('',#682,POSITIVE_LENGTH_MEASURE(0.1),#683);
#682 = DRAUGHTING_PRE_DEFINED_CURVE_FONT('continuous');
#683 = COLOUR_RGB('',9.803921802644E-02,9.803921802644E-02,
  9.803921802644E-02);
ENDSEC;
END-ISO-10303-21;
